<?xml version="1.0" encoding="utf-8"?>
<!-- Generator: Adobe Illustrator 16.0.0, SVG Export Plug-In . SVG Version: 6.00 Build 0)  -->
<!DOCTYPE svg PUBLIC "-//W3C//DTD SVG 1.1//EN" "http://www.w3.org/Graphics/SVG/1.1/DTD/svg11.dtd">
<svg version="1.1" id="Layer_1" xmlns="http://www.w3.org/2000/svg" xmlns:xlink="http://www.w3.org/1999/xlink" x="0px" y="0px"
	 width="251px" height="281px" viewBox="0 0 251 281" enable-background="new 0 0 251 281" xml:space="preserve">
<path fill="#010101" d="M152.2,65c-1.6-1.6-1.9-3.4-1.1-5.1c-0.1-0.6-0.1-1.1,0.1-1.6c0.9-6.1,0.7-10.7-0.4-15
	c-0.7-2.5,0.4-4.5,2.9-5.4c2.1-0.8,3.8-1.8,5.2-3c3.1-2.6,4.4-5.9,4-9.9c-0.9-9.4-11.3-18.7-20.8-18.7c-0.2,0-0.4,0-0.6,0
	c-5.4,0.2-9.7,2.3-12.7,6.1c-1.4,1.8-3.1,2.7-5.2,2.7c-0.6,0-1.1-0.1-1.8-0.2c-11.2-2.2-21.3-3.2-30.9-3.2h-0.3
	c-4.3,0-9.4,0.2-14.2,1.7c-0.6,0.2-1.2,0.3-1.8,0.3c-2.4,0-3.9-1.7-4.4-2.2c-4.4-5.1-10.4-8-16.8-8c-7.6,0-14.7,4.1-19,11.1
	c-3,4.8-2.3,10.3,1.7,14.7c1.9,2.1,3.7,3.6,5.7,4.6c0.5,0.3,2,1.1,2.4,2.8c0.3,1.1,0.1,2.3-0.7,3.5c-0.2,0.4-0.4,0.9-0.3,1.4
	c0.6,5.1-1,8.9-5,12.1c-3.2,2.6-6,6-8.8,10.9c-6.2,10.8-5.2,20.1,3.4,29.1c0.8,0.8,1.6,1.6,2.4,2.5l4.5,4.7l-4.4,1.6
	c-9.4,3.5-14.3,11-18.2,18.6c-6.3,12.3-10.3,22.9-9.9,34.7c0.3,7.3,2.4,13.7,6.2,19.2c8.8,12.6,17.2,20.4,27.4,25.3
	c2.4,1.2,3.2,3.1,2.5,5.7c-1.8,6.2-3,12.2-9.1,16.2c-1.5,1-2.4,2.8-3.4,5.2c-4.7,11.5-7.5,23.3-6.4,35.1c0.2,1.9,1,3.5,2.4,5
	c7.8,7.6,17.6,11.3,29.8,11.3h0c0.5,0,1.1,0,1.6,0c7.7-0.2,15.9-1.8,25.5-5.1c1.1-10.7-5.3-20.3-15.6-23.3c-0.4-0.1-0.9-0.3-1.4-0.4
	l-7.6-2.3l6.1-3.5c0.5-0.3,1.1-0.6,1.6-0.9c1.1-0.6,2.1-1.2,3-1.8c3.8-2.3,6.6-4.6,8.7-7.2c2-2.5,4.4-4.7,6.7-6.7
	c0.5-0.4,0.9-0.8,1.4-1.2c0.4-0.4,1.7-1.5,3.4-1.5c2.3,0,3.5,1.9,3.9,2.5c1.9,3,2.3,5.7,1.2,8.9c-2.1,6-3.9,12.5-3.2,19.2
	c0.3,3.2,1.7,4.1,4.6,5.6c6.6,3.2,13.7,4.7,20.5,6c8.3,1.6,15.6,2.3,22.4,2.3c1.8,0,3.6-0.1,5.4-0.2c4-0.2,7.1,0.2,9.5-2
	c0,0,0.3-0.3,0.3-0.3c0.9-9.6-6.1-21.7-14.8-25.5c-2.8-1.2-5.7-1.9-8.8-2.1l-7.8-0.3l4.3-4.2c2.9-5.3,5.6-11.2,7.4-16.9
	c0.5-1.6,1-3.3,1.5-5c0.6-2,1.2-4.1,1.7-6.1c0.3-1.2,0.6-2.3,0.9-3.5c0,0,0-0.1,0-0.1l0-0.1c0.4-2.2,1.8-3.6,3.9-3.6
	c0.5,0,1,0.1,1.5,0.2c1.6,0.5,3.2,0.7,4.6,0.7c8.8,0,10.8-9,11.2-14.3c1-12.3-4.2-22.5-9.9-31.7c-3-4.8-6.7-9.4-11.3-14.1
	c-1.6-1.6-2.7-3.5-3.7-5.3c-0.5-0.9-1-1.7-1.5-2.4l-1-1.4c-2-2.9-4.1-5.9-6.4-8.8l-2.7-3.3l4-1.5c4.4-1.6,10-3.9,15.2-7.3
	c8.1-5.3,12.1-11.2,12.6-18.7c0.3-4.8-0.6-9.7-2.9-16c-0.1-0.4-0.3-0.7-0.4-1l-0.9-2.1l0.1-2.7"/>
<path fill="#010101" d="M57,276.5c0.5,0,1,0,1.5,0c7.2-0.2,14.7-1.6,23.6-4.6c0.4-9.2-5.3-17.3-14.3-19.9c-0.4-0.1-0.9-0.3-1.4-0.4
	L54.3,248l10.2-5.9c0.6-0.3,1.1-0.6,1.6-0.9c1-0.6,2-1.1,2.9-1.7c3.6-2.2,6.2-4.4,8.2-6.8c2.1-2.6,4.6-4.8,6.9-6.9
	c0.5-0.4,0.9-0.8,1.4-1.2c0.6-0.5,2.2-2,4.8-2c2.3,0,4.2,1.2,5.6,3.5c1.4,2.2,3.1,5.7,1.4,10.7c-2,5.8-3.7,12-3.1,18.3
	c0.2,2.5,1.2,3.8,3.5,4.9c6.3,3.1,13.4,4.5,20,5.8c8.2,1.5,15.4,2.3,22,2.3c1.8,0,3.5-0.1,5.3-0.2c3.5-0.2,6.1-0.7,8-2.2
	c0.4-8.5-6-19.3-13.7-22.7c-2.5-1.1-5.3-1.8-8.1-1.9l-8-0.5l3.8-7c2.8-5.1,4.4-10.6,6.2-16.5c0.5-1.6,1-3.3,1.5-5
	c0.6-1.9,1.1-3.9,1.6-6c0.3-1.1,0.6-2.3,0.9-3.5l0-0.1c0.9-5,5.1-5.3,5.9-5.3c0.7,0,1.3,0.1,2,0.3c1.5,0.4,2.8,0.6,4,0.6
	c6.8,0,8.7-6.8,9.2-12.5c0.9-11.7-4.1-21.6-9.6-30.5c-2.9-4.7-6.5-9.1-11-13.7c-1.8-1.8-3-3.8-4-5.6c-0.5-0.8-1-1.6-1.5-2.3l-1-1.4
	c-2.1-3-4-5.8-6.3-8.6l-4.5-5.5l6.6-2.5c6.3-2.4,10.9-4.6,14.8-7.1c7.6-5,11.2-10.3,11.7-17.2c0.3-4.5-0.5-9.1-2.8-15.1
	c-0.1-0.3-0.3-0.7-0.4-1l-0.2-0.5l-1.1-2.7l1.8-2.3c0.5-0.6,0.9-1.2-0.3-3.3l0,0c-1.6-1.8-2.5-4.3-1.5-6.7c0-0.6,0-1.2,0.2-1.7
	c0.8-5.7,0.7-10.1-0.4-14c-0.7-2.7-0.1-6.2,4.1-7.8c1.9-0.8,3.5-1.6,4.7-2.7c2.6-2.2,3.7-4.8,3.3-8.2c-0.8-8.4-10.3-16.9-18.8-16.9
	c-0.2,0-0.3,0-0.5,0c-4.8,0.2-8.5,1.9-11.2,5.3c-1.8,2.3-4.1,3.5-6.8,3.5c-0.7,0-1.4-0.1-2.2-0.2c-11.1-2.1-21-3.2-30.5-3.2h-0.3
	c-4.1,0-9,0.2-13.6,1.6c-0.8,0.3-1.6,0.4-2.4,0.4c-2.2,0-4.2-1-5.9-2.9C64.8,8,59.4,5.4,53.6,5.4c-6.9,0-13.3,3.8-17.2,10.1
	c-2.5,4-1.9,8.6,1.5,12.3c1.8,1.9,3.4,3.3,5.1,4.2c1.8,1,3,2.3,3.4,4c0.3,1.2,0.4,3-0.9,5.1c0,0,0,0,0,0c0,0,0,0,0,0.1
	c0.7,5.7-1.2,10.4-5.7,13.9c-3,2.4-5.7,5.7-8.3,10.3c-5.8,10.1-4.8,18.3,3.2,26.7c0.8,0.8,1.5,1.6,2.4,2.5l6.6,6.9l-7.3,2.7
	c-8.8,3.2-13.4,10.3-17.1,17.6c-6.1,12-10.1,22.3-9.7,33.7c0.3,6.9,2.2,13,5.9,18.1c8.6,12.3,16.8,19.9,26.6,24.7
	c3.3,1.6,4.6,4.5,3.5,8.1c-1.5,5-3.7,12.6-10.9,17.3c-1.1,0.7-1.9,2.5-2.6,4.2c-4.5,11.2-6.3,22.7-5.2,34.2c0.1,1.5,0.7,2.6,1.8,3.7
	C36,273,45.3,276.5,57,276.5"/>
<path fill="#EABB9A" d="M109.6,121.7c-7.9,0.5-15.7-0.1-23.4-1.8c-1.6-0.3-2.6,0-3.7,1.3c-7.9,9.1-10.9,19.9-9.6,31.5
	c1.5,13.6,5.1,26.8,11.9,38.8c5.4,9.6,13.5,15.2,24.6,16.5c11,1.3,19.8-4.5,23.1-16c4-13.8,2.3-27.1-3.2-40.2
	c-3.6-8.6-8.3-16.5-13-24.5c-0.2-1.7-1.3-2.8-2.3-4.1C112.9,121.5,111.4,121.2,109.6,121.7"/>
<path fill="#AE856A" d="M34,167.8c3.4-2.7,7.2-4.5,11.1-6.1c-2.1-1.2-4.3-2.3-6.8-2.8c-0.3-0.2,0.2-0.5,0-0.2
	c-0.1,0.1,0,0.1,0.2,0.2c0.7,0.3,1.4,0.4,2-0.2c-0.3-0.6-1-0.4-1.4-0.6c-1.2-0.9-2.5-1.2-3.9-1.1c1.5-0.1,2.9,0.7,4.4,0.6l1,0
	c1.2-0.3,1.8-1.2,2.3-2.2c4.7-7.9,7.9-16.3,9.7-25.3c0.4-1.9,0.1-3.8,0.5-5.5c0.3,0.9-0.6,2.1,0.1,3.2c1.5,0.2,0.6-1,1.2-2
	c-1.4,4.1,0,7.3,1,10.6c2.8,8.8,6.7,17.3,10.5,25.7c3.4,7.5,7.1,14.9,8.7,23.1c1.3,6.8,0.7,13.6-0.9,20.2c-0.6,2.7-2.1,5.2-3.8,7.4
	c-3.7,4.9-8,9.4-13.4,12.5c-4.1,2.3-6.6,6-8,10.4c-1.6,5,0.3,7.9,5.5,8.7c5.9-1.4,10.4-5.1,14.9-8.7c5.1-4,9-9,13.6-13.6
	c7.3-7.3,15.8-8.2,25.2-5.1c-1-0.4-2.2-0.6-3.3-1c-1.1-0.3-2.3-0.5-3.5-0.3c-0.8,0.1-2-0.2-1.9,1.2c7.2,2.6,7.2,2.7,6.6,10.6
	c-0.1,1.4-0.3,3,1.6,3.5c2.9,0.6,5.7,1.4,8.8,0.9c7.5-1.1,12-5.7,15.1-12.1c2.8-5.7,3.5-11.9,4.5-18.1c0.7-4.9,1.1-9.9,1.5-14.8
	c0.2-2-0.4-4-0.1-6c0-0.4,0-0.7,0-1.1c-0.6-0.3,0.4-1.6-0.9-1.5c-0.7,5.4-1,10.9-3.1,16c-3.1,7.8-8.1,13.7-16.8,14.7
	c-12.7,1.4-23.2-3-30.7-13.7c-6.4-9.2-9.4-19.8-12.1-30.5c-1.3-5.2-2.4-10.5-2.4-15.9c0-10.8,2.8-20.8,10.4-29
	c0.2-0.2,0.4-0.5,0.8-1c-5.6-1.4-11-3.1-16.2-5.1c-6.4-2.5-12.4-6-18.3-9.5c-1.5-0.8-2.6,0.1-3.6,1c-2.2,1.9-3.4,4.3-4.6,6.9
	c-3,6.9-5.3,14-8.2,20.9c-3,7.4-6.7,14.3-11.9,20.4c-1.7,1.9-1.5,3.4,0.8,5.4c2.6,2.3,5.7,4,8.4,6.1c0.9,0.7,1.9,1.4,2.9,2.1
	C32.2,168,33,168.5,34,167.8"/>
<path fill="#EABB9A" d="M62.3,110.7c5.9,3.1,12.3,5,18.7,6.6c8.3,2.1,16.6,3.5,25.2,3.1c9.1-0.5,17.7-2.9,25.8-7.2
	c1.1-0.6,1.6-1.7,2-2.8c3.8-8.5,3.3-17.1,0.6-25.8c-1-3.2-2.3-6.3-3.8-9.3c-0.7-1.4-1.5-2.7-3.5-2.2c-1.5,0.3-3,0.5-4.5,0.8
	c0.2,0.3,0.3,0.6,0.4,0.7c5.1,4.7,4.6,10-1.5,13.2c-8,4.1-16.2,3.9-24-0.3c-5.9-3.2-6.5-7.9-1.9-13.2c-9-0.4-17.4-2.8-25.3-6.6
	c-2.1,0-2.7,2-4.2,3c-9.6,10.8-13.1,24.7-6.1,37.8C60.7,109.4,61.5,110.1,62.3,110.7"/>
<path fill="#795B46" d="M54.4,244c-5.2-1-6.8-3.5-5.2-8.4c1.4-4.3,4-7.6,8-10c7.5-4.5,13.7-10.6,16.8-18.9c2-5.4,2.2-11.2,1.9-17.1
	c-0.7-10.1-5.2-18.8-9.2-27.7c-4.5-10-9.2-20-11.9-30.7c-0.5-2-0.1-4-0.5-6c-0.7,0.8,0,2-0.9,2.6c-1.1,2.8-1.2,5.8-1.6,8.8
	c-0.1,0.7,0.1,1.3,0.6,1.8c0.9,0.5,0.6,1.4,0.4,2c-1.5,6.2-3,12.4-7.4,17.4c-1.1,1.2-0.2,1.6,0.7,1.9c6.4,2.5,11.9,6.2,17.1,10.6
	c3.4,2.9,6.2,6.2,8.3,10.1c4.7,9,0.2,18.4-10,21.1c-4.5,1.2-9,1.4-13.3-0.3c-1.7-0.7-2,0.2-2.3,1.5c-0.9,4.5-2.3,8.9-4.6,13
	c-0.7,1.3-1.4,2.8-2.5,3.7c-6.1,5-8.1,12-10.1,19c-1.5,5.2-2.3,10.6-2.5,16.1c-0.3,6.3,1.6,11.7,7.6,15.1c7.7,4.3,16,6.6,24.9,6.2
	c2.2-1.1,2-3.3,1.9-5.1c-0.1-3.1-0.1-6.2-1-9.2c-1.7-5.4-5.2-8.9-10.8-10.1c-0.2,0,0.3-0.4,0.2-0.7c1.5-1.1,3.3-0.8,4.9-1.1
	c0.7-0.1,1.5,0,2.3-0.1c1.6-0.1,1.8-1.5,1.8-2.6c0.1-1.4-1.2-0.9-1.9-0.9c-4.6,0.1-8.6-1-12-4.4c5,2.4,10,3.9,15.6,2.3
	c-0.2-0.2-0.4-0.4-0.7-0.5C57.2,243.2,55.8,243.9,54.4,244"/>
<path fill="#795B46" d="M50.7,6.5c-3.7,0.7-7.1,2.2-10.1,4.3c-6.4,4.5-6.9,12.2-1.2,18.4c2.8,3.1,6.4,5.2,10.6,6.2
	c-2,1.9-4.5,3.2-5.3,6.5c2.8-1.2,5.4-2.3,8.2-2.7c5.4-0.8,10.8-0.6,16.2-0.2c7.7,0.6,15.3,1.9,22.9,3.4c7.8,1.5,15.7,3.1,23.5,4.3
	c7.1,1.1,14.3,2.1,21.6,1.7c-2.6-2.4-4.1-5.7-6.1-8.5c-10.4-14.4-24.7-21.5-42.3-22.4c-6.2-0.3-12.1,0.7-18,2.7
	c-2.8,0.9-2.7,0.9-3.9-1.8c-2.3-5.1-5.5-9.3-11-11.2C54.1,6.6,52.4,6.8,50.7,6.5"/>
<path fill="#795B46" d="M67,70.7c1.2-1,2.4-2.1,3.5-3.1c-7.1-3.8-14-7.8-20.4-12.6c-1-0.8-2-1.5-3-2.3c-3-2.4-3.1-2.5-5.9,0
	C35,58.1,30.1,64.6,28.2,72.8c-0.9,3.8-0.6,7.6,1.6,11.2c7.5,12.4,18.7,20.6,31.6,26.6c0.3,0.1,0.7,0.1,1,0.2
	c-0.4-0.7-0.8-1.4-1.2-2.1c-3.4-4.7-4.7-10.1-4.5-15.7c0.2-8.1,3.8-14.9,8.9-21C65.9,71.5,66.3,70.9,67,70.7"/>
<path fill="#785B46" d="M107.1,230.5c-1.3-1-0.9-2.3-0.7-3.7c0.4-3.1,0.9-6.1-2-8.5c-1.6-1.4-3.5-1.4-5.4-1.5
	c-2.8-0.9-6.6,0.4-7.5,2.6c1.8,0,3.3-1.3,5.5-1c-1.7,0.8-3.1,1.5-4.4,2.2c-0.9,0.5-1.2,1-0.3,1.9c1.3,1.2,2.7,2.3,3.6,3.7
	c2.6,4,3.3,8.3,0.8,12.6c-3,5.2-3.3,10.6-2.2,16.3c0.2,1.3,1,2.1,2.1,2.6c8,3.6,16.3,6.2,25.1,7.2c3.8,0.4,7.6,1,11.4,1.5
	c1.2-0.8,1.1-2,1.2-3.1c0.6-9-7-19.8-18.4-19.3c-1.3,0.1-2.5,0-3.8,0.2c-0.3,0,0-0.4-0.1-0.1c1.2,0.1,2.3-0.4,3.4-0.6
	c0.7-0.2,1.7-0.1,1.9-1.2c-0.4-0.1-0.8-0.1-1.8-0.3c3.5-0.7,4.5-3.5,6.3-5.7c-2.4,0.5-4.6,0.5-6.9-0.2c-1.8-0.5-3.5-1.3-5.1-2.2
	c-0.3-0.2-0.8-0.5-0.2-0.9C109.6,231.3,108,231.3,107.1,230.5"/>
<path fill="#961D20" d="M79.7,41.8c-2.6-0.8-5.3-0.9-7.9-1.2c-7.4-0.8-14.8-1.4-22.1,0.2c-1.7,0.4-3.6,0.7-4.5,2.4
	c-0.9,1.9,0,4.1-0.4,6.1c-0.1,0.3,0.4,0.7,0.7,0.9C56.2,57.5,66.6,65.2,79,69.5c5.5,1.9,11.2,3.1,17,3.2c1.8,0,3.5-0.3,5.2-0.9
	c4.6-1.5,9.5-2.1,13.9-0.5c5.6,1.9,10.8,0.5,16.1-0.5c1-0.2,2.1,0.2,2.9-0.7c4.2-2.1,7.7-5.1,11.2-8.1c1.9-1.6,2.7-3.8,2-6.3
	c-0.2-0.8-0.3-1.9-1.6-1.8c-0.9,1.1-0.1,3.1-1.6,3.7c-1.3,0.6-2.4-1-3.7-1.2c-1-0.1-2-0.3-2.9,0.4c-0.6,1.5-0.2,3-0.3,4.5
	c-0.1,2.3-1.1,3.6-3.6,4.5c-3.8,1.4-7.8,1.2-11.7,0.7c-0.3-0.2-0.7-0.3-1.1-0.3c-2.5,0.2-4.8,1.5-7.3,0.9c-1.3-0.2-2.6-0.4-2-2.5
	c1.6,2.2,3.4,1.2,5,0.2c4.5-3,8.9-6.1,13.4-9.1c2.8-1.9,5.7-3.6,8.9-4.8c0.5-0.2,1-0.3,0.9-1c-1.2,0-2.4,0-3.6,0
	c-3.7,1-7.5,1.2-11.2,1.7c-4.7,0.6-9.4,0.5-14.2,0.6c-7.8,0.2-14.8-2.2-21.6-5.7C86,45,82.7,43.6,79.7,41.8"/>
<path fill="#795B46" d="M34,167.8c-1.6,0.2-2.3-1.2-3.4-1.9c-2.8-1.9-5.7-3.9-8.5-6c-3.8-2.8-3.9-3.3-1.1-6.9
	c5.2-6.6,8.9-14.1,11.9-21.8c2.4-6.1,4.7-12.2,7.2-18.3c0.9-2.4,2.1-4.6,3.9-6.4c1.1-1.1,2.2-1.8,3.7-1.9c-0.6-0.9-1.5-1.6-2.5-2
	c-11.6,1.4-18.9,8.5-24.3,18.1c-4.8,8.4-7.8,17.3-9.2,26.9c-1,6.9-0.7,13.7,2.2,20.2c1.1,3.2,3,6,4.4,9c1,2.4,2.9,4,4.5,5.9
	c0.6,0.7,1.2,1,1.5-0.2C25.8,176.4,29.6,171.9,34,167.8"/>
<path fill="#AE856A" d="M50.7,6.5c2.8,1.1,5.9,1.2,8.4,3c3.6,2.7,6,6.1,7.4,10.3c0.6,1.6,1.2,2.1,2.9,1.4c7.3-2.9,14.9-3.7,22.6-3.1
	c8.4,0.7,16,3.8,23.3,7.9c8.4,4.7,14.1,11.8,18.7,20c0.8,1.4,1.8,1.8,3,2.3c0.7,0,1.3,0,2,0c1.9-0.5,3.8,0.1,5.6-0.4l0-0.1
	c0.8-0.8,0.6-1.9,0.5-2.9c-1.6-10.2-7-17.9-15.9-23.1c-7.3-4.3-15.2-6.8-23.8-7.1c-0.2,0,0.2-0.2,0.2-0.3
	c-5.4-0.9-10.9-0.4-16.4-0.3c-5.4,0.1-10.7,0.9-15.9,2.3c-1.3,0.4-1.9,0.1-2.6-1.1C66.2,7.7,59.6,4.8,50.7,6.5"/>
<path fill="#AE856A" d="M51.7,200.7c4.5,0.9,8.8,0.3,12.8-2c1.3-1.6,2.7-3.2,3.5-5.2c2.6-6.2,0-11.3-3.6-16.1
	c-2.4-3.2-5.3-5.8-8.3-8.4c-0.7-0.6-1.5-0.8-2.2-1.1c-4.9,1.4-9.3,3.8-13.2,7.1c-0.2,0.4-0.1,0.9,0.2,1.2c4.1,4.9,5.1,10.9,5.7,16.9
	C46.9,196.4,48.1,199.4,51.7,200.7"/>
<path fill="#AE856A" d="M152.4,13c-6.6-6.1-15.5-6.7-21.1-1.4c-1.1,1-2,2.1-2.5,3.4c-0.6,2-1.7,2.7-3.7,1.9
	c-0.7-0.3-1.5-0.1-2.2-0.2c0,1.1,1,1.1,1.6,1.2c6.3,1.5,11,5.3,15.4,9.8c4,4,9.5,4.2,13.7,0.4c3.6-3.3,3.6-9.1,0-13.2
	C153.1,14.3,152.4,13.9,152.4,13"/>
<path fill="#785B46" d="M127.4,73.1c1.3-0.1,1.9,0.7,2.5,1.7c4.1,8.3,6.9,17,6,26.4c-0.4,4.2-2,8.1-3.8,11.9
	c1.9-0.3,3.5-1.2,5.1-2.3c3.6-2.9,6.4-6.4,8.2-10.7c2.7-6.4,1.6-12.6-0.7-18.7c-1.2-3.1-2.9-5.9-4.9-8.5c-0.6-0.7-1.2-1.5-2.1-1.7
	C134.1,71.6,130.8,72.3,127.4,73.1"/>
<path fill="#AE856A" d="M109.6,121.7c1.9-0.3,3.1,0.6,4,2.1c1.5,0.5,1.7,2.4,3.1,3.1c3.6,4.3,6.3,9.3,9.2,14.1
	c1.9,3.1,4.9,5.1,7.5,7.4c5,4.3,9.2,9.2,11.3,15.7c0.3,0.9,0.5,1.8,1.5,2.2c3.1,0.5,6.2,1,9.5,2.2c-0.4-2.5-1.2-4.5-2.4-6.3
	c-3.1-4.8-6.4-9.5-10.5-13.5c-2.9-2.8-5.9-5.4-9.2-7.6c-1.5-1-2.4-2.2-3-3.9c-1.9-5.4-4.7-10.2-8.3-14.7c-0.9-1.1-1.7-2.3-3.2-2.7
	C116.1,120.4,112.8,121.1,109.6,121.7"/>
<path fill="#FAC39D" d="M152.4,13c-1.2,1,0.2,1.4,0.6,2c1.7,2.4,3.3,5,2.6,8.1c-1,5-6.7,8.3-11.7,7.2c-0.7-0.2-1.2-0.6-1.6-1.1
	c-5.4-5.8-11.4-10.7-19.4-12.5c-5.7-1.1-11.4-2-17.2-2.2c-0.7,0.1-1.3,0.2-2,0.3c6.3,0.7,12.6,2,18.5,4.4
	c11.8,4.8,20.1,12.6,22.2,25.7c0.2,1,0.2,2,0.3,3c4.5-0.2,5.1-1.1,3.9-5.4c-0.1-0.2-0.1-0.3-0.1-0.5c-0.3-1.7-2.3-3.5-1.4-4.7
	c0.8-1.2,3.2-1.3,4.8-1.9c10.2-3.9,11.8-11.8,4-19.4C154.8,14.9,153.6,14,152.4,13"/>
<path fill="#AE856A" d="M48.7,250.8c-0.5,0.7-1.4,0.3-2.2,0.7c8,1.3,12.8,6.9,12.9,14.9c0,2.3,0.7,4.6,0.1,7c-0.3,0.9-0.5,1.7-1,2.5
	c4.5,0.3,8.8-0.1,13.2-1.3c3.4-4.1,3.1-11.4-0.7-15.6c-4.3-4.8-9.9-6.9-15.6-8c1.3-0.1,3,1.1,4.6-0.4
	C56.2,249.7,52.4,250.7,48.7,250.8"/>
<path fill="#CE2028" d="M139.6,50c-7.4,2.5-13.3,7.6-19.8,11.8c-1.5,0.9-2.9,1.9-4.4,2.9c-1.9,1.3-3.3,1.1-4-1.3c-2,3-1.5,4,1.8,4.3
	c2,0.6,3.8-0.3,5.6-1c4-1.5,7.4-4.1,10.7-6.6c1.8-1.3,3.6-2.5,5.6-3.3c2.3-0.9,4.5-0.7,6.6,0.5c2.7,1.4,3.4,1,3.7-2.1
	c0-0.4-0.1-0.8,0.3-1.1c1.9,3.1,1.4,6-1.6,8.3c-2.9,2.2-5.8,4.3-8.7,6.4c-0.5,0.4-0.9,0.9-1.4,1.4c5.5-0.7,10.8-2.4,16.2-3.6
	c0.8-0.2,1.2-0.6,1-1.4c-0.9-5.4-0.8-10.8,0-16.3c0-0.2-0.1-0.5-0.3-0.8C147.3,49.3,143.5,49.8,139.6,50"/>
<path fill="#FCC49D" d="M117.3,242.2c-0.5,0.5-1.2,0.5-1.9,0.6c0.5,1.5,1.8,1,2.7,1c2.8,0.2,5.6-0.1,8.3,0.3
	c8.2,1,12.7,6.3,15.7,13.3c0.9,2.1,1.4,4.3,1.3,6.6c0,0.8,0,1.7,0.7,2.3c1.3-0.1,2.5-0.2,3.8-0.4c5.1-0.9,4.9,0.3,4.1-5.6
	c-1.7-12.3-9.4-19.3-21-19.6C126.5,240.5,121.9,241.2,117.3,242.2"/>
<path fill="#AE856A" d="M144.2,266.3c0.4-7-2.2-12.9-7.1-17.9c-3.6-3.7-8.1-4.9-13-5.3c-2.9-0.2-5.9,0.5-8.7-0.3
	c-1.8,0.3-3.5,0.8-5.6,1.7c4.3,0.4,8.2-0.4,12,1c8.3,3,13.4,12.4,11.2,20.9C136.7,267.2,140.5,266.8,144.2,266.3"/>
<path fill="#785B46" d="M51.7,200.7c-3.9-2.6-4.7-6.6-5-10.7c-0.3-5.8-2.4-10.7-6.1-15.1c-4.6,3.6-7.6,8.2-9.3,13.7
	c-0.2,0.6-0.7,1.3,0.1,1.8c6.1,4.4,12.3,8.5,19.8,10.2C51.3,200.7,51.5,200.7,51.7,200.7"/>
<path fill="#CF2028" d="M79.7,41.8c-0.1,0.2-1.2,0.2-0.4,0.6c7,3.4,13.6,7.8,21.4,9.6c6.8,1.6,13.7,1.1,20.6,0.6
	c4.5-0.3,9-0.8,13.5-1.6c0.6-0.1,1.2-0.2,1.2-1c-14.2-0.6-28.1-2.9-41.9-5.8C89.4,43.3,84.6,42.3,79.7,41.8"/>
<path fill="#AE856A" d="M150.3,197.6c3.6-0.5,5.6-2.9,7-6c1.9-4.5,1.6-9.2,1-13.9c-0.1-1.1-0.9-1.3-1.7-1.6c-2.9-1-5.8-1.9-8.9-1.9
	c-0.9,1-0.8,2.2-0.7,3.3c0.1,3.5-0.2,6.9-1.1,10.2c-0.5,2-0.6,4-0.4,6C145.8,197,147,198,150.3,197.6"/>
<path fill="#FCC49D" d="M59.9,250.6h-6.1c3.5,1.4,7,2.4,10.3,4.1c7.2,3.6,11.5,9.9,7.4,19.1c-0.1,0.2-0.1,0.5-0.1,0.7
	c3.1-0.4,6-1.6,8.9-2.6c1.3-0.4,1.6-1.2,1.7-2.4c0.5-8.5-4.8-15.4-13.8-17.7C65.6,251.1,62.8,250.7,59.9,250.6"/>
<path fill="#785B46" d="M150.3,197.6c-3.3-0.3-4.1-1.1-4.1-4.4c0-1.8,0-3.5,0.5-5.2c1.4-4.5,1-9.1,1-13.7c-3-0.9-5.9,0.1-8.8,0.9
	c-1,0.3-1,1-0.9,1.8c0.7,5.6,1.3,11.1,1.1,16.7c0,0.3,0,0.7,0.2,1C140.8,196.6,147.6,198.5,150.3,197.6"/>
<path fill="#785B46" d="M146.3,166.2c-1.9-6.5-5.5-12-10.5-16.6c-3.2-2.9-6.6-5.7-9.9-8.6c2.3,5.4,5.1,10.6,6.9,16.2
	c1,2.9,1.9,5.9,2.8,8.9c0.4,1.3,0.8,1.9,2.5,1.3C140.7,166.5,143.5,166.2,146.3,166.2"/>
<path fill="#FAC39C" d="M107.1,230.5c0.5,1.2,2,1.4,2.6,2.5c5.5,3.3,10.9,2.8,16.2-0.5c1.4-0.9,2.4-2,3.2-3.5
	c5.2-10.4,8-21.3,8.6-32.9c0.2-5,0.2-10-0.6-15c-0.3,3.1-0.6,6.3-0.9,9.4c-1,9.7-1.6,19.5-5.4,28.7c-3.6,8.7-11.9,14.7-22.6,11.4
	C107.8,230.5,107.4,230.5,107.1,230.5"/>
<path fill="#FAC39C" d="M91.4,219.4c2.1-2,4.9-2.2,7.5-2.6c3.1-1.2,6.1,0.2,9.3,0.5c-3.9-2.8-11-3.4-16.7-1.6
	c-5.9,1.9-9.9,6.2-13.9,10.6c-6.6,7.4-14,13.8-23.3,17.7c1.4,0,2.9,0,4.3,0c4.4-0.7,7.9-3.1,11.1-6c3.4-3,7-5.9,9.8-9.6
	C83.1,224.8,86.7,221.4,91.4,219.4"/>
<path fill="#AE866A" d="M137.6,71.2c4.4,5.4,7.6,11.4,8.5,18.5c0.9,7.3-2,13.2-6.8,18.5c-0.8,0.9-1.9,1.4-2.2,2.7
	c2.3-1.2,4.6-2.5,6.6-4.3c4.4-5.5,6.6-11.7,6.2-18.6c-0.4-6.5-2-12.7-5.7-18.2C142,70,139.8,70.5,137.6,71.2"/>
<path fill="#FAC39D" d="M144.2,69.7c-0.2,1.3,0.7,2.2,1.2,3.3c4.5,10,5.7,20,0.1,30.1c-0.6,1.1-2.2,1.9-1.8,3.5
	c9.5-7.2,12.1-17,7.9-29.2c-0.3-0.8-0.6-1.6-0.9-2.3c-0.7-2.4-0.7-5.2-3.8-6C146,69.2,145.1,69.5,144.2,69.7"/>
<path fill="#F9C19B" d="M119.3,119.8c5.2,5.5,9,11.9,11.4,19.1c0.3,0.9,0.8,1.6,1.7,2.1c8.1,5.2,14.5,12.1,19.8,20.2
	c0.3,0.4,0.3,1.4,1.3,1c-3.8-8.4-9.2-15.4-16.4-21.2c-1.3-1-2.2-2.2-2.8-3.7c-2.6-6.5-6.5-12.1-11.3-17.2
	C121.7,118.8,120.5,119.1,119.3,119.8"/>
<path fill="#F9C29B" d="M14.2,167.7c-4.9-13.5-1.6-26.3,3.4-38.9c3.2-8,7.5-15.5,14.7-20.8c3.3-2.5,7-4.1,11.1-4.5
	c0.7-0.1,1.6,0,1.8-1c-0.9-0.9-1.8-1-3.1-0.6c-9.5,3.1-16.7,9.1-21.9,17.4c-6.6,10.5-10.1,22-10,34.3c0,5.1,1.3,10,3.5,14.6
	C14.1,168.4,14.3,168.2,14.2,167.7"/>
<path fill="#961E1F" d="M29.4,174.9c-2.2,2.6-3.3,5.6-4.2,8.8c-0.3,1.1,2.9,5,4.1,5.1c0.6,0.1,0.7-0.4,0.8-0.7
	c3.9-11.9,13-18.1,24.5-22c-1.8-1.3-3.3-2.7-5.4-3.3c-0.2,1.8,1.5,1.7,2.3,2.8c-4.4,1.3-8.2,3.8-12,6.6c-1.9,1.4-4.3,1.4-6.5,2
	C31.8,174.4,30.6,174.7,29.4,174.9"/>
<path fill="#CE2028" d="M29.4,174.9c0.6,0.8,1.3,0.3,2.1,0.3c5.7-0.4,10.1-3.6,14.6-6.6c2-1.3,4.3-1.8,6.5-2.9
	c-0.7-1.4-2.6-1.5-3.3-2.9c-0.4-0.4-0.8-0.5-1.4-0.3C40.4,164.7,33.9,168.4,29.4,174.9"/>
<path fill="#DAC4B5" d="M53.8,167.8c4.5,3.9,9.1,7.7,12.1,12.9c3.2,5.5,3.4,10.9-0.8,16.1c-0.3,0.4-1.5,0.9-0.7,1.8
	c6.7-3.4,9.1-9.8,6-16.5c-2.8-6.3-7.9-10.6-13.4-14.5C55.9,166.8,54.9,167.4,53.8,167.8"/>
<path fill="#951E1F" d="M157.6,175c0.2-3.8-1.7-5.5-5.2-6.4c-4.7-1.1-9.2-1.3-13.9-0.2c-3,0.7-1.3,2.7-1.2,4.2
	c0.2,1.9,1.5,1.2,2.6,0.9c5-1.3,10-0.9,14.9,0.6C155.6,174.5,156.6,174.7,157.6,175"/>
<path fill="#F5C09A" d="M52.2,138.4c0.3-3.5,0.7-7.1,1-10.6c0-1.5,0-3,0-4.5c-1.7,12.4-5.5,23.9-12.6,34.3c1.7,1.3,2.9,0.5,4-1
	C48.8,151.3,50.9,145,52.2,138.4"/>
<path fill="#E4E5E5" d="M115.6,74.2c-0.2,0-1,0-1.7,0.2c-1.2,0.4-2.4,1-2.6,2.4c-0.3,1.3,0.5,2.3,1.4,3c2.3,1.8,4.9,2.1,7.6,1.2
	c2.6-0.9,2.9-3.3,1-5.1C120,74.8,118.3,74.3,115.6,74.2"/>
<path fill="#806450" d="M79.6,228.4c-3,2.8-6,5.6-9.1,8.3c-3.5,3.1-7.3,5.8-11.9,7.3c0.2,0,0.5,0.1,0.7,0.1
	c7-1.4,12.1-5.6,16.6-10.7C77.4,232,79,230.5,79.6,228.4"/>
<path fill="#D0BBAC" d="M40.5,158.7H38c2.3,1.1,4.3,3,7.1,3.1c0.7-0.1,1.8-0.3,0.5-1.1C44,159.8,42.2,159.3,40.5,158.7"/>
<path fill="#D0A68A" d="M14.2,167.7c-0.2,0.2-0.4,0.4-0.6,0.6c1,3.1,2.7,5.8,4.5,8.4C17.3,173.5,15.5,170.7,14.2,167.7"/>
<path fill="#2B2927" d="M116.7,126.9c-0.8-1.2-1.5-2.6-2.8-3.4c0,0-0.1,0.1-0.2,0.1c0,0.1,0,0.2-0.1,0.2c0.9,1.2,1.7,2.4,2.6,3.6
	C116.4,127.2,116.5,127,116.7,126.9"/>
<path fill="#504843" d="M39.6,157.6c-1.5-0.7-3-1.2-4.8-0.6c1.4,0.4,2.8,0.7,4.3,1.1C39.2,157.9,39.4,157.8,39.6,157.6"/>
<path fill="#756254" d="M136.1,178.4c0.3,0.5,0.6,1,0.9,1.5c-0.2-1.5-0.4-3-0.6-4.9C136,176.4,136,177.4,136.1,178.4"/>
<path fill="#795B46" d="M144.8,48c-1.9,0-3.8-0.4-5.6,0.4C141,48.5,142.9,48.8,144.8,48"/>
<path fill="#8F1E1E" d="M89.9,99.9c2.6,0.4,3.8-2.6,6.2-2.5c0.8-0.7-0.2-0.7-0.4-0.8c-1-0.2-1.8-0.7-2.8-1c-2.3,0.1-4.5,0.2-6.8-0.2
	C80,94.3,76.1,90.7,73.9,85c-0.4-0.6-0.9-1.1-1.7-0.8c-0.8,0.3-0.7,1.1-0.7,1.7c0.4,9.3,5.9,15.4,16.1,14
	C88.4,99.9,89.2,99.6,89.9,99.9"/>
<path fill="#030303" d="M89.9,99.9c-2.2-1.1-4.5,0.2-6.9-0.3c-5.5-1.1-9.7-4.9-10.4-10.5c-0.2-1.2-0.6-2.5-0.4-3.7
	c0.2-1.7,0.9-0.9,1.4-0.1c3.7,4,8.5,6.3,13.2,8.7c1.9,1,3.7,2.4,6.1,2c1.1,0.4,2.2,0.9,3.3,1.3c2.2,0.2,4.3,1.6,7.1,0.9
	c-12.4-2.9-22.4-9.5-32.2-17c-0.6,4.1-0.3,7.9,1.2,11.4c2.5,6,8.2,8.8,15.2,7.6C88.3,100.3,89.1,100.1,89.9,99.9"/>
<path fill="#040404" d="M67,70.7c-0.4-0.7-0.7-0.1-0.9,0.1c-6.3,6.4-10.2,14-10.2,23.1c0,4.9,1.5,9.6,4.1,13.8
	c0.3,0.4,0.5,0.9,1.1,0.9c-6.7-13-4.1-24.8,4.4-35.9C65.9,72,66.5,71.4,67,70.7"/>
<path fill="#9C8A7D" d="M111.6,98.7c-2.6,0.1-5.2-0.7-8.4,0.6C106.4,99.5,109,100,111.6,98.7"/>
<path fill="#CF2028" d="M63.9,50.5c5,0,9.8,1.1,14.4,3.3c6.7,3.2,13,7,19.4,10.8c0.4,0.2,0.7,0.5,1.1,0.7c3,1.6,3.9,1.2,5-2
	c0.5-1.6,0.2-3.2,0.3-4.8c0-0.9-0.6-1.3-1.4-1.5c-7.6-2.7-14.3-7.2-21.2-11.1c-5.8-3.3-12-4.9-18.6-4.5c-2.2,0.1-2.9,2.1-4.4,3.1
	c-1.9,1.5-1.1,2.8,0.2,4.1C60.2,49.5,61.6,51.2,63.9,50.5"/>
<path fill="#060707" d="M63.9,50.5c-1.8-0.3-3.4-1.2-5-2.1c-0.5-0.2-0.7,0-0.5,0.5c0.2,0.2,0.4,0.3,0.6,0.5c1.5,1.2,3.8,1.5,5.1,2.7
	c1.3,1.3-0.1,3.6,0.5,5.3c1.2,3.5,3.5,6.2,7,7.6c6.2,2.5,12.5,2.3,18.6-0.4c1.1-0.5,1.6,0.1,2.3,0.4c2.5,1.1,4.9,2.5,7.8,2.6
	c-6-2.3-11.3-5.9-16.7-9.3c-5.2-3.3-10.7-5.6-16.8-6.7C65.7,51.3,64.7,51.1,63.9,50.5"/>
<path fill="#040404" d="M145.8,54c-0.6-0.3-0.5,0.2-0.5,0.5c-0.4,3.5-0.6,3.6-3.5,2.1c-3.9-2.1-7.4-0.8-10.6,1.6
	c-3.3,2.4-6.6,5-10.2,7c-2.4,1.3-4.8,2.5-7.6,2.6c2.7,1,5.1-0.3,7.6-1c1.1-0.4,2.2-1.1,3.6-0.9c2.8,0.3,4.7-0.9,5.7-3.5
	c0.3-0.7,0.5-1.4,1.4-1.6c-0.2,3.5-2.7,5.5-7,5.3c-1.4-0.1-2.5,0-3.3,1.2c5,1,9.9,1.2,14.4-1.5c1.4-0.8,2.9-2.1,2-4.3
	c-1.8,1.8-3.4,3.9-5.8,4.3c1.3-0.9,2.2-2.7,2.1-4.5c-0.1-2.1,0.7-3.1,2.6-3.5c0.4-0.1,0.7-0.4,1.1-0.6c1.6-0.4,3,0,4.3,0.8
	c2.1,1.2,3.2,0.6,3.6-1.8C145.8,55.5,145.7,54.8,145.8,54"/>
<path fill="#FAFAFA" d="M137.7,57.2c-3.4,0.1-3.9,0.6-4.2,3.7c-0.2,2.3-1.4,4.1-3.4,5.7c3.6-0.5,6.5-1.7,7.6-5.2
	C137.7,60,137.7,58.6,137.7,57.2"/>
<path fill="#3E9C93" d="M121.3,67.2c1.1-0.6,2.1-0.8,3.4-0.7c5.1,0.4,8.1-2.5,7.6-7.3c-1.4,0.9-2.6,1.5-3,3.4
	c-0.4,1.8-2,2.7-3.9,2.5c-1.8-0.1-3.3,0.4-4.6,1.6C121,66.9,121.2,67,121.3,67.2"/>
<path fill="#382A26" d="M58.4,49c0.2-0.2,0.3-0.3,0.5-0.5c-1.1-1.2-1.7-2.5-0.5-4c-1.2,0.4-1.4,0.4-1.5,1.2C56.6,47,57,48.2,58.4,49
	"/>
<path fill="#FDFDFC" d="M92.9,96.1c-6.5-2.3-12.2-5.9-17.8-9.8c-0.5-0.3-1-0.6-1.5-0.9C75.8,93.9,85.4,97.8,92.9,96.1"/>
<path fill="#FAFAFA" d="M89.5,63.6c-1.1-0.6-2-1.1-2.8-1.7c-2.2-1.6-3.9-2.9-6.5,0.1c-2.5,2.8-6.2,2.2-9.5,0.6
	c-3.1-1.5-4-4.3-3.8-7.6c0-0.7,1-1.9-0.4-2.1c-1.6-0.2-1.3,1.4-1.3,2.2c-0.1,2.8,1.2,5,3.2,6.8C73.3,66.4,83.3,67.2,89.5,63.6"/>
<path fill="#39A197" d="M70.9,56.4c0-0.9,0.7-1.9-0.6-2.2c-0.7-0.2-1.6-0.9-2.1-0.4c-0.6,0.6-0.7,1.6-0.6,2.6
	c0.4,2.8,1.7,4.8,4.5,5.8c3,1.1,5.8,0.7,8.2-1.4c0.6-0.5,1.7-1.2,0.6-2.2c-0.9-0.9-1.7-0.6-2.4,0.5c-1.2,1.8-2.9,2.6-5,1.7
	C71.5,60.1,70.5,58.5,70.9,56.4"/>
</svg>
