<?xml version="1.0" encoding="utf-8"?>
<!-- Generator: Adobe Illustrator 16.0.0, SVG Export Plug-In . SVG Version: 6.00 Build 0)  -->
<!DOCTYPE svg PUBLIC "-//W3C//DTD SVG 1.1//EN" "http://www.w3.org/Graphics/SVG/1.1/DTD/svg11.dtd">
<svg version="1.1" id="Layer_1" xmlns="http://www.w3.org/2000/svg" xmlns:xlink="http://www.w3.org/1999/xlink" x="0px" y="0px"
	 width="180.5px" height="90.8px" viewBox="0 0 180.5 90.8" enable-background="new 0 0 180.5 90.8" xml:space="preserve">
<g>
	
		<image overflow="visible" opacity="0.75" enable-background="new    " width="771" height="388" xlink:href="images/shadow.png"  transform="matrix(0.2341 0 0 0.2341 0 0)">
	</image>
	<g>
		<g>
			<g>
				<path fill="#181818" d="M28.5,65c3.1-3.6,5.9-6.8,8.5-10.2c1.4-1.9,3-2.7,5.3-2.4c2.1,0.2,4.2,0,6.6,0c-1.6,1.9-3,3.4-4.4,5
					c-2,2.3-4,4.6-6,6.8c-0.6,0.7-0.6,1.2-0.2,2.1c1.9,3.7,4.1,7.1,6.3,10.6c1.8,3,3.7,5.9,5.7,9.2c-3.4,0-6.4,0-9.5,0
					c-0.7,0-0.8-0.6-1.1-1.1c-2.4-4.4-4.8-8.7-7.1-13.1c-0.6-1.1-0.7-1.1-1.6-0.2c-2.2,2-2.8,4.4-2.5,7.3c0.2,1.9,0,3.8,0.1,5.8
					c0,1-0.2,1.4-1.3,1.4c-1.9-0.1-3.7-0.1-5.6,0c-1,0-1.2-0.4-1.2-1.3c0-14.9,0-29.8,0-44.7c0-1.1,0.4-1.3,1.4-1.3
					c1.6,0.1,3.2,0.1,4.9,0c1.4-0.1,1.8,0.3,1.8,1.8c-0.1,7.6-0.1,15.3-0.2,22.9C28.4,63.9,28.4,64.2,28.5,65z"/>
				<path fill="#181818" d="M65.4,56.7c1.9-2.9,4-4.7,7.2-5.2c6.2-0.9,11.4,3.3,11.9,10.1c0.4,4.8,0.1,9.6,0.2,14.4
					c0,2.9,0,5.9,0.1,8.8c0,1-0.3,1.4-1.3,1.3c-1.8-0.1-3.6-0.1-5.4,0c-1.2,0.1-1.5-0.4-1.5-1.5c0.1-6.3,0.1-12.6,0.1-18.9
					c0-0.9,0-1.8-0.3-2.7c-0.6-1.9-1.8-3.3-3.8-3.7c-2.1-0.4-3.9,0.2-5.3,1.9c-1.1,1.4-1.8,3-1.8,4.8c0,6.1-0.1,12.2,0,18.4
					c0,1.5-0.4,1.9-1.8,1.8c-1.6-0.1-3.2-0.1-4.9,0c-1.1,0.1-1.6-0.2-1.6-1.5c0.1-10.3,0-20.7,0-31c0-1,0.2-1.4,1.3-1.4
					c1.8,0,3.6,0,5.5,0.1c1,0,1.3,0.3,1.2,1.2C65,54.5,64.9,55.4,65.4,56.7z"/>
				<path fill="#181818" d="M122.6,69.3c-0.3,6-2.2,11.4-7.2,15c-6.1,4.5-15.1,3.9-20.3-2.4c-5.1-6.2-5.7-16-1.6-22.9
					c3.3-5.4,8.2-8,14.5-7.5c6.4,0.5,10.7,4.2,13.1,10C122.2,64,122.7,66.6,122.6,69.3z M114.4,68.9c0.2-1.1-0.3-2.6-0.5-4
					c-0.6-3.6-3.3-6.3-6.4-6.6c-4.1-0.4-6.8,2.4-7.7,5.4c-1.1,3.6-1.2,7.6,0,11.2c2,6.4,8.1,7.1,12,3.2
					C113.9,75.7,114.3,72.5,114.4,68.9z"/>
				<path fill="#181818" d="M125,86.8c2.8-4.6,5.4-8.8,8.1-13.1c0.9-1.5,1.8-2.9,2.8-4.4c0.4-0.6,0.4-1,0-1.6
					c-2.9-4.6-5.8-9.2-8.6-13.8c-0.3-0.4-0.9-0.8-0.5-1.4c0.3-0.4,0.9-0.2,1.4-0.1c2.1,0.1,4.7-0.7,6.3,0.4c1.6,1.1,2.4,3.4,3.5,5.2
					c2,3.2,3.8,6.4,5.9,9.5c0.7,1.1,0.5,1.9,0,2.7c-3.5,4.7-6.3,9.9-9.4,14.9c-0.9,1.4-1.8,2-3.4,1.9
					C129.1,86.7,127.2,86.8,125,86.8z"/>
				<path fill="#181818" d="M150.8,86.8c-2.3,0.7-4-0.6-5.3-3.1c-1.2-2.3-2.8-4.5-4.3-6.6c-0.4-0.5-0.3-0.8,0-1.2c1-1.6,2-3.3,3-4.9
					c0.6-0.9,1-0.9,1.6,0.1c3,4.9,6,9.8,9.1,14.6c0.5,0.9,0.6,1.3-0.6,1.2C153.4,86.8,152.4,86.8,150.8,86.8z"/>
				<path fill="#181818" d="M154.6,52.4c-1.7,2.7-3.2,5.1-4.7,7.5c-1.3,2.1-2.6,4.2-3.9,6.3c-0.5,0.9-0.9,1.2-1.6,0
					c-1-1.7-2.1-3.3-3.1-4.9c-0.2-0.3-0.5-0.5-0.1-0.9c1.9-2.2,3.1-4.8,4.7-7.2c0.3-0.4,0.5-0.9,1-0.9
					C149.4,52.4,151.8,52.4,154.6,52.4z"/>
			</g>
			<g>
				<path fill="#44AB56" d="M149.6,41c2.7-4,5.2-7.8,8.2-12.1c-2.3,0-4.2,0-6,0c-1.1,0-2,0-2-1.5c0-1.6,0.8-1.9,2.1-1.8
					c1.5,0,3-0.2,4.4,0c3.2,0.4,5.2-0.8,6.2-4.3c-2,0-3.8,0-5.7,0c-1.2,0-1.9-0.3-1.9-1.7c0-1.4,0.8-1.7,2-1.6c1.2,0,2.5-0.2,3.7,0
					c3.7,0.6,6-0.9,7.2-4.5c-0.6-0.9-1.6-0.4-2.4-0.4c-4.9-0.1-9.8,0.4-14.6-0.1c-5.8-0.7-9.3,1.3-11.4,6.7c-0.9,2.3-2.2,4.5-4,6.2
					c-3.8,3.7-19.2,4.3-23.2,0.9c-1.6-1.3-2.6-3.1-3.2-5.1c-1.2-3.9-2.6-7.7-3.7-11.6c-0.5-1.6-1.2-2.4-3-2.4
					c-7.4,0.1-14.7,0.1-22.1,0c-1.9,0-2.6,0.7-3,2.4c-1.1,3.8-2.4,7.6-3.6,11.3c-1.8,5.3-4.4,7.3-10,7.3c-3.1,0-6.1,0-9.2,0
					c-4,0.1-6.9-1.7-9.1-5c-0.2-0.3-0.3-0.6-0.5-0.9c-2.1-3.2-3-7.9-6.2-9.4C35.3,12,30.9,13,27.1,13c-4.2,0-8.3,0-12.7,0
					c1.3,3.6,3.1,5.6,7,4.9c1.1-0.2,2.3,0,3.4,0c1.3-0.1,1.8,0.5,1.8,1.8c0,1.2-0.6,1.6-1.7,1.5c-1.6,0-3.2,0-5,0
					c0.9,3.1,2.4,4.9,5.8,4.4c1.4-0.2,2.9,0,4.4,0c1.1,0,1.6,0.4,1.7,1.6c0.1,1.4-0.5,1.8-1.8,1.8c-1.6,0-3.1,0-4.9,0
					c0.2,2.2,2.3,3.4,2.7,5.4c-4.5,1.1-7.8,0.4-10.4-4.1c-3.8-6.6-8.3-12.7-12.5-19C4.3,10.4,3.5,9.5,4,8.4c0.5-1.2,1.8-0.8,2.7-0.8
					c10.6,0,21.3,0,31.9,0c2.4,0,4.1,1,5.3,3c1.7,3,3.5,6.1,5.3,9.1c0.5,0.9,1.1,1.8,1.8,2.4c1.6,1.4,13.7,1.8,15.5,0.5
					c1.1-0.8,1.4-2,1.8-3.2c1.5-4.7,3.1-9.4,4.5-14.2c0.6-2.1,1.7-2.9,3.9-2.9c9.6,0.1,19.2,0,28.9,0c2,0,3.1,0.7,3.7,2.7
					c1.4,4.8,3.1,9.5,4.5,14.2c0.8,2.8,2.3,4.1,5.3,4c13.9-0.3,10.9,1.9,17.6-9.9c2.4-4.3,5.2-6.1,10.2-5.9c9.5,0.4,19,0.1,28.5,0.1
					c1,0,2.2-0.4,2.8,0.6c0.7,1.2-0.3,2.1-0.9,3c-5.7,8.5-11.7,16.7-16.9,25.4C157.8,41.2,154.7,42,149.6,41z"/>
				<path fill="#44AB56" d="M90.5,35.9c-2.6,0.5-3.4-0.3-2.8-3.1c0.6-3,2.2-6.2-0.2-9.3c-0.8-1,0.1-2.4,1.2-3.2
					c1.1-0.8,2.3-0.8,3.5-0.1c1.1,0.7,2,2.2,1.3,3.1c-2.3,3.1-0.9,6.3-0.3,9.3C93.7,35.4,93.3,36.5,90.5,35.9z"/>
				<path fill="#44AB56" d="M37.6,28.9c-1.4,0.2-1.7-0.6-1.7-1.8c0-1.5,0.9-1.5,2-1.5c1.3,0,1.4,0.7,1.5,1.7
					C39.5,28.6,38.8,29,37.6,28.9z"/>
				<path fill="#44AB56" d="M145.6,27.2c0.2,1.4-0.6,1.7-1.8,1.7c-1.1,0-1.7-0.3-1.6-1.5c0-1.2,0.3-1.9,1.7-1.9
					C145.1,25.5,145.7,25.9,145.6,27.2z"/>
				<path fill="#44AB56" d="M34.1,19.5c0.1,1.3-0.6,1.7-1.8,1.7c-1.2,0-1.5-0.6-1.5-1.6c0-1,0.2-1.7,1.5-1.7
					C33.4,17.9,34.2,18.1,34.1,19.5z"/>
				<path fill="#44AB56" d="M150.8,19.6c0.2,1.4-0.6,1.7-1.8,1.6c-1.1,0-1.6-0.4-1.6-1.6c0-1.3,0.4-1.8,1.7-1.8
					C150.4,17.8,151,18.3,150.8,19.6z"/>
			</g>
		</g>
	</g>
</g>
</svg>
