<?xml version="1.0" encoding="utf-8"?>
<!-- Generator: Adobe Illustrator 16.0.0, SVG Export Plug-In . SVG Version: 6.00 Build 0)  -->
<!DOCTYPE svg PUBLIC "-//W3C//DTD SVG 1.1//EN" "http://www.w3.org/Graphics/SVG/1.1/DTD/svg11.dtd">
<svg version="1.1" id="Layer_1" xmlns="http://www.w3.org/2000/svg" xmlns:xlink="http://www.w3.org/1999/xlink" x="0px" y="0px"
	 width="338px" height="233px" viewBox="0 0 332.098 237.654" enable-background="new 0 0 332.098 237.654"
	 xml:space="preserve">
<g>
	<g>
		
			<image overflow="visible" opacity="0.75" width="767" height="386" xlink:href="shadow.png"  transform="matrix(0.24 0 0 0.24 147.2715 143.6475)">
		</image>
		<g>
			<g>
				<g>
					<path fill-rule="evenodd" clip-rule="evenodd" fill="#171717" d="M176.327,209.967c3.114-3.7,6.05-6.93,8.667-10.399
						c1.454-1.928,3.017-2.713,5.389-2.486c2.106,0.201,4.248,0.043,6.762,0.043c-1.651,1.887-3.075,3.514-4.498,5.141
						c-2.036,2.329-4.047,4.682-6.124,6.973c-0.649,0.717-0.623,1.248-0.198,2.094c1.89,3.759,4.222,7.248,6.411,10.824
						c1.854,3.028,3.759,6.027,5.838,9.354c-3.468,0-6.563,0.01-9.66-0.007c-0.67-0.004-0.864-0.598-1.126-1.076
						c-2.434-4.445-4.901-8.873-7.276-13.35c-0.575-1.086-0.681-1.084-1.65-0.206c-2.28,2.067-2.865,4.493-2.594,7.402
						c0.183,1.944,0.021,3.919,0.092,5.878c0.035,0.985-0.194,1.453-1.306,1.406c-1.896-0.078-3.799-0.072-5.695,0.006
						c-1.027,0.042-1.21-0.387-1.209-1.292c0.023-15.192,0.029-30.385,0-45.577c-0.002-1.104,0.407-1.348,1.407-1.303
						c1.65,0.072,3.314,0.127,4.958-0.002c1.459-0.114,1.881,0.33,1.858,1.82c-0.116,7.778-0.118,15.559-0.156,23.339
						C176.214,208.842,176.259,209.135,176.327,209.967z"/>
					<path fill-rule="evenodd" clip-rule="evenodd" fill="#171717" d="M213.932,201.487c1.89-2.957,4.105-4.818,7.312-5.26
						c6.353-0.876,11.616,3.375,12.139,10.291c0.367,4.872,0.143,9.789,0.18,14.687c0.024,3,0.01,6.002,0.083,9.001
						c0.025,1.039-0.294,1.399-1.36,1.351c-1.833-0.085-3.677-0.099-5.508,0.005c-1.256,0.072-1.52-0.401-1.509-1.568
						c0.063-6.43,0.06-12.859,0.052-19.289c-0.001-0.91-0.014-1.86-0.265-2.72c-0.569-1.94-1.79-3.368-3.868-3.751
						c-2.143-0.395-4.019,0.232-5.43,1.928c-1.166,1.398-1.842,3.04-1.853,4.877c-0.035,6.246-0.086,12.492-0.005,18.736
						c0.02,1.508-0.449,1.888-1.859,1.786c-1.645-0.118-3.308-0.087-4.957-0.003c-1.152,0.058-1.604-0.223-1.598-1.504
						c0.054-10.532,0.048-21.065,0.017-31.598c-0.003-1.025,0.256-1.404,1.327-1.389c1.881,0.026,3.645-0.008,5.648,0.059
						c0.984,0.033,1.279,0.309,1.206,1.266C213.618,199.267,213.43,200.179,213.932,201.487z"/>
					<path fill-rule="evenodd" clip-rule="evenodd" fill="#171717" d="M272.338,214.356c-0.355,6.094-2.214,11.578-7.301,15.321
						c-6.184,4.55-15.362,4.01-20.702-2.487c-5.229-6.361-5.864-16.359-1.602-23.375c3.368-5.545,8.374-8.139,14.811-7.607
						c6.564,0.541,10.905,4.241,13.336,10.24C271.898,208.96,272.398,211.608,272.338,214.356z M263.945,213.964
						c0.192-1.127-0.271-2.609-0.51-4.101c-0.585-3.648-3.388-6.42-6.552-6.729c-4.175-0.408-6.939,2.439-7.876,5.482
						c-1.132,3.676-1.21,7.73-0.038,11.379c2.083,6.488,8.29,7.275,12.199,3.277C263.483,220.904,263.9,217.628,263.945,213.964z"/>
					<path fill-rule="evenodd" clip-rule="evenodd" fill="#171717" d="M274.752,232.206c2.87-4.652,5.557-9.012,8.249-13.367
						c0.929-1.502,1.851-3.008,2.815-4.486c0.382-0.584,0.379-1.004-0.02-1.63c-2.962-4.665-5.872-9.364-8.777-14.065
						c-0.266-0.43-0.908-0.85-0.527-1.412c0.29-0.43,0.917-0.178,1.383-0.149c2.189,0.132,4.751-0.758,6.468,0.374
						c1.632,1.075,2.422,3.44,3.554,5.256c2.009,3.223,3.915,6.512,6.039,9.656c0.738,1.096,0.537,1.971-0.05,2.757
						c-3.594,4.815-6.384,10.134-9.587,15.192c-0.903,1.426-1.824,2.042-3.501,1.909
						C278.916,232.091,277.011,232.206,274.752,232.206z"/>
					<path fill-rule="evenodd" clip-rule="evenodd" fill="#171717" d="M301.096,232.229c-2.392,0.713-4.065-0.6-5.369-3.17
						c-1.206-2.379-2.844-4.544-4.363-6.754c-0.357-0.52-0.279-0.814,0.007-1.269c1.052-1.671,2.06-3.368,3.1-5.046
						c0.565-0.912,1.011-0.945,1.627,0.064c3.055,5.006,6.163,9.977,9.28,14.941c0.548,0.873,0.589,1.301-0.63,1.242
						C303.71,232.19,302.668,232.229,301.096,232.229z"/>
					<path fill-rule="evenodd" clip-rule="evenodd" fill="#171717" d="M304.959,197.116c-1.705,2.727-3.252,5.187-4.786,7.654
						c-1.323,2.129-2.64,4.262-3.944,6.402c-0.529,0.869-0.935,1.214-1.608,0.047c-0.981-1.703-2.111-3.322-3.192-4.969
						c-0.197-0.301-0.482-0.504-0.128-0.924c1.903-2.246,3.144-4.93,4.799-7.342c0.272-0.396,0.462-0.873,1.07-0.871
						C299.657,197.12,302.143,197.116,304.959,197.116z"/>
				</g>
				<g>
					<path fill-rule="evenodd" clip-rule="evenodd" fill="#43AA57" d="M299.896,185.431c2.764-4.109,5.325-7.916,8.314-12.357
						c-2.39,0-4.262-0.004-6.131,0c-1.079,0.004-2.071,0.045-2.09-1.543c-0.021-1.637,0.854-1.91,2.187-1.871
						c1.499,0.045,3.024-0.158,4.498,0.042c3.266,0.444,5.264-0.854,6.289-4.437c-2.005,0-3.894-0.034-5.78,0.012
						c-1.244,0.029-1.949-0.332-1.94-1.742c0.009-1.475,0.85-1.684,2.027-1.65c1.27,0.035,2.567-0.162,3.806,0.037
						c3.762,0.603,6.167-0.873,7.335-4.578c-0.587-0.91-1.6-0.404-2.41-0.413c-4.964-0.055-9.986,0.446-14.879-0.147
						c-5.938-0.721-9.503,1.349-11.648,6.824c-0.908,2.316-2.245,4.562-4.118,6.354c-3.89,3.724-19.54,4.365-23.698,0.956
						c-1.661-1.361-2.631-3.169-3.272-5.195c-1.252-3.959-2.619-7.883-3.788-11.865c-0.491-1.672-1.176-2.454-3.082-2.426
						c-7.505,0.111-15.013,0.11-22.516,0c-1.899-0.027-2.601,0.734-3.089,2.417c-1.123,3.876-2.401,7.708-3.673,11.54
						c-1.808,5.447-4.537,7.445-10.197,7.496c-3.118,0.027-6.235-0.027-9.353,0.013c-4.06,0.051-7.064-1.772-9.273-5.073
						c-0.192-0.287-0.349-0.6-0.537-0.889c-2.135-3.261-3.058-8.08-6.355-9.587c-3.26-1.49-7.698-0.42-11.62-0.439
						c-4.247-0.021-8.494-0.005-12.984-0.005c1.28,3.652,3.207,5.719,7.152,5.018c1.118-0.2,2.308,0.024,3.458-0.043
						c1.348-0.078,1.868,0.504,1.832,1.824c-0.033,1.197-0.604,1.605-1.734,1.573c-1.61-0.046-3.222-0.013-5.063-0.013
						c0.948,3.148,2.479,4.957,5.925,4.441c1.467-0.22,2.995-0.016,4.496-0.033c1.119-0.014,1.66,0.432,1.71,1.623
						c0.058,1.385-0.558,1.83-1.843,1.789c-1.599-0.051-3.202-0.012-5.013-0.012c0.213,2.289,2.373,3.474,2.75,5.54
						c-4.608,1.072-7.987,0.423-10.62-4.183c-3.828-6.697-8.473-12.929-12.764-19.361c-0.569-0.854-1.39-1.711-0.901-2.821
						c0.546-1.249,1.799-0.788,2.76-0.791c10.854-0.032,21.708,0.004,32.562-0.037c2.456-0.01,4.163,0.992,5.366,3.098
						c1.772,3.106,3.598,6.183,5.446,9.245c0.532,0.877,1.11,1.785,1.866,2.455c1.65,1.465,14,1.796,15.857,0.541
						c1.148-0.776,1.479-2.019,1.869-3.221c1.563-4.828,3.207-9.633,4.623-14.504c0.625-2.15,1.77-2.973,3.955-2.96
						c9.814,0.059,19.629,0.046,29.444,0.009c2.011-0.008,3.143,0.734,3.739,2.766c1.43,4.867,3.178,9.643,4.59,14.514
						c0.832,2.875,2.373,4.166,5.451,4.102c14.189-0.295,11.07,1.914,17.909-10.146c2.478-4.369,5.31-6.207,10.411-5.997
						c9.682,0.399,19.394,0.104,29.092,0.134c0.98,0.004,2.225-0.446,2.862,0.627c0.726,1.224-0.279,2.168-0.907,3.104
						c-5.784,8.627-11.912,17.047-17.23,25.951C308.255,185.674,305.012,186.534,299.896,185.431z"/>
					<path fill-rule="evenodd" clip-rule="evenodd" fill="#43AA57" d="M239.592,180.303c-2.616,0.486-3.459-0.294-2.896-3.122
						c0.611-3.088,2.286-6.285-0.199-9.496c-0.793-1.025,0.097-2.443,1.21-3.254c1.139-0.829,2.373-0.832,3.543-0.068
						c1.168,0.761,2.073,2.195,1.335,3.211c-2.336,3.21-0.917,6.402-0.261,9.515C242.879,179.724,242.422,180.87,239.592,180.303z"
						/>
					<path fill-rule="evenodd" clip-rule="evenodd" fill="#43AA57" d="M185.573,173.086c-1.407,0.153-1.735-0.582-1.723-1.851
						c0.015-1.539,0.958-1.548,2.062-1.572c1.28-0.028,1.457,0.717,1.518,1.761C187.512,172.847,186.847,173.274,185.573,173.086z"
						/>
					<path fill-rule="evenodd" clip-rule="evenodd" fill="#43AA57" d="M295.792,171.434c0.18,1.419-0.657,1.685-1.853,1.687
						c-1.099,0.003-1.688-0.332-1.673-1.547c0.014-1.193,0.293-1.934,1.705-1.924C295.238,169.659,295.929,170.062,295.792,171.434z
						"/>
					<path fill-rule="evenodd" clip-rule="evenodd" fill="#43AA57" d="M182.054,163.54c0.131,1.373-0.586,1.748-1.849,1.746
						c-1.228-0.002-1.57-0.586-1.563-1.676c0.007-1.038,0.218-1.74,1.495-1.736C181.335,161.878,182.183,162.103,182.054,163.54z"/>
					<path fill-rule="evenodd" clip-rule="evenodd" fill="#43AA57" d="M301.091,163.62c0.161,1.432-0.656,1.69-1.858,1.658
						c-1.095-0.031-1.641-0.402-1.667-1.582c-0.028-1.291,0.455-1.809,1.769-1.828C300.635,161.849,301.252,162.292,301.091,163.62z
						"/>
				</g>
			</g>
		</g>
	</g>
	<path fill="#775A45" stroke="#070808" stroke-width="1.9404" stroke-miterlimit="10" d="M140.44,143.375
		c-0.732,7.902-1.392,14.8-2.139,20.927c-3.289,26.83-8.301,38.958-28.373,56.339c0,1.931,1.285,4.317-1.523,7.714
		c-0.32,0.393-0.703,0.799-1.145,1.222c-24.585,4.099-37.381,0-37.381,0c-12.564-2.915,10.172-20.185,10.172-20.185
		c10.172-11.793,10.325-16.634,8.879-18.993c-1.457-1.356-4.11-5.632-8.867-2.11L59.45,174.601c2.387-2.148,3.232-3.693,2.378-5.875
		c-3.198-8.17-6.898-13.88-3.881-28.204c-3.272,10.84-17.312,13.534-26.297,7.009c-13.67-9.928-12.163-29.85-11.562-48.352
		c0.506-15.324,24.149-4.585,30.992,9.525C64.672,88.557,84.971,88.93,84.971,88.93c13.995-3.046,22.619-14.529,40.921-2.737
		C159.903,98.664,147.833,124.088,140.44,143.375z"/>
	<path fill="#E8BD9B" stroke="#070808" stroke-width="1.4553" stroke-miterlimit="10" d="M67.829,133.339
		c-0.754,10.998-1.934,34.259,14.904,39.746c26.546,8.652,40.877-21.911,38.766-36.886c-2.113-14.975-0.95-69.273-34.145-42.048
		C77.756,102.021,68.989,116.429,67.829,133.339z"/>
	<path fill="#AC8569" d="M138.591,157.772c-0.116,2.115-0.17,4.317-0.155,6.529c-3.289,26.83-9.755,37.988-29.828,55.369
		c0,1.93,1.285,5.287-1.522,8.684c-1.917,0.174-8.907,0.252-8.907,0.252c2.983-7.941,6.409-8.879,7.419-11.354
		c8.631-8.035,15.109-13.236,24.268-30.545C134.187,178.539,138.591,157.772,138.591,157.772z"/>
	<path fill="none" stroke="#000000" stroke-width="1.4553" stroke-miterlimit="10" d="M54.929,75.263"/>
	<g>
		<path fill="#775A45" d="M138.143,124.546c0,0,3.87,2.736,7.228,6.068"/>
		<path fill="#070808" d="M138.143,124.546c0,0,0.181,0,0.471,0.044c0.29,0.042,0.688,0.13,1.139,0.276
			c0.9,0.295,1.97,0.88,2.893,1.65c0.925,0.77,1.695,1.723,2.14,2.562c0.45,0.835,0.586,1.535,0.586,1.535s-0.181-0.027-0.46-0.11
			c-0.279-0.081-0.658-0.214-1.085-0.397c-0.851-0.369-1.845-0.984-2.734-1.729c-0.888-0.745-1.674-1.621-2.185-2.396
			c-0.255-0.39-0.45-0.74-0.576-1.004C138.203,124.718,138.143,124.546,138.143,124.546z"/>
	</g>
	<path fill="#775A45" stroke="#070808" stroke-width="1.9404" stroke-miterlimit="10" d="M137.951,93.67l-0.291-1.251
		c0,0,0.402,0.18,1.126,0.534c5.18,2.522,26.857,12.923,36.333,29.969c4.979,8.959,5.394,19.244,1.78,24.303
		c-3.988,5.584-15.319,6.744-27.422,4.633c-0.442-0.077-0.889-0.154-1.339-0.242c-0.946-0.18-1.902-0.373-2.867-0.587
		c0.364,0.688,1.043,2.663,1.519,5.321c0.931,5.108,1.125,12.744-3.096,18.676c-1.848,2.596-6.117,7.194-10.934,7.049
		c-0.956-0.029,0,0-5.894-4.769c0,0,0,0-0.005,0c-1.17-0.592-2.499-1.445-3.779-2.678c-0.01-0.005-0.02-0.015-0.028-0.024v-0.005
		c-3.974-3.812-7.515-11.225-4.696-25.599c1.465-7.479,6.937-12.389,12.627-15.551c7.324-4.057,14.523-4.734,14.523-4.734"/>
	<path fill="#775A45" stroke="#070808" stroke-width="1.9404" stroke-miterlimit="10" d="M88.2,189.603h0.005l0.242,0.795
		c-7.46,0.84-9.493,4.91-10.327,8.198c-2.598,10.242,2.905,14.169,3.691,25.419c0,0-19.656,9.173-41.131,7.422
		c-3.381-0.277-6.811-0.824-10.216-1.723c0.476-3.725,5.573-17.273,20.616-20.432c-25.012-19.016-1.164-41.268,9.275-46.812"/>
	<g>
		<g>
			<path fill="#EDAE1F" d="M22.856,13.526c2.689,2.999,5.306,6.855,5.303,9.336c-0.744,1.496-1.694,2.094-2.787,2.811
				c-2.912,1.911-8.539-0.696-12.841-5.495C8.228,15.38,7.194,10.817,9.453,8.057c0.428-0.28,2.033-1.585,2.573-1.688
				C15.164,5.77,19.184,9.432,22.856,13.526z"/>
			<polygon fill="#FFC711" points="13.194,20.394 13.954,19.371 14.211,19.562 13.412,20.637 			"/>
			<polygon fill="#FFC711" points="12.59,19.845 13.351,18.822 13.609,19.013 12.811,20.088 			"/>
			<polygon fill="#FFC711" points="11.966,19.056 12.726,18.033 12.983,18.224 12.185,19.299 			"/>
			<polygon fill="#FFC711" points="11.347,18.333 12.107,17.31 12.364,17.5 11.566,18.575 			"/>
			<polygon fill="#FFC711" points="10.702,17.346 11.462,16.323 11.72,16.513 10.921,17.588 			"/>
			<polygon fill="#FFC711" points="10.051,16.295 10.811,15.271 11.069,15.462 10.27,16.538 			"/>
			<polygon fill="#FFC711" points="9.625,15.425 10.386,14.402 10.643,14.594 9.844,15.668 			"/>
			<polygon fill="#FFC711" points="9.091,14.321 9.852,13.298 10.109,13.489 9.31,14.564 			"/>
			<polygon fill="#FFC711" points="8.734,13.142 9.495,12.119 9.751,12.31 8.953,13.385 			"/>
			<polygon fill="#FFC711" points="8.434,11.958 9.195,10.935 9.453,11.125 8.654,12.2 			"/>
			<polygon fill="#FFC711" points="13.795,20.942 14.555,19.919 14.813,20.11 14.015,21.186 			"/>
			<polygon fill="#FFC711" points="14.398,21.491 15.158,20.468 15.415,20.659 14.616,21.734 			"/>
			<polygon fill="#FFC711" points="15,22.04 15.76,21.017 16.017,21.207 15.218,22.283 			"/>
			<polygon fill="#FFC711" points="15.601,22.588 16.362,21.565 16.62,21.756 15.821,22.831 			"/>
			<polygon fill="#FFC711" points="16.205,23.136 16.964,22.114 17.222,22.304 16.423,23.38 			"/>
			<polygon fill="#FFC711" points="16.794,23.565 17.554,22.541 17.812,22.733 17.012,23.808 			"/>
			<polygon fill="#FFC711" points="17.505,23.981 18.266,22.958 18.523,23.148 17.724,24.224 			"/>
			<polygon fill="#FFC711" points="18.246,24.395 19.006,23.372 19.263,23.562 18.463,24.639 			"/>
			<polygon fill="#FFC711" points="18.899,24.816 19.659,23.794 19.917,23.986 19.118,25.06 			"/>
			<polygon fill="#FFC711" points="19.672,25.227 20.434,24.205 20.69,24.396 19.892,25.47 			"/>
			<polygon fill="#FFC711" points="20.495,25.536 21.255,24.512 21.512,24.703 20.714,25.779 			"/>
			<polygon fill="#FFC711" points="21.27,25.736 21.965,24.668 22.235,24.843 21.503,25.965 			"/>
			<path fill="#FFC711" d="M27.583,23.749c-0.057,0.062-0.115,0.12-0.177,0.176c-2.463,2.288-8.177,0.368-12.76-4.288
				c-4.585-4.656-6.304-10.284-3.842-12.57c0.075-0.07,0.153-0.135,0.234-0.198c2.576-1.969,8.082-0.027,12.527,4.486
				C28.038,15.895,29.784,21.361,27.583,23.749z"/>
			<path fill="#FAD506" d="M22.206,11.078c3.93,3.99,5.421,8.798,3.331,10.738c-2.089,1.94-6.969,0.278-10.897-3.712
				c-3.93-3.991-5.42-8.798-3.331-10.738C13.398,5.426,18.277,7.087,22.206,11.078z"/>
			<path fill="#EDAE1F" d="M23.613,21.166l-1.216-1.364c-0.983,0.263-2.13,0.3-2.947,0.159l-1.074-1.817
				c0.887,0.14,1.988,0.171,2.904-0.125c0.805-0.261,1.071-0.754,0.561-1.328c-0.486-0.545-1.244-0.744-2.608-0.766
				c-1.97-0.028-3.639-0.413-4.879-1.806c-1.127-1.263-1.135-2.536,0.105-3.325L13.243,9.43l1.381-0.447l1.127,1.263
				c0.982-0.262,1.797-0.267,2.467-0.188l1.038,1.754c-0.508-0.04-1.451-0.16-2.467,0.169c-0.916,0.296-0.854,0.794-0.496,1.196
				c0.423,0.474,1.185,0.616,2.792,0.688c2.216,0.06,3.598,0.629,4.748,1.922c1.14,1.276,1.224,2.655-0.143,3.466l1.305,1.465
				L23.613,21.166z"/>
			<path fill="#FBF183" d="M22.583,19.167l-0.216,0.056c-0.34,0.088-0.707,0.15-1.093,0.184c-0.542,0.048-1.081,0.038-1.538-0.027
				l-0.619-1.167c0.38,0.031,0.813,0.04,1.259,0.001c0.39-0.035,0.751-0.105,1.075-0.207c0.729-0.23,0.984-0.48,1.061-0.75
				c0.065-0.235,0.064-0.607-0.314-1.038c-0.626-0.713-1.599-0.88-2.866-0.909c-2.21-0.05-3.587-0.564-4.602-1.721
				c-0.545-0.622-0.794-1.225-0.717-1.743c0.06-0.405,0.317-0.752,0.769-1.035l0.362-0.226L14.012,9.19l0.629-0.198l1.119,1.382
				l0.217-0.056c0.354-0.092,0.709-0.154,1.054-0.185c0.37-0.033,0.731-0.031,1.102,0.005l0.704,0.994
				c-0.258-0.013-0.673-0.002-0.987,0.025c-0.365,0.032-0.719,0.102-1.048,0.206c-0.543,0.171-0.869,0.438-0.969,0.796
				c-0.062,0.221-0.061,0.571,0.301,0.982c0.525,0.6,1.388,0.625,3.028,0.712c2.103,0.073,3.399,0.604,4.479,1.836
				c0.57,0.649,0.847,1.428,0.758,1.974c-0.069,0.423-0.347,0.779-0.826,1.06L23.3,18.814l1.229,1.508l-0.75,0.208L22.583,19.167z"
				/>
			<path fill="#FBF183" d="M27.583,23.749c-0.057,0.062-0.115,0.12-0.177,0.176c-2.463,2.288-8.177,0.368-12.76-4.288
				c-4.585-4.656-6.304-10.284-3.842-12.57c0.075-0.07,0.153-0.135,0.234-0.198c-1.003,1.321-1.996,3.992,0.711,8.367
				c4.127,6.668,10.582,9.691,14.092,9.083C26.564,24.192,27.134,23.99,27.583,23.749z"/>
		</g>
		<polygon fill="#EFEFEF" points="19.162,13.854 17.346,15.092 19.332,15.312 20.474,13.978 		"/>
		<path fill="#EFEFEF" d="M14.091,18.331c0,0,2.817,4.395,8.674,5.769C22.765,24.1,16.964,22.114,14.091,18.331z"/>
		<path fill="#EFEFEF" d="M23.297,11.39c0,0,6.944,7.148,4.24,11.885C27.538,23.274,30.879,19.433,23.297,11.39z"/>
	</g>
	<path fill="#AC8569" d="M174.595,148.28c7.475-27.181-28.844-43.693-39.831-49.073c-2.833-1.388-0.756-2.081-0.756-2.081
		l2.487-2.488l1.805-0.718c5.181,2.522,23.173,10.292,33.908,26.573C182.07,135.448,178.859,144.607,174.595,148.28z"/>
	<path fill="#FFFFFF" d="M16.873,27.231c0,0,0.479-1.409-0.72-2.499c-1.025-0.933-2.467-0.824-2.467-0.824s1.546-0.367,2.154-1.456
		c0.594-1.064,0.021-2.601,0.021-2.601s0.623,1.431,2.05,1.598c1.805,0.212,2.48-0.783,2.48-0.783s-0.965,1.799-0.887,2.444
		c0.211,1.745,1.512,2.116,1.512,2.116s-2.015-0.371-2.6-0.088S16.873,27.231,16.873,27.231z"/>
	<path fill="#FFFFFF" d="M18.154,12.18c0,0,0.479-1.409-0.72-2.499c-1.026-0.933-2.467-0.824-2.467-0.824S16.514,8.49,17.122,7.4
		C17.715,6.336,17.142,4.8,17.142,4.8s0.624,1.431,2.052,1.598c1.804,0.212,2.48-0.783,2.48-0.783s-0.965,1.799-0.888,2.445
		c0.211,1.745,1.512,2.116,1.512,2.116s-2.015-0.371-2.599-0.088C19.114,10.371,18.154,12.18,18.154,12.18z"/>
	<path stroke="#000000" stroke-width="4.8509" stroke-miterlimit="10" d="M33.161,34.075l12.066,8.269
		c0,0-11.339,9.475-21.398,12.697c-8.176,2.617-13.391,2.749-13.391,2.749s10.415,7.768,22.013,7.636
		c12.054-4.848,16.514-28.177,37.683-14.344c3.65,2.409-9.113,9.46-11.357,18.887c-3.463,14.54,16.105,28.931,16.105,28.931
		c29.239,20.194,56.307,9.307,59.88,8.63c2.129-0.404,13.243-3.996,17.354-9.825c7.444-10.552-3.329-27.602-3.329-27.602l1.941-5.92
		c2.018-1.471-1.966-6.529-2.939-7.879c2.886,2.659,23.175-2.684,15.673-14.696c-10.497-16.809-23.555-4.117-23.555-4.117
		c-18.855-12.851-41.447-15.808-41.447-15.808c1.786-6.437-7.985-17.338-20.645-9.557c-15.039,9.244,1.562,19.424,1.562,19.424
		l-1.297,0.892c-6.375,6.376-4.865,12.438-4.865,12.438S58.429,24.881,33.161,34.075z"/>
	<path fill="#775A45" d="M68.522,93.734c0,0-11.325-9.276-9.979-21.756c1.006-9.312,11.916-17.75,11.916-17.75
		s0.072-15.151,7.621-21.788"/>
	<path fill="#775A45" d="M149.346,69.82c0,0,10.523,15.742,2.901,27.386c-3.904,5.971-17.683,10.895-17.683,10.895
		s-2.142,0.708-5.757,1.438c-12.269,2.488-41.545,5.296-61.779-18.069l11.475-60.75c0,0-15.824-8.643-1.069-18.708
		c12.387-8.456,22.682,1.916,21.158,8.896c0,0,19.371,3.584,33.096,10.786c2.961,1.554,5.657,3.28,7.846,5.172
		c0,0,11.297-11.797,24.213,3.622c6.837,14.36-12.069,18.307-14.861,15.756c0.842,1.163,3.281,4.786,2.707,6.728
		c-0.098,0.331-0.28,0.611-0.572,0.823l-1.62,5.836L149.346,69.82z"/>
	<path fill="#FFFFFF" d="M79.272,48.348c0,0-5.126,14.103,13.087,11.349C92.36,42.706,81.214,48.557,79.272,48.348z"/>
	<path fill="#FFFFFF" d="M134.696,65.923c0,0-11.129-24.957-20.64-3.626C115.252,73.06,134.984,79.058,134.696,65.923z"/>
	<path fill="#961B1E" d="M7.292,56.842c0,0,14.625,11.004,26.99,8.879c0,0,3.25-1.991,13.731-13.511
		c3.478-3.821,11.957-6.269,17.627-2.802l3.03,1.121c0,0-0.488-4.721,0.873-6.094c1.363-1.373-1.11,0.337-1.11,0.337
		s-3.428-6.232-20.439-4.215C40.247,41.402,33.418,56.54,7.292,56.842z"/>
	<path fill="#961B1E" d="M30.675,33.69c0,0,9.658,7.481,12.69,7.747c0,0,18.827-0.006,24.839,9.249l1.749-4.783l0.785-1.932
		c0,0-6.799-13.366-21.016-13.489C37.823,30.379,30.675,33.69,30.675,33.69z"/>
	<path fill="#39A59B" d="M118.67,63.661c0,0,0.312,4.839,5.91,5.394c5.6,0.556,8.198-3.558,8.198-3.558s-0.118-1.859-1.045-3.6
		c-1.923-3.615-6.352-7.969-13.575-2.872"/>
	<path fill="#39A59B" d="M88.932,48.43c3.752,1.657,3.27,8.79,3.27,8.79c-11.554,4.037-8.983-9.275-8.983-9.275
		S83.538,46.048,88.932,48.43z"/>
	<path stroke="#000000" stroke-width="0.4851" stroke-miterlimit="10" d="M85.979,48.478c-1.055,1.794-1.273,8.224,6.271,6.444
		c0,0,0.068-3.86-2-5.498C89.369,48.726,87.096,46.576,85.979,48.478z"/>
	<path fill="#CD2027" d="M31.65,33.977c0,0,8.438,1.901,13.072,1.156c4.634-0.743,19.485,1.265,24.821,9.302l0.909-3.431
		c0,0-5.511-8.242-22.412-9.993C42.79,30.467,31.65,33.977,31.65,33.977z"/>
	<path stroke="#000000" stroke-width="0.4851" stroke-miterlimit="10" d="M124.145,64.796c4.847,2.494,6.755-0.651,7.101-2.474
		c0.426-2.249-2.697-8.913-8.131-4.301C121.417,59.463,122.062,63.724,124.145,64.796z"/>
	<path fill="#E9BB9B" d="M68.179,93.22c0,0-9.145-20.992,12.844-28.669c0,0,9.703,3.473,12.24,3.755
		c2.539,0.282,25.461,7.115,35.4,5.422c3.606-0.614,30.635,19.656-8.78,37.429C119.883,111.157,87.029,114.657,68.179,93.22z"/>
	<path fill="#AC8569" d="M72.208,56.876l-1.808-1.954l-1.464,1.184c-19.929,15.826-5.389,31.646-5.389,31.646l-0.543-1.749
		C56.881,69.452,72.208,56.876,72.208,56.876z"/>
	<path fill="#FFFFFF" d="M129.705,62.023c-0.236,0.505-0.896,0.761-1.472,0.57c-0.574-0.19-0.849-0.755-0.611-1.26
		c0.237-0.506,0.896-0.761,1.471-0.569C129.668,60.955,129.942,61.519,129.705,62.023z"/>
	<path fill="#FFFFFF" d="M90.329,54.968c-0.238,0.616-0.901,0.924-1.483,0.694c-0.579-0.232-0.855-0.92-0.614-1.534
		c0.236-0.616,0.9-0.925,1.48-0.693C90.292,53.667,90.568,54.354,90.329,54.968z"/>
	<g>
		<path d="M81.023,64.55c0,0-0.542,0.182-1.447,0.583c-0.911,0.384-2.164,1.043-3.57,1.949c-1.393,0.924-2.938,2.12-4.3,3.663
			c-0.7,0.754-1.314,1.621-1.895,2.521c-0.584,0.9-1.051,1.89-1.46,2.898c-0.397,1.014-0.723,2.06-0.935,3.118
			c-0.209,1.057-0.377,2.112-0.436,3.146c-0.078,1.034-0.069,2.04-0.061,2.998c0.073,0.954,0.093,1.866,0.212,2.7
			c0.085,0.838,0.189,1.605,0.304,2.285c0.096,0.683,0.2,1.276,0.313,1.759c0.199,0.972,0.295,1.538,0.295,1.538
			s-0.218-0.525-0.567-1.462c-0.184-0.467-0.374-1.043-0.569-1.713c-0.102-0.334-0.211-0.691-0.325-1.066
			c-0.101-0.379-0.179-0.785-0.275-1.206c-0.212-0.839-0.332-1.77-0.47-2.755c-0.085-0.991-0.182-2.042-0.137-3.136
			c0.024-1.092,0.114-2.229,0.338-3.364c0.212-1.137,0.542-2.273,0.96-3.378c0.46-1.088,0.984-2.153,1.632-3.121
			c0.633-0.975,1.367-1.859,2.145-2.639c1.541-1.581,3.273-2.714,4.813-3.507c1.547-0.797,2.932-1.225,3.895-1.495
			C80.452,64.607,81.023,64.55,81.023,64.55z"/>
	</g>
	<g>
		<path d="M126.713,73.108c0,0,0.9,0.135,2.407,0.651c1.485,0.54,3.638,1.403,5.842,3.086c1.102,0.834,2.208,1.87,3.209,3.119
			c1.007,1.242,1.888,2.718,2.515,4.361c0.619,1.65,1.034,3.416,1.107,5.299c0.051,1.865-0.249,3.757-0.839,5.543
			c-0.592,1.789-1.486,3.456-2.535,4.962c-1.041,1.516-2.294,2.827-3.584,3.984c-2.59,2.327-5.47,3.851-7.963,4.963
			c-1.261,0.538-2.437,0.975-3.504,1.28c-1.06,0.325-1.993,0.57-2.768,0.745c-0.769,0.193-1.386,0.29-1.803,0.367
			c-0.418,0.075-0.64,0.115-0.64,0.115s0.871-0.251,2.364-0.758c0.749-0.244,1.649-0.571,2.661-0.987
			c1.016-0.405,2.131-0.933,3.337-1.512c2.392-1.203,5.033-2.904,7.442-5.165c1.199-1.134,2.326-2.417,3.298-3.834
			c0.972-1.417,1.771-2.978,2.318-4.619c0.559-1.636,0.846-3.36,0.816-5.051c-0.032-1.669-0.361-3.371-0.896-4.898
			c-0.558-1.526-1.257-2.958-2.152-4.17c-0.878-1.223-1.875-2.265-2.889-3.12c-2.022-1.725-4.012-2.812-5.441-3.455
			C127.586,73.363,126.713,73.108,126.713,73.108z"/>
	</g>
	<g>
		<path fill="none" d="M83.346,48.348"/>
	</g>
	<g>
		<path fill="none" d="M72.472,48.05"/>
	</g>
	<path fill="none" stroke="#000000" stroke-width="0.9702" stroke-miterlimit="10" d="M83.073,47.241
		c-0.27,1.186-2.222,12.387,9.16,10.208"/>
	<path fill="none" stroke="#000000" stroke-width="0.9702" stroke-miterlimit="10" d="M118.159,58.655
		c-0.465,0.36-1.554,8.413,7.012,10.213c5.616,1.181,7.608-3.37,7.608-3.37C133.912,60.786,125.849,52.678,118.159,58.655z"/>
	<path fill="none" stroke="#000000" stroke-width="1.4553" stroke-miterlimit="10" d="M65.291,50.102"/>
	<path fill="none" stroke="#000000" stroke-width="1.4553" stroke-miterlimit="10" d="M68.846,47.681"/>
	<path fill="#AC8569" d="M149.124,56.844c0.842,1.163,3.28,4.786,2.707,6.728c-2.877-4.407-4.94-9.188-4.94-9.188
		c10.629,2.782,18.337-7.154,8.966-13.957c-8.521-6.186-15.472,3.185-15.472,3.185c-1.455-3.544-7.499-10.126-19.061-15.421
		c-1.126-0.516-7.658-3.853-7.603-3.34c2.617,1.301,16.564,3.592,25.812,12.015c0,0,13.942-13.188,24.451,4.223
		C172.204,54.705,151.916,59.395,149.124,56.844z"/>
	<path fill="#AC8569" d="M152.486,97.805c-3.904,5.972-17.396,9.922-17.396,9.922s-2.142,0.707-5.756,1.437
		c35.27-12.332,12.422-37.583,12.422-37.583l7.159-0.57l1.012,0.04C149.927,71.05,160.108,86.161,152.486,97.805z"/>
	<path fill="#961B1E" d="M120.202,90.087c-9.224,9.184-16.264,10.616-26.601-0.36c-1.179-1.251-2.391-3.397-0.895-3.959
		C102.961,94.089,120.202,90.087,120.202,90.087z"/>
	<path fill="#FFFFFF" d="M92.707,85.769c0,0,4.031,12.799,27.495,4.319C120.202,90.087,108.458,89.844,92.707,85.769z"/>
	<g>
		<path fill="#070808" d="M90.415,84.092c0.85,1.345,1.731,2.661,2.675,3.929c0.472,0.633,0.966,1.25,1.477,1.848
			c0.508,0.602,1.052,1.168,1.593,1.734c2.18,2.225,4.8,4.097,7.76,4.797c1.473,0.336,2.993,0.414,4.479,0.167
			c1.487-0.234,2.918-0.777,4.269-1.478c1.351-0.706,2.61-1.599,3.776-2.604c0.582-0.504,1.141-1.037,1.676-1.592
			c0.531-0.548,1.062-1.14,1.507-1.716l0.61,1.143c-1.58,0.054-3.129,0.046-4.691,0.01c-1.559-0.033-3.115-0.122-4.669-0.242
			c-3.108-0.231-6.208-0.633-9.267-1.259c-3.054-0.638-6.088-1.447-8.967-2.677c-0.719-0.311-1.424-0.647-2.115-1.012
			c-0.687-0.375-1.373-0.748-2.018-1.19c-0.659-0.417-1.282-0.893-1.879-1.392c-0.287-0.264-0.586-0.514-0.86-0.788l-0.798-0.848
			l0.866,0.772c0.296,0.248,0.613,0.469,0.918,0.704c0.628,0.443,1.265,0.877,1.94,1.243c0.659,0.393,1.359,0.715,2.054,1.038
			c0.701,0.313,1.413,0.598,2.136,0.855c0.727,0.248,1.446,0.508,2.184,0.721c0.731,0.23,1.476,0.421,2.218,0.614
			c1.491,0.363,2.997,0.666,4.513,0.917c3.035,0.475,6.095,0.794,9.164,0.972c3.065,0.16,6.16,0.242,9.205,0.125l1.522-0.058
			l-0.911,1.201c-0.52,0.685-1.049,1.278-1.616,1.875c-0.566,0.587-1.165,1.144-1.786,1.674c-1.245,1.057-2.598,2.002-4.067,2.756
			c-1.464,0.76-3.063,1.3-4.72,1.529c-1.654,0.226-3.366,0.137-4.967-0.326c-3.229-0.925-5.875-3.045-8.01-5.424
			C93.512,89.671,91.815,86.942,90.415,84.092z"/>
	</g>
	<path fill="#AC8569" d="M129.334,30.867c0,0-16.856-8.401-30.502-9.356c-8.3-0.496-14.571,4.643-14.571,4.643
		s-7.839-1.351-7.143-7.69c0.696-6.338,9.33-8.913,10.146-9.303C84.424,8,61.339,14.868,76.033,29.271l2.549,1.667
		c0,0-4.331,3.801-4.579,6.579c1.399,0.562,1.399,0.562,1.399,0.562l2.237,1.688C77.639,39.767,95.325,17.101,129.334,30.867z"/>
	<g>
		<path fill="#775A45" d="M51.081,108.704c0,0,7.352,5.178,6.039,17.77"/>
		<path fill="#070808" d="M51.081,108.704c0,0,0.295,0.113,0.773,0.397c0.229,0.151,0.526,0.322,0.821,0.569
			c0.312,0.232,0.642,0.518,0.982,0.854c0.338,0.336,0.701,0.712,1.034,1.147c0.335,0.434,0.696,0.894,0.986,1.419
			c0.324,0.508,0.603,1.063,0.872,1.635c0.268,0.572,0.461,1.185,0.684,1.786c0.154,0.621,0.338,1.236,0.448,1.854
			c0.098,0.62,0.174,1.234,0.229,1.825c0.034,0.594,0.032,1.169,0.035,1.711c-0.009,0.542-0.083,1.054-0.132,1.521
			c-0.071,0.939-0.319,1.7-0.447,2.229c-0.146,0.529-0.247,0.824-0.247,0.824s-0.062-0.314-0.138-0.853
			c-0.035-0.269-0.083-0.594-0.116-0.963c-0.025-0.369-0.103-0.783-0.166-1.231c-0.062-0.445-0.129-0.926-0.2-1.436
			c-0.098-0.504-0.207-1.031-0.282-1.577c-0.103-0.542-0.271-1.088-0.376-1.654c-0.151-0.553-0.307-1.115-0.461-1.676
			c-0.194-0.547-0.361-1.105-0.565-1.638c-0.225-0.524-0.39-1.069-0.641-1.555c-0.225-0.5-0.456-0.976-0.688-1.426
			c-0.239-0.443-0.474-0.864-0.697-1.251C51.875,109.685,51.081,108.704,51.081,108.704z"/>
	</g>
	<path fill="#AC8569" d="M44.25,109.42c0,0,9.71,3.491,9.71,23.764c0,0,8.826-11.128-5.284-26.612
		C48.675,106.572,49.877,105.851,44.25,109.42z"/>
	<path fill="#961B1E" stroke="#070808" stroke-width="1.4553" stroke-miterlimit="10" d="M19.792,114.95
		c0,0,16.951,11.661,29.369-9.348c-0.812-5.869-5.967-10.4-5.967-10.4l-25.045,3.977C18.149,99.179,16.345,110.292,19.792,114.95z"
		/>
	<path fill="#775A45" stroke="#070808" stroke-width="1.4553" stroke-miterlimit="10" d="M21.524,71.351
		c0.945-1.97,7.051-9.997,16.944-9.959c7.22,4.328,4.133,7.888,1.105,10.391c3.027-2.503,7.917,1.931,8.901,3.754
		c0.951,1.751,3.124,7.467,0.087,11.091c0.34,1.198-3.942,6.348-6.917,10.85c-0.475,0.359-0.96,0.699-1.445,1.019
		c-14.33,9.474-32.424,3.139-26.758-21.16"/>
	<path fill="#775A45" stroke="#070808" stroke-width="1.4553" stroke-miterlimit="10" d="M12.375,83.842c0,0,2.6-11.25-3.41-22.295
		c-0.093-0.17-0.165-0.334-0.224-0.49c-1.756-4.817,13.758-1.523,12.874,9.95c-0.023,0.271-0.053,0.548-0.092,0.829"/>
	<path fill="#961B1E" stroke="#070808" stroke-width="1.4553" stroke-miterlimit="10" d="M130.108,133.46
		c0,0,17.41,4.577,15.415,18.977c0,0,1.096,1.967,9.194,0.391c0,0,10.202-22.547-12.961-25.176
		C141.756,127.651,138.209,127.567,130.108,133.46z"/>
	<path fill="#AC8569" d="M47.107,87.599c0.231-1.224-0.933-8.196-6.749-12.498c-3.129-2.314-5.361-1.669-5.361-1.669
		c2.338-9.561-5.822-8.108-6.277-7.934c3.836-2.459,6.756-3.616,9.749-3.136c5.781,3.194,3.877,8.49-0.835,9.42
		c6.426-1.27,8.886,2.417,9.872,4.24C48.455,77.775,51.051,82.045,47.107,87.599z"/>
	<path fill="#AC8569" d="M21.131,72.462c-0.005,0.005-2.597-9.951-11.42-11.89C9.645,57.729,21.653,61.185,21.131,72.462z"/>
	<path fill="#AC8569" d="M143.878,150.042c1.614,4.336,5.419,15.244-0.669,24.498c-1.752,2.662-5.119,6.639-9.936,6.493
		c-0.956-0.029,0.941,1.04-4.952-3.729c0,0-1.455-0.485-1.46-0.485c-1.17-0.592-2.499-2.416-3.779-3.647
		c-7.35-9.034-4.021-21.975-4.021-21.975s-0.993,12.94,3.938,19.479c1.822,2.416,10.274,7.384,13.378,5.694
		C142.105,173.128,145.875,168.453,143.878,150.042z"/>
	<g>
		<path fill="#775A45" d="M129.566,178.687c-0.369-0.172-5.001-4.271-4.16-14.549"/>
		<path fill="#070808" d="M129.566,178.687c0,0-0.065-0.008-0.181-0.044c-0.114-0.044-0.303-0.114-0.497-0.228
			c-0.401-0.226-0.965-0.6-1.505-1.176c-0.553-0.562-1.129-1.302-1.578-2.176c-0.25-0.428-0.431-0.9-0.628-1.377
			c-0.178-0.482-0.322-0.984-0.457-1.486c-0.094-0.51-0.221-1.017-0.266-1.523c-0.048-0.506-0.097-1.004-0.094-1.485
			c0.007-0.481,0.029-0.946,0.06-1.384c0.048-0.438,0.129-0.849,0.199-1.225c0.115-0.754,0.363-1.364,0.51-1.787
			c0.158-0.423,0.276-0.658,0.276-0.658s0.093,0.254,0.206,0.687c0.125,0.433,0.23,1.042,0.4,1.757
			c0.082,0.357,0.16,0.741,0.232,1.144c0.092,0.401,0.182,0.82,0.257,1.253c0.079,0.432,0.2,0.868,0.274,1.317
			c0.101,0.442,0.201,0.892,0.303,1.341c0.111,0.443,0.223,0.887,0.332,1.322c0.137,0.426,0.228,0.865,0.368,1.268
			c0.12,0.414,0.252,0.808,0.381,1.185c0.13,0.374,0.254,0.735,0.38,1.065c0.255,0.66,0.503,1.209,0.69,1.603
			c0.103,0.194,0.168,0.346,0.23,0.448C129.53,178.63,129.566,178.687,129.566,178.687z"/>
	</g>
	<path fill="#AC8569" d="M80.841,223.529c0,0-18.687,8.202-40.161,6.452c18.496-3.784,30.568-6.119,35.501-11.328
		c-6.228-12.352-3.767-26.152,1.928-29.931c3.187-2.114,6.46-2.448,6.46-2.448l3.878,3.638c-9.562,0.359-10.696,6.044-11.298,9.653
		C75.413,209.989,80.055,212.28,80.841,223.529z"/>
	<g>
		<path fill="#961B1E" d="M154.127,63.087c0,0-2.852-11.884-33.276-12.171c-24.259-0.229-46.706-15.506-46.706-15.506l-2.896,0.933
			c0,0-2.402,11.339-3.42,14.481c0,0,11.192,12.976,15.518,15.1c4.326,2.128,26.595,10.47,45.317,7.805
			c16.654-2.371,24.059-4.621,24.059-4.621L154.127,63.087z M80.258,48.405c1.233-1.553,5.7-1.886,7.885-0.354
			c4.881,3.42,5.676,8.62,4.078,10.863C79.241,55.738,75.521,54.37,80.258,48.405z M124.652,67.774
			c-8.638-0.573-10.058-3.224-10.058-3.224s3.516-10.265,11.885-8.114c6.83,1.755,7.969,7.68,8.684,10.326
			C133.274,67.201,129.309,68.33,124.652,67.774z"/>
		<g>
			<path d="M154.025,63.095c-0.312-0.819-0.792-1.582-1.365-2.252c-0.261-0.36-0.585-0.67-0.893-0.99
				c-0.295-0.333-0.648-0.608-0.987-0.896c-0.653-0.604-1.436-1.054-2.159-1.563c-0.792-0.414-1.533-0.907-2.359-1.252
				c-1.602-0.778-3.287-1.384-4.995-1.899l-2.588-0.696l-2.636-0.512c-0.873-0.193-1.767-0.287-2.653-0.417
				c-0.889-0.119-1.773-0.26-2.664-0.361c-1.792-0.122-3.576-0.33-5.373-0.382l-5.429-0.151c-1.814-0.078-3.609-0.084-5.456-0.365
				l-2.751-0.331l-2.7-0.516c-1.81-0.295-3.568-0.818-5.339-1.268c-1.755-0.507-3.5-1.053-5.225-1.643
				c-1.715-0.623-3.434-1.228-5.109-1.945C91.646,44.991,90,44.212,88.34,43.47c-1.642-0.782-3.286-1.557-4.895-2.403
				c-1.624-0.816-3.222-1.682-4.798-2.586c-1.589-0.884-3.153-1.8-4.687-2.802l0.284,0.041l-2.89,0.952l0.233-0.258l-1.508,7.294
				l-0.783,3.645l-0.904,3.653l-0.115-0.57c2.592,2.843,5.25,5.644,7.97,8.354c1.363,1.352,2.755,2.675,4.197,3.905
				c0.715,0.619,1.447,1.222,2.196,1.734c0.365,0.288,0.762,0.463,1.099,0.676c0.438,0.191,0.885,0.413,1.316,0.58
				c1.717,0.721,3.548,1.371,5.354,1.979c1.817,0.602,3.648,1.167,5.496,1.673c1.844,0.515,3.703,0.977,5.565,1.419l2.804,0.616
				l2.819,0.533c1.886,0.305,3.769,0.642,5.668,0.838c0.948,0.12,1.896,0.232,2.847,0.287c0.951,0.059,1.901,0.169,2.853,0.188
				l2.856,0.09c0.951-0.002,1.901-0.042,2.852-0.062c0.955,0.005,1.895-0.126,2.842-0.202l1.419-0.129l1.418-0.2l5.736-0.835
				c1.912-0.273,3.837-0.497,5.722-0.858l5.688-0.995c1.871-0.428,3.792-0.731,5.64-1.216l-0.21,0.224L154.025,63.095z
				 M154.227,63.083l-1.206,6.094l-0.033,0.167l-0.177,0.057c-1.861,0.603-3.736,1.049-5.615,1.553l-5.682,1.26
				c-1.895,0.448-3.797,0.766-5.699,1.113l-5.71,0.993l-1.445,0.245l-1.462,0.175c-0.976,0.105-1.95,0.266-2.931,0.29
				c-0.979,0.047-1.959,0.115-2.939,0.145l-2.939-0.015c-0.98-0.007-1.954-0.106-2.931-0.156c-0.979-0.044-1.951-0.146-2.922-0.257
				c-1.947-0.183-3.877-0.484-5.804-0.795l-2.875-0.549l-2.856-0.633c-1.898-0.444-3.786-0.935-5.652-1.495
				c-1.871-0.544-3.724-1.147-5.565-1.789c-1.845-0.654-3.649-1.322-5.483-2.125c-0.466-0.192-0.882-0.407-1.326-0.609
				c-0.486-0.291-0.966-0.537-1.359-0.853c-0.836-0.593-1.586-1.234-2.322-1.89c-1.462-1.318-2.835-2.698-4.179-4.104
				c-2.694-2.805-5.248-5.714-7.735-8.694l-0.208-0.25l0.093-0.32l1.025-3.534l0.909-3.601c0.309-1.199,0.59-2.406,0.881-3.611
				c0.297-1.204,0.562-2.414,0.829-3.624l0.044-0.199l0.189-0.06l2.902-0.914l0.152-0.048l0.132,0.089
				c1.487,1,3.041,1.938,4.606,2.835c1.575,0.885,3.173,1.731,4.794,2.527c1.616,0.81,3.275,1.527,4.924,2.262
				c1.679,0.666,3.344,1.363,5.052,1.947c1.688,0.638,3.415,1.156,5.131,1.699c1.726,0.509,3.466,0.973,5.211,1.396
				c1.761,0.354,3.499,0.814,5.274,1.071l2.649,0.449l2.647,0.305c1.744,0.252,3.58,0.272,5.383,0.393l5.435,0.243
				c1.824,0.084,3.643,0.326,5.462,0.482c0.907,0.118,1.811,0.277,2.716,0.414c0.905,0.141,1.811,0.269,2.7,0.508l2.677,0.637
				l2.63,0.825c1.735,0.603,3.444,1.298,5.069,2.171c0.833,0.393,1.572,0.969,2.357,1.443c0.722,0.578,1.491,1.092,2.132,1.764
				c1.321,1.268,2.522,2.758,3.041,4.55L154.227,63.083z"/>
			<path d="M80.164,48.368l0.025-0.031c0.272-0.334,0.688-0.604,1.073-0.82c0.399-0.218,0.826-0.373,1.257-0.524
				c0.867-0.285,1.783-0.483,2.731-0.517c0.473-0.011,0.957-0.004,1.438,0.098c0.484,0.074,0.968,0.234,1.437,0.457
				c0.226,0.138,0.471,0.249,0.674,0.425l0.52,0.405c0.349,0.252,0.693,0.656,1.031,0.977c0.285,0.377,0.608,0.713,0.845,1.123
				c0.262,0.387,0.489,0.794,0.694,1.21c0.204,0.415,0.394,0.835,0.55,1.266c0.18,0.421,0.297,0.863,0.435,1.295
				c0.12,0.438,0.221,0.881,0.295,1.331c0.048,0.223,0.069,0.451,0.084,0.68c0.028,0.228,0.046,0.457,0.041,0.689
				c0.013,0.232-0.002,0.463-0.023,0.698c-0.007,0.235-0.045,0.47-0.095,0.706c-0.081,0.474-0.26,0.942-0.504,1.398l-0.146,0.272
				l-0.436-0.056c-1.719-0.223-3.425-0.517-5.115-0.917c-0.848-0.187-1.693-0.397-2.54-0.628c-0.845-0.234-1.685-0.511-2.52-0.847
				c-0.822-0.364-1.668-0.729-2.448-1.312c-0.393-0.292-0.769-0.632-1.088-1.058c-0.325-0.422-0.553-0.96-0.626-1.505
				c-0.073-0.548,0.018-1.077,0.188-1.53c0.183-0.449,0.403-0.853,0.652-1.225c0.256-0.369,0.503-0.729,0.779-1.068L80.164,48.368z
				 M80.332,48.469c-0.258,0.34-0.507,0.687-0.724,1.053c-0.204,0.375-0.416,0.745-0.549,1.145
				c-0.299,0.776-0.375,1.638-0.083,2.208c0.275,0.571,0.853,0.939,1.504,1.315c0.672,0.344,1.408,0.682,2.186,0.947
				c0.77,0.29,1.564,0.556,2.366,0.822c0.799,0.274,1.611,0.532,2.425,0.791c1.635,0.495,3.271,1.031,4.896,1.626l-0.582,0.216
				c0.227-0.284,0.451-0.607,0.582-0.989c0.143-0.372,0.244-0.78,0.264-1.195c0.051-0.414,0.023-0.84-0.038-1.256
				c-0.04-0.422-0.173-0.83-0.298-1.233c-0.136-0.403-0.331-0.783-0.537-1.152c-0.219-0.362-0.459-0.713-0.73-1.035
				c-0.27-0.325-0.552-0.633-0.86-0.917c-0.285-0.301-0.624-0.551-0.924-0.829c-0.327-0.253-0.597-0.483-0.958-0.752l-0.529-0.393
				c-0.134-0.107-0.291-0.186-0.432-0.289c-0.623-0.354-1.376-0.634-2.177-0.83c-0.799-0.194-1.661-0.318-2.512-0.234
				c-0.43,0.024-0.845,0.136-1.25,0.274C80.973,47.925,80.624,48.124,80.332,48.469z"/>
			<path d="M124.641,67.87c-0.895-0.104-1.796-0.144-2.698-0.177c-0.451-0.007-0.906-0.075-1.364-0.108l-0.692-0.051
				c-0.231-0.023-0.468-0.022-0.696-0.065l-1.383-0.249c-0.468-0.063-0.917-0.258-1.374-0.41c-0.228-0.08-0.457-0.155-0.678-0.281
				l-0.658-0.366c-0.218-0.131-0.426-0.314-0.638-0.473c-0.105-0.072-0.21-0.188-0.308-0.301c-0.095-0.106-0.197-0.211-0.324-0.429
				l-0.188-0.323l0.131-0.369c0.239-0.669,0.524-1.234,0.854-1.813c0.322-0.573,0.698-1.115,1.1-1.634
				c0.401-0.52,0.848-1.003,1.295-1.478c0.474-0.456,0.963-0.884,1.478-1.284c0.242-0.216,0.519-0.39,0.792-0.567
				c0.272-0.177,0.522-0.387,0.823-0.518c0.292-0.143,0.577-0.299,0.864-0.454l0.921-0.334c0.299-0.142,0.628-0.177,0.948-0.252
				c0.323-0.051,0.642-0.175,0.973-0.171l0.994-0.062c0.335-0.029,0.658,0.051,0.992,0.07c0.338,0.043,0.652,0.039,1.016,0.126
				l0.924,0.206c0.621,0.183,1.322,0.407,1.907,0.719c0.613,0.289,1.191,0.664,1.732,1.081c0.542,0.419,1.04,0.896,1.497,1.408
				c0.902,1.033,1.633,2.211,2.128,3.458c0.531,1.23,0.816,2.542,1.098,3.737l0.233,0.993l-0.956,0.214
				c-0.428,0.096-0.86,0.162-1.307,0.244c-0.439,0.088-0.895,0.131-1.344,0.186c-0.447,0.067-0.911,0.065-1.362,0.095
				c-0.452,0.033-0.913,0.013-1.364,0.021c-0.452,0.013-0.908-0.028-1.358-0.049c-0.45-0.003-0.899-0.043-1.346-0.088
				c-0.447-0.035-0.893-0.046-1.334-0.115L124.641,67.87z M124.663,67.678l1.32,0.07c0.439,0.032,0.881-0.031,1.318-0.049
				c0.439-0.026,0.875-0.086,1.307-0.167c0.433-0.084,0.863-0.15,1.288-0.268c0.854-0.194,1.686-0.457,2.518-0.706
				c0.833-0.255,1.657-0.507,2.527-0.749l-0.722,1.207l-0.532-1.786c-0.2-0.567-0.366-1.141-0.595-1.68
				c-0.216-0.547-0.472-1.067-0.737-1.581c-0.271-0.509-0.585-0.99-0.933-1.445c-0.354-0.448-0.742-0.87-1.173-1.248
				c-0.435-0.369-0.883-0.738-1.387-1.026c-0.493-0.34-0.981-0.552-1.527-0.827l-0.878-0.352c-0.235-0.104-0.555-0.156-0.832-0.239
				c-0.289-0.061-0.577-0.178-0.873-0.192l-0.892-0.069c-0.303-0.05-0.596,0.021-0.895,0.05c-0.296,0.045-0.604,0.05-0.887,0.16
				l-0.861,0.284c-0.271,0.135-0.541,0.275-0.805,0.425c-0.275,0.129-0.504,0.339-0.752,0.513c-0.246,0.179-0.478,0.375-0.686,0.601
				c-0.454,0.407-0.805,0.916-1.172,1.395c-0.335,0.511-0.661,1.02-0.934,1.563c-0.287,0.533-0.534,1.085-0.785,1.631
				c-0.233,0.545-0.483,1.122-0.668,1.636l-0.056-0.691c-0.01-0.023,0.04,0.038,0.099,0.096c0.054,0.053,0.091,0.113,0.17,0.173
				c0.145,0.116,0.264,0.248,0.426,0.359c0.347,0.198,0.643,0.465,1.033,0.642c0.381,0.175,0.724,0.433,1.137,0.58l1.207,0.524
				c0.202,0.093,0.416,0.142,0.625,0.215l0.634,0.204c0.428,0.12,0.85,0.277,1.294,0.363
				C122.875,67.449,123.766,67.595,124.663,67.678z"/>
		</g>
	</g>
	<path fill="#CD2027" d="M72.208,36.875c0,0-2.18,6.59-3.362,13.192c0,0,4.379,6.396,9.234,9.933
		c0.486,0.356-5.074-5.013-5.388-9.129c-0.24-3.189-0.934-5.992,5.015-9.511c0,0,1.256-2.434-2.592-4.495
		C74.19,36.369,72.483,37.277,72.208,36.875z"/>
	<path d="M82.302,66.715c-1.491,4.122,2.796,9.533,9.576,12.086c6.783,2.55,13.493,1.276,14.987-2.843
		c1.492-4.122-2.797-9.532-9.578-12.084C90.504,61.323,83.797,62.595,82.302,66.715z"/>
	<path fill="#E5E5E5" d="M94.529,68.113c-0.328,1.523-2.504,2.353-4.86,1.85c-2.357-0.505-4.001-2.148-3.673-3.673
		c0.329-1.525,2.506-2.354,4.861-1.85C93.214,64.941,94.856,66.587,94.529,68.113z"/>
	<path fill="#CD2027" d="M75.74,40.315c0,0,24.448,13.769,44.462,13.358c12.019-0.247,15.439,1.497,21.008,4.498
		c0.748,0.403,5.604,6.379,2.738,11.906c4.409,0,7.858-1.779,8.29-1.456l1.548-5.965c0,0-7.951-10.639-31.762-11.186
		c-23.811-0.547-45.8-13.604-45.8-13.604L75.74,40.315z"/>
	<path fill="#CD2027" d="M43.23,97.349c0,0,3.536,1.965,4.715,7.623c0,0-0.235,2.492-2.357,4.193c0,0-0.782-4.319-3.812-7.493
		c0,0-8.356,7.033-22.542,1.585v-1.043C19.233,102.213,33.832,106.689,43.23,97.349z"/>
	<path fill="#CD2027" d="M135.877,130.614c0,0,8.959-1.833,14.145,3.825c5.187,5.657,3.075,16.368,1.415,17.681l2.624-0.665
		c0,0,7.16-14.624-5.747-21.124c-2.806-1.617-7.264-1.625-7.264-1.625L135.877,130.614z"/>
	<path fill="#CD2027" d="M45.079,41.494c0,0,5.973,0,7.353,0.877c0,0-5.917,0.791-13.944,8.314S19.41,60.799,14.264,59.729
		c-5.146-1.07-6.991-3.028-6.991-3.028s10.198,1.481,21.446-4.215C39.967,46.788,38.997,44.31,45.079,41.494z"/>
</g>
</svg>
