<?xml version="1.0" encoding="utf-8"?>
<!-- Generator: Adobe Illustrator 16.0.0, SVG Export Plug-In . SVG Version: 6.00 Build 0)  -->
<!DOCTYPE svg PUBLIC "-//W3C//DTD SVG 1.1//EN" "http://www.w3.org/Graphics/SVG/1.1/DTD/svg11.dtd">
<svg version="1.1" id="Layer_1" xmlns="http://www.w3.org/2000/svg" xmlns:xlink="http://www.w3.org/1999/xlink" x="0px" y="0px"
	 width="261px" height="47px" viewBox="0 0 574.1 97.5" style="enable-background:new 0 0 574.1 97.5;" xml:space="preserve">
<style type="text/css">
<![CDATA[
	.st0{fill:#F0A51F;}
	.st1{fill:#F8BB20;}
	.st2{fill:#EE4424;stroke:#EE4424;stroke-width:15;stroke-miterlimit:10;}
	.st3{fill:#FEDC38;}
	.st4{fill:#FEE777;}
	.st5{fill:#FFCF33;}
	.st6{fill:#FFFFFF;}
	.st7{fill:#D87727;}
]]>
</style>
<g>
	<path class="st2" d="M86.1,35.8c1.7,4.4,0,6.6-5,6.6H56.5c-1.4-4.5-3.9-6.8-7.5-6.8c-4.6,0-7.3,3.2-8,9.6h39.1
		c6.1,0.1,8.7,3.6,7.7,10.4c-1.4,8.1-4.8,14.8-10.1,20.2c-7.2,7.2-16.8,10.8-28.7,10.8c-12,0-21.6-3.6-28.6-10.8
		c-3.9-3.8-6.8-8.5-8.6-14c-1.5-4.4,0.2-6.6,5.1-6.5h24.7c1.3,4.5,3.8,6.8,7.4,6.8c4.5,0,7.2-3.3,8.1-9.8H17.8
		c-6.2-0.2-8.7-3.7-7.5-10.4c1.3-8,4.7-14.7,10.1-20c7-7.2,16.5-10.8,28.6-10.8c11.9,0,21.5,3.6,28.7,10.8
		C81.5,25.8,84.3,30.4,86.1,35.8z"/>
	<path class="st2" d="M165.2,28.4c0,13.3-12.1,13.6-12.1,13.6h-9.6v44.7h-32V42h-9.4c0,0-12.2-0.4-12.2-13.6
		c0-13,12.2-13.3,12.2-13.3h51.1C153.1,15.1,165.2,15.5,165.2,28.4z"/>
	<path class="st2" d="M165.6,86.7V53.7c0-12.7,3.6-22.7,10.7-29.8c7.2-7.2,16.8-10.8,28.7-10.8c11.9,0,21.5,3.6,28.7,10.8
		c7.2,7,10.8,16.9,10.8,29.8v32.9h-30.2V66.2h-18.7v20.5H165.6z M195.6,55.4h18.7v-2.6c0-9.1-3.1-13.9-9.3-14.4
		c-6.2,0.5-9.3,5.3-9.3,14.4V55.4z"/>
	<path class="st2" d="M325.2,35.8c1.7,4.4,0,6.6-5,6.6h-24.7c-1.4-4.5-3.9-6.8-7.5-6.8c-4.6,0-7.3,3.2-8,9.6h39.1
		c6.1,0.1,8.7,3.6,7.7,10.4c-1.4,8.1-4.8,14.8-10.1,20.2c-7.2,7.2-16.8,10.8-28.7,10.8c-12,0-21.6-3.6-28.6-10.8
		c-3.9-3.8-6.8-8.5-8.6-14c-1.5-4.4,0.2-6.6,5.1-6.5h24.7c1.3,4.5,3.8,6.8,7.4,6.8c4.5,0,7.2-3.3,8.1-9.8h-39.3
		c-6.2-0.2-8.7-3.7-7.5-10.4c1.3-8,4.7-14.7,10.1-20c7-7.2,16.5-10.8,28.6-10.8c11.9,0,21.5,3.6,28.7,10.8
		C320.5,25.8,323.4,30.4,325.2,35.8z"/>
	<path class="st2" d="M363.5,60v26.6h-32V28.6c0-10,5.3-15,15.9-15c10.7,0,16.1,5,16.1,15v20.6h9.3V28.6c0-10,5.4-15,16.1-15
		c10.6,0,15.9,5,15.9,15v58.1h-32V60H363.5z"/>
	<path class="st2" d="M447.9,11.2c11.9,0,21.5,3.6,28.7,10.8c5.3,5.3,8.7,12,10.1,20.2c1.1,6.7-1.5,10.2-7.7,10.4h-39.1
		c0.8,6.4,3.5,9.6,8,9.6c3.7,0,6.2-2.3,7.5-6.8h24.7c5,0,6.7,2.2,5,6.6c-1.8,5.4-4.6,10-8.4,13.8c-7.2,7.2-16.8,10.8-28.7,10.8
		c-11.9,0-21.5-3.6-28.6-10.8c-5.3-5.4-8.7-12.1-10.1-20c-0.9-6.6-0.4-13.2,1.5-19.9c1.8-5.6,4.7-10.3,8.6-14
		C426.4,14.8,436,11.2,447.9,11.2z M439.9,41.7H456c-0.9-6.5-3.6-9.8-8.1-9.8c-3.5,0-6,2.3-7.4,6.8L439.9,41.7z"/>
	<path class="st2" d="M565.4,26.4c-0.2,9.7-5.7,14.3-16.5,13.8c-5.1,0-10.6-1-16.4-2.9c-6-1.9-9.1,1.4-9.2,9.9v39.4h-31.9V28.3
		c0-10.1,5.3-15.2,15.9-15.2c8,0,13,2.8,14.9,8.3c8.9-6.8,17.3-10.2,25.1-10.2C559.2,11.2,565.2,16.2,565.4,26.4z"/>
</g>
<g>
	<g>
		<path class="st3" d="M86.1,35.8c1.7,4.4,0,6.6-5,6.6H56.5c-1.4-4.5-3.9-6.8-7.5-6.8c-4.6,0-7.3,3.2-8,9.6h39.1
			c6.1,0.1,8.7,3.6,7.7,10.4c-1.4,8.1-4.8,14.8-10.1,20.2c-7.2,7.2-16.8,10.8-28.7,10.8c-12,0-21.6-3.6-28.6-10.8
			c-3.9-3.8-6.8-8.5-8.6-14c-1.5-4.4,0.2-6.6,5.1-6.5h24.7c1.3,4.5,3.8,6.8,7.4,6.8c4.5,0,7.2-3.3,8.1-9.8H17.8
			c-6.2-0.2-8.7-3.7-7.5-10.4c1.3-8,4.7-14.7,10.1-20c7-7.2,16.5-10.8,28.6-10.8c11.9,0,21.5,3.6,28.7,10.8
			C81.5,25.8,84.3,30.4,86.1,35.8z"/>
		<path class="st5" d="M80.1,45.3H41c0.7-6.4,3.4-9.6,8-9.6c3.6,0,6.1,2.3,7.5,6.8h24.7c5,0,6.7-2.2,5-6.6c-1.8-5.4-4.6-10-8.4-13.8
			c-7.2-7.2-16.8-10.8-28.7-10.8c-2.1,0-4.2,0.1-6.1,0.3c8.4,0.3,15.3,0.5,21.6,5.9c10.5,9-1.8,18.1-7.8,15.1
			c-5.7-2.9-20.2-3.9-20.2,12.6c0,0,0,2.5,4.7,2.5s22.6,0,22.6,0s12.1-1.2,12.1,5.4c0,6.3-7.7,35.2-46.1,29.6
			c5.5,2.7,11.9,4.1,19.3,4.1c11.9,0,21.5-3.6,28.7-10.8c5.3-5.3,8.7-12,10.1-20.2C88.8,48.9,86.2,45.4,80.1,45.3z"/>
		<path class="st5" d="M34.9,84.4l-3.7-1.6c-11.8-5.1-16.6-16.3-16.6-20.4s2.4-4.6,2.4-4.6s12.9,0,18.5,0c5.6,0,1.4,7.8,14.1,7.8
			c12.7,0,11.9-14.5,11.9-14.5h-2.9c0,0-26.8,0-35.3,0c-8.5,0-7.4-15.7-1.9-26.3c3.3-6.4,9.2-9.9,13.4-11.7
			C29.1,15,24.3,17.9,20.4,22c-5.4,5.3-8.8,12-10.1,20c-1.2,6.7,1.3,10.2,7.5,10.4h39.3c-0.9,6.5-3.6,9.8-8.1,9.8
			c-3.6,0-6.1-2.3-7.4-6.8H16.9c-4.9-0.1-6.6,2.1-5.1,6.5c1.8,5.5,4.7,10.2,8.6,14c4.4,4.5,9.8,7.7,16.3,9.3L34.9,84.4z"/>
		<path class="st1" d="M80.1,45.3H41c0.7-6.4,3.4-9.6,8-9.6c3.6,0,6.1,2.3,7.5,6.8h24.7c5,0,6.7-2.2,5-6.6c-1.8-5.4-4.6-10-8.4-13.8
			c-6-6-13.6-9.5-22.9-10.5c4.3,0.8,8.5,2.4,11.8,5.4c10.9,10,6.3,15.5,5.2,16.6c-1.5,1.5-6.7,7.5-16.2,2.2
			c-9.4-5.2-14.5-0.5-16.4,5c-1.9,5.6,0.4,5.9,2.6,5.9c3.5,0,33.1,0,33.1,0s9.7-1.1,5.8,9.8c-3.8,10.7-12,28.4-43.2,28.9
			c3.5,0.8,7.3,1.2,11.4,1.2c11.9,0,21.5-3.6,28.7-10.8c5.3-5.3,8.7-12,10.1-20.2C88.8,48.9,86.2,45.4,80.1,45.3z"/>
		<g>
			<path class="st1" d="M13.1,61.3c0-5,4.5-4.5,4.5-4.5s8.4,0,17,0c8.6,0,5.8,7.4,15.1,7.4s9.6-12.7,9.6-12.7s-28.4,0-37.8,0
				c-9.4,0-8.3-8.9-8.3-8.9c0-17.5,13-25.8,20.2-29c-5,1.8-9.4,4.6-13.1,8.4c-5.4,5.3-8.8,12-10.1,20c-1.2,6.7,1.3,10.2,7.5,10.4
				h39.3c-0.9,6.5-3.6,9.8-8.1,9.8c-3.6,0-6.1-2.3-7.4-6.8H16.9c-4.9-0.1-6.6,2.1-5.1,6.5c1.8,5.5,4.7,10.2,8.6,14
				c3.4,3.5,7.4,6.1,11.9,7.9C21.5,79.2,13.1,67.3,13.1,61.3z"/>
			<path class="st1" d="M36.1,85c0.2,0.1,0.4,0.1,0.6,0.2l-0.1-0.1C36.3,85.1,36.2,85.1,36.1,85z"/>
		</g>
		<path class="st0" d="M80.1,45.3H41c0.7-6.4,3.4-9.6,8-9.6c3.6,0,6.1,2.3,7.5,6.8h24.7c5,0,6.7-2.2,5-6.6c-1.8-5.4-4.6-10-8.4-13.8
			c-6-6-13.6-9.5-22.9-10.5c5.2,0.6,11.9,3,15.2,6c10.9,10,10,15.5,8.4,18.7C76,40.9,65.1,41.8,59,39.4c-1.7-0.7-5.2-4.8-10.1-4.8
			c-4.4,0-6.9,2.6-8,5.7c-1.9,5.6-1.3,5.8,0.9,5.8c3.5,0,33.1,0,33.1,0s11.7-0.8,9.3,10.5c-6.1,28.7-35.3,30.1-35.3,30.1
			s0.3,0,0.4,0c11.7-0.1,21.2-3.7,28.3-10.8c5.3-5.3,8.7-12,10.1-20.2C88.8,48.9,86.2,45.4,80.1,45.3z"/>
		<path class="st7" d="M80.1,45.3H41c0.7-6.4,3.4-9.6,8-9.6c3.6,0,6.1,2.3,7.5,6.8h24.7c5,0,6.7-2.2,5-6.6c-1.8-5.4-4.6-10-8.4-13.8
			c-1.6-1.6-3.3-3-5.1-4.2c2.9,2.5,7.3,7.1,9.7,12.8c3.6,8.8-0.2,10.6-4.8,10.6c-4.6,0-18.9,0-18.9,0h-1.2c0,0-2.4-5.9-8.9-5.9
			s-8.1,8.6-8.1,9.8c0,0,0.1,0.5,0.7,0.5s37.5,0,37.5,0s5.6,0.6,7,4.5S85,66.9,75,76.9c-2.5,2.5-12.2,8.6-23.2,9.2
			C41.1,86.7,35.1,85,30.5,83c3.6,1.6,11.5,4.9,25.1,3.2c12.8-1.6,19.5-7.8,22-10.4c5.3-5.3,8.7-12,10.1-20.2
			C88.8,48.9,86.2,45.4,80.1,45.3z"/>
		<path class="st7" d="M17.8,52.4h39.3c-0.9,6.5-3.6,9.8-8.1,9.8c-3.6,0-6.1-2.3-7.4-6.8H16.9c-4.9-0.1-6.6,2.1-5.1,6.5
			c1.3,3.9,3.1,7.4,5.5,10.5c-3-4.5-5.4-9.3-5.4-11.8c0-4,3.7-4.3,3.7-4.3s21.4,0,23.5,0s2.1,1.2,2.1,1.2c3.1,6.5,8.4,5.5,8.4,5.5
			c7.3,0,7.8-10.8,7.8-10.8s-30.8,0-38.8,0c-8,0-7.6-7-7.6-7c0-9.1,3.9-16.4,7.3-20.9c-4.2,4.9-6.9,10.9-8,17.8
			C9.1,48.7,11.6,52.2,17.8,52.4z"/>
		<path class="st4" d="M64.5,20.5c0,0-8.1-8-23.1-5.8c-15,2.1-19.7,18.6-20.3,25.8c-0.7,7.2,1.1,9.7,4.9,9.7s36.7,0,36.7,0
			s1.2,19-12.2,19s-13.3-8.4-18.7-8.4c-5.4,0-13.3,1.6-10.8,8.8c2.5,7.2,22.2,16.7,36.5,7.2c14.3-9.6,19.7-28,4.5-28
			c-15.1,0-26.7,0-26.7,0s-3.6-0.4-3.5-2.9c0.1-2.5,0.1-10.2,5.7-14.2c5.6-4,14.5-3.6,18.9-1.9S66.4,26.6,64.5,20.5z"/>
		<path class="st6" d="M40.1,14.5c0,0-12.8,1.4-18.2,19c-1,3.3-2.1,12,0.9,13.9c0,0-9.2-2.5-4.5-14.6C21.3,25.1,30.1,16.2,40.1,14.5
			z"/>
		<path class="st6" d="M64,47.1c0,0,15.7-2.3,18.5,3.3C85.2,56,78.7,67,78.7,67S89.9,45.9,64,47.1z"/>
	</g>
	<g>
		<path class="st3" d="M165.2,28.4c0,13.3-12.1,13.6-12.1,13.6h-9.6v44.7h-32V42h-9.4c0,0-12.2-0.4-12.2-13.6
			c0-13,12.2-13.3,12.2-13.3h51.1C153.1,15.1,165.2,15.5,165.2,28.4z"/>
		<path class="st5" d="M153.1,15.1h-8.3c3.9,1.6,8,3.7,8,10.8c0,10.8-12.2,10.6-12.2,10.6s0,0-4.2,0c-4.2,0-3.5,3.5-3.5,3.5v38.8
			c0,0,0,0.2,0,0.3c0,1.7-1.9,1.6-1.9,1.6h-13.4c0,0-1.6,0.1-1.6-1.6c0-6.9,0-33.8,0-37.6c0-4.4-5-4.1-5-4.1s-3.9,0-9.7,0
			c-5.8,0-10.4-5.7-7.6-14.7c1.5-4.9,5.4-6.8,8.7-7.5h-0.4c0,0-12.2,0.3-12.2,13.3c0,13.3,12.2,13.6,12.2,13.6h9.4v44.7h32V42h9.6
			c0,0,12.1-0.3,12.1-13.6C165.2,15.5,153.1,15.1,153.1,15.1z"/>
		<path class="st1" d="M153.1,15.1h-6c3.6,1,10.1,3.3,10.1,10.4c0,10.6-9.2,13.5-14.9,13.5c-5.7,0-5.8,1.7-5.8,6.1
			c0,3.7,0,28.8,0,36.1c0,2-2.2,2-2.2,2h-20.7c0,0,0-29.9,0-39.8c0-2.8,0.3-4-5-4c-5.4,0-16.9,1.1-17.5-9.6c-0.6-9,2.3-10.5,4.9-13
			c-3.1,1.7-6.1,5-6.1,11.5c0,13.3,12.2,13.6,12.2,13.6h9.4v44.7h32V42h9.6c0,0,12.1-0.3,12.1-13.6
			C165.2,15.5,153.1,15.1,153.1,15.1z"/>
		<path class="st0" d="M153.1,15.1h-1.6c3.3,0.8,10.1,1.9,10.1,11.8c0,13.8-15.6,13.9-18.9,13.9c-3.2,0-2.7,1.6-2.7,12.2
			c0,7.8,0,28.4,0,28.4s0.1,3.6-3.1,3.6c-2.9,0-22.5,0-25.5,0v1.6h32V42h9.6c0,0,12.1-0.3,12.1-13.6
			C165.2,15.5,153.1,15.1,153.1,15.1z"/>
		<path class="st7" d="M156.1,15.6c3.9,1.3,7.7,4.5,7.7,12.4c0,13.5-14.3,12.8-14.3,12.8s-2.8,0-5.1,0c-2.3,0-2,2.4-2,2.4
			s0,37.7,0,40.3s-1.7,2.4-1.7,2.4s-24.1,0-26.4,0c-2.3,0-2.1-2.1-2.1-2.1s0-38.2,0-41.3c0-1.7-0.9-1.3-8.6-1.3
			c-7.7,0-10.8-5-10.8-5c-4-5.2-2.1-12.3-0.9-15.4c-1.2,1.9-2,4.3-2,7.6c0,13.3,12.2,13.6,12.2,13.6h9.4v44.7h32V42h9.6
			c0,0,12.1-0.3,12.1-13.6C165.2,19.6,159.7,16.6,156.1,15.6z"/>
		<path class="st4" d="M136.7,18.6c0,0-10.8,2.5-23.6,0c-12.8-2.5-17.9,1.8-17.7,8.3c0.2,6.6,9,9.6,17.7,8.7
			c8.7-0.9,8.9,13.8,7.6,21.6c-1.2,7.8-5.5,20.9,4.6,20.7c10.1-0.2,5.3-29.7,4.4-38.1c-0.9-8.3,3.9-7.4,6.9-6.6
			c3,0.9,12.8-0.7,12.8-8.9C149.4,16.3,138.1,17.5,136.7,18.6z"/>
		<path class="st6" d="M100.2,18.2c0,0-6.2,2.1-6.6,8.6c-0.4,6.6,4.3,9.2,12.4,9c0,0-9.3-1.7-9.6-8.9C96,19.6,100.2,18.2,100.2,18.2
			z"/>
	</g>
	<g>
		<path class="st3" d="M165.6,86.7V53.7c0-12.7,3.6-22.7,10.7-29.8c7.2-7.2,16.8-10.8,28.7-10.8c11.9,0,21.5,3.6,28.7,10.8
			c7.2,7,10.8,16.9,10.8,29.8v32.9h-30.2V66.2h-18.7v20.5H165.6z M195.6,55.4h18.7v-2.6c0-9.1-3.1-13.9-9.3-14.4
			c-6.2,0.5-9.3,5.3-9.3,14.4V55.4z"/>
		<path class="st5" d="M233.7,23.9c-7.2-7.2-16.8-10.8-28.7-10.8c-3.3,0-6.5,0.3-9.4,0.9c5.3,0,15.9,1,24.2,9
			c11.5,11.2,12,20.7,12,28c0,7.3,0,29,0,29h-9.9V46.2c0,0-0.4-15.2-16.3-15.2c-16.9,0-15.1,20.7-15.1,24.8c0,4.1,0,30.6,0,30.6v0.3
			h5.1V66.2h18.7v20.5h30.2V53.7C244.5,40.9,240.9,31,233.7,23.9z M214.3,55.4h-18.7v-2.6c0-9.1,3.1-13.9,9.3-14.4
			c6.2,0.5,9.3,5.3,9.3,14.4V55.4z"/>
		<path class="st5" d="M170.1,44.5c0-8.3,2-14.6,4.9-19.3c-6.3,7-9.5,16.5-9.5,28.5v32.9h4.5C170.1,80.4,170.1,66.6,170.1,44.5z"/>
		<path class="st1" d="M172.4,28.6c-4.6,6.6-6.8,15-6.8,25.2v32.9h2.1V51.2C167.7,42.4,169.3,34.9,172.4,28.6z"/>
		<path class="st1" d="M233.7,23.9c-7.2-7.2-16.8-10.8-28.7-10.8c-0.4,0-0.7,0-1,0c9.1,0.8,24.6,4.9,31.4,22.5c0,0,2.3,4.1,2.3,19.5
			c0,15.4,0,23.9,0,23.9s0.1,3.7-3.7,3.7c-3.9,0-11.2,0-11.2,0s-4.3,0.3-4.3-3.7c0-2.9,0-20.6,0-29.6c0-3.2-1.3-15-13-15
			c-10.6,0-12.3,12.4-12.3,16.2c0,3.9,0,30.8,0,30.8v5.2h2.6V66.2h18.7v20.5h30.2V53.7C244.5,40.9,240.9,31,233.7,23.9z M214.3,55.4
			h-18.7v-2.6c0-9.1,3.1-13.9,9.3-14.4c6.2,0.5,9.3,5.3,9.3,14.4V55.4z"/>
		<path class="st5" d="M170,81.5c0,0-0.1,2.1,1.1,2.1c1.3,0,19.1,0,19.1,0s1.3-0.2,1.3-2c0-1.8,1.5-1.5,1.5-1.5v6.5h-23.4v-4.8
			L170,81.5z"/>
		<path class="st0" d="M233.7,23.9c-3.8-3.8-8.3-6.6-13.4-8.4c7,3.7,20.7,13.3,20.7,32.4c0,25.6,0,31.3,0,31.3s0.5,5.3-4.9,5.3
			c-5.4,0-15.1,0-15.1,0s-4.9,0.3-4.9-6.1c0-6.4,0-13.5,0-13.5s0.7-3.3-3.1-3.3s-15.8,0-15.8,0s-2.7-0.5-2.7,2.7s0,19,0,19
			s-0.1,1.7-3,1.7c-2.9,0-25.6,0-25.6,0h-0.4v1.7h30.1V66.2h18.7v20.5h30.2V53.7C244.5,40.9,240.9,31,233.7,23.9z"/>
		<path class="st7" d="M169.2,34.3c-2.4,5.5-3.7,12-3.7,19.5v32.9h1.1v-35C166.6,45.2,167.5,39.4,169.2,34.3z"/>
		<path class="st0" d="M205.5,37.9c-7.1,0.6-10.6,6-10.6,16.4v2.9h21.2v-2.9C216.1,43.9,212.5,38.4,205.5,37.9z M214.3,55.4h-18.7
			v-2.6c0-9.1,3.1-13.9,9.3-14.4c6.2,0.5,9.3,5.3,9.3,14.4V55.4z"/>
		<path class="st7" d="M233.7,23.9c-0.3-0.3-0.6-0.6-0.9-0.8c5,4.9,9.9,12,9.9,20.8c0,17.9,0,35.2,0,35.2s0.7,6.8-4.1,6.8
			s-19.1,0-19.1,0s-4.4,0.5-4.4-2.8c0-3.3,0-15.3,0-15.3s0.5-2.9-2.9-2.9c-3.4,0-15.5,0-15.5,0s-1.1,0-1.1,1.3h18.7v20.5h30.2V53.7
			C244.5,40.9,240.9,31,233.7,23.9z"/>
		<path class="st7" d="M205.2,38.2c-2.1,0.2-3.8,0.8-5.2,2c1.4-1,3-1.6,5-1.8c6.2,0.5,9.3,5.3,9.3,14.4v2.6h-18.7v-2.6
			c0-0.5,0-1.1,0-1.6c0,0.7-0.1,1.4-0.1,2.1v2.7h19.1v-2.7C214.8,43.8,211.6,38.7,205.2,38.2z"/>
		<path class="st4" d="M173.8,45.1c0,0,1.9,10,0.5,17c-1.3,7-6.8,20.2,6.6,20.7c13.4,0.5,6.8-19.7,6.6-23.5
			c-0.1-3.9-1.1-31.9,14.5-32.1c15.5-0.3,22.2,6.5,22.3,16.6c0.1,10.1-4.9,34.3,2.1,34.9c7,0.7,3.6-29.2,2.3-34
			c-1.3-4.8-4.5-28.7-27.9-25.9C177.5,21.6,173.7,35.1,173.8,45.1z"/>
		<path class="st6" d="M197.8,17.3c0,0-25.9,2.3-26.7,27.8C171.1,45.1,181.7,20.4,197.8,17.3z"/>
		<path class="st7" d="M195.6,86c-4.8,0-26.1,0-29.6,0v0.7h29.6V86z"/>
	</g>
	<g>
		<path class="st3" d="M325.2,35.8c1.7,4.4,0,6.6-5,6.6h-24.7c-1.4-4.5-3.9-6.8-7.5-6.8c-4.6,0-7.3,3.2-8,9.6h39.1
			c6.1,0.1,8.7,3.6,7.7,10.4c-1.4,8.1-4.8,14.8-10.1,20.2c-7.2,7.2-16.8,10.8-28.7,10.8c-12,0-21.6-3.6-28.6-10.8
			c-3.9-3.8-6.8-8.5-8.6-14c-1.5-4.4,0.2-6.6,5.1-6.5h24.7c1.3,4.5,3.8,6.8,7.4,6.8c4.5,0,7.2-3.3,8.1-9.8h-39.3
			c-6.2-0.2-8.7-3.7-7.5-10.4c1.3-8,4.7-14.7,10.1-20c7-7.2,16.5-10.8,28.6-10.8c11.9,0,21.5,3.6,28.7,10.8
			C320.5,25.8,323.4,30.4,325.2,35.8z"/>
		<path class="st5" d="M319.1,45.3H280c0.7-6.4,3.4-9.6,8-9.6c3.6,0,6.1,2.3,7.5,6.8h24.7c5,0,6.7-2.2,5-6.6
			c-1.8-5.4-4.6-10-8.4-13.8c-7.2-7.2-16.8-10.8-28.7-10.8c-2.1,0-4.2,0.1-6.1,0.3c8.4,0.3,15.3,0.5,21.6,5.9
			c10.5,9-1.8,18.1-7.8,15.1c-5.7-2.9-20.2-3.9-20.2,12.6c0,0,0,2.5,4.7,2.5c4.6,0,22.6,0,22.6,0s12.1-1.2,12.1,5.4
			c0,6.3-7.7,35.2-46.1,29.6c5.5,2.7,11.9,4.1,19.3,4.1c11.9,0,21.5-3.6,28.7-10.8c5.3-5.3,8.7-12,10.1-20.2
			C327.8,48.9,325.3,45.4,319.1,45.3z"/>
		<path class="st5" d="M273.9,84.4l-3.7-1.6c-11.8-5.1-16.6-16.3-16.6-20.4s2.4-4.6,2.4-4.6s12.9,0,18.5,0s1.4,7.8,14.1,7.8
			c12.7,0,11.9-14.5,11.9-14.5h-2.9c0,0-26.8,0-35.3,0c-8.5,0-7.4-15.7-1.9-26.3c3.3-6.4,9.2-9.9,13.4-11.7
			c-5.6,1.8-10.4,4.7-14.3,8.8c-5.4,5.3-8.8,12-10.1,20c-1.2,6.7,1.3,10.2,7.5,10.4h39.3c-0.9,6.5-3.6,9.8-8.1,9.8
			c-3.6,0-6.1-2.3-7.4-6.8H256c-4.9-0.1-6.6,2.1-5.1,6.5c1.8,5.5,4.7,10.2,8.6,14c4.4,4.5,9.8,7.7,16.3,9.3L273.9,84.4z"/>
		<path class="st1" d="M319.1,45.3H280c0.7-6.4,3.4-9.6,8-9.6c3.6,0,6.1,2.3,7.5,6.8h24.7c5,0,6.7-2.2,5-6.6
			c-1.8-5.4-4.6-10-8.4-13.8c-6-6-13.6-9.5-22.9-10.5c4.3,0.8,8.5,2.4,11.8,5.4c10.9,10,6.3,15.5,5.2,16.6
			c-1.5,1.5-6.7,7.5-16.2,2.2c-9.4-5.2-14.5-0.5-16.4,5c-1.9,5.6,0.4,5.9,2.6,5.9c3.5,0,33.1,0,33.1,0s9.7-1.1,5.8,9.8
			c-3.8,10.7-12,28.4-43.2,28.9c3.5,0.8,7.3,1.2,11.4,1.2c11.9,0,21.5-3.6,28.7-10.8c5.3-5.3,8.7-12,10.1-20.2
			C327.8,48.9,325.3,45.4,319.1,45.3z"/>
		<g>
			<path class="st1" d="M252.2,61.3c0-5,4.5-4.5,4.5-4.5s8.4,0,17,0s5.8,7.4,15.1,7.4s9.6-12.7,9.6-12.7s-28.4,0-37.8,0
				c-9.4,0-8.3-8.9-8.3-8.9c0-17.5,13-25.8,20.2-29c-5,1.8-9.4,4.6-13.1,8.4c-5.4,5.3-8.8,12-10.1,20c-1.2,6.7,1.3,10.2,7.5,10.4
				h39.3c-0.9,6.5-3.6,9.8-8.1,9.8c-3.6,0-6.1-2.3-7.4-6.8H256c-4.9-0.1-6.6,2.1-5.1,6.5c1.8,5.5,4.7,10.2,8.6,14
				c3.4,3.5,7.4,6.1,11.9,7.9C260.5,79.2,252.2,67.3,252.2,61.3z"/>
			<path class="st1" d="M275.1,85c0.2,0.1,0.4,0.1,0.6,0.2l-0.1-0.1C275.4,85.1,275.3,85.1,275.1,85z"/>
		</g>
		<path class="st0" d="M319.1,45.3H280c0.7-6.4,3.4-9.6,8-9.6c3.6,0,6.1,2.3,7.5,6.8h24.7c5,0,6.7-2.2,5-6.6
			c-1.8-5.4-4.6-10-8.4-13.8c-6-6-13.6-9.5-22.9-10.5c5.2,0.6,11.9,3,15.2,6c10.9,10,10,15.5,8.4,18.7c-2.4,4.6-13.3,5.6-19.4,3.1
			c-1.7-0.7-5.2-4.8-10.1-4.8c-4.4,0-6.9,2.6-8,5.7c-1.9,5.6-1.3,5.8,0.9,5.8c3.5,0,33.1,0,33.1,0s11.7-0.8,9.3,10.5
			C317.3,85.3,288,86.7,288,86.7s0.3,0,0.4,0c11.7-0.1,21.2-3.7,28.3-10.8c5.3-5.3,8.7-12,10.1-20.2
			C327.8,48.9,325.3,45.4,319.1,45.3z"/>
		<path class="st7" d="M319.1,45.3H280c0.7-6.4,3.4-9.6,8-9.6c3.6,0,6.1,2.3,7.5,6.8h24.7c5,0,6.7-2.2,5-6.6
			c-1.8-5.4-4.6-10-8.4-13.8c-1.6-1.6-3.3-3-5.1-4.2c2.9,2.5,7.3,7.1,9.7,12.8c3.6,8.8-0.2,10.6-4.8,10.6s-18.9,0-18.9,0h-1.2
			c0,0-2.4-5.9-8.9-5.9c-6.6,0-8.1,8.6-8.1,9.8c0,0,0.1,0.5,0.7,0.5c0.6,0,37.5,0,37.5,0s5.6,0.6,7,4.5c1.4,3.9-0.7,16.8-10.7,26.8
			c-2.5,2.5-12.2,8.6-23.2,9.2c-10.8,0.6-16.8-1.1-21.3-3.1c3.6,1.6,11.5,4.9,25.1,3.2c12.8-1.6,19.5-7.8,22-10.4
			c5.3-5.3,8.7-12,10.1-20.2C327.8,48.9,325.3,45.4,319.1,45.3z"/>
		<path class="st7" d="M256.9,52.4h39.3c-0.9,6.5-3.6,9.8-8.1,9.8c-3.6,0-6.1-2.3-7.4-6.8H256c-4.9-0.1-6.6,2.1-5.1,6.5
			c1.3,3.9,3.1,7.4,5.5,10.5c-3-4.5-5.4-9.3-5.4-11.8c0-4,3.7-4.3,3.7-4.3s21.4,0,23.5,0s2.1,1.2,2.1,1.2c3.1,6.5,8.4,5.5,8.4,5.5
			c7.3,0,7.8-10.8,7.8-10.8s-30.8,0-38.8,0c-8,0-7.6-7-7.6-7c0-9.1,3.9-16.4,7.3-20.9c-4.2,4.9-6.9,10.9-8,17.8
			C248.1,48.7,250.6,52.2,256.9,52.4z"/>
		<path class="st4" d="M303.6,20.5c0,0-8.1-8-23.1-5.8c-15,2.1-19.7,18.6-20.3,25.8c-0.7,7.2,1.1,9.7,4.9,9.7c3.9,0,36.7,0,36.7,0
			s1.2,19-12.2,19c-13.4,0-13.3-8.4-18.7-8.4c-5.4,0-13.3,1.6-10.8,8.8c2.5,7.2,22.2,16.7,36.5,7.2c14.3-9.6,19.7-28,4.5-28
			c-15.1,0-26.7,0-26.7,0s-3.6-0.4-3.5-2.9c0.1-2.5,0.1-10.2,5.7-14.2c5.6-4,14.5-3.6,18.9-1.9C299.8,31.4,305.4,26.6,303.6,20.5z"
			/>
		<path class="st6" d="M279.1,14.5c0,0-12.8,1.4-18.2,19c-1,3.3-2.1,12,0.9,13.9c0,0-9.2-2.5-4.5-14.6
			C260.3,25.1,269.2,16.2,279.1,14.5z"/>
		<path class="st6" d="M303,47.1c0,0,15.7-2.3,18.5,3.3c2.8,5.6-3.7,16.6-3.7,16.6S328.9,45.9,303,47.1z"/>
	</g>
	<g>
		<path class="st3" d="M363.5,60v26.6h-32V28.6c0-10,5.3-15,15.9-15c10.7,0,16.1,5,16.1,15v20.6h9.3V28.6c0-10,5.4-15,16.1-15
			c10.6,0,15.9,5,15.9,15v58.1h-32V60H363.5z"/>
		<path class="st5" d="M388.9,13.6c-2,0-3.8,0.2-5.4,0.5c3.1,0.5,8.2,2.5,8.2,10.9c0,12,0,50.8,0,50.8s0.4,3.2-2.1,3.2
			c-2.5,0-9.2,0-9.2,0V59.5V57c0,0,0.5-3.6-1.9-3.6s-15.8,0-15.8,0s-3.7-0.4-3.7,2.9s0,21.1,0,21.1v2.3c0,0,0.4,2.7-2.1,2.7
			s-19.5,0-19.5,0s-1.9-0.1-1.9-1.6c0-1.5,0-55,0-55s-1-8.9,7.3-11.9c-7.5,1.3-11.3,6.2-11.3,14.7v58.1h32V60h9.3v26.6h32V28.6
			C404.9,18.6,399.6,13.6,388.9,13.6z"/>
		<path class="st1" d="M388.9,13.6c-1.5,0-2.8,0.1-4.1,0.3c4.5,0.4,12,2.4,12,11.1c0,12.6,0,50.3,0,50.3v1.7c0,0,0.5,4.4-3.7,4.4
			c-4.3,0-10.9,0-10.9,0s-5.2,0.5-5.2-3.5c0-4,0-18.5,0-18.5s0.7-3.2-2.8-3.2s-10.9,0-10.9,0s-2.9,0.1-2.9,2.9s0,21.1,0,21.1
			s0.2,4-2.9,4c-4,0-20.1,0-20.1,0s-4.1,0.3-4.1-3.3c0-4.4,0-53.5,0-53.5s-0.1-6.9,3.4-11.1c-3.5,2.5-5.2,6.5-5.2,12.3v58.1h32V60
			h9.3v26.6h32V28.6C404.9,18.6,399.6,13.6,388.9,13.6z"/>
		<path class="st0" d="M390.2,13.6c4.1,1,10.1,3.8,10.1,11.8c0,12.1,0,52.7,0,52.7s0.9,5.4-2.9,5.4c-3.9,0-18.9,0-18.9,0
			s-3.7,0.4-3.7-4.5c0-4.9,0-19.3,0-19.3s0.1-1.8-1.6-1.8c-3.3,0-9.6,0-9.6,0s-1.7-0.5-1.7,1.7c0,3.2,0,23.7,0,23.7s0.3,2-2,2
			s-28.3,0-28.3,0l-0.2-0.2v1.6h32V60h9.3v26.6h32V28.6C404.9,19,400,14,390.2,13.6z"/>
		<path class="st7" d="M332.2,31.2c0-5,0.5-8.7,1.3-11.4c-1.3,2.3-2,5.2-2,8.8v58.1h0.7C332.2,81.2,332.2,51.4,332.2,31.2z"/>
		<g>
			<path class="st7" d="M360,85.8c-2.3,0-28.3,0-28.3,0l-0.2-0.1h-0.1v1h32v-0.8C363.5,85.8,360.4,85.8,360,85.8z"/>
		</g>
		<path class="st7" d="M397.7,15.2c2.1,1.3,5.3,1.7,5.3,17c0,25.8,0,49.9,0,49.9s0.5,3.1-3.1,3.1s-23.4,0-23.4,0s-2.3-0.1-2.3-1.7
			c0-1.6,0-23.6,0-23.6s0-1-1.4-1c-1.4,0-8.3,0-8.3,0s-1-0.1-1,1.1h9.3v26.6h32V28.6C404.9,21.9,402.5,17.4,397.7,15.2z"/>
		<path class="st5" d="M360.8,23.3c0,6.5,0,23.4,0,23.4v1.9c0,0-0.2,2.3,2.3,2.3c2.5,0,13.1,0,13.1,0s2.3,0.2,2.3-3
			c0-3.2,0-20.8,0-20.8s0.1-11.9,5.1-13.1c-8.6,1.8-10.7,8.2-10.7,14.5v20.6h-9.3V28.6c0-6.9-2.5-11.4-7.6-13.6
			C357.9,16.3,360.8,19,360.8,23.3z"/>
		<path class="st1" d="M363.5,49.2v-0.5V28.6c0-3.7-0.7-6.7-2.2-9c0.3,0.9,0.5,2,0.5,3.1c0,6.5,0,22.8,0,22.8v1.9
			c0,0-0.7,2.3,1.8,2.3c2.5,0,10.4,0,10.4,0s2.3,0.2,2.3-3c0-3.2,0-20.8,0-20.8s0.1-5.9,1.9-9.8c-4.2,2.9-5.4,7.6-5.4,12.3v20.1v0.5
			H363.5z"/>
		<path class="st7" d="M372.8,28.6v20.1v0.5h-9.3v0.7c0,0,0,0,0,0c2.4,0,9.4,0,10.3,0v-2.3c0,0,0-9.9,0-19.8c0-4.6,1.5-8,3.1-10.5
			C373.8,20.1,372.8,24.4,372.8,28.6z"/>
		<path class="st4" d="M348.6,18.6c-5.2-0.2-13.5,4.1-10.4,19.7s1.9,16.9,0.8,24.8s-1.5,17.9,8.4,17.7s11.4-9.6,8.8-21.4
			S368.9,19.6,348.6,18.6z"/>
		<path class="st4" d="M388.3,46.4c0,0-1.1-7.3,0.2-14c1.2-6.7,0-11-3.5-11.3s-4.8,10.6-3.4,17c1.4,6.4,2.3,12.7,1.4,21.1
			c-0.9,8.3-2.5,16.3,2.8,16.1C391.1,75.1,390.4,55.9,388.3,46.4z"/>
		<path class="st6" d="M345.7,16.8c0,0-10.2-1-10.2,11c0,12,0,23.4,0,23.4S334.3,19.9,345.7,16.8z"/>
		<path class="st6" d="M386.4,16.9c0,0,11.1-0.5,12.7,11.4c2.1,15.4,2.2,19.1,2.2,19.1s0.1-17,0.1-20.3
			C401.4,23.8,399.8,15.5,386.4,16.9z"/>
	</g>
	<g>
		<path class="st3" d="M447.9,11.2c11.9,0,21.5,3.6,28.7,10.8c5.3,5.3,8.7,12,10.1,20.2c1.1,6.7-1.5,10.2-7.7,10.4h-39.1
			c0.8,6.4,3.5,9.6,8,9.6c3.7,0,6.2-2.3,7.5-6.8h24.7c5,0,6.7,2.2,5,6.6c-1.8,5.4-4.6,10-8.4,13.8c-7.2,7.2-16.8,10.8-28.7,10.8
			c-11.9,0-21.5-3.6-28.6-10.8c-5.3-5.4-8.7-12.1-10.1-20c-0.9-6.6-0.4-13.2,1.5-19.9c1.8-5.6,4.7-10.3,8.6-14
			C426.4,14.8,436,11.2,447.9,11.2z M439.9,41.7H456c-0.9-6.5-3.6-9.8-8.1-9.8c-3.5,0-6,2.3-7.4,6.8L439.9,41.7z"/>
		<path class="st5" d="M480.1,55.4h-24.7c-1.3,4.5-3.8,6.8-7.5,6.8c-4.5,0-7.2-3.2-8-9.6H479c6.2-0.2,8.8-3.7,7.7-10.4
			C485.3,34,482,27.3,476.6,22c-7.2-7.2-16.8-10.8-28.7-10.8c-1.9,0-3.8,0.1-5.6,0.3c6.3,0.8,20.9,3.7,24.6,12.6
			c4.8,11.5-6.7,10.8-10.3,7.4c-3.5-3.4-21.3-7.1-22,9.4c-0.7,16.2,1.6,27,11.9,27c8.2,0,10-5.2,13.5-5.2c3.5,0,8.1,0.1,8.1,0.1
			s2.8,0.4,0.6,4.5c-1.6,2.8-8.5,11.5-18.5,14.5c-11,3.3-27.5,1.9-36.9-14c1.6,3,3.6,5.7,6,8.1c7.1,7.2,16.6,10.8,28.6,10.8
			c11.9,0,21.5-3.6,28.7-10.8c3.8-3.8,6.6-8.4,8.4-13.8C486.8,57.6,485.1,55.4,480.1,55.4z M440.5,38.7c1.4-4.5,3.9-6.8,7.4-6.8
			c4.5,0,7.2,3.3,8.1,9.8h-16.1L440.5,38.7z"/>
		<path class="st5" d="M414.6,34.3c4.3-11,10.7-17,16.6-20.2c-4.5,1.8-8.4,4.4-11.8,7.9c-3.9,3.7-6.8,8.4-8.6,14
			c-1.9,6.6-2.4,13.2-1.5,19.9c0.1,0.6,0.2,1.2,0.4,1.9C409.6,51.5,410.9,43.8,414.6,34.3z"/>
		<g>
			<path class="st1" d="M411.6,38.9c2.1-7.2,5.5-13.2,10.1-17.9c1.5-1.6,3.1-3.1,4.7-4.5c-2.6,1.5-4.9,3.3-7.1,5.5
				c-3.9,3.7-6.8,8.4-8.6,14c-1.9,6.6-2.4,13.2-1.5,19.9c0,0.1,0.1,0.2,0.1,0.4C409.3,50.4,410.1,44.7,411.6,38.9z"/>
			<path class="st1" d="M430.6,14.5c0.2-0.1,0.4-0.2,0.5-0.3c-0.1,0-0.2,0.1-0.4,0.2C430.7,14.3,430.7,14.4,430.6,14.5z"/>
		</g>
		<g>
			<path class="st7" d="M410.5,39.4c2.1-7.2,5.5-13.2,10.1-17.9c1.5-1.6,4.2-3.6,5.9-4.9c-2.6,1.5-4.9,3.3-7.1,5.5
				c-3.9,3.7-6.8,8.4-8.6,14c-1.9,6.6-2.4,13.2-1.5,19.9c0,0.1,0.1,0.2,0.1,0.4C409.3,50.4,408.9,45.1,410.5,39.4z"/>
			<path class="st1" d="M430.6,14.5c0.2-0.1,0.4-0.2,0.5-0.3c-0.1,0-0.2,0.1-0.4,0.2C430.7,14.3,430.7,14.4,430.6,14.5z"/>
		</g>
		<path class="st1" d="M480.1,55.4h-24.7c-1.3,4.5-3.8,6.8-7.5,6.8c-4.5,0-7.2-3.2-8-9.6H479c6.2-0.2,8.8-3.7,7.7-10.4
			C485.3,34,482,27.3,476.6,22c-7.2-7.2-16.8-10.8-28.7-10.8c-0.6,0-1.1,0-1.7,0c6,0.8,21.1,3.8,27.1,14.5
			c7.6,13.5-6.5,15.8-11.8,12.9c-5.3-2.9-6.1-8.1-14.3-8.1s-10.4,9.7-10.4,14s-1.7,21.7,10.8,21.9c0,0,5.3-0.2,8.2-3.1
			c0,0,2.7-2.5,4.2-2.5s11.7,0,11.7,0s4.9-0.8,3.5,2.9c-1.4,3.7-21.2,36-54.8,13.1c7,6.6,16.2,9.9,27.6,9.9
			c11.9,0,21.5-3.6,28.7-10.8c3.8-3.8,6.6-8.4,8.4-13.8C486.8,57.6,485.1,55.4,480.1,55.4z M440.5,38.7c1.4-4.5,3.9-6.8,7.4-6.8
			c4.5,0,7.2,3.3,8.1,9.8h-16.1L440.5,38.7z"/>
		<path class="st0" d="M448.6,31.3c-4.2,0-7.1,2.7-8.8,8.1l-0.7,3.6c0,0-0.2,1.1,1.3,1.1c4,0,12.5,0,16.5,0c1.3,0,1.5-1.1,1.5-1.1
			C457.2,35.2,454,31.3,448.6,31.3z M440.5,38.7c1.4-4.5,3.9-6.8,7.4-6.8c4.5,0,7.2,3.3,8.1,9.8h-16.1L440.5,38.7z"/>
		<path class="st7" d="M451.6,32.9c2.3,1.4,3.8,4.3,4.4,8.8H440l-0.2,1.1h17.3C456.4,37.5,454.5,34.2,451.6,32.9z"/>
		<path class="st0" d="M480.1,55.4h-24.7c-1.3,4.5-3.8,6.8-7.5,6.8c-4.5,0-7.2-3.2-8-9.6H479c6.2-0.2,8.8-3.7,7.7-10.4
			C485.3,34,482,27.3,476.6,22c-4.8-4.8-10.6-8-17.5-9.6c5.5,2.1,17.6,8.3,21.1,24c2.7,12-17,11.5-17,11.5h-23.1c0,0-1.9,0-1.9,2.7
			c0,2.4,0.2,12.1,7.1,14c0,0,0.1,0,0.1,0c0.2,0,0.4,0.1,0.6,0.1c0.1,0,0.3,0,0.4,0.1c0.1,0,0.3,0,0.4,0.1c0.3,0,0.6,0,0.9,0
			c0.7,0,1.2,0,1.8-0.1c1.3-0.2,3.2-0.8,4.8-2.4c0,0,0.8-1,1.8-1.7c0.8-1,1.6-1.8,3.3-1.8c4.9,0,16.3,0,16.3,0s5.8-0.4,2.5,5.8
			c-3.3,6-21.1,31-52.1,16.7c6,3.6,13.2,5.4,21.6,5.4c11.9,0,21.5-3.6,28.7-10.8c3.8-3.8,6.6-8.4,8.4-13.8
			C486.8,57.6,485.1,55.4,480.1,55.4z"/>
		<path class="st7" d="M480.1,55.4h-24.7c-1.3,4.5-3.8,6.8-7.5,6.8c-4.5,0-7.2-3.2-8-9.6H479c6.2-0.2,8.8-3.7,7.7-10.4
			C485.3,34,482,27.3,476.6,22c-1.4-1.4-3-2.7-4.6-3.9c3.3,3,9.3,9.5,11.8,19c3.5,13.4-3.2,14.3-9.8,14.3c-6.6,0-33.9,0-33.9,0
			s-1.2,0.2-0.6,2.1s1.9,9.2,8,9.2c6,0,7.4-3.7,7.4-3.7s0.8-2.1,2.1-2.1c1.3,0,21.6,0,21.6,0s6.7-0.4,5,4.5
			c-1.7,4.7-13.3,33.5-51.3,22.8c4.6,1.7,9.8,2.5,15.6,2.5c11.9,0,21.5-3.6,28.7-10.8c3.8-3.8,6.6-8.4,8.4-13.8
			C486.8,57.6,485.1,55.4,480.1,55.4z"/>
		<path class="st4" d="M442.2,25.9c0,0,3.9-0.6,6.1-0.1c2.5,0.5,7.2,3.2,9.6-2.1c2.4-5.3-16.9-13.7-32-1.9
			c-18.1,14.2-12.7,39-7.7,46.6c5,7.6,21.2,16.6,33.6,10.4s4.4-11.2-4.2-7.6c-8.1,3.4-18.2-11.6-17.4-25.5
			C430.8,33.3,434.6,27.8,442.2,25.9z"/>
		<path class="st6" d="M437.6,15.8c0,0-24.4,4.2-24,36C413.5,51.8,419.2,24.3,437.6,15.8z"/>
		<path class="st6" d="M474.9,29c0,0,7,18.5-4.3,19c0,0,11.7,0.9,9.8-8.5C479.4,33.9,474.9,29,474.9,29z"/>
	</g>
	<g>
		<path class="st3" d="M565.4,26.4c-0.2,9.7-5.7,14.3-16.5,13.8c-5.1,0-10.6-1-16.4-2.9c-6-1.9-9.1,1.4-9.2,9.9v39.4h-31.9V28.3
			c0-10.1,5.3-15.2,15.9-15.2c8,0,13,2.8,14.9,8.3c8.9-6.8,17.3-10.2,25.1-10.2C559.2,11.2,565.2,16.2,565.4,26.4z"/>
		<path class="st5" d="M495.1,30.6c0-8.8,2.4-13.7,5.3-16.5c-6,1.9-9,6.6-9,14.2v58.4h3.7C495.1,80.8,495.1,49.5,495.1,30.6z"/>
		<path class="st1" d="M495.4,16.9c-2.7,2.5-4,6.3-4,11.4v58.4h2.1V25.8C493.5,22.2,494.1,19.3,495.4,16.9z"/>
		<path class="st5" d="M547.3,11.2c-7.8,0-16.2,3.4-25.1,10.2c-1.8-5.3-6.5-8.1-14.1-8.3c3.2,0.9,9.7,3.8,12.1,13.2
			c0,0,7.8-6.2,17.3-7.4c9.4-1.2,13.9,2.3,14.5,6.2c0.5,4-7.3,12.9-21.4,6.2c-15.3-7.2-18.1,5.8-18.1,9.8c0,0.7,0,44.5,0,44.5v1
			h10.8V47.3c0.1-8.5,3.2-11.8,9.2-9.9c5.8,1.9,11.3,2.9,16.4,2.9c10.8,0.5,16.3-4.1,16.5-13.8C565.2,16.2,559.2,11.2,547.3,11.2z"
			/>
		<rect x="494.5" y="81.3" class="st5" width="26" height="5.4"/>
		<path class="st1" d="M547.3,11.2c-7.8,0-16.2,3.4-25.1,10.2c-1.6-4.7-5.6-7.4-11.7-8.1c3.4,0.9,8.2,3.4,10.8,10.2
			c0,0,11.2-6.9,19.7-7.7c8.5-0.8,15,1.9,15.3,9.7c0.3,7.8-9,12.7-17,10.8c-8-2-15.5-6.8-20.6-1.7c-2.5,2.5-1.9,10.6-1.9,10.6v36.6
			c0,0,0.1,1.6-2.1,1.6c-5.1,0-21.5,0-21.5,0v3.3h23.6h3.8h2.8V47.3c0.1-8.5,3.2-11.8,9.2-9.9c5.8,1.9,11.3,2.9,16.4,2.9
			c10.8,0.5,16.3-4.1,16.5-13.8C565.2,16.2,559.2,11.2,547.3,11.2z"/>
		<path class="st7" d="M521.3,22.3c0,0,0.4-0.4,1.2-1.1c-0.1,0.1-0.2,0.2-0.3,0.2c-1.3-3.7-3.9-6.1-7.9-7.3
			C516.5,15.1,519.5,17.4,521.3,22.3z"/>
		<path class="st0" d="M547.3,11.2c-4.4,0-9.1,1.1-13.9,3.3c4.7-1.5,16.5-4.3,23.7,1.9c9.2,7.9,0.6,17.2,0.6,17.2s-7,7.8-22.5,2.7
			c-15.5-5.1-15.4,3.1-15.4,7.9c0,4.8,0,36.7,0,36.7s0.5,4.1-2.2,4.1c-2.4,0-21.7,0-25.6,0v1.9h24.6h3.8h2.8V47.3
			c0.1-8.5,3.2-11.8,9.2-9.9c5.8,1.9,11.3,2.9,16.4,2.9c10.8,0.5,16.3-4.1,16.5-13.8C565.2,16.2,559.2,11.2,547.3,11.2z"/>
		<g>
			<path class="st7" d="M492.6,21.1c-0.8,2-1.2,4.4-1.2,7.2v58.4h1.1V24.1C492.4,23,492.5,22,492.6,21.1z"/>
		</g>
		<path class="st7" d="M554.1,11.9c3.8,1.4,8.2,4.3,9.3,10.2c2.1,10.8-3.2,18.5-15.3,17.5c-12.1-0.9-16.5-5.3-22-3
			c-4.4,1.9-3.7,15.1-3.7,17c0,2,0,30.3,0,30.3s0.4,1.5-1.5,1.5c-1.8,0-26.6,0-29,0v1.3h24.6h3.8h2.8V47.3c0.1-8.5,3.2-11.8,9.2-9.9
			c5.8,1.9,11.3,2.9,16.4,2.9c10.8,0.5,16.3-4.1,16.5-13.8C565.2,18.4,561.5,13.6,554.1,11.9z"/>
		<path class="st4" d="M517.9,28.9c0,0,8.9-1.6,13.3,0.5c4.4,2.1,14.3,4.6,15-2.8c0.7-7.4-16.3-2.7-23.9-0.1c-7.6,2.5-7.1-1-9.7-5.2
			c-3.7-6-17.5-5.2-14.1,11.4c3.5,16.6-0.1,21.8-0.7,29.2c-0.5,7.4-2.5,17,6.5,16.6c9-0.4,6.2-16.3,5.4-29.4
			C509,35.2,513.7,28.1,517.9,28.9z"/>
		<path class="st6" d="M559.1,18.9c0,0,2.9,8.1-2.3,14.5c-5.4,6.7-16.7,2.1-16.7,2.1S556.2,40.9,559.1,18.9z"/>
		<path class="st6" d="M502.8,16.8c0,0-7.7,1.6-7.7,13.8s0,24.7,0,24.7S496.1,20.1,502.8,16.8z"/>
	</g>
</g>
</svg>
