<?xml version="1.0" encoding="utf-8"?>
<!-- Generator: Adobe Illustrator 16.0.0, SVG Export Plug-In . SVG Version: 6.00 Build 0)  -->
<!DOCTYPE svg PUBLIC "-//W3C//DTD SVG 1.1//EN" "http://www.w3.org/Graphics/SVG/1.1/DTD/svg11.dtd">
<svg version="1.1" id="Layer_1" xmlns="http://www.w3.org/2000/svg" xmlns:xlink="http://www.w3.org/1999/xlink" x="0px" y="0px"
	 width="523.077px" height="712.82px" viewBox="0 0 523.077 712.82" enable-background="new 0 0 523.077 712.82"
	 xml:space="preserve">
<g>
	<path fill="#775A45" stroke="#070808" stroke-width="4.6293" stroke-miterlimit="10" d="M402.062,474.733
		c-7.017,19.319-44.49,81.656-53.396,94.188c-23.168,32.636-44.349,54.348-49.588,59.542c-0.786,0.794-1.217,1.211-1.217,1.211
		c-35.336,10.943-62.521,14.999-83.044,15.557c-40.296,1.1-54.87-11.254-54.87-11.254c11.105-54.026,44.816-59.172,62.998-57.762
		c1.601,0.13,3.073,0.297,4.398,0.499c-1.363-0.309-2.713-0.63-4.039-0.938c-3.719-0.899-7.27-1.826-10.651-2.775
		c-126.88-35.692-17.131-107.896-17.131-107.896c7.411-35.254,20.322-65.613,20.322-65.613
		c-3.491-64.708,1.828-114.583,1.828-114.583h187.057c0,0,15.756,41.088,16.506,93.716
		C421.682,408.722,417.198,442.598,402.062,474.733z"/>
	<g>
		<path fill="#775A45" d="M234.859,578.346c0,0,33.743-30.07-2.227-66.595"/>
		<path fill="#070808" d="M234.859,578.346c0,0,0.181-0.236,0.52-0.679c0.341-0.437,0.805-1.108,1.399-1.945
			c0.593-0.84,1.257-1.896,2.02-3.089c0.73-1.218,1.539-2.59,2.336-4.121c0.801-1.529,1.586-3.219,2.315-5.03
			c0.759-1.8,1.389-3.752,1.958-5.774c0.557-2.029,0.944-4.156,1.229-6.322c0.197-2.173,0.367-4.387,0.199-6.596
			c-0.056-2.214-0.438-4.402-0.835-6.553c-0.269-1.064-0.535-2.12-0.798-3.163c-0.338-1.028-0.672-2.044-1-3.043
			c-0.39-0.984-0.773-1.952-1.148-2.9c-0.435-0.929-0.86-1.839-1.274-2.724c-0.404-0.896-0.914-1.707-1.332-2.538
			c-0.216-0.413-0.427-0.819-0.635-1.219c-0.234-0.384-0.464-0.761-0.689-1.131c-0.45-0.744-0.882-1.458-1.292-2.136
			c-0.418-0.677-0.854-1.294-1.244-1.89c-0.792-1.185-1.462-2.246-2.088-3.062c-1.206-1.674-1.867-2.68-1.867-2.68
			s0.944,0.718,2.548,2.06c0.395,0.342,0.856,0.698,1.315,1.13c0.463,0.428,0.938,0.916,1.46,1.426
			c0.514,0.518,1.084,1.053,1.648,1.651c0.536,0.623,1.101,1.279,1.688,1.964c0.294,0.345,0.595,0.697,0.9,1.056
			c0.282,0.379,0.569,0.765,0.862,1.156c0.571,0.796,1.198,1.598,1.753,2.485c0.545,0.897,1.104,1.818,1.676,2.761
			c0.513,0.979,1.002,2,1.518,3.033c0.474,1.053,0.878,2.159,1.321,3.268c0.375,1.133,0.729,2.294,1.051,3.474
			c0.56,2.382,0.99,4.852,1.086,7.351c0.155,2.496-0.043,5.001-0.38,7.428c-0.223,1.205-0.408,2.408-0.743,3.56
			c-0.274,1.167-0.643,2.289-1.023,3.383c-0.791,2.176-1.698,4.219-2.734,6.049c-0.492,0.929-1.045,1.787-1.565,2.622
			c-0.567,0.807-1.081,1.603-1.643,2.32c-1.061,1.475-2.184,2.708-3.177,3.783c-1.004,1.069-1.943,1.937-2.734,2.624
			C235.878,577.712,234.859,578.346,234.859,578.346z"/>
	</g>
	<g>
		<path fill="#775A45" d="M264.95,596.362c0,0-47.272-51.314-87.125,0"/>
		<path fill="#070808" d="M264.95,596.362c0,0-0.315-0.244-0.908-0.703c-0.591-0.457-1.493-1.086-2.614-1.899
			c-1.138-0.796-2.525-1.744-4.135-2.787c-0.802-0.525-1.668-1.062-2.589-1.611c-0.902-0.572-1.736-1.326-2.702-1.985
			c-1.922-1.324-4.021-2.743-6.346-4.057c-2.303-1.354-4.82-2.616-7.481-3.772c-2.663-1.157-5.5-2.121-8.427-2.909
			c-2.943-0.694-5.971-1.308-9.033-1.426c-1.527-0.162-3.056-0.05-4.578-0.052c-0.761,0.014-1.513,0.137-2.267,0.197
			c-0.75,0.096-1.511,0.103-2.243,0.279c-1.47,0.307-2.956,0.494-4.356,0.968c-0.708,0.204-1.411,0.407-2.109,0.609
			c-0.688,0.231-1.352,0.523-2.021,0.777c-0.665,0.269-1.334,0.509-1.979,0.792c-0.63,0.319-1.253,0.634-1.87,0.946
			c-0.614,0.317-1.234,0.606-1.825,0.936c-0.574,0.359-1.142,0.714-1.702,1.064c-0.56,0.349-1.113,0.693-1.657,1.033
			c-0.539,0.348-1.026,0.758-1.53,1.124c-0.982,0.768-1.988,1.434-2.853,2.206c-0.432,0.388-0.861,0.76-1.262,1.144
			c-0.391,0.396-0.797,0.753-1.242,1.052c-0.896,0.588-1.647,1.266-2.387,1.87c-1.458,1.23-2.808,2.254-3.781,3.235
			c-2.027,1.89-3.229,2.969-3.229,2.969s0.825-1.357,2.345-3.731c0.724-1.218,1.782-2.556,2.99-4.12
			c0.609-0.777,1.224-1.641,1.995-2.442c0.364-0.423,0.788-0.805,1.247-1.165c0.448-0.373,0.888-0.774,1.344-1.178
			c0.909-0.811,1.972-1.521,3.01-2.33c0.532-0.387,1.047-0.816,1.619-1.187c0.578-0.361,1.165-0.728,1.76-1.1
			c0.595-0.371,1.199-0.747,1.81-1.128c0.629-0.352,1.292-0.663,1.947-1.002c0.66-0.333,1.326-0.669,1.999-1.008
			c0.69-0.304,1.408-0.565,2.121-0.853c0.718-0.273,1.43-0.583,2.17-0.832c0.751-0.218,1.507-0.437,2.268-0.657
			c1.507-0.504,3.105-0.715,4.688-1.041c0.79-0.186,1.606-0.199,2.414-0.301c0.811-0.067,1.621-0.194,2.438-0.211
			c1.633-0.003,3.278-0.114,4.91,0.054c3.281,0.132,6.5,0.778,9.619,1.519c3.098,0.832,6.086,1.85,8.875,3.062
			c2.788,1.21,5.414,2.529,7.808,3.935c2.418,1.368,4.593,2.836,6.583,4.209c0.488,0.355,0.965,0.706,1.446,1.028
			c0.488,0.312,0.945,0.646,1.341,1.036c0.804,0.762,1.552,1.496,2.236,2.204c1.389,1.392,2.518,2.684,3.432,3.753
			c0.914,1.07,1.583,1.952,2.033,2.555C264.714,596.038,264.95,596.362,264.95,596.362z"/>
	</g>
	<path fill="#AF886B" d="M398.479,474.733c-7.02,19.315-42.104,79.421-51.01,91.961c-23.164,32.627-43.151,51.827-48.391,57.029
		c26.092-28.158,43.418-57.003,58.505-98.74c21.296-58.924,30.94-96.524,30.94-96.524c22.056-24.098,16.203-21.019,29.129-42.024
		C418.096,416.536,413.61,442.6,398.479,474.733z"/>
	<path fill="#E8BD9B" stroke="#070808" stroke-width="3.0862" stroke-miterlimit="10" d="M254.094,338.655
		c0,0-31.043,48.11-42.866,91.638c0,0-4.717,19.571,3.92,46.99c11.847,37.608,85.591,43.673,123.181-29.257
		c27.188-52.743,28.264-78.415,7.778-111.064C346.106,336.962,299.078,261.496,254.094,338.655z"/>
	<path fill="#775A45" stroke="#070808" stroke-width="4.6293" stroke-miterlimit="10" d="M193.133,347.703
		c29.415-14.604,37.443-9.048,37.443-9.048l16.337,55.301c-36.086,39.499-64.296,37.277-88.114,10.194
		c-32.168-36.574-1.553-74.588,57.174-110.3c19.381-12.463,30.94-21.634,30.94-21.634s0.858,4.98,14.444,21.634"/>
	<path fill="#775A45" stroke="#070808" stroke-width="4.6293" stroke-miterlimit="10" d="M390.072,250.414
		c0,0,10.269,7.209,20.539,21.678c12.062,16.968,24.111,43.897,19.65,80.882c-6.383,52.854-55.551,93.468-84.453,106.451
		l-0.013,0.012c-7.147,3.215-13.053,4.743-16.771,4.34c-18.087-1.932-65.909-5.536-108.366-102.207
		c-2.523-5.744-8.129-4.256-14.281-4.442c-20.161,0-24.034,3.71-24.034,3.71s0.464-31.274,28.481-36.808
		c35.471-7.005,83.417,12.933,114.346,50.378l30.802-24.146"/>
	<path fill="#AF886B" d="M196.479,588.592c-43.705,43.014,1.091,50.021,18.339,54.268c-40.296,1.102-52.479-10.067-52.479-10.067
		c9.694-47.834,40.866-58.898,59.049-57.486C219.297,577.867,205.228,579.98,196.479,588.592z"/>
	<path stroke="#000000" stroke-width="12.3447" stroke-miterlimit="10" d="M193.741,173.438
		c10.44,4.217-17.928,29.624-18.609,55.334c-1.052,39.657,55.693,66.095,55.693,66.095c84.103,36.103,146.399-7.228,155.022-10.973
		c5.141-2.234,30.467-17.602,37.148-35.266c13.025-34.47-21.585-69.66-21.585-69.66l1.763-16.447
		c4.295-4.938-8.375-15.843-11.527-18.805c8.646,5.292,56.877-14.41,31.126-47.975c-36.027-30.461-60.937,4.898-60.937,4.898
		C311.999,74.53,249.462,81.367,249.462,81.367c1.103-17.692-28.363-39.612-56.905-13.294c-32.093,29.592,14.143,49.53,14.143,49.53
		l-2.793,3.038c-12.666,20.097-7.494,32.631-7.494,32.631"/>
	<path fill="#775A45" d="M210.827,284.906c0,0-32.041-17.656-35.222-50.792c-2.37-24.721,20.61-52.697,20.61-52.697
		s-7.789-39.351,7.69-60.776"/>
	<path fill="#775A45" d="M403.584,179.349c0,0,34.726,34.98,21.694,69.44c-6.671,17.67-38.708,38.124-38.708,38.124
		s-5.01,3.023-13.71,6.938c-29.526,13.292-101.622,36.89-164.761-12.463l-3.121-164.021c0,0-44.206-14.954-12.421-49.295
		c26.681-28.839,57.905-6.32,57.751,12.641c0,0,50.563-1.494,88.842,9.545c8.262,2.384,15.947,5.36,22.439,9.048
		c0,0,22.184-36.902,62.756-4.091c24.731,33.452-20.705,54.228-29.06,49.163c2.726,2.55,10.76,10.591,10.341,15.95
		c-0.072,0.912-0.382,1.742-1.007,2.454l-1.003,16.045L403.584,179.349z"/>
	<path fill="#FFFFFF" d="M217.78,160.851c0,0-13.47,24.506,33.132,28.469C233.899,170.216,222.77,160.313,217.78,160.851z"/>
	<path fill="#FFFFFF" d="M361.378,175.127c0,0-28.035,1.796-52.56,16.691C317.051,203.836,369.012,209.047,361.378,175.127z"/>
	<path fill="#961B1E" d="M404.727,162.137c0,0-23.855-22.047-108.249-13.239c-68.782,5.287-100.147-12.81-100.147-12.81
		l-2.104-0.514c0,0-5.508,29.757-6.411,38.479c0,0,42.909,24.424,54.896,27.527c11.991,3.107,78.191,19.904,116.467-0.989
		c38.276-20.895,44.512-21.881,44.512-21.881L404.727,162.137z M217.78,160.851c0,0,4.148-2.111,16.788,10.339
		c12.642,12.449,16.344,18.13,16.344,18.13S206.763,189.026,217.78,160.851z M343.186,201.218
		c-20.123,4.568-33.933-10.503-33.933-10.503s24.382-9.554,30.744-12.558c6.366-3.006,23.229-1.739,23.229-1.739
		S367.7,195.651,343.186,201.218z"/>
	<path fill="#39A59B" d="M326.972,183.773c0,0,3.102,13.459,17.638,12.068c14.535-1.391,12.238-19.155,12.238-19.155
		s-22.833,0.015-31.678,6.898"/>
	<path fill="#39A59B" d="M227.333,167.092c0,0-6.164,22.669,19.017,20.227c0,0,4.859,1.09-13.972-17.13"/>
	<path stroke="#000000" stroke-width="1.5431" stroke-miterlimit="10" d="M232.722,172.132c0,0-2.024,10.95,10.427,10.621
		C243.148,182.753,234.165,172.784,232.722,172.132z"/>
	<path fill="#CD2027" d="M283.585,174.072c0,0-4.729,22.596,5.864,18.671c10.588-3.923,44.816-19.926,59.439-20.658
		c14.623-0.733,40.853,4.16,24.997-17.2C340.769,144.165,321.604,166.993,283.585,174.072z"/>
	<path fill="#CD2027" d="M209.355,147.476c0,0-10.227,2.96-4.299,13.549c0,0,7.972-5.155,15.684-2.729
		c7.711,2.429,28.998,38.325,47.79,34.639l-0.468-11.046c0,0-5.138,5.454-10.672,0C229.694,154.604,217.192,138.871,209.355,147.476
		z"/>
	<path fill="#CD2027" d="M194.986,138.056c0,0-2.794,27.99-5.721,36.253c0,0,11.185,9.316,25.25,15.787
		c1.411,0.65,2.836,1.285,4.263,1.895c15.604,6.673-21.097-21.097-19.694-31.962s11.759-15.396,11.759-15.396
		S199.631,142.652,194.986,138.056z"/>
	<path stroke="#000000" stroke-width="1.5431" stroke-miterlimit="10" d="M331.891,182.672c0,0,4.779,7.829,10.189,7.491
		c9.886-0.615,8.603-12.635,8.603-12.635s-11.888,1.276-18.343,5.225"/>
	<path fill="#E9BB9B" d="M210.891,285.211c0,0-18.533-46.7,19.51-87.986c0,0,24.004,8.698,30.53,8.018
		c6.528-0.682,61.463,11.94,85.067,0.833c0,0,45.708,54.361-0.97,97.923C345.028,303.998,273.762,328.062,210.891,285.211z"/>
	<path fill="#8E1A1C" d="M282.526,260.519c0,0,49.72-15.528,56.926-22.024C339.452,238.494,333.008,293.447,282.526,260.519z"/>
	<path fill="#FFFFFF" d="M290.939,259.717c0,0,30.291-7.679,45.73-21.018C336.67,238.699,327.795,270.483,290.939,259.717z"/>
	<path fill="#AC8569" d="M320.443,85.932c0,0-35.338-10.336-70.133-5.214c-21.12,3.337-33.922,21.424-33.922,21.424
		s-20.668-0.396-22.249-17.233c-1.583-16.835,20.34-28.679,22.185-30.146c-7.748-1.43-63.73,29.61-19.229,58.796l7.281,2.901
		c0,0-8.882,12.281-8.047,19.628c3.812,0.674,3.812,0.674,3.812,0.674l6.768,4.395C206.909,141.156,227.734,69.166,320.443,85.932z"
		/>
	<path fill="#AC8569" d="M203.698,185.289l-8.356-4.825l-1.648,2.646c-45.711,54.284,1.486,89.048,1.486,89.048l0,0
		C165.576,229.346,203.698,185.289,203.698,185.289z"/>
	<path fill="#FFFFFF" d="M351.52,183.897c-0.277,1.728-1.781,2.904-3.363,2.625c-1.576-0.279-2.635-1.908-2.356-3.634
		c0.276-1.729,1.783-2.903,3.359-2.626C350.742,180.543,351.797,182.171,351.52,183.897z"/>
	<path fill="#FFFFFF" d="M237.717,180.467c-0.275,1.73-1.781,2.905-3.361,2.627c-1.578-0.281-2.634-1.908-2.356-3.637
		c0.276-1.727,1.781-2.901,3.36-2.622C236.94,177.113,237.994,178.74,237.717,180.467z"/>
	<path fill="none" stroke="#000000" stroke-width="4.6293" stroke-miterlimit="10" d="M187.814,174.054
		c0,0,40.103,28.023,84.52,33.393c29.641,3.583,51.453,16.682,131.355-28.735c0,0,3.671-4.474,1.037-16.574
		c0,0-14.63-17.992-101.104-13.926c-86.473,4.066-109.397-12.637-109.397-12.637l-5.565,37.665
		c-1.91-12.911,3.487-23.604,3.487-23.604"/>
	<g>
		<path d="M230.576,196.095c0,0-0.213,0.314-0.613,0.902c-0.39,0.592-0.961,1.459-1.689,2.564c-0.714,1.111-1.564,2.467-2.522,4.026
			c-0.959,1.559-1.987,3.348-3.111,5.287c-0.542,0.982-1.125,1.992-1.679,3.066c-0.571,1.063-1.167,2.155-1.745,3.297
			c-1.178,2.271-2.307,4.717-3.466,7.239c-1.141,2.533-2.198,5.197-3.201,7.919c-0.538,1.35-0.935,2.757-1.436,4.135
			c-0.428,1.4-0.875,2.802-1.255,4.219c-0.36,1.422-0.791,2.829-1.068,4.262c-0.158,0.712-0.315,1.424-0.473,2.133
			c-0.146,0.711-0.256,1.426-0.385,2.134c-0.519,2.836-0.835,5.655-1.036,8.392c-0.18,2.737-0.233,5.395-0.137,7.918
			c-0.003,1.267,0.197,2.479,0.257,3.671c0.047,1.196,0.251,2.329,0.393,3.429c0.076,0.55,0.15,1.089,0.223,1.616
			c0.08,0.526,0.212,1.027,0.298,1.528c0.192,1,0.375,1.948,0.546,2.84c0.49,1.743,0.828,3.309,1.2,4.571
			c0.812,2.497,1.236,3.971,1.236,3.971s-0.785-1.289-2.09-3.627c-0.613-1.185-1.273-2.668-2.035-4.382
			c-0.607-1.759-1.462-3.721-1.98-5.977c-0.651-2.226-1.135-4.7-1.49-7.34c-0.127-1.323-0.352-2.685-0.408-4.083
			c-0.031-0.7-0.062-1.408-0.093-2.123c-0.035-0.716-0.053-1.438-0.022-2.166c0.041-1.455,0.032-2.943,0.196-4.432
			c0.064-0.747,0.129-1.499,0.194-2.254c0.07-0.755,0.21-1.503,0.313-2.261c0.117-0.755,0.214-1.517,0.348-2.274
			c0.153-0.753,0.307-1.509,0.461-2.266c0.284-1.521,0.716-3.008,1.09-4.512c0.415-1.492,0.897-2.962,1.362-4.43
			c0.526-1.445,1.013-2.901,1.604-4.299c0.288-0.702,0.574-1.402,0.859-2.098c0.298-0.69,0.626-1.362,0.935-2.038
			c0.608-1.355,1.283-2.657,1.93-3.944c1.304-2.568,2.729-4.96,4.139-7.182c1.38-2.24,2.836-4.259,4.197-6.101
			c1.362-1.841,2.688-3.469,3.901-4.876c1.189-1.424,2.315-2.594,3.23-3.559C229.411,197.076,230.576,196.095,230.576,196.095z"/>
	</g>
	<g>
		<path d="M346.106,206.604c0,0,1.259,1.125,3.209,3.345c0.962,1.118,2.139,2.481,3.36,4.141c0.633,0.815,1.252,1.721,1.937,2.658
			c0.644,0.962,1.333,1.97,1.993,3.058c1.371,2.148,2.719,4.565,4.021,7.191c1.256,2.646,2.571,5.463,3.576,8.52
			c1.068,3.031,1.995,6.242,2.658,9.572c0.304,1.67,0.646,3.351,0.803,5.068c0.241,1.707,0.325,3.437,0.419,5.167
			c0.066,0.864,0.038,1.732,0.027,2.598l-0.037,2.594c-0.071,0.861-0.142,1.721-0.213,2.577c-0.08,0.856-0.127,1.712-0.284,2.553
			c-0.282,1.684-0.472,3.371-0.919,4.986c-0.196,0.812-0.391,1.62-0.583,2.421c-0.18,0.805-0.488,1.568-0.725,2.343
			c-0.253,0.77-0.504,1.533-0.753,2.289c-0.262,0.75-0.593,1.467-0.893,2.185c-0.306,0.715-0.607,1.422-0.905,2.12
			c-0.294,0.7-0.678,1.348-1.005,2.009c-0.339,0.655-0.674,1.301-1.003,1.938c-0.315,0.643-0.67,1.252-1.055,1.83
			c-0.743,1.166-1.461,2.292-2.149,3.373c-0.766,1.023-1.499,2.004-2.196,2.937c-0.354,0.46-0.699,0.908-1.034,1.344
			c-0.364,0.412-0.719,0.812-1.062,1.2c-1.385,1.536-2.531,2.914-3.643,3.9c-2.144,2.038-3.395,3.15-3.395,3.15
			s0.962-1.396,2.692-3.746c0.442-0.58,0.914-1.234,1.371-1.988c0.468-0.746,1-1.528,1.553-2.373
			c0.276-0.421,0.562-0.855,0.856-1.303c0.263-0.467,0.533-0.948,0.811-1.441c0.564-0.974,1.158-1.998,1.777-3.066
			c1.072-2.226,2.312-4.576,3.332-7.188c0.258-0.65,0.572-1.287,0.795-1.97c0.227-0.68,0.455-1.367,0.688-2.063
			c0.22-0.698,0.486-1.388,0.696-2.103c0.19-0.72,0.384-1.447,0.578-2.18c0.182-0.736,0.422-1.462,0.562-2.219
			c0.149-0.753,0.299-1.513,0.449-2.276c0.351-1.517,0.466-3.093,0.701-4.66c0.215-1.57,0.221-3.175,0.369-4.771
			c-0.018-1.605,0.072-3.216-0.03-4.827c-0.075-1.611-0.137-3.224-0.351-4.821c-0.143-1.604-0.4-3.188-0.654-4.763
			c-0.103-0.791-0.301-1.563-0.451-2.34c-0.162-0.775-0.289-1.554-0.478-2.315c-0.392-1.519-0.722-3.037-1.191-4.494
			c-0.851-2.937-1.849-5.734-2.854-8.371c-0.544-1.301-1.048-2.581-1.597-3.794c-0.518-1.229-1.057-2.399-1.596-3.515
			c-1.078-2.23-2.115-4.262-3.091-6.035c-0.978-1.773-1.866-3.305-2.619-4.558c-0.77-1.239-1.365-2.229-1.805-2.88
			C346.338,206.954,346.106,206.604,346.106,206.604z"/>
	</g>
	<g>
		<path d="M254.094,258.441c1.762,0.655,3.605,1.023,5.443,1.313c1.839,0.301,3.694,0.471,5.549,0.551
			c1.854,0.092,3.71,0.101,5.562,0.038c1.852-0.073,3.698-0.209,5.538-0.412c1.841-0.181,3.674-0.438,5.497-0.749
			c1.825-0.297,3.636-0.684,5.44-1.077c1.804-0.414,3.603-0.833,5.384-1.334c1.79-0.462,3.553-1.035,5.319-1.578
			c1.753-0.595,3.512-1.162,5.249-1.804c1.749-0.604,3.472-1.285,5.193-1.968c1.729-0.66,3.415-1.438,5.124-2.149l5.061-2.305
			c1.668-0.812,3.348-1.599,5.006-2.432c1.646-0.858,3.306-1.688,4.94-2.569l4.877-2.695l4.843-2.765l3.771-2.152l-0.317,4.245
			c-0.137,1.821-0.377,3.446-0.677,5.142c-0.304,1.675-0.675,3.338-1.122,4.984c-0.88,3.295-2.101,6.524-3.728,9.583
			c-1.63,3.052-3.69,5.948-6.295,8.365c-2.594,2.419-5.791,4.248-9.194,5.236c-3.404,0.991-6.963,1.205-10.361,0.78
			c-3.409-0.391-6.69-1.288-9.817-2.476c-3.116-1.221-6.114-2.665-8.97-4.334c-1.433-0.825-2.835-1.694-4.209-2.603
			c-1.372-0.912-2.708-1.873-4.039-2.833c1.448,0.776,2.895,1.548,4.367,2.266c1.466,0.727,2.934,1.443,4.43,2.092
			c1.49,0.657,2.994,1.275,4.51,1.847c1.514,0.577,3.051,1.072,4.594,1.525c1.552,0.413,3.1,0.825,4.666,1.093
			c1.562,0.297,3.135,0.473,4.698,0.541c1.563,0.083,3.118,0.003,4.64-0.184c1.521-0.19,3.012-0.525,4.434-1.023
			c2.855-0.985,5.394-2.666,7.524-4.786c2.143-2.116,3.867-4.684,5.235-7.453c1.355-2.78,2.389-5.748,3.19-8.786
			c0.396-1.521,0.725-3.064,0.989-4.616c0.259-1.533,0.472-3.159,0.564-4.608l3.452,2.092l-4.911,2.859l-5.005,2.699
			c-1.679,0.883-3.385,1.714-5.075,2.574c-1.705,0.834-3.433,1.623-5.147,2.436c-1.735,0.773-3.483,1.518-5.24,2.242
			c-1.777,0.678-3.526,1.419-5.324,2.044c-1.788,0.647-3.578,1.29-5.396,1.857c-1.799,0.618-3.643,1.107-5.475,1.623
			c-1.847,0.467-3.686,0.962-5.553,1.345c-1.857,0.421-3.734,0.761-5.61,1.09c-1.888,0.274-3.774,0.54-5.673,0.712
			c-1.896,0.187-3.799,0.317-5.704,0.37c-1.903,0.067-3.812,0.015-5.713-0.075c-1.9-0.116-3.798-0.267-5.677-0.571
			c-1.88-0.289-3.744-0.667-5.571-1.174C257.562,259.942,255.759,259.323,254.094,258.441z"/>
	</g>
	<path d="M231.652,215.548c-1.578,11.525,12.04,23.178,30.424,26.024c18.389,2.838,34.58-4.201,36.17-15.724
		c1.583-11.527-12.043-23.175-30.424-26.021C249.432,196.987,233.241,204.024,231.652,215.548z"/>
	<g>
		<path d="M277.931,192.337c0,0,0.09,0.505,0.644,1.199c0.539,0.7,1.635,1.445,3.204,1.823c1.574,0.373,3.577,0.394,5.844,0.112
			c2.269-0.306,4.806-0.888,7.532-1.703c2.72-0.843,5.632-1.895,8.681-3.105c1.52-0.621,3.073-1.275,4.649-1.979
			c0.798-0.339,1.604-0.682,2.417-1.028c0.8-0.362,1.608-0.728,2.423-1.097c3.267-1.507,6.645-3.169,10.166-4.707
			c3.511-1.564,7.153-3.038,10.884-4.337c3.737-1.279,7.574-2.369,11.469-3.059c1.944-0.355,3.905-0.589,5.861-0.708
			c0.945-0.038,1.885-0.075,2.818-0.113c0.904-0.041,1.802-0.082,2.692-0.123c3.552-0.222,6.979-0.528,10.145-1.12
			c3.146-0.609,6.105-1.386,8.401-2.691c1.144-0.647,2.071-1.449,2.677-2.349c0.608-0.9,0.835-1.94,0.765-2.972
			c-0.18-2.083-1.204-3.923-2.087-5.301c-0.914-1.392-1.742-2.44-2.328-3.13c-0.588-0.694-0.901-1.064-0.901-1.064
			s0.388,0.293,1.087,0.881c0.691,0.595,1.723,1.463,2.861,2.768c0.57,0.651,1.18,1.404,1.746,2.315
			c0.562,0.911,1.096,1.989,1.346,3.3c0.261,1.294,0.142,2.875-0.577,4.279c-0.695,1.417-1.88,2.551-3.169,3.469
			c-2.619,1.826-5.756,2.97-9.079,3.823c-3.331,0.846-6.875,1.463-10.553,1.839c-0.919,0.098-1.847,0.186-2.78,0.262
			c-0.907,0.068-1.82,0.138-2.738,0.207c-1.768,0.167-3.555,0.46-5.354,0.817c-3.593,0.735-7.213,1.796-10.792,3.038
			c-7.176,2.477-14.147,5.671-20.909,8.454c-3.403,1.422-6.722,2.598-9.944,3.642c-1.61,0.509-3.185,0.982-4.721,1.401
			c-1.543,0.398-3.049,0.737-4.501,1.031c-2.907,0.586-5.64,0.884-8.079,0.877c-2.436,0.012-4.597-0.347-6.248-1.029
			c-1.669-0.667-2.706-1.744-3.137-2.572c-0.227-0.413-0.321-0.761-0.369-0.994C277.93,192.459,277.931,192.337,277.931,192.337z"/>
	</g>
	<g>
		<path d="M208.721,147.315c-1.291,0.808-2.4,1.854-3.269,3.021c-0.432,0.586-0.789,1.215-1.052,1.868
			c-0.261,0.655-0.429,1.332-0.51,2.01c-0.164,1.361,0.078,2.732,0.577,4.018c0.243,0.645,0.547,1.274,0.879,1.89l0.546,0.905
			l0.602,0.878l-2.072-0.279c0.717-0.679,1.365-1.163,2.101-1.663c0.721-0.49,1.492-0.903,2.289-1.269
			c1.592-0.728,3.318-1.243,5.107-1.445c1.787-0.224,3.63-0.106,5.39,0.302c1.768,0.394,3.438,1.099,4.982,1.957
			c1.555,0.852,2.948,1.92,4.233,3.061c0.662,0.558,1.249,1.173,1.854,1.778c0.557,0.615,1.168,1.287,1.663,1.868l3.093,3.571
			l3.148,3.503c2.12,2.312,4.286,4.572,6.522,6.749c2.25,2.156,4.523,4.293,6.98,6.174c1.229,0.936,2.456,1.881,3.756,2.706
			c1.299,0.823,2.638,1.575,4.026,2.224c2.775,1.258,5.844,2.053,9.037,1.519c-1.461,0.67-3.113,0.992-4.769,1.004
			c-1.662,0.033-3.322-0.248-4.926-0.678c-1.61-0.422-3.159-1.031-4.653-1.735c-1.491-0.708-2.945-1.489-4.332-2.367
			c-2.771-1.758-5.404-3.702-7.869-5.821c-2.474-2.11-4.821-4.348-7.063-6.674c-1.131-1.154-2.222-2.344-3.299-3.543
			c-1.071-1.191-2.155-2.432-3.164-3.646c-0.532-0.636-0.992-1.142-1.495-1.714c-0.522-0.519-1.013-1.079-1.558-1.562
			c-1.059-1.01-2.203-1.899-3.402-2.646c-1.199-0.754-2.475-1.331-3.791-1.734c-1.319-0.409-2.692-0.564-4.078-0.544
			c-1.388,0.021-2.79,0.293-4.144,0.762c-1.325,0.465-2.732,1.144-3.803,1.905l-1.392,0.989l-0.681-1.269l-0.574-1.068l-0.513-1.107
			c-0.303-0.761-0.6-1.527-0.773-2.342c-0.381-1.608-0.445-3.344-0.014-4.965c0.404-1.63,1.346-3.052,2.479-4.15
			c0.567-0.556,1.198-1.028,1.858-1.436C207.306,147.912,207.998,147.562,208.721,147.315z"/>
	</g>
	<path fill="none" stroke="#000000" stroke-width="4.6293" stroke-miterlimit="10" d="M361.378,175.127
		c5.32,14.091-11.29,31.049-36.553,24.838c-14.011-3.446-15.042-9.701-15.042-9.701"/>
	<path fill="none" stroke="#000000" stroke-width="4.6293" stroke-miterlimit="10" d="M218.444,159.55
		c0,0-12.13,20.427,14.33,26.568c26.46,6.139,19.038,2.593,19.038,2.593"/>
	<g>
		<path d="M228.231,164.553c0,0.004-0.041-0.023-0.115-0.028c-0.053,0.006-0.101,0.086-0.139,0.205
			c-0.083,0.245-0.093,0.688-0.091,1.225c0.011,0.544,0.077,1.21,0.157,1.956c0.047,0.375,0.104,0.771,0.181,1.185
			c0.042,0.207,0.011,0.411-0.036,0.62c-0.042,0.209-0.049,0.427-0.064,0.649c-0.096,1.772-0.024,3.875,0.449,6.011
			c0.466,2.129,1.353,4.298,2.793,5.975c0.719,0.833,1.549,1.562,2.48,2.118c0.926,0.561,1.926,0.984,2.95,1.263
			c2.049,0.57,4.134,0.616,5.909,0.518c0.223-0.01,0.442-0.029,0.653-0.064c0.211-0.056,0.418-0.064,0.63-0.016
			c0.425,0.067,0.828,0.13,1.207,0.19c0.778,0.094,1.457,0.176,2.016,0.243c1.151,0.124,1.81,0.195,1.81,0.195
			s-0.141,0.09-0.405,0.259c-0.269,0.155-0.653,0.427-1.173,0.689c-0.514,0.283-1.149,0.614-1.906,0.937
			c-0.378,0.166-0.788,0.324-1.223,0.501c-0.217,0.1-0.451,0.118-0.692,0.104c-0.24-0.002-0.48,0.034-0.731,0.043
			c-1.993,0.107-4.391,0.072-6.918-0.625c-1.259-0.343-2.535-0.875-3.733-1.603c-1.203-0.72-2.298-1.675-3.223-2.752
			c-0.921-1.085-1.66-2.299-2.223-3.544c-0.561-1.247-0.963-2.521-1.233-3.765c-0.549-2.492-0.623-4.847-0.517-6.849
			c0.019-0.25,0.033-0.496,0.035-0.737c-0.011-0.243,0.001-0.479,0.093-0.7c0.169-0.443,0.345-0.857,0.518-1.242
			c0.34-0.77,0.71-1.413,1.057-1.921c0.341-0.51,0.675-0.881,0.983-1.085c0.148-0.101,0.336-0.147,0.434-0.057
			C228.218,164.512,228.228,164.554,228.231,164.553z"/>
	</g>
	<path fill="none" stroke="#000000" stroke-width="3.0862" stroke-miterlimit="10" d="M326.972,183.773
		c-1.455,0.523,2.953,14.45,17.638,12.068c14.686-2.385,12.238-19.155,12.238-19.155
		C339.78,179.377,339.687,179.219,326.972,183.773z"/>
	<path fill="none" stroke="#000000" stroke-width="4.6293" stroke-miterlimit="10" d="M181.057,173.591"/>
	<path fill="none" stroke="#000000" stroke-width="4.6293" stroke-miterlimit="10" d="M188.718,165.331"/>
	<path fill="#E5E5E5" d="M263.115,212.361c-0.025,4.141-5.057,7.504-11.245,7.511c-6.186,0.007-11.182-3.344-11.157-7.484
		c0.025-4.14,5.057-7.502,11.244-7.511C258.142,204.87,263.136,208.221,263.115,212.361z"/>
	<path fill="#AC8569" d="M395.286,144.378c2.726,2.55,10.76,10.591,10.341,15.95c-9.553-9.831-17.251-21.085-17.251-21.085
		c28.177,1.293,55.286-31.837,16.354-48.048c-25.027-10.422-42.593,15.45-42.593,15.45c-5.521-8.383-22.688-15.45-22.688-15.45
		s-7.381-2.248-7.559-2.853c7.26,1.915,23.207,7.275,29.699,10.963c0,0,22.184-36.902,62.756-4.091
		C449.077,128.667,403.641,149.442,395.286,144.378z"/>
	<path fill="#AC8569" d="M425.278,248.789c-6.671,17.67-38.708,38.124-38.708,38.124s-5.01,3.023-13.71,6.938
		c82.149-51.649,21.625-107.779,21.625-107.779l9.132-6.06l-0.033-0.663C403.584,179.349,438.31,214.329,425.278,248.789z"/>
	<path fill="#AC8569" d="M427.872,352.974c-6.383,52.854-54.354,92.281-83.258,105.267c1.634-1.187,58.113-31.94,62.544-88.446
		c3.631-46.316-15.828-80.687-15.828-80.687c12.383-7.317,11.188-6.131,19.281-13.46
		C422.673,292.616,432.333,315.989,427.872,352.974z"/>
	<path fill="#775A45" stroke="#070808" stroke-width="3.0862" stroke-miterlimit="10" d="M349.822,391.964
		c-8.02-1.41-17.725-4.968-29.381-11.524c0,0-26.489-36.465-40.118-42.975c0,0,10.938-4.353,26.049-6.605
		c23.466-3.474,57.022-1.896,75.395,28.875C387.083,368.651,381.992,397.609,349.822,391.964z"/>
	<path fill="#961B1E" stroke="#070808" stroke-width="3.0862" stroke-miterlimit="10" d="M215.286,354.755
		c0,0,7.461,24.907,18.153,32.951c0,0,28.332-47.188,73.987-24.711C307.427,362.995,264.95,293.851,215.286,354.755z"/>
	<path fill="#AC8569" d="M349.822,389.593c3.337-2.324,25.104-6.261,17.336-24.913c-12.381-29.73-60.811-32.611-60.811-32.611
		c0.013-0.01,0.013-0.01,0.024-0.022c23.466-3.475,54.632-1.898,73.001,28.874C384.693,369.837,381.992,395.237,349.822,389.593z"/>
</g>
</svg>
