<?xml version="1.0" encoding="utf-8"?>
<!-- Generator: Adobe Illustrator 16.0.0, SVG Export Plug-In . SVG Version: 6.00 Build 0)  -->
<!DOCTYPE svg PUBLIC "-//W3C//DTD SVG 1.1//EN" "http://www.w3.org/Graphics/SVG/1.1/DTD/svg11.dtd">
<svg version="1.1" id="bear" xmlns="http://www.w3.org/2000/svg" xmlns:xlink="http://www.w3.org/1999/xlink" x="0px" y="0px"
	 width="336px" height="497px" viewBox="0 0 336 497" enable-background="new 0 0 336 497" xml:space="preserve">
<g>
	<g>
		<path fill-rule="evenodd" clip-rule="evenodd" fill="#6D503D" d="M293.9,268.8c-1.4,4.533-5.267,15.05-11.601,31.55
			c-3.566,38.967-3.05,66.767,1.55,83.4c1.867,6.767,4.684,12.833,8.45,18.2c1.233,1.8,5,6.366,11.3,13.7
			c3.601,5.866-5.649,11.116-27.75,15.75c-6.933,1.433-14.716,2.716-23.35,3.85l-10.9,1.3c-10.8-2.5-20.6-6.8-29.4-12.899
			c-2.767-1.9-5.267-3.867-7.5-5.9l-2.5-2.5c-3.9-5.167-7.383-10.033-10.45-14.6c-3.233-4.767-5.717-8.317-7.45-10.65
			c-2.133,0.333-4.566,0.85-7.3,1.55c-13.867,3.7-24.633,11.017-32.3,21.95c-3.8,5.467-6.233,10.566-7.3,15.3l-2.85,1.05
			c-12.033,4.167-23.883,5.9-35.55,5.2c-3.633-0.233-7.05-0.684-10.25-1.35l-3.65-0.95c0.5-26.267,3.633-45.833,9.4-58.7
			c6.767-15.066,19.283-27.133,37.55-36.2c0.434-5.866,0.717-12.399,0.85-19.6c0.1-7.8,0.2-13.65,0.3-17.55
			c0.433-13.733,1.966-27.25,4.6-40.55c-12.633,7.066-22.233,11.399-28.8,13c-12.767,3.1-24.917,1.267-36.45-5.5
			c-6.533-4.634-11.216-11.483-14.05-20.55c-2.567-8.267-3.083-16.4-1.55-24.4c1.6-8.167,4.883-13.65,9.85-16.45
			c5.633-3.1,12.367-1.933,20.2,3.5c19.2-2.067,34.8-5.65,46.8-10.75c6-2.567,10.083-4.917,12.25-7.05
			c4.833-1.067,12.65-3.583,23.45-7.55c11.533-4.267,20.317-7.15,26.35-8.65c22.033-5.6,40.867-3.367,56.5,6.7
			c30.6,11.233,46.266,29.133,47,53.7C299.616,245.383,297.8,256.267,293.9,268.8z"/>
		<path fill-rule="evenodd" clip-rule="evenodd" fill="none" stroke="#0B0B0B" stroke-width="5" stroke-miterlimit="10" d="
			M293.9,268.8c-1.4,4.533-5.267,15.05-11.601,31.55c-3.566,38.967-3.05,66.767,1.55,83.4c1.867,6.767,4.684,12.833,8.45,18.2
			c1.233,1.8,5,6.366,11.3,13.7c3.601,5.866-5.649,11.116-27.75,15.75c-6.933,1.433-14.716,2.716-23.35,3.85l-10.9,1.3
			c-10.8-2.5-20.6-6.8-29.4-12.899c-2.767-1.9-5.267-3.867-7.5-5.9l-2.5-2.5c-3.9-5.167-7.383-10.033-10.45-14.6
			c-3.233-4.767-5.717-8.317-7.45-10.65c-2.133,0.333-4.566,0.85-7.3,1.55c-13.867,3.7-24.633,11.017-32.3,21.95
			c-3.8,5.467-6.233,10.566-7.3,15.3l-2.85,1.05c-12.033,4.167-23.883,5.9-35.55,5.2c-3.633-0.233-7.05-0.684-10.25-1.35l-3.65-0.95
			c0.5-26.267,3.633-45.833,9.4-58.7c6.767-15.066,19.283-27.133,37.55-36.2c0.434-5.866,0.717-12.399,0.85-19.6
			c0.1-7.8,0.2-13.65,0.3-17.55c0.433-13.733,1.966-27.25,4.6-40.55c-12.633,7.066-22.233,11.399-28.8,13
			c-12.767,3.1-24.917,1.267-36.45-5.5c-6.533-4.634-11.216-11.483-14.05-20.55c-2.567-8.267-3.083-16.4-1.55-24.4
			c1.6-8.167,4.883-13.65,9.85-16.45c5.633-3.1,12.367-1.933,20.2,3.5c19.2-2.067,34.8-5.65,46.8-10.75
			c6-2.567,10.083-4.917,12.25-7.05c4.833-1.067,12.65-3.583,23.45-7.55c11.533-4.267,20.317-7.15,26.35-8.65
			c22.033-5.6,40.867-3.367,56.5,6.7c30.6,11.233,46.266,29.133,47,53.7C299.616,245.383,297.8,256.267,293.9,268.8z"/>
	</g>
	<g>
		<path fill-rule="evenodd" clip-rule="evenodd" fill="#6D503D" d="M257,429.4l46.6-13.75c18.967,15.6,27.351,28.283,25.15,38.05
			c-1.134,4.866-4.15,8.184-9.05,9.95c-30.7,11.466-58.066,16.733-82.1,15.8c-7.5-0.3-14.233-1.217-20.2-2.75l-6.65-2.15
			c1.3-19.066,9.4-32.316,24.3-39.75c4.667-2.3,9.717-3.899,15.15-4.8C252.934,429.566,255.2,429.366,257,429.4z"/>
		<path fill-rule="evenodd" clip-rule="evenodd" fill="none" stroke="#0B0B0B" stroke-width="5" stroke-miterlimit="10" d="
			M303.6,415.65c18.967,15.6,27.351,28.283,25.15,38.05c-1.134,4.866-4.15,8.184-9.05,9.95c-30.7,11.466-58.066,16.733-82.1,15.8
			c-7.5-0.3-14.233-1.217-20.2-2.75l-6.65-2.15c1.3-19.066,9.4-32.316,24.3-39.75c4.667-2.3,9.717-3.899,15.15-4.8
			c2.733-0.434,5-0.634,6.8-0.6"/>
	</g>
	<g>
		<path fill-rule="evenodd" clip-rule="evenodd" fill="#E4B38F" d="M231.85,209.6c3.467,10.133,6.117,23.967,7.95,41.5
			c0.967,9.3,2.034,20.784,3.2,34.45c1.133,8.066,0.3,17.217-2.5,27.45c-2.967,10.866-7.566,20.483-13.8,28.85
			c-7.067,9.5-15.367,16.084-24.9,19.75c-10.933,4.2-22.833,4.2-35.7,0c-14.467-4.699-22.35-19.35-23.65-43.949
			c-0.4-7.667-0.1-15.884,0.9-24.65l1.55-10.8c1.667-11.434,2.934-19.867,3.8-25.3c1.5-9.367,3.05-17.117,4.65-23.25
			c4.2-16.1,10.617-27.683,19.25-34.75C201.533,175.167,221.283,178.733,231.85,209.6z"/>
		<path fill-rule="evenodd" clip-rule="evenodd" fill="none" stroke="#0B0B0B" stroke-width="3" stroke-miterlimit="10" d="
			M231.85,209.6c-10.567-30.867-30.317-34.434-59.25-10.7c-8.633,7.067-15.05,18.65-19.25,34.75c-1.6,6.133-3.15,13.883-4.65,23.25
			c-0.867,5.433-2.133,13.866-3.8,25.3l-1.55,10.8c-1,8.767-1.3,16.983-0.9,24.65c1.3,24.6,9.183,39.25,23.65,43.949
			c12.867,4.2,24.767,4.2,35.7,0c9.534-3.666,17.833-10.25,24.9-19.75c6.233-8.366,10.833-17.983,13.8-28.85
			c2.8-10.233,3.633-19.384,2.5-27.45c-1.167-13.666-2.233-25.149-3.2-34.45C237.967,233.567,235.317,219.733,231.85,209.6z"/>
	</g>
	<path fill-rule="evenodd" clip-rule="evenodd" fill="#A1795E" d="M278.25,330.05c-0.733,12.934-0.35,25.75,1.15,38.45
		c1.533,13.267,3.816,22.134,6.85,26.6c1.7,4.534,5.15,9.634,10.35,15.301c0.767,0.866,5.667,5.767,14.7,14.699
		c5.867,5.834,9.967,10.65,12.3,14.45c3.233,5.267,4.317,10.134,3.25,14.601c-1.267,7.1-14.833,13.216-40.699,18.35
		c-8.067,1.6-16.884,3-26.45,4.2l-11.95,1.35c13.833-2.967,28.2-6.75,43.1-11.35c16.967-5.267,25.917-9.066,26.851-11.4
		c1.533-3.3,1.05-7.233-1.45-11.8c-1.866-3.4-5.483-8.083-10.85-14.05c-9.067-10.134-14.017-15.684-14.851-16.65
		c-5.833-7.033-10.333-13.566-13.5-19.6c-3.533-7.134-4.383-19.8-2.55-38c0.566-5.7,1.35-11.601,2.35-17.7L278.25,330.05z"/>
	<path fill-rule="evenodd" clip-rule="evenodd" fill="#A1795E" d="M177.875,388.25c-0.336,0.231-0.678,0.582-1.025,1.05
		c-13.9,3.7-24.9,10.95-33,21.75c-4.033,5.4-6.684,10.417-7.95,15.05c-0.3,0.101-0.517,0.733-0.65,1.9
		c-0.133,1.1-0.367,1.717-0.7,1.85c-2.1-2.366-3.716-4.8-4.85-7.3l-1.05-3.05c7.7-12.866,18.5-21.934,32.4-27.2
		C167.278,389.904,172.886,388.555,177.875,388.25c0.313-0.2,0.622-0.3,0.925-0.3c0.333,0,0.583,0.083,0.75,0.25
		C179,388.207,178.442,388.224,177.875,388.25z"/>
	<g>
		<path fill-rule="evenodd" clip-rule="evenodd" d="M239.55,61.2l2.7-4c2.467-3.034,5.317-5.417,8.55-7.15
			c10.267-5.6,22.4-3.75,36.4,5.55c4.2,5.5,5.916,10.9,5.149,16.2c-0.666,4.467-2.966,8.583-6.899,12.35
			c-3.334,3.167-7.2,5.583-11.601,7.25c-4.133,1.533-7.116,1.85-8.949,0.95c3.5,2.667,5.866,4.633,7.1,5.9
			c3.167,3.2,4.116,5.633,2.85,7.3l-0.399,12.3l4.55,4.45c3.566,3.767,6.684,7.65,9.35,11.65c8.601,12.733,11.2,24.117,7.801,34.15
			c-1.967,5.7-6.617,11.816-13.95,18.35c-5.267,4.7-9.717,7.983-13.351,9.85c-3.733,2.434-7.649,4.8-11.75,7.1
			c-8,4.5-16.216,8.117-24.649,10.85c-26.467,8.567-53.617,8.283-81.45-0.85c-7.5-2.7-15.05-6.633-22.65-11.8
			c-15.267-10.333-23.233-21.617-23.9-33.85c-0.333-6.5,2.4-15.567,8.2-27.2c2.467-4.966,3.917-8.25,4.35-9.85
			c0.767-2.733,0.233-4.383-1.6-4.95l0.8-15.05c-0.767-1.5-1.2-3.65-1.3-6.45c-0.133-5.6,1.567-11.633,5.1-18.1l1.95-2.45
			c-6.167-1.667-11.367-4.4-15.6-8.2c-8.467-7.633-7.85-16.833,1.85-27.6c4.6-5.1,9.65-8.433,15.15-10
			c4.767-1.333,9.517-1.267,14.25,0.2c4.267,1.333,7.8,3.583,10.6,6.75c2.8,3.066,4.233,6.267,4.3,9.6l7.15-1.3
			c6.067-0.933,12.45-1.483,19.15-1.65C200.133,50.933,220.383,54.167,239.55,61.2z"/>
		<path fill-rule="evenodd" clip-rule="evenodd" fill="none" stroke="#000000" stroke-width="12" stroke-miterlimit="10" d="
			M115.4,125.75c1.833,0.567,2.367,2.217,1.6,4.95c-0.434,1.6-1.883,4.883-4.35,9.85c-5.8,11.633-8.533,20.7-8.2,27.2
			c0.667,12.233,8.633,23.517,23.9,33.85c7.6,5.167,15.15,9.1,22.65,11.8c27.833,9.133,54.983,9.417,81.45,0.85
			c8.433-2.733,16.65-6.35,24.649-10.85c4.101-2.3,8.017-4.667,11.75-7.1c3.634-1.867,8.084-5.15,13.351-9.85
			c7.333-6.534,11.983-12.65,13.95-18.35c3.399-10.033,0.8-21.417-7.801-34.15c-2.666-4-5.783-7.883-9.35-11.65l-4.55-4.45
			l0.399-12.3c1.267-1.667,0.317-4.1-2.85-7.3c-1.233-1.267-3.6-3.233-7.1-5.9c1.833,0.9,4.816,0.583,8.949-0.95
			c4.4-1.667,8.267-4.083,11.601-7.25c3.934-3.767,6.233-7.883,6.899-12.35c0.767-5.3-0.949-10.7-5.149-16.2
			c-14-9.3-26.134-11.15-36.4-5.55c-3.233,1.733-6.083,4.117-8.55,7.15l-2.7,4c-19.167-7.034-39.417-10.267-60.75-9.7
			c-6.7,0.167-13.083,0.717-19.15,1.65l-7.15,1.3c-0.066-3.333-1.5-6.534-4.3-9.6c-2.8-3.167-6.333-5.417-10.6-6.75
			c-4.733-1.467-9.483-1.533-14.25-0.2c-5.5,1.567-10.55,4.9-15.15,10c-9.7,10.767-10.317,19.967-1.85,27.6
			c4.233,3.8,9.433,6.533,15.6,8.2L120,86.15c-3.533,6.467-5.233,12.5-5.1,18.1c0.1,2.8,0.533,4.95,1.3,6.45"/>
	</g>
	<path fill-rule="evenodd" clip-rule="evenodd" fill="#6D503D" d="M120,86.15l16.1,121c-4.434-1.867-9.034-4.75-13.8-8.65
		c-9.6-7.767-15.316-16.717-17.15-26.85c-1.367-7.566,0.317-16.533,5.05-26.9c1.5-3.233,3.2-6.417,5.1-9.55l2.45-3.7
		c-1.367-4.767-2.317-10.233-2.85-16.4C113.9,102.767,115.6,93.117,120,86.15z"/>
	<path fill-rule="evenodd" clip-rule="evenodd" fill="#6D503D" d="M250,48.7c10.4-5.867,22.467-4.233,36.2,4.9
		c4.833,5.4,7.083,10.816,6.75,16.25c-0.267,4.5-2.267,8.75-6,12.75c-3.167,3.333-6.917,5.917-11.25,7.75
		c-4.066,1.7-6.983,2.117-8.75,1.25c5.899,4.7,8.85,8.433,8.85,11.2c0,0.7-0.217,1.333-0.649,1.9l0.199,12.3l4.351,4.15
		c3.434,3.533,6.434,7.217,9,11.05c8.233,12.333,10.7,23.95,7.399,34.85c-1.699,5.6-6.75,12.35-15.149,20.25l-12.15,10.2
		c-2.434,1.667-5.783,3.633-10.05,5.9c-17.066,9.033-34.5,14.633-52.3,16.8c-27.3,3.333-52.1-2.15-74.4-16.45l-12.2-121.1
		c-5.767-1.233-10.617-3.617-14.55-7.15c-7.867-7.033-7.167-16.233,2.1-27.6c4.4-5.367,9.317-8.983,14.75-10.85
		c4.767-1.6,9.534-1.75,14.3-0.45c4.367,1.167,8.05,3.3,11.05,6.4c2.934,3.1,4.533,6.417,4.8,9.95l23-1.3
		c17.867-0.333,33.034,0.733,45.5,3.2c6.934,1.4,12.833,3.2,17.7,5.4l2.8-4.1C243.833,53.017,246.733,50.533,250,48.7z"/>
	<path fill-rule="evenodd" clip-rule="evenodd" fill="#FFFFFF" d="M132.2,118l0.8-2.95c3.6-0.667,12.617,5.717,27.05,19.15
		c-14.933-0.1-23.917-3.317-26.95-9.65C132.133,122.55,131.833,120.367,132.2,118z"/>
	<path fill-rule="evenodd" clip-rule="evenodd" fill="#FFFFFF" d="M229.6,137.4c-4.9,0.9-9.883,0.867-14.95-0.1
		c-5.033-0.933-8.433-2.466-10.2-4.6c7.433-5.2,16.2-9.317,26.3-12.35c5.033-1.533,9.333-2.55,12.9-3.05
		c1.833,5.733,1.217,10.4-1.85,14C239.233,134.333,235.167,136.367,229.6,137.4z"/>
	<g>
		<path fill-rule="evenodd" clip-rule="evenodd" fill="#8B191C" d="M146.45,121.75c-4.333-3.533-7.867-5.717-10.6-6.55l-2.85-0.15
			c-2.8,8.934,0.867,14.8,11,17.6c5.067,1.434,10.417,1.95,16.05,1.55c-0.533-0.667-1.5-1.684-2.9-3.05
			C154.35,128.417,150.783,125.283,146.45,121.75z M245.55,120.4l-0.4-2.25c-2.167,0-4.533,0.117-7.1,0.35
			c-5.1,0.467-8.633,1.233-10.6,2.3c-1.934,1.067-6.3,3.233-13.1,6.5l-9.65,4.55l2.05,1.55c1.733,1.2,3.6,2.217,5.6,3.05
			c6.333,2.7,12.65,3.1,18.95,1.2c7.667-2.3,12.284-6.25,13.85-11.85C245.617,124.067,245.75,122.267,245.55,120.4z M258.25,99.15
			c8.566,1.567,14.483,3.583,17.75,6.05l0.2,12.3c-0.767,0.2-2.717,1.117-5.851,2.75c-6.233,3.3-15.183,8.633-26.85,16
			c-11.9,7.467-29.066,11.117-51.5,10.95c-12-0.067-24.5-1.217-37.5-3.45c-3.9-0.7-12.333-3.767-25.3-9.2l-18.3-8
			c0.067-2.7,0.517-8.316,1.35-16.85l1.25-11.95l1.65,0.25l4.75,1.7c4.2,1.267,8.967,2.3,14.3,3.1
			c17.066,2.534,36.483,2.15,58.25-1.15C219.117,96.917,241.05,96.083,258.25,99.15z"/>
		<path fill-rule="evenodd" clip-rule="evenodd" fill="none" stroke="#0B0B0B" stroke-width="3" stroke-miterlimit="10" d="
			M258.25,99.15c-17.2-3.066-39.133-2.233-65.8,2.5c-21.767,3.3-41.184,3.684-58.25,1.15c-5.333-0.8-10.1-1.833-14.3-3.1l-4.75-1.7
			l-1.65-0.25l-1.25,11.95c-0.833,8.533-1.283,14.15-1.35,16.85l18.3,8c12.966,5.434,21.4,8.5,25.3,9.2
			c13,2.233,25.5,3.383,37.5,3.45c22.434,0.167,39.6-3.483,51.5-10.95c11.667-7.367,20.616-12.7,26.85-16
			c3.134-1.633,5.084-2.55,5.851-2.75l-0.2-12.3C272.733,102.733,266.816,100.717,258.25,99.15z M245.55,120.4
			c0.2,1.867,0.067,3.667-0.4,5.4c-1.566,5.6-6.183,9.55-13.85,11.85c-6.3,1.9-12.616,1.5-18.95-1.2c-2-0.833-3.867-1.85-5.6-3.05
			l-2.05-1.55l9.65-4.55c6.8-3.267,11.167-5.433,13.1-6.5c1.966-1.066,5.5-1.833,10.6-2.3c2.567-0.233,4.934-0.35,7.1-0.35
			L245.55,120.4z M146.45,121.75c4.333,3.533,7.9,6.667,10.7,9.4c1.4,1.367,2.367,2.383,2.9,3.05
			c-5.633,0.4-10.983-0.117-16.05-1.55c-10.133-2.8-13.8-8.667-11-17.6l2.85,0.15C138.583,116.033,142.117,118.217,146.45,121.75z"
			/>
	</g>
	<path fill-rule="evenodd" clip-rule="evenodd" fill="#329B90" d="M240.25,118.7l0.25,2.05c0.133,1.667,0.067,3.233-0.2,4.7
		c-0.9,4.633-3.65,7.35-8.25,8.15c-4.566,0.767-8.3-0.317-11.2-3.25c-0.934-0.934-1.717-1.983-2.35-3.15l-0.65-1.5l-1.4-0.05
		c2.633-2.333,7.4-4.183,14.3-5.55C234.184,119.4,237.35,118.933,240.25,118.7z"/>
	<path fill-rule="evenodd" clip-rule="evenodd" fill="#329B90" d="M140.7,119.1l4,2c6.466,5.167,10.367,8.7,11.7,10.6
		c0.667,0.933,0.684,1.35,0.05,1.25c-7.967,1.367-12.983-0.534-15.05-5.7c-0.633-1.6-0.933-3.433-0.9-5.5L140.7,119.1z"/>
	<g>
		<path fill-rule="evenodd" clip-rule="evenodd" fill="#201D1D" d="M145.1,123.8v-1.25c0.767,0.267,3.633,2.684,8.6,7.25
			c-3.967,0.4-6.583-0.683-7.85-3.25C145.45,125.75,145.2,124.833,145.1,123.8z"/>
		<path fill-rule="evenodd" clip-rule="evenodd" fill="none" stroke="#000000" stroke-miterlimit="10" d="M145.1,123.8
			c0.1,1.034,0.35,1.95,0.75,2.75c1.267,2.567,3.883,3.65,7.85,3.25c-4.967-4.566-7.833-6.983-8.6-7.25V123.8z"/>
	</g>
	<path fill-rule="evenodd" clip-rule="evenodd" fill="#C61D23" d="M252,101.6c5.7,6.333,5.75,10.383,0.15,12.15
		c-1.9,0.6-4.85,1.05-8.85,1.35c-5.767,0.4-8.9,0.633-9.4,0.7c-4.6,0.567-12.383,3.417-23.35,8.55
		c-11.267,5.6-18.216,8.983-20.85,10.15c-3.267,1.467-5.184-0.35-5.75-5.45l0.15-8.05c5.967-1.533,12.316-3.867,19.05-7
		c3.8-1.767,9.1-4.333,15.9-7.7c5.833-2.7,10.967-4.45,15.4-5.25C240.15,100.05,246,100.233,252,101.6z"/>
	<path fill-rule="evenodd" clip-rule="evenodd" fill="#C61D23" d="M125.75,105.65c2.434-3,6.733-2.4,12.9,1.8
		c1.167,0.8,9.8,7.75,25.9,20.85c1.9,1.567,3.833,1.934,5.8,1.1c0.967-0.4,1.75-0.967,2.35-1.7l1,8.15
		c-5.6,1.5-13.034-1.667-22.3-9.5c-4.6-4.1-7.833-7-9.7-8.7c-3.2-2.833-5.4-4.383-6.6-4.65c-2.5-0.567-5.217-0.25-8.15,0.95
		l-3.65,1.95c-2.133-3.1-2.367-5.733-0.7-7.9C123.433,106.9,124.483,106.117,125.75,105.65z"/>
	<path fill-rule="evenodd" clip-rule="evenodd" fill="#C61D23" d="M114.2,99.5c1.6,1.3,4.167,2.35,7.7,3.15
		c1.8,0.4,3.417,0.667,4.85,0.8c-1.267,0.667-2.567,1.667-3.9,3c-2.6,2.667-4,5.7-4.2,9.1c-0.133,2.934,4.184,7.867,12.95,14.8
		c3.867,3.033,6.05,4.8,6.55,5.3c1.067,1.133,0.233,1.25-2.5,0.35l-3.4-1.15c-4.633-1.633-9.4-3.5-14.3-5.6l-5.95-2.6
		c0.733-2.633,1.316-7.95,1.75-15.95L114.2,99.5z"/>
	<g>
		<path fill-rule="evenodd" clip-rule="evenodd" fill="#201D1D" d="M221.55,124.6h0.35c1.967-1.367,4.833-2.583,8.6-3.65
			c1.9-0.567,3.6-0.983,5.1-1.25l-0.1,4.55c-0.667,3.1-2.566,4.867-5.7,5.3c-1.733,0.233-3.633-0.517-5.7-2.25L221.55,124.6z"/>
		<path fill-rule="evenodd" clip-rule="evenodd" fill="none" stroke="#000000" stroke-miterlimit="10" d="M221.55,124.6l2.55,2.7
			c2.066,1.733,3.967,2.483,5.7,2.25c3.134-0.433,5.034-2.2,5.7-5.3l0.1-4.55c-1.5,0.267-3.2,0.683-5.1,1.25
			c-3.767,1.066-6.633,2.283-8.6,3.65"/>
	</g>
	<path fill-rule="evenodd" clip-rule="evenodd" fill="#E6B18F" d="M233.75,141.1l5.45,6.4c4.066,5.433,7.233,11,9.5,16.7
		c7.2,18.333,3.917,34.783-9.85,49.35c-9.367,3.8-20.7,6.35-34,7.65c-26.667,2.6-49.9-2.333-69.7-14.8
		c-2.833-5.4-4.55-12.167-5.15-20.3c-1.2-16.3,3.75-31.267,14.85-44.9l10.05,2.4c7.1,1.566,11.684,2.167,13.75,1.8
		c1.667-0.3,10.967,0.067,27.9,1.1C214.25,146.8,226.65,145,233.75,141.1z"/>
	<path fill-rule="evenodd" clip-rule="evenodd" fill="#83181A" d="M224.75,183.25c-7.3,10.1-19.4,10.683-36.3,1.75l19.2-7.85
		c13.2-5.633,20.867-9.55,23-11.75C230.383,172.233,228.417,178.183,224.75,183.25z"/>
	<path fill-rule="evenodd" clip-rule="evenodd" fill="#FFFFFF" d="M222.5,177c-6.433,7.033-15.65,9.333-27.65,6.9l12.75-5.05
		c9.4-4.267,16.383-8.633,20.95-13.1C227.75,169.75,225.733,173.5,222.5,177z"/>
	<path fill-rule="evenodd" clip-rule="evenodd" fill="#A1795E" d="M100.15,66.4c-0.967-4.566,0.417-9.316,4.15-14.25
		c2.967-3.933,6.95-7.45,11.95-10.55c4.433-2.767,7.533-4.067,9.3-3.9c-3.333,2.1-6.3,4.466-8.9,7.1
		c-5.1,5.133-7.183,10.284-6.25,15.45c0.934,5.167,4.217,8.633,9.85,10.4c2.833,0.9,5.566,1.267,8.2,1.1l1.6-2.25
		c1.434-1.833,3.017-3.6,4.75-5.3c5.567-5.3,11.667-8.717,18.3-10.25c10.967-2.4,23.233-3.15,36.8-2.25
		c6.8,0.433,12.5,1.117,17.1,2.05c-29.933-2.933-52.833,4.083-68.7,21.05c-4.966,5.3-8.917,11.267-11.85,17.9
		c-1.467,3.333-2.45,6.133-2.95,8.4l-5.4-2.85L115.15,98c-0.467-2.233,0.217-5.4,2.05-9.5l2.9-5.5l-5.75-1.7
		C106.117,76.933,101.383,71.967,100.15,66.4z"/>
	<path fill-rule="evenodd" clip-rule="evenodd" fill="#A1795E" d="M123.7,133.95l-3.3,5.7c-2.433,4.833-4.316,9.733-5.65,14.7
		c-4.233,15.933-2.017,29.7,6.65,41.3l2,3c-6.033-4.133-10.883-9.967-14.55-17.5c-7.3-15.066-4.95-31.15,7.05-48.25l1.15-2.05
		L123.7,133.95z"/>
	<path fill-rule="evenodd" clip-rule="evenodd" fill="#FFFFFF" d="M234.6,121.8c0.633,0.067,1.15,0.35,1.55,0.85
		c0.367,0.5,0.517,1.067,0.45,1.7c-0.033,0.667-0.283,1.2-0.75,1.6c-0.467,0.433-1.017,0.617-1.65,0.55c-0.6-0.033-1.1-0.3-1.5-0.8
		c-0.367-0.5-0.534-1.083-0.5-1.75c0.066-0.633,0.333-1.167,0.8-1.6C233.467,121.95,234,121.767,234.6,121.8z"/>
	<path fill-rule="evenodd" clip-rule="evenodd" fill="#FFFFFF" d="M149.4,128.4c-0.033,0.667-0.283,1.2-0.75,1.6
		c-0.466,0.433-1.017,0.617-1.65,0.55c-0.6-0.066-1.1-0.35-1.5-0.85c-0.367-0.5-0.533-1.067-0.5-1.7
		c0.067-0.633,0.333-1.167,0.8-1.6c0.467-0.4,1-0.583,1.6-0.55c0.633,0.066,1.15,0.35,1.55,0.85
		C149.317,127.2,149.467,127.767,149.4,128.4z"/>
	<path fill-rule="evenodd" clip-rule="evenodd" fill="none" stroke="#000000" stroke-width="2" stroke-miterlimit="10" d="
		M110.9,126.55l5.6,2.9c4.733,2.333,9.683,4.5,14.85,6.5c16.467,6.367,31.85,9.833,46.15,10.4c3.8,0.167,9.417,0.583,16.85,1.25
		c6.8,0.4,13.2,0.066,19.2-1c16.6-2.9,37.483-12.6,62.65-29.1c0.434-0.567,0.75-1.517,0.95-2.85c0.366-2.633-0.017-5.783-1.15-9.45
		c-2.033-2.067-6.816-3.8-14.35-5.2c-15.067-2.833-36.317-2.583-63.75,0.75c-27.466,3.333-49.767,3.833-66.9,1.5
		c-5.367-0.733-9.9-1.7-13.6-2.9l-3.9-1.6"/>
	<g>
		<path fill-rule="evenodd" clip-rule="evenodd" d="M144.9,140.35c-0.4,0.633-0.933,1.517-1.6,2.65c-1.3,2.3-2.566,4.683-3.8,7.15
			c-1.167,2.4-1.933,4.033-2.3,4.9c-0.5,1.067-1.25,2.917-2.25,5.55c-0.7,1.833-1.367,3.85-2,6.05
			c-0.534,1.667-1.067,3.783-1.6,6.35c-0.533,2.867-0.85,5.017-0.95,6.45c-0.233,2.167-0.333,4.267-0.3,6.3
			c0.033,1.9,0.167,3.867,0.4,5.9c0.367,2.267,0.7,4.017,1,5.25l2.45,7.65l1.25,2.85l-1.75-2.6c-0.733-1.267-1.333-2.3-1.8-3.1
			c-1.066-2.434-1.667-3.867-1.8-4.3c-0.533-1.467-1.05-3.25-1.55-5.35c-0.433-2.066-0.716-4.117-0.85-6.15
			c-0.067-1.833-0.1-2.933-0.1-3.3l0.15-3.4c0.133-1.867,0.434-4.133,0.9-6.8c0.567-2.566,1.15-4.767,1.75-6.6l2.35-6.2
			c0.867-1.934,1.767-3.783,2.7-5.55c0.7-1.3,1.633-2.867,2.8-4.7c1.434-2.333,3.033-4.55,4.8-6.65
			C143.667,141.667,144.367,140.883,144.9,140.35z"/>
	</g>
	<g>
		<path fill-rule="evenodd" clip-rule="evenodd" d="M241.05,151.55c-1.5-2.4-3.183-4.867-5.05-7.4l-2.15-2.7l5.35,5.15
			c1.333,1.566,2.417,2.9,3.25,4c1.333,1.733,2.483,3.417,3.45,5.05c1.434,2.367,2.517,4.4,3.25,6.1
			c0.967,2.067,1.817,4.367,2.55,6.9c0.5,1.767,0.816,3,0.95,3.7c0.233,1.2,0.434,2.467,0.6,3.8c0.133,0.867,0.233,2.15,0.3,3.85
			c0,2.167-0.017,3.45-0.05,3.85c-0.167,1.967-0.3,3.217-0.4,3.75c-0.3,1.833-0.533,3.033-0.7,3.6l-1.5,5.05l-0.65,1.55
			c-0.3,0.767-1.217,2.6-2.75,5.5c-0.667,1.067-1.15,1.833-1.45,2.3c-0.566,0.833-1.05,1.5-1.45,2c-1.533,1.933-2.367,2.967-2.5,3.1
			l-2.35,2.5l1.9-2.85c0.4-0.6,1.067-1.733,2-3.4l2.35-4.45c1.133-2.8,1.85-4.633,2.15-5.5l1.7-6.35c0.1-0.4,0.267-1.533,0.5-3.4
			c0.1-1.567,0.183-2.75,0.25-3.55c0-1.567,0.017-2.75,0.05-3.55c-0.1-1.6-0.216-2.8-0.35-3.6c-0.2-1.6-0.383-2.8-0.55-3.6
			c-0.367-1.567-0.633-2.733-0.8-3.5l-1.05-3.4c-0.733-1.966-1.133-3.05-1.2-3.25c-0.567-1.4-1.467-3.417-2.7-6.05
			C242.733,154.383,241.75,152.65,241.05,151.55z"/>
	</g>
	<g>
		<path fill-rule="evenodd" clip-rule="evenodd" d="M232,165.4c0,1.434-0.066,2.733-0.2,3.9c-0.2,1.667-0.383,2.934-0.55,3.8
			c-0.533,2.7-1.316,5.15-2.35,7.35c-1.167,2.566-2.633,4.75-4.4,6.55c-1.867,1.9-4.1,3.3-6.7,4.2c-2.267,0.8-4.833,1.15-7.7,1.05
			c-1.133-0.033-2.4-0.167-3.8-0.4c-1.167-0.2-2.4-0.483-3.7-0.85c-2.367-0.667-4.717-1.55-7.05-2.65l-5.45-2.8l-6.35,1
			c-0.967,0.133-2.417,0.233-4.35,0.3c-1.6,0.066-3.05,0.05-4.35-0.05c-1.633-0.1-3.066-0.283-4.3-0.55
			c-1.566-0.267-2.95-0.65-4.15-1.15c0.933,0.267,2.333,0.5,4.2,0.7c1.6,0.1,3.034,0.133,4.3,0.1c2.733-0.033,5.55-0.316,8.45-0.85
			c1.767-0.3,3.15-0.583,4.15-0.85c0.933-0.2,2.3-0.567,4.1-1.1l4.05-1.25c0.9-0.3,2.233-0.8,4-1.5l3.9-1.6L218.9,171l13.1-8.35
			V165.4z M228.9,169c0.021-0.252,0.038-0.502,0.05-0.75l-12.4,7.4c-1.966,1.033-3.25,1.684-3.85,1.95
			c-1.733,0.867-3.05,1.483-3.95,1.85c-1.767,0.767-3.1,1.316-4,1.65c-0.667,0.3-2.033,0.816-4.1,1.55l-4.15,1.3
			c-1,0.333-2.4,0.716-4.2,1.15l-1.95,0.4l5.5,2.15c1.433,0.5,2.6,0.867,3.5,1.1l3.55,0.9c1.333,0.267,2.534,0.45,3.6,0.55
			c1.067,0.133,2.267,0.2,3.6,0.2c1.333-0.066,2.517-0.183,3.55-0.35c1.267-0.233,2.383-0.55,3.35-0.95
			c2.2-0.867,4.083-2.167,5.65-3.9c1.534-1.7,2.767-3.65,3.7-5.85c0.867-1.934,1.55-4.2,2.05-6.8L228.9,169z"/>
	</g>
	<path fill-rule="evenodd" clip-rule="evenodd" fill="#201D1D" d="M153.75,166.3c-4.833-3.433-7.117-7.3-6.85-11.6
		c0.267-4.3,3-7.784,8.2-10.45c5.2-2.7,11.367-3.783,18.5-3.25c7.1,0.5,13.083,2.467,17.95,5.9c4.833,3.4,7.117,7.25,6.85,11.55
		c-0.233,4.3-2.966,7.783-8.2,10.45c-5.233,2.7-11.4,3.783-18.5,3.25C164.567,171.65,158.583,169.7,153.75,166.3z"/>
	<g>
		<path fill-rule="evenodd" clip-rule="evenodd" d="M252,101.6l0.85,0.6c1.467,1.2,2.25,1.85,2.35,1.95
			c1.399,1.4,2.283,2.75,2.649,4.05c0.301,1.1,0.2,2.167-0.3,3.2c-0.5,0.967-1.267,1.85-2.3,2.65c-1.767,1.3-4,2.367-6.7,3.2
			c-2.6,0.833-5.233,1.467-7.9,1.9l-8.2,1.6c-2.4,0.667-5.1,1.617-8.1,2.85c-2.667,1.167-5.283,2.4-7.85,3.7l-14.95,7.1
			c-2.5,1-4.783,1.783-6.85,2.35c-4.667,1.3-8.284,1.55-10.85,0.75c-1.133-0.3-1.983-0.85-2.55-1.65l-0.3-0.675
			c0.125,0.208,0.275,0.4,0.45,0.575c0.5,0.567,1.35,0.95,2.55,1.15c1.167,0.2,2.667,0.133,4.5-0.2
			c1.733-0.367,3.617-0.917,5.65-1.65c1.733-0.633,3.883-1.55,6.45-2.75c1.533-0.733,2.683-1.316,3.45-1.75l3.6-1.8
			c4.8-2.6,7.3-3.95,7.5-4.05c2.7-1.4,5.383-2.684,8.05-3.85c2.933-1.233,5.767-2.2,8.5-2.9l8.55-1.4
			c2.934-0.367,5.483-0.833,7.65-1.4c2.767-0.767,4.883-1.6,6.35-2.5c0.9-0.566,1.566-1.2,2-1.9c0.434-0.733,0.6-1.517,0.5-2.35
			c-0.2-1.2-0.866-2.483-2-3.85c-0.767-0.966-1.433-1.7-2-2.2L252,101.6z"/>
	</g>
	<g>
		<path fill-rule="evenodd" clip-rule="evenodd" d="M122.5,107.6c0.633-0.767,1.55-1.45,2.75-2.05c-0.9,0.667-1.667,1.467-2.3,2.4
			c-0.634,0.9-0.983,1.883-1.05,2.95c-0.033,1.033,0.184,2.033,0.65,3c0.133,0.333,0.4,0.8,0.8,1.4l0.35,0.475
			c0.712-0.632,1.529-1.19,2.45-1.675c1.2-0.633,2.434-1.067,3.7-1.3c2.566-0.533,5.183-0.183,7.85,1.05c1.1,0.433,2.233,1.1,3.4,2
			c0.833,0.6,1.8,1.417,2.9,2.45l5.25,4.95c3,2.6,4.817,4.133,5.45,4.6c2.333,1.833,4.25,3.217,5.75,4.15
			c1.933,1.1,2.966,1.683,3.1,1.75c1.034,0.533,2.117,1,3.25,1.4c2.634,0.833,4.95,1,6.95,0.5c-1,0.533-2.183,0.85-3.55,0.95
			c-1.2,0.1-2.45,0.017-3.75-0.25c-1.167-0.2-2.367-0.533-3.6-1s-2.367-0.967-3.4-1.5c-2.333-1.2-4.45-2.5-6.35-3.9
			c-2.167-1.5-4.1-3.017-5.8-4.55c-1.833-1.6-3.633-3.25-5.4-4.95c-0.933-0.934-1.783-1.7-2.55-2.3
			c-0.967-0.7-1.917-1.283-2.85-1.75c-0.933-0.5-1.95-0.85-3.05-1.05c-0.9-0.2-1.967-0.25-3.2-0.15c-1.033,0.1-2.1,0.383-3.2,0.85
			c-1,0.4-1.933,0.95-2.8,1.65l-0.8,0.7l-1.5-2.3c-0.3-0.5-0.55-1.05-0.75-1.65c-0.434-1.233-0.55-2.45-0.35-3.65
			C121.05,109.633,121.6,108.567,122.5,107.6z"/>
	</g>
	<path fill-rule="evenodd" clip-rule="evenodd" fill="none" stroke="#000000" stroke-width="3" stroke-miterlimit="10" d="
		M243.65,117.3c1.2,2.5,1.434,5.133,0.7,7.9c-0.733,2.733-2.3,5.167-4.7,7.3c-5.633,5-13.117,6.767-22.45,5.3
		c-4.567-0.733-7.95-2-10.15-3.8l-1.95-2.5"/>
	<path fill-rule="evenodd" clip-rule="evenodd" fill="none" stroke="#000000" stroke-width="3" stroke-miterlimit="10" d="
		M133.45,114.05l-0.95,2.5c-0.566,2.067-0.733,4-0.5,5.8c0.767,5.767,5.434,9.267,14,10.5c8.567,1.267,13.583,1.783,15.05,1.55
		c0.733-0.1,0.617-0.333-0.35-0.7"/>
	<g>
		<path fill-rule="evenodd" clip-rule="evenodd" d="M141.2,117.2c-0.034,0-0.067,0-0.1,0s-0.067,0.033-0.1,0.1l-0.05,0.95l0.35,2.35
			c0.034,0.2,0.034,0.517,0,0.95c0.067,1.633,0.317,3.133,0.75,4.5c0.567,1.8,1.434,3.233,2.6,4.3c1.2,1.167,2.684,1.883,4.45,2.15
			c1.3,0.233,2.816,0.25,4.55,0.05c0.233-0.033,0.567-0.083,1-0.15c0.4,0,0.7,0.017,0.9,0.05h2.9l-0.3,0.2L155,134.3
			c-0.133,0.1-0.3,0.15-0.5,0.15l-0.55,0.05c-1.867,0.233-3.583,0.233-5.15,0c-2.2-0.4-4.033-1.283-5.5-2.65
			c-1.4-1.3-2.45-3.017-3.15-5.15c-0.5-1.567-0.783-3.267-0.85-5.1v-1.05l0.9-2.5c0.2-0.4,0.417-0.683,0.65-0.85
			c0.133-0.133,0.233-0.167,0.3-0.1L141.2,117.2z"/>
	</g>
	<path fill-rule="evenodd" clip-rule="evenodd" fill="none" stroke="#000000" stroke-width="2" stroke-miterlimit="10" d="
		M240.25,118.7c-6.733,1.566-10.883,2.6-12.45,3.1c-2.066,0.633-5.383,1.934-9.95,3.9c-0.333,0.133-0.267,0.733,0.2,1.8
		c0.5,1.167,1.284,2.267,2.35,3.3c3.034,2.967,6.917,3.9,11.65,2.8c4.634-1.067,7.384-3.867,8.25-8.4
		c0.3-1.434,0.384-2.95,0.25-4.55L240.25,118.7z"/>
	<path fill-rule="evenodd" clip-rule="evenodd" fill="#E1E1E0" d="M170.75,150.5c0.1,1.567-0.633,2.95-2.2,4.15
		c-1.6,1.2-3.583,1.883-5.95,2.05c-2.367,0.2-4.434-0.184-6.2-1.15c-1.733-0.933-2.667-2.167-2.8-3.7
		c-0.1-1.533,0.65-2.917,2.25-4.15c1.566-1.2,3.533-1.883,5.9-2.05c2.367-0.2,4.434,0.184,6.2,1.15
		C169.684,147.733,170.617,148.967,170.75,150.5z"/>
	<path fill-rule="evenodd" clip-rule="evenodd" fill="#A1795E" d="M227.75,57.55c5.3,1.4,9.133,2.633,11.5,3.7l2.8-4.1
		c2.534-3.133,5.434-5.617,8.7-7.45c10.434-5.867,22.517-4.233,36.25,4.9c4.833,5.4,7.083,10.816,6.75,16.25
		c-0.3,4.5-2.316,8.75-6.05,12.75c-3.134,3.333-6.867,5.917-11.2,7.75c-4.1,1.7-7.033,2.117-8.8,1.25
		c2.066,1.6,3.833,3.183,5.3,4.75c2.4,2.566,3.6,4.717,3.6,6.45c-3.3-2.8-6.699-6.066-10.199-9.8l-4.25-4.8
		c5.3-0.167,10.283-1.7,14.949-4.6c4.5-2.8,7.667-6.2,9.5-10.2c1.934-4.267,1.817-8.25-0.35-11.95c-2.434-4.167-7.267-7.4-14.5-9.7
		c-8.233-2.6-15.983-1.067-23.25,4.6c-2.267,1.767-4.35,3.85-6.25,6.25l-2.15,3.05c-1.967-2.467-5.6-4.9-10.9-7.3l-7.35-2.85
		c-0.967-0.2-1.934-0.417-2.9-0.65c-1.934-0.467-2.95-0.8-3.05-1C219.2,55.45,223.15,56.35,227.75,57.55z"/>
	<path fill-rule="evenodd" clip-rule="evenodd" fill="#A1795E" d="M281.35,123c3.301,3.4,6.184,6.967,8.65,10.7
		c7.9,12,10.2,23.45,6.9,34.35c-1.7,5.6-6.75,12.017-15.15,19.25l-12.15,9.2c-2.433,1.667-5.8,3.633-10.1,5.9
		c24.866-17.867,34.017-36.383,27.45-55.55c-2.066-5.967-5.584-11.65-10.55-17.05l-6.801-6.3l5.601-4l1.95-0.5L281.35,123z"/>
	<g>
		<path fill-rule="evenodd" clip-rule="evenodd" fill="#6D503D" d="M86.65,411.35l42.15,10.15l8.1,1.35l0.6,1.25
			c1.434,3.101,2.567,6.834,3.4,11.2c1.3,6.9,1.6,14.283,0.9,22.15c-16.633,5.467-40.066,8.45-70.3,8.95
			c-9.433,0.133-18.983,0.017-28.65-0.351l-11.65-0.6l0.2-1.15c4.033-19.967,14.45-34.783,31.25-44.45
			c5.233-3,10.8-5.316,16.7-6.949C82.317,412.066,84.75,411.55,86.65,411.35z"/>
		<path fill-rule="evenodd" clip-rule="evenodd" fill="none" stroke="#0B0B0B" stroke-width="5" stroke-miterlimit="10" d="
			M128.8,421.5l8.1,1.35l0.6,1.25c1.434,3.101,2.567,6.834,3.4,11.2c1.3,6.9,1.6,14.283,0.9,22.15
			c-16.633,5.467-40.066,8.45-70.3,8.95c-9.433,0.133-18.983,0.017-28.65-0.351l-11.65-0.6l0.2-1.15
			c4.033-19.967,14.45-34.783,31.25-44.45c5.233-3,10.8-5.316,16.7-6.949c2.967-0.834,5.4-1.351,7.3-1.551"/>
	</g>
	<path fill-rule="evenodd" clip-rule="evenodd" fill="#A1795E" d="M34.85,462.85c12.566-1.1,28.35-3.283,47.35-6.55
		c21.1-3.633,32.75-6.5,34.95-8.6c3.733-3.566,6.717-8.15,8.95-13.75c1.967-4.9,2.867-9.05,2.7-12.45l-0.15-2l3.7-3.15l4.225,6.025
		c0.404,1.561,0.779,3.235,1.125,5.025c1.633,8.3,2.383,17.916,2.25,28.85c-16.634,5.5-39.4,8.283-68.3,8.35
		c-9.033,0-18.117-0.267-27.25-0.8L33.35,463c0.033-0.134,0.283-0.15,0.75-0.05C34.6,463.017,34.85,462.983,34.85,462.85z"/>
	<g>
		<g>
			<path fill-rule="evenodd" clip-rule="evenodd" fill="#8B191C" d="M29.4,9.2c29.967,70.966,58.667,139.983,86.1,207.05
				c68.267,166.8,105.033,256.6,110.3,269.4c-2.333,5.033-4.983,7.199-7.95,6.5c-0.934-0.233-1.833-0.733-2.7-1.5l-1.05-1.101
				L17.7,13.05c0-1.466,0.483-2.733,1.45-3.8C21.117,7.117,24.533,7.1,29.4,9.2z"/>
			<path fill-rule="evenodd" clip-rule="evenodd" fill="none" stroke="#0B0B0B" stroke-width="3" stroke-miterlimit="10" d="
				M29.4,9.2c29.967,70.966,58.667,139.983,86.1,207.05c68.267,166.8,105.033,256.6,110.3,269.4c-2.333,5.033-4.983,7.199-7.95,6.5
				c-0.934-0.233-1.833-0.733-2.7-1.5l-1.05-1.101L17.7,13.05c0-1.466,0.483-2.733,1.45-3.8C21.117,7.117,24.533,7.1,29.4,9.2z"/>
		</g>
		<path fill-rule="evenodd" clip-rule="evenodd" fill="#EE5461" d="M27,11.2c22,52.133,41.567,98.9,58.7,140.3
			c11.433,27.7,28.533,69.45,51.3,125.25c28.9,70.9,57.25,140.15,85.05,207.75c-0.767,1.366-1.45,2.25-2.05,2.65
			c-0.233-0.101-0.5-0.301-0.8-0.601L23.4,11.5c0.1-0.567,0.417-0.85,0.95-0.85C25.017,10.65,25.9,10.833,27,11.2z"/>
	</g>
	<g>
		<path fill-rule="evenodd" clip-rule="evenodd" fill="#6D503D" d="M216.1,251.9c14.867-12.133,25.233-24.7,31.1-37.7l30,72.899
			c-10.033,15.467-32.65,26.534-67.85,33.2c-11,2.066-22.617,3.566-34.85,4.5l-15,0.8c-3.767,0.733-8.033,1.25-12.8,1.551
			c-9.467,0.533-16.6-0.351-21.4-2.65c-9.2-7.533-15.8-17.033-19.8-28.5c-3.9-11.1-4.883-22.616-2.95-34.55
			c16.934-6.1,31.284-4.9,43.05,3.6c5.9,4.267,10.1,9.134,12.6,14.601C179.133,275.583,198.434,266.333,216.1,251.9z"/>
		<path fill-rule="evenodd" clip-rule="evenodd" fill="none" stroke="#0B0B0B" stroke-width="5" stroke-miterlimit="10" d="
			M247.2,214.2c-5.867,13-16.233,25.566-31.1,37.7c-17.667,14.433-36.967,23.683-57.9,27.75c-2.5-5.467-6.7-10.334-12.6-14.601
			c-11.767-8.5-26.117-9.7-43.05-3.6c-1.933,11.934-0.95,23.45,2.95,34.55c4,11.467,10.6,20.967,19.8,28.5
			c4.8,2.3,11.934,3.184,21.4,2.65c4.767-0.301,9.033-0.817,12.8-1.551l15-0.8c12.233-0.934,23.85-2.434,34.85-4.5
			c35.2-6.666,57.817-17.733,67.85-33.2"/>
	</g>
	<g>
		<path fill-rule="evenodd" clip-rule="evenodd" fill="#6D503D" d="M107.8,159.95c1.2,7.167,0.733,12.966-1.4,17.4
			c-2.1,2.967-5.717,5.4-10.85,7.3c-3.733,1.4-7.883,2.417-12.45,3.05l2,2.95c1.533,2.533,2.833,5.184,3.9,7.95
			c3.467,8.9,3.983,17.383,1.55,25.45l-22.7,39.5c-1.967-1.6-4.217-4.083-6.75-7.45c-5.067-6.7-9.05-14.45-11.95-23.25
			c-9.2-28.1-5.65-61.25,10.65-99.45c2.2-0.333,6.867-1.183,14-2.55c5.067-1,8.9-1.567,11.5-1.7c7.233-0.433,12.067,1.934,14.5,7.1
			C103.967,145.117,106.633,153.017,107.8,159.95z"/>
		<path fill-rule="evenodd" clip-rule="evenodd" fill="none" stroke="#0B0B0B" stroke-width="5" stroke-miterlimit="10" d="
			M67.85,263.55c-1.967-1.6-4.217-4.083-6.75-7.45c-5.067-6.7-9.05-14.45-11.95-23.25c-9.2-28.1-5.65-61.25,10.65-99.45
			c2.2-0.333,6.867-1.183,14-2.55c5.067-1,8.9-1.567,11.5-1.7c7.233-0.433,12.067,1.934,14.5,7.1c4.167,8.867,6.833,16.767,8,23.7
			c1.2,7.167,0.733,12.966-1.4,17.4c-2.1,2.967-5.717,5.4-10.85,7.3c-3.733,1.4-7.883,2.417-12.45,3.05l2,2.95
			c1.533,2.533,2.833,5.184,3.9,7.95c3.467,8.9,3.983,17.383,1.55,25.45"/>
	</g>
	<g>
		<path fill-rule="evenodd" clip-rule="evenodd" fill="#8B191C" d="M181.6,269.15c3.867-0.834,7.033-1.15,9.5-0.95
			c8.6,7.866,13.433,19.366,14.5,34.5c0.533,7.566,0.217,14.35-0.95,20.35c-5.633,4.434-13.833,6.316-24.6,5.65
			c-3.366-0.2-6.783-0.65-10.25-1.351l-4.2-0.949c1.7-12.367,1.217-23.95-1.45-34.75c-0.833-3.367-1.85-6.45-3.05-9.25l-1.5-3.2
			C166.567,274.134,173.9,270.783,181.6,269.15z"/>
		<path fill-rule="evenodd" clip-rule="evenodd" fill="none" stroke="#0B0B0B" stroke-width="3" stroke-miterlimit="10" d="
			M181.6,269.15c-7.7,1.633-15.033,4.983-22,10.05l1.5,3.2c1.2,2.8,2.217,5.883,3.05,9.25c2.667,10.8,3.15,22.383,1.45,34.75
			l4.2,0.949c3.467,0.7,6.884,1.15,10.25,1.351c10.767,0.666,18.967-1.217,24.6-5.65c1.167-6,1.483-12.783,0.95-20.35
			c-1.067-15.134-5.9-26.634-14.5-34.5C188.633,268,185.467,268.316,181.6,269.15z"/>
	</g>
	<g>
		<path fill-rule="evenodd" clip-rule="evenodd" fill="#6D503D" d="M86.3,142.3h6.85c4.934,0.367,8.333,1.467,10.2,3.3L86.3,142.3z"
			/>
		<path fill-rule="evenodd" clip-rule="evenodd" fill="none" stroke="#0B0B0B" stroke-width="2" stroke-miterlimit="10" d="
			M86.3,142.3h6.85c4.934,0.367,8.333,1.467,10.2,3.3"/>
	</g>
	<g>
		<path fill-rule="evenodd" clip-rule="evenodd" fill="#6D503D" d="M107.75,159.75l-17.2-0.8c4.333-1.534,8.5-1.85,12.5-0.95
			C105.05,158.433,106.617,159.017,107.75,159.75z"/>
		<path fill-rule="evenodd" clip-rule="evenodd" fill="none" stroke="#0B0B0B" stroke-width="2" stroke-miterlimit="10" d="
			M107.75,159.75c-1.133-0.733-2.7-1.317-4.7-1.75c-4-0.9-8.167-0.583-12.5,0.95"/>
	</g>
	<g>
		<path fill-rule="evenodd" clip-rule="evenodd" fill="#8B191C" d="M48.65,168.25c1.467,2.033,3.333,4.017,5.6,5.95
			c7.2,6.2,17.05,10.7,29.55,13.5c0.333,0.833,1.983,4.283,4.95,10.35c1.433,2.9,2.383,6.284,2.85,10.15c-6.3,1-13.1,1.05-20.4,0.15
			c-14.534-1.8-24.184-7.467-28.95-17c-0.5-2.434-0.683-5.333-0.55-8.7c0.3-6.7,2.117-12.333,5.45-16.9L48.65,168.25z"/>
		<path fill-rule="evenodd" clip-rule="evenodd" fill="none" stroke="#0B0B0B" stroke-width="3" stroke-miterlimit="10" d="
			M48.65,168.25c1.467,2.033,3.333,4.017,5.6,5.95c7.2,6.2,17.05,10.7,29.55,13.5c0.333,0.833,1.983,4.283,4.95,10.35
			c1.433,2.9,2.383,6.284,2.85,10.15c-6.3,1-13.1,1.05-20.4,0.15c-14.534-1.8-24.184-7.467-28.95-17
			c-0.5-2.434-0.683-5.333-0.55-8.7c0.3-6.7,2.117-12.333,5.45-16.9L48.65,168.25z"/>
	</g>
	<g>
		<path fill-rule="evenodd" clip-rule="evenodd" fill="#6D503D" d="M116.3,279.65c2.7-0.2,5-0.2,6.9,0l-20.85,3.699
			C106.25,281.283,110.9,280.05,116.3,279.65z"/>
		<path fill-rule="evenodd" clip-rule="evenodd" fill="none" stroke="#0B0B0B" stroke-width="3" stroke-miterlimit="10" d="
			M123.2,279.65c-1.9-0.2-4.2-0.2-6.9,0c-5.4,0.399-10.05,1.633-13.95,3.699"/>
	</g>
	<g>
		<path fill-rule="evenodd" clip-rule="evenodd" fill="#6D503D" d="M129.5,305.95c-4.133,0.267-8.567,0.316-13.3,0.149
			c-1.699-0.071-3.057-0.121-4.075-0.149H129.5z"/>
		<path fill-rule="evenodd" clip-rule="evenodd" fill="none" stroke="#0B0B0B" stroke-width="3" stroke-miterlimit="10" d="
			M109.9,305.95c0.233-0.066,2.333-0.017,6.3,0.149c4.733,0.167,9.167,0.117,13.3-0.149"/>
	</g>
</g>
</svg>
