<?xml version="1.0" encoding="utf-8"?>
<!-- Generator: Adobe Illustrator 16.0.0, SVG Export Plug-In . SVG Version: 6.00 Build 0)  -->
<!DOCTYPE svg PUBLIC "-//W3C//DTD SVG 1.1//EN" "http://www.w3.org/Graphics/SVG/1.1/DTD/svg11.dtd">
<svg version="1.1" id="Layer_1" xmlns="http://www.w3.org/2000/svg" xmlns:xlink="http://www.w3.org/1999/xlink" x="0px" y="0px"
	 width="278px" height="235px" viewBox="0 0 278 235" enable-background="new 0 0 278 235" xml:space="preserve">
<g>
	<path fill="#CFECEF" stroke="#070808" stroke-width="2" stroke-miterlimit="10" d="M172.1,78c0,0,2.7,25.4,6.9,50.1
		c3.6,21.6,19,61.6,37.9,72c0,0,29.5-49.5-8.6-95.6C182.4,73.3,172.1,78,172.1,78z"/>
	<path fill="#AEDDF2" d="M180,81.3c0,0,34.1,28.5,37.5,54.9c3.4,26.4-5.1,45.5-5.1,45.5s-19-20.1-25.7-45.4c-4.6-17.1-8.7-52-8.7-52
		L180,81.3z"/>
	<path fill="#86B6CC" d="M191.5,109.3c0,0-7.9,10.7-10.4,15c0,0,8.7-10.5,11.2-12.5c0,0,10.7,29.6,10.6,33c0,0-11.6,12.1-12.8,15.4
		c0,0,11.1-12.1,13.8-13.6c0,0,14.1,51.4,13.5,50.8c-0.6-0.6-4.2-25.6-7-34.4c-2.5-7.7-3.8-16.1-3.8-16.1s12.9,1.7,21.4,7.2
		c0,0-13.9-9.4-22.9-10.3l-8.4-33c0,0,12.7,1.9,22,9.3c0,0-13.2-11.8-22.9-12.7c0,0-6.7-20.9-10.6-24.3l-7.9-4.4
		C177.2,78.8,188.2,94.1,191.5,109.3z"/>
</g>
<g>
	<g>
		<path fill="#627179" d="M226.4,137.9l-5.5,10.6c-5.3-0.8-12-4.3-15.6-7c-21.1-15.6-9.5-53.6-4.9-35.4c0.2,0.7,0.4,1.4,0.5,2.1
			c0,0.1,0.1,0.3,0.1,0.4c2.3,6.2,7.5,14.8,10.1,24.3c3.9,2,6.1,2.4,6.1,2.4l4.9,1.4L226.4,137.9z"/>
		<path fill="#070808" d="M226.4,137.9c-0.9,1.8-1.7,3.6-2.6,5.4l-2.6,5.4l-0.1,0.2h-0.2c-0.7-0.1-1.5-0.3-2.2-0.4
			c-0.7-0.2-1.4-0.4-2.2-0.6l-2.1-0.8l-2.1-0.9l-2-1l-2-1.1c-0.6-0.4-1.3-0.8-1.9-1.2l-0.9-0.6L205,142l-0.4-0.3
			c-0.3-0.2-0.6-0.4-0.9-0.7c-0.3-0.2-0.6-0.5-0.9-0.7c-0.6-0.5-1.1-1-1.6-1.6c-1-1.1-2-2.3-2.9-3.5c-1.7-2.5-3-5.3-4-8.1
			c-0.9-2.9-1.5-5.9-1.8-8.9s-0.2-6,0.2-9c0.2-1.5,0.6-3,1.1-4.5c0.3-0.7,0.6-1.5,1-2.2c0.2-0.4,0.5-0.7,0.8-1
			c0.3-0.3,0.7-0.6,1.3-0.8c0.1,0,0.3,0,0.4-0.1c0.1,0,0.3,0,0.4,0c0.1,0,0.3,0.1,0.4,0.1c0.1,0.1,0.2,0.1,0.4,0.2
			c0.4,0.3,0.7,0.6,1,1c0.5,0.7,0.8,1.4,1,2.2c0.3,0.7,0.4,1.5,0.6,2.2l0.5,2.2v-0.1l0.6,1.5c0.2,0.5,0.4,1,0.6,1.5
			c0.4,1,0.9,2,1.4,3l1.4,3l0.7,1.5c0.2,0.5,0.4,1,0.7,1.5l0.7,1.5c0.2,0.5,0.4,1,0.6,1.5l0.6,1.5l0.3,0.8l0.3,0.8l0.6,1.6
			c0.2,0.5,0.4,1,0.5,1.6l0.9,3.2l-0.2-0.2l1.4,0.7l0.7,0.4l0.4,0.2l0.4,0.2l1.5,0.6l0.8,0.2l0.4,0.1l0.4,0.1l0,0l4.6,1.4
			L226.4,137.9z M226.4,137.9l-4.7-1.2l-4.6-1.2l0,0l-0.4-0.1l-0.4-0.1l-0.8-0.2l-1.6-0.6l-0.4-0.1l-0.4-0.2l-0.8-0.3l-1.5-0.7
			l-0.1-0.1l-0.1-0.2l-1-3.1c-0.2-0.5-0.4-1-0.6-1.5l-0.6-1.5l-0.3-0.8l-0.3-0.8l-0.7-1.5c-0.2-0.5-0.4-1-0.7-1.5l-0.7-1.5
			c-0.2-0.5-0.5-1-0.7-1.5l-0.7-1.5l-1.4-3c-0.5-1-0.9-2-1.4-3c-0.2-0.5-0.5-1-0.7-1.5l-0.6-1.5l0,0l0,0l-0.6-2.2
			c-0.2-0.7-0.4-1.4-0.6-2.1c-0.2-0.7-0.5-1.3-0.9-1.8c-0.2-0.3-0.4-0.5-0.6-0.6s-0.3-0.1-0.5-0.1s-0.4,0.2-0.6,0.4
			c-0.2,0.2-0.4,0.5-0.6,0.7c-0.3,0.6-0.6,1.2-0.9,1.9c-0.5,1.3-0.8,2.7-1,4.2c-0.2,1.4-0.3,2.9-0.4,4.3c0,1.5,0,2.9,0.1,4.4
			c0.2,2.9,0.8,5.8,1.7,8.5c0.9,2.8,2.1,5.4,3.7,7.8c0.8,1.2,1.7,2.4,2.7,3.4c0.5,0.5,1,1.1,1.5,1.5c0.3,0.3,0.5,0.5,0.8,0.7
			s0.6,0.5,0.8,0.7l0.4,0.3l0.4,0.3l0.9,0.6c0.6,0.4,1.2,0.8,1.8,1.2l1.9,1.1l2,1l2,0.9l2,0.8c0.7,0.2,1.4,0.5,2.1,0.7
			s1.4,0.3,2.1,0.5l-0.3,0.2l2.9-5.2C224.5,141.4,225.5,139.6,226.4,137.9z"/>
	</g>
	<g>
		<path fill="#627179" d="M229.3,133.6c0.5-0.2,2.9-0.3,5.6,0.3c4,1,8.6,3.6,8.8,10.5c0.2,6.1-2.9,11.7-7.2,15.1
			c-3.9,3.1-8.8,4.3-13,2.2c-12.4-6.1-5.1-17.7-4.9-18.9"/>
		<path fill="#070808" d="M229.3,133.6c0,0,0.3-0.1,0.8-0.2c0.5-0.1,1.3-0.1,2.4-0.1c0.5,0,1.1,0.1,1.7,0.1c0.3,0,0.6,0.1,1,0.2
			c0.3,0.1,0.7,0.1,1,0.2c0.7,0.2,1.4,0.4,2.2,0.8c0.8,0.3,1.5,0.9,2.2,1.4c0.7,0.6,1.3,1.3,1.9,2.1c0.6,0.8,1,1.8,1.3,2.8
			c0.1,0.5,0.3,1,0.4,1.5c0,0.3,0.1,0.5,0.1,0.8s0,0.5,0.1,0.8c0,0.1,0,0.3,0,0.4v0.4c0,0.3,0,0.5,0,0.8c0,0.6-0.1,1.1-0.2,1.7
			c-0.1,0.6-0.2,1.1-0.3,1.7c-0.1,0.6-0.3,1.1-0.5,1.7c-0.4,1.1-0.8,2.2-1.4,3.2c-1.1,2.1-2.6,4-4.4,5.5L237,160l-0.7,0.5l-0.8,0.5
			c-0.3,0.2-0.5,0.3-0.8,0.5c-1,0.6-2.1,1.1-3.3,1.4c-2.3,0.7-4.8,0.6-6.9-0.2c-0.3-0.1-0.5-0.2-0.8-0.3c-0.1-0.1-0.2-0.1-0.4-0.2
			L223,162c-0.2-0.1-0.5-0.2-0.7-0.4c-0.2-0.1-0.5-0.3-0.7-0.4c-0.2-0.1-0.5-0.3-0.7-0.5c-0.2-0.2-0.4-0.3-0.6-0.5
			c-0.4-0.3-0.8-0.7-1.2-1.1c-1.5-1.5-2.5-3.3-2.9-5.1c0-0.2-0.1-0.4-0.1-0.7c0-0.2-0.1-0.4-0.1-0.7c-0.1-0.4-0.1-0.9-0.1-1.3
			c0-0.8,0.2-1.6,0.3-2.3c0.3-1.4,0.8-2.6,1.2-3.5c0.4-0.9,0.8-1.6,1-2.1c0.1-0.2,0.2-0.4,0.3-0.6c0.1-0.1,0.1-0.2,0.1-0.2
			s0,0.1,0,0.2c0,0.1-0.1,0.3-0.2,0.6c-0.2,0.5-0.4,1.3-0.7,2.2c-0.3,1-0.6,2.1-0.7,3.5c-0.1,0.7-0.1,1.4,0,2.2
			c0.1,0.7,0.1,1.5,0.3,2.3c0.4,1.6,1.2,3.2,2.6,4.5c0.3,0.3,0.7,0.6,1.1,1c0.2,0.1,0.4,0.3,0.6,0.4c0.2,0.2,0.4,0.3,0.6,0.4
			c0.2,0.1,0.4,0.3,0.6,0.4c0.2,0.1,0.5,0.2,0.7,0.4l0.4,0.2l0.3,0.1c0.2,0.1,0.5,0.2,0.7,0.3c1.9,0.7,4.1,0.7,6.2,0.1
			c1-0.3,2.1-0.7,3-1.3c0.2-0.1,0.5-0.3,0.7-0.4l0.7-0.5l0.7-0.5l0.6-0.5c1.7-1.5,3.1-3.3,4.2-5.2c0.5-1,1-2,1.3-3
			c0.2-0.5,0.3-1,0.4-1.5c0.1-0.5,0.2-1,0.3-1.6c0.1-0.5,0.1-1,0.1-1.5c0-0.3,0-0.5,0-0.8v-0.4c0-0.1,0-0.2,0-0.4s0-0.5-0.1-0.7
			c0-0.2-0.1-0.5-0.1-0.7c-0.1-0.5-0.2-0.9-0.3-1.4c-0.3-0.9-0.7-1.7-1.2-2.5c-0.5-0.7-1.1-1.4-1.7-1.9c-0.6-0.5-1.3-0.9-2-1.3
			c-0.6-0.4-1.3-0.7-1.9-0.9c-0.3-0.1-0.6-0.2-1-0.3c-0.3-0.1-0.6-0.2-0.9-0.3c-0.6-0.1-1.1-0.3-1.6-0.3c-1-0.2-1.8-0.2-2.3-0.2
			C229.6,133.6,229.3,133.6,229.3,133.6z"/>
	</g>
	<g>
		<path fill="#627179" d="M221.4,138.9c0,0,1-3.7,3.2-6.5l0,0c1.7-2.2,4.2-3.8,7.5-2.9c7.7,2-1.3,21.7-4.1,21.5h-0.1
			c-2.9-0.3-8.8-2.6-3.5-14.4"/>
		<path fill="#070808" d="M221.4,138.9c0.1-0.6,0.3-1.2,0.4-1.8c0.1-0.3,0.2-0.6,0.3-0.9c0.1-0.3,0.2-0.6,0.3-0.9l0.4-0.9
			c0.1-0.1,0.1-0.3,0.2-0.4l0.2-0.4l0.2-0.4l0.2-0.4l0.5-0.8l0.1-0.2h0.3l0,0L224,132c0.7-0.9,1.5-1.7,2.5-2.3c1-0.6,2.1-1,3.3-1.1
			c0.6,0,1.2,0,1.7,0.1l0.4,0.1h0.1c0,0,0,0,0.1,0l0,0l0.2,0.1c0.1,0,0.3,0.1,0.4,0.2c0.1,0.1,0.3,0.1,0.4,0.2
			c0.5,0.3,1,0.8,1.3,1.3c0.3,0.5,0.6,1.1,0.7,1.6c0.3,1.1,0.3,2.3,0.2,3.4c-0.1,1.1-0.3,2.2-0.5,3.3c-0.5,2.1-1.2,4.2-2.1,6.2
			c-0.4,1-0.9,2-1.5,2.9c-0.6,0.9-1.2,1.9-2,2.7c-0.2,0.2-0.5,0.4-0.8,0.6c-0.2,0.1-0.4,0.2-0.6,0.2c-0.3,0-0.4,0-0.5,0l-0.4-0.1
			l-0.4-0.1c-0.3-0.1-0.6-0.2-0.8-0.2c-1.1-0.4-2.1-1-2.9-2c-0.8-0.9-1.1-2.1-1.3-3.2c0-0.3-0.1-0.6-0.1-0.9s0-0.6,0-0.8
			c0-0.6,0.1-1.1,0.2-1.7l0.1-0.4l0.1-0.4l0.2-0.8c0.1-0.5,0.4-1,0.6-1.5c0.4-1,0.9-2,1.4-2.9l-0.5,1.5c-0.1,0.3-0.2,0.5-0.2,0.8
			l-0.2,0.8c-0.1,0.5-0.3,1-0.3,1.6l-0.1,0.8l-0.1,0.4v0.4c0,0.5-0.1,1-0.1,1.5c0,0.3,0,0.5,0,0.8c0,0.2,0.1,0.5,0.1,0.7
			c0.1,1,0.5,1.9,1.1,2.7c0.6,0.7,1.4,1.3,2.4,1.6c0.2,0.1,0.5,0.2,0.7,0.2l0.3,0.1l0.4,0.1c0.1,0,0.3,0,0.3,0s0.1,0,0.2-0.1
			c0.2-0.1,0.3-0.2,0.5-0.4c0.7-0.7,1.3-1.6,1.8-2.5s1-1.8,1.4-2.8c0.9-1.9,1.6-3.9,2-6c0.2-1,0.4-2.1,0.5-3.1c0.1-1,0-2.1-0.2-3
			c-0.1-0.5-0.3-0.9-0.6-1.3c-0.3-0.4-0.6-0.7-1-0.9c-0.1-0.1-0.2-0.1-0.3-0.2c-0.1,0-0.2-0.1-0.3-0.1l-0.2-0.1l0,0l0,0h-0.1
			l-0.4-0.1c-0.5-0.1-1-0.1-1.5-0.1c-1,0-1.9,0.4-2.7,0.9c-0.4,0.3-0.8,0.6-1.2,0.9c-0.4,0.3-0.7,0.7-1,1.1l-0.2,0.2h-0.2l0,0
			l0.5-0.2l-0.6,0.7l-0.3,0.3l-0.3,0.4l-0.3,0.4c-0.1,0.1-0.2,0.2-0.3,0.4l-0.5,0.8c-0.2,0.3-0.3,0.5-0.4,0.8s-0.3,0.5-0.4,0.8
			C221.9,137.8,221.7,138.4,221.4,138.9z"/>
	</g>
</g>
<g>
	<path fill="#F5BF1F" stroke="#070808" stroke-width="2" stroke-miterlimit="10" d="M254.9,213.8c0,0-15-24.1-50-19
		c-3.1,3-7.5,8.7-7.7,16.8C197.1,211.6,233.7,224,254.9,213.8z"/>
	<g>
		<path fill="#E0E5DF" d="M197.1,211.6l-0.4,7.2c0,0,29.1,13.5,60.3,0.7l-2.2-5.8C254.9,213.8,231.6,224.5,197.1,211.6z"/>
		<path fill="#070808" d="M197.1,211.6l-0.1,3.6l-0.1,3.6l-0.1-0.2c1.2,0.5,2.4,0.9,3.6,1.3c1.2,0.4,2.4,0.8,3.7,1.1
			c1.2,0.3,2.5,0.7,3.7,1s2.5,0.6,3.8,0.8c1.3,0.2,2.5,0.4,3.8,0.6l1.9,0.3l1.9,0.2c1.3,0.1,2.5,0.2,3.8,0.3
			c1.3,0.1,2.6,0.1,3.8,0.1c1.3,0,2.6,0,3.8,0c1.3,0,2.6-0.1,3.8-0.2c1.3-0.1,2.5-0.2,3.8-0.4s2.5-0.4,3.8-0.6
			c0.6-0.1,1.3-0.2,1.9-0.4c0.6-0.1,1.3-0.2,1.9-0.4c1.2-0.3,2.5-0.6,3.7-1c0.6-0.2,1.2-0.3,1.8-0.6l1.8-0.6
			c0.6-0.2,1.2-0.4,1.8-0.7l1.8-0.7l-0.4,1l-2.1-5.8l1,0.4c-0.6,0.3-1.2,0.5-1.8,0.7c-0.6,0.2-1.2,0.4-1.8,0.6
			c-0.6,0.2-1.2,0.4-1.8,0.5c-0.6,0.2-1.2,0.3-1.8,0.5l-1.8,0.4c-0.6,0.1-1.2,0.2-1.8,0.3c-0.6,0.1-1.2,0.2-1.8,0.3l-1.8,0.2
			c-0.6,0.1-1.2,0.2-1.8,0.2l-1.9,0.1l-1.9,0.1c-0.6,0-1.2,0-1.9,0h-1.9c-0.3,0-0.6,0-0.9,0h-0.9l-3.7-0.1l-3.7-0.4
			c-0.6-0.1-1.2-0.1-1.8-0.2l-1.8-0.3c-1.2-0.2-2.4-0.4-3.7-0.6l-3.6-0.8l-1.8-0.4l-1.8-0.5l-3.5-1c-0.6-0.2-1.2-0.4-1.8-0.6
			l-1.7-0.6L197.1,211.6z M197.1,211.6l3.5,1.1l1.8,0.5c0.6,0.2,1.2,0.4,1.8,0.5l3.6,0.9l1.8,0.4l1.8,0.3l3.6,0.7
			c1.2,0.2,2.4,0.3,3.6,0.5l1.8,0.2c0.6,0.1,1.2,0.1,1.8,0.2l3.7,0.3l3.7,0.1h0.9c0.3,0,0.6,0,0.9,0l1.8-0.1l1.8-0.1l1.8-0.2
			l1.8-0.2c0.6-0.1,1.2-0.2,1.8-0.2l1.8-0.2c0.6-0.1,1.2-0.2,1.8-0.3s1.2-0.2,1.8-0.3l1.8-0.4c0.6-0.1,1.2-0.3,1.8-0.5
			c0.6-0.2,1.2-0.3,1.7-0.5c0.6-0.2,1.2-0.4,1.7-0.6c0.6-0.2,1.1-0.4,1.7-0.6l0.8-0.3l0.3,0.8l2.2,5.8l0.3,0.7l-0.7,0.3
			c-1.2,0.5-2.4,1-3.7,1.4l-1.9,0.6c-0.6,0.2-1.2,0.4-1.9,0.6c-1.2,0.4-2.5,0.7-3.8,1c-0.6,0.2-1.3,0.3-1.9,0.4
			c-0.6,0.1-1.3,0.3-1.9,0.4l-1.9,0.3c-0.6,0.1-1.3,0.2-1.9,0.3c-1.3,0.2-2.6,0.3-3.9,0.4c-1.3,0.1-2.6,0.2-3.9,0.2s-2.6,0-3.9,0
			c-1.3-0.1-2.6-0.1-3.9-0.2c-1.3-0.1-2.6-0.2-3.9-0.4l-1.9-0.3l-1.9-0.3c-1.3-0.2-2.6-0.5-3.8-0.8c-1.2-0.3-2.5-0.6-3.8-0.9
			c-1.3-0.3-2.5-0.7-3.7-1.1c-1.2-0.4-2.5-0.8-3.7-1.3s-2.4-0.9-3.6-1.5l-0.1-0.1V219l0.3-3.6L197.1,211.6z"/>
	</g>
</g>
<g>
	<path fill="#F5BF1F" stroke="#070808" stroke-width="3.6326" stroke-miterlimit="10" d="M211.6,220.4c0,0-33.1-47-57.7-2.2
		C153.9,218.2,190.4,230.6,211.6,220.4z"/>
	<g>
		<path fill="#E0E5DF" d="M153.9,218.2l-0.4,7.2c0,0,29.1,13.5,60.3,0.7l-2.2-5.7C211.6,220.4,188.4,231,153.9,218.2z"/>
		<path fill="#070808" d="M153.9,218.2l-0.1,3.6l-0.1,3.6l-0.1-0.2c1.2,0.5,2.4,0.9,3.6,1.3s2.4,0.8,3.7,1.1
			c1.2,0.3,2.5,0.6,3.7,0.9c1.2,0.3,2.5,0.6,3.8,0.8c1.3,0.2,2.5,0.4,3.8,0.6l1.9,0.3l1.9,0.2c1.3,0.1,2.5,0.2,3.8,0.3
			c1.3,0.1,2.6,0.1,3.8,0.1c1.3,0,2.6,0,3.8,0c1.3,0,2.6-0.1,3.8-0.2c1.3-0.1,2.5-0.2,3.8-0.4s2.5-0.4,3.8-0.6
			c0.6-0.1,1.3-0.2,1.9-0.4c0.6-0.1,1.3-0.2,1.9-0.4c1.2-0.3,2.5-0.6,3.7-1c0.6-0.2,1.2-0.3,1.8-0.6l1.8-0.6
			c0.6-0.2,1.2-0.4,1.8-0.7l1.8-0.7l-0.4,1l-2.1-5.7l1,0.4c-0.6,0.3-1.2,0.5-1.8,0.7c-0.6,0.2-1.2,0.4-1.8,0.6
			c-0.6,0.2-1.2,0.4-1.8,0.5c-0.6,0.2-1.2,0.3-1.8,0.5l-1.8,0.4c-0.6,0.1-1.2,0.2-1.8,0.3c-0.6,0.1-1.2,0.2-1.8,0.3l-1.8,0.2
			c-0.6,0.1-1.2,0.2-1.8,0.2l-1.9,0.1l-1.9,0.1c-0.6,0-1.2,0-1.9,0h-1.9c-0.3,0-0.6,0-0.9,0h-0.9l-3.7-0.1l-3.7-0.4
			c-0.6-0.1-1.2-0.1-1.8-0.2l-1.8-0.3c-1.2-0.2-2.4-0.4-3.7-0.6l-3.6-0.8l-1.8-0.4l-1.8-0.5l-3.5-1c-0.6-0.2-1.2-0.4-1.8-0.6
			l-1.7-0.6L153.9,218.2z M153.9,218.2l3.5,1.1l1.8,0.5c0.6,0.2,1.2,0.4,1.8,0.5l3.6,0.9l1.8,0.4l1.8,0.3l3.6,0.7
			c1.2,0.2,2.4,0.3,3.6,0.5l1.8,0.2c0.6,0.1,1.2,0.1,1.8,0.1l3.7,0.3l3.7,0.1h0.9c0.3,0,0.6,0,0.9,0l1.8-0.1l1.8-0.1l1.8-0.2
			l1.8-0.2c0.6-0.1,1.2-0.2,1.8-0.2l1.8-0.2c0.6-0.1,1.2-0.2,1.8-0.3c0.6-0.1,1.2-0.2,1.8-0.3l1.8-0.4c0.6-0.1,1.2-0.3,1.8-0.5
			c0.6-0.2,1.2-0.3,1.7-0.5c0.6-0.2,1.2-0.4,1.7-0.6c0.6-0.2,1.1-0.4,1.7-0.6l0.8-0.3l0.3,0.8l2.2,5.7l0.3,0.7l-0.7,0.3
			c-1.2,0.5-2.4,1-3.7,1.4l-1.9,0.6c-0.6,0.2-1.2,0.4-1.9,0.6c-1.2,0.4-2.5,0.7-3.8,1c-0.6,0.2-1.3,0.3-1.9,0.4
			c-0.6,0.1-1.3,0.3-1.9,0.4l-1.9,0.3c-0.6,0.1-1.3,0.2-1.9,0.2c-1.3,0.2-2.6,0.3-3.9,0.4c-1.3,0.1-2.6,0.2-3.9,0.2
			c-1.3,0-2.6,0-3.9,0c-1.3-0.1-2.6-0.1-3.9-0.2c-1.3-0.1-2.6-0.2-3.9-0.4l-1.9-0.3l-1.9-0.3c-1.3-0.2-2.5-0.5-3.8-0.7
			c-1.3-0.3-2.5-0.6-3.8-0.9c-1.3-0.3-2.5-0.7-3.7-1.1c-1.2-0.4-2.5-0.8-3.7-1.3c-1.2-0.5-2.4-0.9-3.6-1.5l-0.1-0.1v-0.1l0.3-3.6
			L153.9,218.2z"/>
	</g>
</g>
<path fill="#FFFFFF" stroke="#070808" stroke-width="3.6326" stroke-miterlimit="10" d="M177.3,198.8c-0.4-0.5-1-0.6-1.4-0.2l-6.1,6
	c-0.4,0.4-0.4,1.1,0,1.5l0,0c0.4,0.5,1,0.6,1.4,0.2l6.1-6C177.6,200,177.6,199.3,177.3,198.8L177.3,198.8z"/>
<path fill="#49555C" stroke="#070808" stroke-width="2" stroke-miterlimit="10" d="M201,167.4c0,0,7.8,2.9,8.1,16.2
	c-0.1,5.9-2.9,12-2.9,12s5,3.4,7.7,0c0,0,6.6-18.3,0-28.2c-6.6-9.9-9.7-10.5-9.7-10.5S195,161.1,201,167.4z"/>
<path fill="#49555C" stroke="#070808" stroke-width="1" stroke-miterlimit="10" d="M164.2,172.3c0,0,7.8,2.9,8.1,16.2
	c-0.1,5.9-2.9,12-2.9,12s5,3.4,7.7,0c0,0,6.6-18.3,0-28.2c-6.6-9.9-9.7-10.5-9.7-10.5S158.2,165.9,164.2,172.3z"/>
<path fill="#F5BD1F" stroke="#070808" stroke-width="2" stroke-miterlimit="10" d="M176.1,197c0,0,32.5-3.7,31.9-43.8
	c1.2-13.6-6.6-28.9-10.7-38c0,0,6.2-8.5,1.1-17.4c-5.1-8.8-25.8-34.1-48.2-7.2C127.8,117.6,115.3,189.5,176.1,197z"/>
<path fill="#49555C" stroke="#070808" stroke-width="0.9082" stroke-miterlimit="10" d="M207.4,154.1c0,0-6.1,3.3-19.1,1.9
	l-8.3,24.7c0,0,16.6,0.1,23-5C203.1,175.7,207.6,164.5,207.4,154.1z"/>
<path fill="#49555C" stroke="#070808" stroke-width="0.9082" stroke-miterlimit="10" d="M206.9,142.2c0,0-8.8,0.6-18.3,1.7v-17.8
	c0,0,8,0.3,14,2.5L206.9,142.2z"/>
<path fill="#775A45" stroke="#070808" stroke-width="2" stroke-miterlimit="10" d="M67.1,161.9c-1.8-7.1-6.5-20,0.5-38.9
	c5.2-14.1,14.8-20.8,22.3-24.3c8.5-3.9,17.8-3.6,26.3-5.3c0,0,60.9,68.8-11.5,92.9c-14.9,2.1-23.7-1.5-28.8-6"/>
<g>
	<path fill="#775A45" d="M91.6,183.9c-11.9,1.2-11.3,13.2-12,15.9c1.4,3.3,3.1,8.6,3.7,17.7c0,0-28.2,12.4-47.1,4.2
		c-1.7-0.7-3.3-1.7-4.9-2.8c0.4-3,9.5-18.1,21.7-20.7c-2.1-13.2,1.7-25.8,10.8-35.4c0.1-0.1,0.3-0.3,0.4-0.4
		c1.2-1.2,2.1-1.6,3.7-2.9"/>
	<path fill="#070808" d="M91.6,183.9c-1.8,0.3-3.6,0.8-5.1,1.8c-1.5,0.9-2.8,2.3-3.7,3.8c-0.9,1.5-1.4,3.3-1.7,5
		c-0.2,0.9-0.3,1.8-0.4,2.7l-0.1,1.4c0,0.5-0.1,0.9-0.2,1.5v-0.5c0.2,0.4,0.3,0.7,0.4,1.1c0.2,0.4,0.3,0.7,0.4,1.1
		c0.1,0.4,0.3,0.7,0.4,1.1l0.3,1.1c0.1,0.4,0.2,0.7,0.3,1.1l0.3,1.1c0.1,0.4,0.2,0.8,0.2,1.1l0.2,1.1c0.1,0.4,0.1,0.8,0.2,1.1
		l0.2,1.1c0.1,0.4,0.1,0.8,0.2,1.1l0.1,1.1l0.1,1.1c0,0.4,0.1,0.8,0.1,1.1l0.2,2.3v0.6l-0.5,0.2c-1.1,0.5-2.1,0.9-3.2,1.3
		c-1.1,0.4-2.1,0.8-3.2,1.1c-2.2,0.7-4.3,1.4-6.5,1.9c-4.4,1.1-8.9,2-13.4,2.4c-4.5,0.4-9.1,0.4-13.7-0.4c-2.3-0.4-4.5-1-6.7-1.8
		c-0.3-0.1-0.5-0.2-0.8-0.3l-0.2-0.1h-0.1h-0.1l-0.4-0.2l-0.8-0.4l-0.8-0.4c-1-0.5-2-1.2-3-1.9l-0.4-0.3l0.1-0.5
		c0.1-0.4,0.2-0.8,0.3-1.1c0.1-0.3,0.3-0.6,0.4-1c0.3-0.6,0.6-1.2,0.9-1.8c0.3-0.6,0.7-1.1,1-1.7c0.4-0.6,0.7-1.1,1.1-1.6
		s0.8-1.1,1.2-1.6c0.4-0.5,0.8-1,1.2-1.5s0.9-1,1.3-1.5c0.4-0.5,0.9-1,1.4-1.4c0.5-0.5,0.9-0.9,1.4-1.4c0.5-0.4,1-0.9,1.5-1.3
		c0.5-0.4,1-0.8,1.6-1.2c0.3-0.2,0.5-0.4,0.8-0.6c0.3-0.2,0.5-0.4,0.8-0.5c0.6-0.4,1.1-0.7,1.7-1c0.6-0.3,1.2-0.6,1.8-0.9
		c0.3-0.1,0.6-0.3,0.9-0.4c0.3-0.1,0.6-0.2,1-0.3c0.6-0.2,1.3-0.4,2-0.5l-0.6,0.9c-0.1-0.9-0.3-1.8-0.3-2.7
		c-0.1-0.9-0.2-1.8-0.2-2.8c0-0.9,0-1.8,0-2.8c0-0.9,0.1-1.8,0.2-2.8c0.1-0.9,0.2-1.8,0.3-2.8c0.1-0.9,0.3-1.8,0.5-2.7
		s0.4-1.8,0.7-2.7l0.4-1.3c0.2-0.4,0.3-0.9,0.5-1.3c0.3-0.9,0.7-1.7,1.1-2.5c0.4-0.8,0.9-1.6,1.3-2.4c0.5-0.8,1-1.6,1.5-2.3
		c0.5-0.8,1.1-1.5,1.6-2.2c0.6-0.7,1.1-1.4,1.8-2.1c0.6-0.7,1.2-1.3,1.9-2c0.6-0.6,1.4-1.2,2.1-1.7c0.8-0.5,1.5-1,2.3-1.5
		c-0.7,0.6-1.4,1.2-2.1,1.7c-0.7,0.6-1.3,1.2-1.9,1.9c-0.6,0.7-1.2,1.4-1.7,2.1c-0.6,0.7-1.1,1.4-1.6,2.2c-0.5,0.7-1,1.5-1.4,2.3
		s-0.9,1.6-1.3,2.4c-0.4,0.8-0.8,1.6-1.1,2.4c-0.3,0.8-0.6,1.7-0.9,2.5l-0.5,1.3c-0.1,0.4-0.3,0.8-0.4,1.3c-0.2,0.9-0.5,1.7-0.7,2.6
		c-0.2,0.9-0.4,1.7-0.5,2.6c-0.1,0.9-0.2,1.8-0.3,2.7c-0.1,0.9-0.1,1.8-0.2,2.7c0,0.9,0,1.8,0,2.7s0.1,1.8,0.2,2.7
		c0.1,0.9,0.2,1.8,0.3,2.7l0.1,0.7l-0.7,0.2c-0.6,0.1-1.2,0.3-1.8,0.5c-0.3,0.1-0.6,0.2-0.9,0.3c-0.3,0.1-0.6,0.2-0.9,0.3
		c-0.6,0.2-1.1,0.5-1.7,0.8c-0.5,0.3-1.1,0.6-1.6,0.9c-0.3,0.2-0.5,0.3-0.8,0.5c-0.3,0.2-0.5,0.3-0.8,0.5c-0.5,0.4-1,0.8-1.5,1.2
		s-1,0.8-1.4,1.2c-0.5,0.4-0.9,0.9-1.4,1.3c-0.5,0.4-0.9,0.9-1.3,1.4s-0.8,1-1.3,1.4c-0.4,0.5-0.8,1-1.2,1.5s-0.8,1-1.1,1.5
		c-0.4,0.5-0.7,1.1-1.1,1.6c-0.3,0.5-0.7,1.1-1,1.6c-0.3,0.6-0.6,1.1-0.9,1.7c-0.2,0.5-0.5,1.2-0.6,1.6l-0.3-0.7
		c0.9,0.6,1.8,1.2,2.8,1.7l0.7,0.4l0.8,0.4l0.4,0.2h0.1h0.1l0.2,0.1c0.3,0.1,0.5,0.2,0.8,0.3c2,0.8,4.2,1.4,6.4,1.7
		c4.4,0.7,8.8,0.8,13.3,0.3c4.4-0.4,8.8-1.3,13.2-2.4c2.2-0.6,4.3-1.2,6.4-1.9c1.1-0.4,2.1-0.7,3.2-1.1c1-0.4,2.1-0.8,3.1-1.2
		l-0.5,0.8l-0.2-2.2c0-0.4-0.1-0.7-0.1-1.1l-0.1-1.1V212c0-0.4-0.1-0.7-0.2-1.1l-0.2-1.1c-0.1-0.4-0.1-0.7-0.2-1.1l-0.2-1.1
		c-0.1-0.4-0.1-0.7-0.2-1.1l-0.3-1.1c-0.1-0.4-0.2-0.7-0.3-1.1l-0.3-1.1c-0.1-0.4-0.2-0.7-0.4-1.1c-0.1-0.3-0.2-0.7-0.4-1
		c-0.1-0.3-0.3-0.7-0.4-1l-0.1-0.3l0.1-0.2c0.1-0.4,0.2-0.8,0.2-1.3l0.2-1.4c0.2-0.9,0.3-1.8,0.6-2.8c0.5-1.8,1.2-3.6,2.2-5.2
		c1-1.6,2.5-2.9,4.2-3.8C88,184.4,89.8,184,91.6,183.9z"/>
</g>
<g>
	<g>
		<path fill="#775A45" d="M136.5,204.3c-14.7,15.4-31,4.8-31,4.8c-0.2-0.3-0.3-0.6-0.5-1c-5-10.9-4.1-19.3-3.5-22.6
			c0.2-1,0.4-1.6,0.4-1.6"/>
		<path fill="#070808" d="M136.5,204.3c-0.4,0.6-0.9,1.1-1.3,1.7l-0.7,0.8c-0.2,0.3-0.5,0.5-0.8,0.8c-0.5,0.5-1.1,1-1.6,1.5
			c-0.3,0.2-0.6,0.5-0.9,0.7c-0.3,0.2-0.6,0.4-0.9,0.6c-0.3,0.2-0.6,0.4-1,0.5c-0.3,0.2-0.6,0.3-1,0.5l-1,0.4
			c-0.3,0.2-0.7,0.3-1,0.4c-0.3,0.1-0.7,0.2-1,0.3c-0.4,0.1-0.7,0.2-1.1,0.3L123,213c-0.4,0.1-0.7,0.1-1.1,0.2
			c-0.4,0.1-0.7,0.1-1.1,0.1c-0.4,0-0.7,0.1-1.1,0.1c-0.7,0-1.5,0-2.2,0l-1.1-0.1l-1.1-0.1l-1.1-0.2l-1.1-0.2l-1.1-0.2l-1.1-0.3
			c-0.7-0.2-1.4-0.4-2.1-0.7c-0.7-0.3-1.4-0.5-2-0.9c-0.7-0.3-1.3-0.6-2-1.1l-0.2-0.1l-0.1-0.2l-0.3-0.7l-0.1-0.2l-0.1-0.2l-0.2-0.4
			l-0.6-1.5l-0.6-1.6c-0.2-0.5-0.4-1-0.5-1.6l-0.3-0.8l-0.2-0.8c-0.1-0.5-0.3-1.1-0.4-1.6c-0.1-0.5-0.3-1.1-0.4-1.6
			c-0.1-0.5-0.2-1.1-0.3-1.6s-0.2-1.1-0.2-1.6c-0.1-0.5-0.1-1.1-0.2-1.6l-0.1-1.7c0-0.6,0.1-1.1,0.1-1.7c0.1-0.5,0.1-1.1,0.2-1.6
			c0.1-0.5,0.2-1.1,0.3-1.6s0.3-1.1,0.4-1.6c0.2-0.5,0.3-1,0.6-1.5c-0.1,0.5-0.1,1.1-0.2,1.6c0,0.5-0.1,1.1-0.1,1.6s0,1.1,0,1.6
			s0,1.1,0.1,1.6l0.1,0.8c0,0.3,0.1,0.5,0.1,0.8c0,0.5,0,1.1,0.1,1.6c0,0.5,0.1,1.1,0.2,1.6s0.1,1,0.2,1.6c0.1,0.5,0.2,1,0.3,1.6
			c0.1,0.5,0.2,1,0.4,1.5c0.1,0.5,0.3,1,0.4,1.5l0.2,0.8l0.2,0.8c0.2,0.5,0.3,1,0.5,1.5l0.6,1.5l0.6,1.5l0.2,0.4l0.1,0.2l0.1,0.2
			l0.3,0.7l-0.3-0.3c0.5,0.3,1.2,0.7,1.8,1s1.3,0.6,1.9,0.8c0.6,0.3,1.3,0.5,2,0.7l1,0.3l1,0.2l1,0.2l1,0.1l1,0.1l1,0.1
			c0.7,0,1.4,0,2.1,0c0.3,0,0.7,0,1-0.1c0.3,0,0.7-0.1,1-0.1c0.3-0.1,0.7-0.1,1-0.2l1-0.2c0.3-0.1,0.7-0.2,1-0.3
			c0.3-0.1,0.7-0.2,1-0.3c0.3-0.1,0.7-0.2,1-0.4l0.9-0.4c0.3-0.1,0.6-0.3,0.9-0.5c0.3-0.2,0.6-0.3,0.9-0.5c0.6-0.4,1.2-0.7,1.8-1
			s1.2-0.7,1.8-1.1c0.3-0.2,0.6-0.4,0.9-0.6l0.9-0.6C135.3,205.2,135.9,204.7,136.5,204.3z"/>
	</g>
	<path fill="#775A45" stroke="#070808" stroke-width="3.6326" stroke-miterlimit="10" d="M123.6,210.3c2.9-2.1,5.4-4.8,7-7.1
		c0,0,2.1-23-5.8-28.9c-4.5-3.3-11-0.4-15.8,2.8c-0.2,0.1-0.4,0.3-0.6,0.4"/>
	<g>
		<path fill="#775A45" d="M143.2,223.7c-17.2,9.9-34.9,7.4-43.7,5.2c-3.6-0.9-5.7-1.8-5.7-1.8c-0.1-13.8,9.9-19.5,15.5-21.5
			c2.1-0.8,3.6-1.1,3.6-1.1l15-1.2C140.8,211.1,143.2,223.7,143.2,223.7z"/>
		<path fill="#070808" d="M143.2,223.7l-2.7,1.7c-0.4,0.3-0.9,0.5-1.4,0.8l-1.4,0.7l-0.7,0.4l-0.7,0.3l-1.5,0.6c-1,0.4-2,0.8-3,1.1
			c-1,0.4-2.1,0.7-3.1,0.9c-1,0.3-2.1,0.4-3.2,0.6s-2.1,0.3-3.2,0.5c-1.1,0.2-2.1,0.2-3.2,0.3c-0.5,0-1.1,0.1-1.6,0.1h-1.6
			c-1.1,0-2.2,0-3.2-0.1l-1.6-0.1c-0.5,0-1.1-0.1-1.6-0.1l-1.6-0.2c-0.5-0.1-1.1-0.1-1.6-0.2c-1.1-0.1-2.1-0.3-3.2-0.5
			s-2.1-0.4-3.2-0.7l-0.4-0.1l-0.4-0.1l-0.8-0.2c-0.5-0.1-1-0.3-1.5-0.4l-1.6-0.5c-0.5-0.2-1-0.3-1.5-0.6l-0.5-0.2v-0.5l0.1-2.1
			v-0.5l0.1-0.5l0.1-1c0.1-0.3,0.1-0.7,0.2-1l0.2-1l0.2-1l0.3-1l0.3-1c0.1-0.3,0.3-0.6,0.4-1l0.4-0.9l0.5-0.9
			c0.2-0.3,0.3-0.6,0.5-0.9l0.6-0.8c0.4-0.6,0.9-1.1,1.3-1.6l0.3-0.4l0.4-0.4l0.7-0.7c0.5-0.5,1-0.9,1.6-1.3
			c0.6-0.4,1.1-0.8,1.7-1.2l0.9-0.6l0.9-0.5c0.3-0.2,0.6-0.3,0.9-0.5c0.3-0.2,0.6-0.3,0.9-0.5l0.9-0.4c0.3-0.1,0.6-0.3,1-0.4
			l0.2-0.1l0.3-0.1l0.5-0.2c0.3-0.1,0.6-0.2,1-0.3l1-0.3c0.3-0.1,0.7-0.2,1-0.2l0,0l0,0l15-1.2h0.3l0.2,0.1l1.4,0.9
			c0.5,0.3,0.9,0.6,1.4,0.9l1.3,1c0.5,0.3,0.8,0.7,1.3,1.1c0.4,0.4,0.8,0.7,1.2,1.1l1.2,1.2c0.4,0.4,0.7,0.9,1,1.3
			c0.3,0.4,0.7,0.9,1,1.3c0.3,0.5,0.6,0.9,0.9,1.4l0.8,1.4c0.3,0.5,0.5,1,0.8,1.5c0.3,0.5,0.5,1,0.7,1.5c0.2,0.5,0.4,1,0.6,1.5
			s0.4,1,0.5,1.6c0.2,0.5,0.3,1.1,0.4,1.6C143,222.7,143.1,223.2,143.2,223.7z M143.2,223.7c-0.1-0.5-0.3-1-0.5-1.5s-0.4-1-0.6-1.5
			c-0.2-0.5-0.4-1-0.7-1.5c-0.3-0.5-0.5-1-0.8-1.4c-0.3-0.5-0.5-0.9-0.8-1.4s-0.6-0.9-0.9-1.4l-0.9-1.3c-0.3-0.4-0.7-0.8-1-1.2
			s-0.7-0.8-1.1-1.2l-0.5-0.6l-0.3-0.3c-0.1-0.1-0.2-0.2-0.3-0.3l-1.1-1.2c-0.4-0.4-0.8-0.7-1.2-1.1c-0.4-0.3-0.8-0.7-1.2-1l-1.3-1
			c-0.4-0.3-0.9-0.6-1.3-0.9l-1.3-0.9l0.5,0.1l-15,1.2h0.1c-0.3,0.1-0.6,0.1-0.9,0.2l-0.9,0.3c-0.3,0.1-0.6,0.2-0.9,0.3l-0.5,0.2
			l-0.2,0.1l-0.2,0.1c-0.3,0.1-0.6,0.2-0.9,0.4l-0.9,0.4c-0.3,0.1-0.6,0.3-0.9,0.4c-0.3,0.1-0.6,0.3-0.9,0.5l-0.9,0.5l-0.8,0.5
			c-0.6,0.3-1.1,0.8-1.6,1.1c-0.5,0.4-1,0.8-1.5,1.3l-0.7,0.7l-0.3,0.3l-0.3,0.4c-0.4,0.5-0.9,1-1.2,1.5l-0.6,0.8
			c-0.2,0.3-0.3,0.6-0.5,0.8l-0.5,0.8l-0.4,0.9c-0.1,0.3-0.3,0.6-0.4,0.9l-0.3,0.9l-0.3,0.9l-0.2,0.9l-0.2,0.9
			c-0.1,0.3-0.1,0.6-0.1,1l-0.1,1l-0.1,0.5v0.5l-0.1,2l-0.5-0.7c0.5,0.2,1,0.4,1.5,0.5l1.5,0.5c0.5,0.2,1,0.3,1.5,0.4l0.8,0.2
			l0.4,0.1l0.4,0.1c1,0.3,2,0.5,3.1,0.7c1,0.2,2.1,0.4,3.1,0.5c0.5,0.1,1,0.2,1.6,0.2l1.6,0.2c0.5,0.1,1,0.1,1.6,0.1l1.6,0.1
			c1.1,0,2.1,0.1,3.2,0.1h1.6c0.5,0,1.1,0,1.6-0.1c1-0.1,2.1-0.1,3.1-0.3c1-0.1,2.1-0.2,3.1-0.4l1.5-0.3c0.5-0.1,1-0.2,1.5-0.3
			c0.5-0.1,1-0.2,1.5-0.3c0.5-0.1,1-0.2,1.5-0.4c1-0.3,2.1-0.5,3-0.8l1.5-0.5l0.8-0.2l0.7-0.3c1-0.4,2-0.7,3-1.2L143.2,223.7z"/>
	</g>
</g>
<g>
	<path fill="#775A45" d="M67.2,130.1c-3.7,8.8-10.2,14.4-17.2,14.8c-3.8,0.2-9.4,1.6-16.9-6.5c0,0,25.2-0.9,18.2-18.4
		c-5-12.5,0.3-2.2,0.3-2.2l-3.3-5.2c0,0,3.1-12,15.8-16.7l21.5,9.8"/>
	<path fill="#070808" d="M67.2,130.1c-1.2,3.4-3,6.6-5.4,9.3c-1.2,1.4-2.6,2.6-4.1,3.6s-3.2,1.9-5.1,2.3c-0.9,0.2-1.9,0.3-2.8,0.4
		c-0.9,0.1-1.8,0.2-2.7,0.2c-1.8,0.1-3.8-0.1-5.6-0.7c-1.8-0.6-3.5-1.5-4.9-2.6c-0.7-0.5-1.4-1.1-2.1-1.8c-0.7-0.6-1.3-1.3-1.9-1.9
		l-1.2-1.2l1.7-0.1c0.8,0,1.7-0.1,2.6-0.2c0.9-0.1,1.7-0.2,2.6-0.4c1.7-0.3,3.4-0.8,5-1.4c1.6-0.6,3.2-1.4,4.5-2.4
		c0.7-0.5,1.3-1.1,1.8-1.7s1-1.3,1.3-2.1c0.7-1.5,0.9-3.1,0.7-4.8c-0.1-0.8-0.3-1.7-0.5-2.5c-0.2-0.8-0.5-1.6-0.9-2.4
		c-0.3-0.8-0.7-1.7-1-2.5c-0.3-0.8-0.6-1.7-0.9-2.6c0-0.1-0.1-0.2-0.1-0.4c0-0.1,0-0.1,0-0.3c0-0.1,0-0.1,0-0.3v-0.1v-0.1
		c0-0.1,0.1-0.2,0.2-0.3s0.3-0.2,0.5-0.2c0.1,0,0.3,0,0.3,0c0.3,0.1,0.3,0.2,0.4,0.2s0.1,0.1,0.1,0.1c0.1,0.1,0.1,0.1,0.1,0.2
		c0.1,0.1,0.2,0.2,0.2,0.3c0.3,0.4,0.5,0.8,0.7,1.2c0.4,0.8,0.9,1.6,1.3,2.4l-1.4,0.8l-3.3-5.2l-0.2-0.3l0.1-0.3
		c0.1-0.5,0.3-1,0.5-1.5c0.2-0.5,0.4-1,0.6-1.4c0.4-0.9,0.9-1.8,1.4-2.7c1-1.8,2.3-3.4,3.6-4.9c0.3-0.4,0.7-0.7,1.1-1.1
		c0.4-0.4,0.8-0.7,1.1-1c0.4-0.3,0.8-0.7,1.2-1c0.4-0.3,0.8-0.6,1.2-0.9c0.4-0.3,0.9-0.6,1.3-0.8c0.4-0.3,0.9-0.5,1.3-0.7
		c0.5-0.2,0.9-0.4,1.4-0.7c0.5-0.2,0.9-0.4,1.4-0.6l0.3-0.1l0.3,0.1l2.7,1.2c0.9,0.4,1.8,0.8,2.7,1.2c0.9,0.4,1.8,0.9,2.6,1.3
		l2.6,1.3l5.3,2.7c1.8,0.9,3.5,1.8,5.2,2.7c-1.8-0.7-3.7-1.4-5.5-2.2L74,101l-2.7-1.1c-0.9-0.4-1.8-0.7-2.7-1.1
		c-0.9-0.4-1.8-0.8-2.7-1.2l-2.7-1.2h0.6c-0.4,0.2-0.9,0.3-1.3,0.5c-0.4,0.2-0.9,0.4-1.3,0.6c-0.4,0.2-0.9,0.4-1.3,0.7
		c-0.4,0.2-0.8,0.5-1.2,0.8c-0.4,0.3-0.8,0.5-1.2,0.8c-0.4,0.3-0.8,0.6-1.1,0.9c-0.4,0.3-0.7,0.6-1.1,1c-0.3,0.3-0.7,0.7-1,1
		c-1.3,1.4-2.5,3-3.4,4.6c-0.5,0.8-0.9,1.7-1.3,2.6c-0.2,0.4-0.4,0.9-0.6,1.3c-0.2,0.4-0.3,0.9-0.4,1.3l-0.1-0.6l3.3,5.2l-1.4,0.8
		c-0.4-0.8-0.8-1.6-1.2-2.3c-0.2-0.4-0.4-0.8-0.7-1.1c-0.1-0.1-0.1-0.2-0.2-0.2l-0.1-0.1l0,0c0,0,0,0,0.2,0.1c0,0,0.2,0,0.3,0
		c0.2,0,0.3-0.1,0.4-0.2c0.2-0.2,0.2-0.3,0.2-0.4c0-0.1,0-0.1,0-0.1v0.1c0,0.1,0,0.2,0.1,0.3c0.2,0.8,0.5,1.6,0.9,2.5
		c0.3,0.8,0.6,1.7,1,2.5c0.3,0.8,0.7,1.7,0.9,2.6c0.3,0.9,0.4,1.8,0.5,2.8c0.2,1.9-0.1,3.9-0.9,5.6c-0.4,0.9-0.9,1.7-1.6,2.4
		c-0.6,0.7-1.3,1.4-2.1,1.9c-1.5,1.1-3.2,1.9-4.9,2.6c-1.7,0.6-3.5,1.1-5.3,1.5c-0.9,0.2-1.8,0.3-2.7,0.4c-0.9,0.1-1.8,0.2-2.7,0.2
		l0.6-1.3c0.6,0.6,1.2,1.3,1.8,1.8c0.6,0.6,1.3,1.1,2,1.7c1.4,1,2.9,1.9,4.5,2.4s3.3,0.7,5,0.6c0.9,0,1.7-0.1,2.6-0.2
		s1.7-0.2,2.5-0.4c0.8-0.2,1.6-0.4,2.4-0.7c0.8-0.3,1.6-0.7,2.3-1.1c1.5-0.9,2.9-1.9,4.1-3.1C63.7,136.3,65.7,133.3,67.2,130.1z"/>
</g>
<g>
	<path fill="#775A45" d="M52.3,125.6c-9.3,12.1-27,0.2-27,0.2c-0.3-0.5-0.6-1-0.8-1.4c-6.5-12.5,2.8-24.7,2.8-24.7
		c5.3-5.2,10.2-3.4,10.2-3.4c10.7-0.4,17.6,7.4,17.9,13C55.6,113.9,56.5,120.2,52.3,125.6z"/>
	<path fill="#070808" d="M52.3,125.6c-0.4,0.5-0.8,1-1.2,1.4c-0.4,0.5-0.9,0.9-1.3,1.3c-0.5,0.4-1,0.8-1.5,1.1
		c-0.5,0.3-1.1,0.7-1.7,0.9c-1.2,0.6-2.4,1-3.7,1.2c-0.6,0.1-1.3,0.2-1.9,0.2s-1.3,0-1.9-0.1c-1.3-0.2-2.5-0.4-3.8-0.7
		c-1.2-0.3-2.4-0.7-3.6-1.2c-1.2-0.5-2.3-1-3.5-1.5c-0.6-0.3-1.1-0.6-1.7-0.9s-1.1-0.6-1.6-1l-0.1-0.1l-0.1-0.1l-0.5-0.8
		c-0.1-0.3-0.3-0.5-0.4-0.8c-0.2-0.5-0.5-1-0.7-1.6c-0.1-0.3-0.2-0.6-0.3-0.9l-0.3-0.9c-0.1-0.3-0.2-0.6-0.2-0.9
		c-0.1-0.3-0.2-0.6-0.2-0.9l-0.2-0.9l-0.1-0.9c-0.1-0.3-0.1-0.6-0.1-0.9c0-0.3-0.1-0.6-0.1-0.9c0-0.3,0-0.6,0-0.9v-0.9
		c0-0.6,0.1-1.2,0.1-1.8c0.1-0.6,0.2-1.2,0.3-1.8c0.1-0.6,0.2-1.2,0.4-1.7c0.2-0.6,0.3-1.1,0.5-1.7c0.2-0.6,0.4-1.1,0.6-1.7
		c0.4-1.1,0.9-2.2,1.5-3.2c0.3-0.5,0.6-1,0.9-1.5c0.3-0.5,0.6-1,1-1.5l0,0l0,0c0.4-0.3,0.7-0.7,1.1-1c0.2-0.2,0.4-0.3,0.6-0.5
		c0.2-0.1,0.4-0.3,0.6-0.4c0.8-0.6,1.7-1,2.7-1.4c1-0.3,2-0.6,3-0.6c0.5,0,1,0,1.5,0c0.3,0,0.5,0.1,0.8,0.1c0.3,0.1,0.5,0.1,0.8,0.2
		h-0.3c3.6-0.1,7.2,0.6,10.3,2.4c1.6,0.8,3,1.9,4.3,3.2c1.3,1.3,2.3,2.8,3.1,4.4c0.4,0.8,0.7,1.7,0.8,2.6c0,0.2,0.1,0.5,0.1,0.7v0.4
		v0.3c0,0.4,0.1,0.9,0.1,1.3c0.1,0.9,0.1,1.7,0.1,2.6c0,0.9-0.1,1.8-0.2,2.6c-0.2,1.7-0.6,3.5-1.3,5.1c-0.3,0.8-0.7,1.6-1.1,2.3
		C53.3,124.2,52.8,125,52.3,125.6z M52.3,125.6c0.5-0.7,1-1.4,1.4-2.2c0.4-0.8,0.7-1.6,0.9-2.4c0.4-1.7,0.5-3.4,0.5-5
		c0-0.8-0.1-1.7-0.1-2.5c-0.1-0.8-0.2-1.7-0.2-2.5l-0.1-1.3v-0.3v-0.3c0-0.2-0.1-0.4-0.1-0.6c-0.1-0.8-0.4-1.5-0.7-2.3
		c-0.7-1.5-1.6-2.8-2.8-4c-1.2-1.2-2.5-2.2-3.9-2.9c-2.9-1.6-6.2-2.3-9.5-2.2h-0.1L37.4,97c-0.1,0-0.4-0.1-0.6-0.1
		c-0.2,0-0.4-0.1-0.6-0.1c-0.4,0-0.9,0-1.3,0c-0.9,0.1-1.7,0.3-2.5,0.6c-0.8,0.3-1.6,0.7-2.3,1.2c-0.2,0.1-0.4,0.3-0.5,0.4
		c-0.2,0.1-0.4,0.3-0.5,0.4c-0.3,0.3-0.7,0.6-1,0.9l0.1-0.1c-0.3,0.4-0.6,0.9-0.9,1.4c-0.3,0.5-0.6,1-0.8,1.5c-0.5,1-1,2-1.4,3.1
		c-0.2,0.5-0.4,1.1-0.6,1.6s-0.3,1.1-0.5,1.6c-0.1,0.5-0.3,1.1-0.4,1.6c-0.1,0.6-0.2,1.1-0.2,1.7c-0.1,0.6-0.1,1.1-0.1,1.7v0.8
		c0,0.3,0,0.6,0,0.8c0,0.3,0,0.6,0.1,0.8c0,0.3,0,0.6,0.1,0.8l0.1,0.8l0.2,0.8c0,0.3,0.1,0.5,0.2,0.8s0.1,0.5,0.2,0.8l0.3,0.8
		c0.1,0.3,0.2,0.5,0.3,0.8c0.2,0.5,0.5,1,0.7,1.6l0.4,0.7l0.4,0.7l-0.2-0.2c0.5,0.3,1,0.6,1.5,0.9c0.5,0.3,1.1,0.6,1.6,0.9
		c1.1,0.5,2.2,1,3.3,1.5s2.3,0.8,3.5,1.1c1.2,0.3,2.4,0.5,3.5,0.6l1.8,0.1c0.6,0,1.2,0,1.8,0c1.2,0,2.4-0.2,3.6-0.5
		c0.6-0.2,1.2-0.4,1.7-0.7c0.6-0.3,1.1-0.6,1.6-0.9c0.5-0.4,1-0.8,1.4-1.2C51.5,126.6,51.9,126.1,52.3,125.6z"/>
</g>
<path fill="#E8BD9B" stroke="#070808" stroke-width="1" stroke-miterlimit="10" d="M71.8,143.2c1.3,8.8,4.4,27.4,18.7,28.9
	c22.5,2.2,30.4-23.4,28.8-35.5c-2.6-20.5-17.4-55.1-39-27.7C74.2,116.7,69.8,129.7,71.8,143.2z"/>
<path stroke="#000000" stroke-width="4" stroke-miterlimit="10" d="M61.3,60.6c3.1,1.6-6.4,8.4-7.4,16.2
	c-1.5,12,15.5,22.1,15.5,22.1c25.3,13.5,46,1.9,48.8,1.1c1.7-0.5,10.3-4.4,13-9.5c5-9.1-5.2-21.8-5.2-21.8l1-4.9
	c1.5-1.4-2.2-5.1-3.1-6c2.6,1.9,17.2-2.4,11.6-13.2c-12-11.4-19.6-1.1-19.6-1.1c-17.4-10.1-34.7-8.9-34.7-8.9
	c0.8-5.3-8-13.2-17.4-5.8c-11.2,8.8,3,15.4,3,15.4L66,45c-4.5,5.7-3.3,9.6-3.3,9.6S60.8,56.2,61.3,60.6z"/>
<path fill="#775A45" d="M63.9,95c0,0-9.9-6.4-10-16.5c0-7.6,7.9-15.3,7.9-15.3S60.5,51,66,45"/>
<path fill="#775A45" d="M126.5,68.5c0,0,9.9,11.7,4.8,21.7c-2.6,5.1-13.2,10.3-13.2,10.3s-1.7,0.8-4.5,1.7c-9.6,3.1-32.8,8-51.2-8.9
	l3.7-49.7c0,0-13.5-5.5-2.6-14.9c9.2-7.9,18.4-0.5,17.8,5.2c0,0,15.9,1.1,27.5,5.6c2.5,1,4.8,2.1,6.8,3.4c0,0,8-10.5,19.7,0.7
	c6.8,10.9-8,15.8-10.5,14c0.8,0.9,3.1,3.5,2.8,5.1c0,0.3-0.2,0.5-0.4,0.7l-0.8,4.8L126.5,68.5z"/>
<path fill="#FFFFFF" d="M69.2,57.6c0,0-4.9,7,9.6,9.6C73.9,60.9,70.7,57.6,69.2,57.6z"/>
<path fill="#FFFFFF" d="M113.7,66.3c0,0-8.8-0.3-16.9,3.4C99,73.7,115.1,76.8,113.7,66.3z"/>
<path fill="#961B1E" stroke="#070808" stroke-miterlimit="10" d="M127.6,63.7c0,0-6.8-7.4-33.5-7.4c-21.7-0.5-31-7-31-7l-0.6-0.2
	c0,0-2.6,8.8-3.1,11.4c0,0,12.7,8.7,16.4,10c3.7,1.3,23.9,8.4,36.4,3.3c12.6-5.1,14.5-5.2,14.5-5.2L127.6,63.7z M69.2,57.6
	c0,0,1.4-0.5,5,3.6c3.6,4.2,4.6,6,4.6,6S64.9,65.8,69.2,57.6z M107.2,73.7c-6.4,0.8-10.3-4.2-10.3-4.2s7.9-2.1,10-2.9
	c2.1-0.7,7.3,0.2,7.3,0.2S115.1,72.7,107.2,73.7z"/>
<path fill="#39A59B" d="M102.7,67.9c0,0,0.6,4.2,5.2,4.2s4.4-5.4,4.4-5.4s-7.1-0.7-10.1,1.1"/>
<path fill="#39A59B" d="M72,59.8c0,0-2.6,6.7,5.4,6.7c0,0,1.5,0.5-3.9-5.6"/>
<path stroke="#000000" stroke-width="0.9082" stroke-miterlimit="10" d="M73.5,61.4c0,0-0.9,3.3,3,3.5C76.5,65,74,61.7,73.5,61.4z"
	/>
<path fill="#CD2027" d="M89.4,63.6c0,0-2.1,6.7,1.3,5.8c3.4-0.9,14.6-4.6,19.2-4.4s12.7,2.5,8.3-4.4
	C108.1,56.3,101.5,62.6,89.4,63.6z"/>
<path fill="#CD2027" d="M66.9,53.3c0,0-3.3,0.6-1.7,4c0,0,2.6-1.3,5-0.3c2.3,1,8,12.5,14,12l0.2-3.4c0,0-1.8,1.5-3.3-0.3
	C73.1,56.1,69.6,50.9,66.9,53.3z"/>
<path fill="#CD2027" d="M62.7,50c0,0-1.7,8.4-2.8,10.8c0,0,3.4,2.4,7.6,4.8c0.4,0.2,0.9,0.5,1.3,0.7c4.7,2.5-6.1-6.2-5.4-9.5
	c0.7-3.2,4.1-4.3,4.1-4.3S64,51.5,62.7,50z"/>
<path stroke="#000000" stroke-width="0.9082" stroke-miterlimit="10" d="M104.2,67.7c0,0,1.3,2.5,3,2.6c3.1,0.1,3-3.6,3-3.6
	S106.4,66.7,104.2,67.7"/>
<path fill="#E9BB9B" d="M63.6,94.6c0,0-4.5-14.3,8.5-25.6c0,0,7.3,3.4,9.3,3.4c2.1,0,18.9,5.5,26.6,2.9c0,0,12.8,17.9-3.1,29.6
	C104.9,104.8,80.6,110.1,63.6,94.6z"/>
<path fill="#8E1A1C" d="M86.6,89.7c0,0,16-3.2,18.4-4.9C105,84.8,101.4,101.3,86.6,89.7z"/>
<path fill="#FFFFFF" d="M89.2,89.8c0,0,9.7-1.4,14.9-4.9C104.1,84.8,100.5,94.2,89.2,89.8z"/>
<path fill="#AC8569" d="M103.4,38.1c0,0-10.8-4.2-21.8-3.7c-6.7,0.4-11.2,5.4-11.2,5.4S64,39,63.9,33.9c0-5.1,7.1-7.6,7.7-8
	C69.3,25.2,51,32.4,64,42.6l2.2,1.1c0,0-3.1,3.4-3.1,5.7c1.2,0.3,1.2,0.3,1.2,0.3l2,1.5C66.3,51.3,74.9,30.1,103.4,38.1z"/>
<path fill="#AC8569" d="M64.1,64.5l-2.2-0.8l-1.1,1.1c-14.5,14.5-1.4,25.9-1.4,25.9l-0.6-1.4C52.3,76.6,64.1,64.5,64.1,64.5z"/>
<path fill="#FFFFFF" d="M110.3,68.7c-0.1,0.5-0.6,0.8-1.1,0.7s-0.8-0.7-0.6-1.2c0.1-0.5,0.6-0.8,1.1-0.7S110.5,68.2,110.3,68.7z"/>
<path fill="#FFFFFF" d="M74.8,64.1c-0.1,0.5-0.6,0.8-1.1,0.7c-0.5-0.1-0.8-0.7-0.6-1.2c0.1-0.5,0.6-0.8,1.1-0.7
	C74.7,63.1,75,63.6,74.8,64.1z"/>
<path fill="none" stroke="#000000" stroke-miterlimit="10" d="M59.4,60.6c0,0,11.7,8.9,25.5,11.9c9.2,2,15.6,7.4,41.9-3.8
	c0,0,1.3-1.2,0.8-5c0,0-4.1-5.9-31.2-7.3c-27.2-1.4-33.8-7.2-33.8-7.2L59.4,60.6"/>
<g>
	<path d="M72.2,68.6c0,0-1.3,1.4-2.9,3.6c-0.4,0.6-0.8,1.2-1.3,1.8c-0.4,0.6-0.9,1.3-1.3,2.1c-0.4,0.7-0.8,1.5-1.2,2.3
		c-0.4,0.8-0.8,1.6-1.1,2.5c-0.3,0.8-0.6,1.7-0.9,2.5c-0.2,0.9-0.4,1.7-0.6,2.5c-0.1,0.8-0.2,1.6-0.2,2.4c0,0.8,0,1.5,0,2.2
		c0,0.3,0,0.7,0.1,1c0,0.3,0.1,0.6,0.1,0.9c0.1,0.5,0.2,1,0.3,1.4c0.2,0.8,0.3,1.2,0.3,1.2s-0.2-0.4-0.5-1.2
		c-0.2-0.4-0.3-0.8-0.5-1.4c-0.1-0.6-0.3-1.2-0.4-1.9s-0.2-1.5-0.2-2.3c0-0.8,0-1.7,0.1-2.5c0.1-0.4,0.1-0.9,0.2-1.3
		c0-0.2,0.1-0.4,0.1-0.7c0-0.2,0.1-0.4,0.2-0.7c0.2-0.9,0.5-1.8,0.9-2.7c0.4-0.9,0.7-1.7,1.2-2.5c0.2-0.4,0.4-0.8,0.7-1.2
		c0.2-0.4,0.5-0.8,0.7-1.1c0.5-0.7,1-1.4,1.5-2s1-1.2,1.5-1.7c0.9-1,1.8-1.8,2.4-2.3C71.8,68.9,72.2,68.6,72.2,68.6z"/>
</g>
<g>
	<path d="M108.4,75.4c0,0,0.3,0.4,0.9,1.1c0.3,0.4,0.6,0.8,0.9,1.4c0.3,0.5,0.7,1.2,1,1.9c0.3,0.7,0.7,1.5,1,2.3
		c0.3,0.8,0.6,1.7,0.8,2.7s0.4,2,0.5,3c0,0.5,0.1,1,0.1,1.6c0,0.5,0,1,0,1.6c0,0.5-0.1,1-0.2,1.6c-0.1,0.5-0.2,1-0.3,1.5
		s-0.3,1-0.4,1.5c-0.1,0.2-0.2,0.5-0.3,0.7c-0.1,0.2-0.2,0.5-0.3,0.7s-0.2,0.4-0.3,0.7c-0.1,0.2-0.2,0.4-0.3,0.6
		c-0.1,0.2-0.2,0.4-0.3,0.6c-0.1,0.2-0.2,0.4-0.4,0.6c-0.5,0.8-1,1.4-1.5,2s-1,1.1-1.5,1.5s-0.9,0.8-1.2,1.1
		c-0.7,0.6-1.1,0.9-1.1,0.9s0.3-0.4,1-1c0.3-0.3,0.6-0.7,1.1-1.2c0.1-0.1,0.2-0.2,0.3-0.4c0.1-0.1,0.2-0.3,0.3-0.4
		c0.2-0.3,0.4-0.6,0.7-0.9c0.4-0.6,0.9-1.3,1.3-2.1c0.1-0.2,0.2-0.4,0.3-0.6c0.1-0.2,0.2-0.4,0.3-0.6c0.1-0.2,0.2-0.4,0.3-0.6
		c0.1-0.2,0.2-0.4,0.3-0.6c0.1-0.2,0.2-0.4,0.3-0.7c0.1-0.2,0.1-0.5,0.2-0.7c0.2-0.5,0.3-0.9,0.4-1.4c0.1-0.5,0.2-1,0.3-1.4
		c0.1-0.5,0.1-1,0.2-1.5c0-0.5,0.1-1,0.1-1.5s0-1-0.1-1.5c0-0.5-0.1-1-0.1-1.4c-0.1-0.5-0.1-0.9-0.2-1.4c-0.2-0.9-0.4-1.8-0.6-2.6
		c-0.3-0.8-0.5-1.6-0.8-2.3c-0.5-1.4-1.1-2.6-1.5-3.4C108.6,75.8,108.4,75.4,108.4,75.4z"/>
</g>
<g>
	<path d="M77.8,88.2c0.5,0.3,1.1,0.4,1.7,0.6c0.6,0.2,1.1,0.3,1.7,0.4c1.1,0.2,2.3,0.3,3.5,0.3c0.6,0,1.2,0,1.7,0
		c0.6,0,1.2-0.1,1.7-0.1c0.6-0.1,1.2-0.1,1.7-0.2c0.6-0.1,1.1-0.2,1.7-0.3s1.1-0.2,1.7-0.4c0.6-0.1,1.1-0.3,1.7-0.4s1.1-0.3,1.7-0.5
		l1.7-0.5l1.6-0.6l1.6-0.6c1.1-0.4,2.1-0.9,3.2-1.4l1-0.4l-0.2,1.1c-0.1,0.6-0.2,1-0.4,1.6c-0.1,0.5-0.3,1-0.5,1.5
		c-0.4,1-0.9,1.9-1.5,2.8s-1.3,1.7-2.2,2.3s-1.9,1.1-3,1.2c-1.1,0.2-2.2,0.1-3.2-0.1s-2-0.6-2.9-1c-0.9-0.5-1.8-1-2.7-1.6
		c-0.4-0.3-0.8-0.6-1.2-0.9s-0.8-0.6-1.2-1c0.4,0.3,0.8,0.6,1.3,0.8c0.4,0.3,0.9,0.5,1.3,0.8c0.4,0.2,0.9,0.5,1.3,0.7
		c0.5,0.2,0.9,0.4,1.4,0.6c0.5,0.2,0.9,0.4,1.4,0.5s1,0.2,1.4,0.3c0.5,0.1,1,0.1,1.5,0.1s1,0,1.4-0.1c0.9-0.2,1.8-0.6,2.6-1.2
		c0.8-0.6,1.4-1.3,1.9-2.1c0.5-0.8,0.9-1.7,1.3-2.6c0.2-0.5,0.3-0.9,0.5-1.4c0.1-0.5,0.2-1,0.3-1.4l0.8,0.6l-1.6,0.7l-1.6,0.7
		l-1.7,0.6l-1.7,0.6c-0.6,0.2-1.1,0.4-1.7,0.5c-0.6,0.2-1.1,0.3-1.7,0.5c-0.6,0.1-1.2,0.3-1.7,0.4c-0.6,0.1-1.2,0.2-1.8,0.3
		s-1.2,0.2-1.8,0.2c-0.6,0.1-1.2,0.1-1.8,0.2c-0.6,0-1.2,0.1-1.8,0c-0.6,0-1.2,0-1.8-0.1c-1.2-0.1-2.4-0.2-3.5-0.5
		c-0.6-0.1-1.1-0.3-1.7-0.5C78.8,88.8,78.3,88.5,77.8,88.2z"/>
</g>
<path d="M72,74.6c-0.8,3.4,3.1,7.4,8.8,8.8c5.7,1.4,10.9-0.2,11.8-3.6c0.8-3.4-3.1-7.4-8.8-8.8C78,69.5,72.8,71.1,72,74.6z"/>
<g>
	<path d="M87.1,69c0,0,0,0.2,0.2,0.4c0.1,0.2,0.5,0.5,1,0.7c0.5,0.2,1.1,0.2,1.8,0.2c0.7,0,1.5-0.1,2.4-0.3s1.8-0.4,2.8-0.7
		c0.5-0.1,1-0.3,1.5-0.4c0.5-0.2,1.1-0.3,1.6-0.5c1.1-0.4,2.2-0.7,3.3-1.1c1.1-0.4,2.3-0.7,3.5-1c1.2-0.3,2.4-0.5,3.6-0.6
		c0.3,0,0.6,0,0.9,0c0.3,0,0.6,0,0.9,0c0.6,0,1.2,0.1,1.7,0.1c1.1,0,2.2,0,3.2,0c1-0.1,2-0.2,2.7-0.6c0.4-0.2,0.7-0.4,1-0.6
		c0.2-0.3,0.3-0.6,0.4-0.9c0-0.7-0.3-1.3-0.5-1.7c-0.3-0.5-0.5-0.8-0.7-1c-0.2-0.2-0.3-0.3-0.3-0.3s0.1,0.1,0.3,0.3
		c0.2,0.2,0.5,0.5,0.8,0.9c0.3,0.4,0.7,1,0.8,1.8c0,0.4-0.1,0.9-0.4,1.3c-0.3,0.4-0.7,0.7-1.1,0.9c-0.9,0.4-1.9,0.7-2.9,0.8
		c-1.1,0.1-2.2,0.2-3.3,0.2c-0.6,0-1.2,0-1.7,0c-0.3,0-0.6,0-0.8,0c-0.3,0-0.6,0-0.9,0.1c-1.1,0.1-2.3,0.3-3.5,0.6
		c-2.3,0.5-4.6,1.3-6.8,1.9c-0.6,0.2-1.1,0.3-1.6,0.4s-1.1,0.3-1.6,0.4c-1,0.2-2,0.4-2.9,0.5c-1.8,0.2-3.4,0.1-4.4-0.4
		c-0.5-0.2-0.8-0.6-0.9-0.9C87.1,69.1,87.1,69,87.1,69z"/>
</g>
<g>
	<path d="M66.7,53.2c-0.4,0.2-0.8,0.5-1.1,0.8c-0.3,0.3-0.5,0.7-0.6,1.1s-0.1,0.8,0,1.3c0.1,0.2,0.1,0.4,0.2,0.6
		c0.1,0.2,0.2,0.4,0.3,0.6L65,57.4c0.5-0.3,0.9-0.6,1.4-0.7c0.5-0.2,1-0.3,1.6-0.3c1.1,0,2.2,0.4,3.1,1c0.5,0.3,0.8,0.7,1.2,1
		c0.4,0.4,0.7,0.8,1,1.2c0.6,0.8,1.2,1.6,1.8,2.4s1.2,1.5,1.9,2.3c0.7,0.7,1.3,1.4,2,2.1c0.4,0.3,0.7,0.6,1.1,0.9
		c0.4,0.3,0.8,0.5,1.2,0.8c0.8,0.5,1.8,0.8,2.8,0.7c-0.5,0.1-1,0.2-1.5,0.1c-0.5,0-1-0.2-1.5-0.4s-0.9-0.4-1.4-0.7
		c-0.4-0.3-0.9-0.5-1.3-0.9c-0.8-0.6-1.6-1.3-2.3-2c-0.7-0.7-1.4-1.5-2-2.2c-0.6-0.8-1.3-1.6-1.8-2.4c-0.3-0.4-0.6-0.8-0.9-1.1
		c-0.3-0.3-0.7-0.6-1-0.9c-0.4-0.3-0.8-0.5-1.2-0.6c-0.4-0.2-0.9-0.2-1.3-0.3c-0.4,0-0.9,0-1.3,0.1s-0.9,0.3-1.3,0.5l-0.4,0.2
		l-0.2-0.3c-0.1-0.2-0.2-0.4-0.3-0.7c-0.1-0.2-0.1-0.5-0.2-0.7c-0.1-0.5-0.1-1,0.1-1.5c0.2-0.5,0.5-0.9,0.9-1.2
		C65.8,53.5,66.3,53.3,66.7,53.2z"/>
</g>
<path fill="none" stroke="#000000" stroke-miterlimit="10" d="M113.7,66.3c1.3,4.4-4.4,9-12.1,6.4c-4.3-1.5-4.4-3.4-4.4-3.4"/>
<path fill="none" stroke="#000000" stroke-miterlimit="10" d="M69.4,57.2c0,0-4.4,5.8,3.7,8.5c8.1,2.7,5.9,1.4,5.9,1.4"/>
<g>
	<path d="M72.3,59L72.3,59c-0.1,0.1-0.2,0.2-0.2,0.4c0,0.2,0,0.4,0,0.6c0,0.1,0,0.2,0,0.4c0,0.1-0.1,0.3-0.1,0.4
		c-0.1,0.5-0.1,1.2,0,1.9c0.1,0.7,0.3,1.4,0.8,1.9c0.4,0.6,1,1,1.7,1.2c0.6,0.2,1.3,0.3,1.8,0.3c0.1,0,0.3,0,0.4,0
		c0.1,0,0.3,0.1,0.4,0.1c0.2,0,0.4,0.1,0.6,0.1c0.3,0.1,0.5,0.1,0.5,0.1s0,0-0.1,0.1c-0.1,0-0.2,0.1-0.4,0.2
		c-0.2,0.1-0.4,0.1-0.6,0.2c-0.1,0-0.3,0.1-0.4,0.1c-0.1,0-0.3,0-0.4,0c-0.6,0-1.3-0.1-2.1-0.4c-0.7-0.3-1.5-0.8-2-1.5
		c-0.5-0.7-0.8-1.5-0.9-2.3c-0.1-0.8-0.1-1.5,0-2.1c0-0.2,0-0.3,0.1-0.4c0.1-0.1,0.1-0.3,0.2-0.4c0.1-0.2,0.2-0.4,0.4-0.6
		C72.1,59.2,72.2,59,72.3,59C72.2,59,72.3,59,72.3,59L72.3,59z"/>
</g>
<path fill="none" stroke="#000000" stroke-width="1.8163" stroke-miterlimit="10" d="M102.7,67.9c-0.5,0.1,0.5,4.5,5.2,4.2
	c4.7-0.3,4.4-5.4,4.4-5.4C106.8,67,106.8,66.9,102.7,67.9z"/>
<path fill="none" stroke="#000000" stroke-width="2.7245" stroke-miterlimit="10" d="M57.3,60.3"/>
<path fill="none" stroke="#000000" stroke-width="2.7245" stroke-miterlimit="10" d="M60,58"/>
<path fill="#E5E5E5" d="M81.9,74.6c-0.1,1.3-1.8,2.1-3.7,1.9c-1.9-0.2-3.4-1.4-3.3-2.6c0.1-1.3,1.8-2.1,3.7-1.9
	C80.5,72.1,82,73.3,81.9,74.6z"/>
<path fill="#AC8569" d="M125.1,58.1c0.8,0.9,3.1,3.5,2.8,5.1c-2.7-3.3-4.8-6.9-4.8-6.9c8.8,1.3,18.2-7.9,6.5-14
	c-7.5-3.9-13.8,3.4-13.8,3.4c-1.5-2.7-6.7-5.4-6.7-5.4s-2.2-0.9-2.3-1.1c2.2,0.8,7.1,2.9,9,4.2c0,0,8-10.5,19.7,0.7
	C142.4,55,127.6,59.9,125.1,58.1z"/>
<path fill="#AC8569" d="M131.6,90.6c-2.6,5.1-13,9.5-13,9.5s-1.7,0.8-4.5,1.7c27.1-13.1,9.7-31.1,9.7-31.1l2.6-1.2l0.8-0.1
	C127.1,69.4,136.6,80.6,131.6,90.6z"/>
<radialGradient id="SVGID_1_" cx="-327.249" cy="2768.0449" r="245.1832" gradientTransform="matrix(5.496590e-02 -0.4293 0.2276 2.912760e-02 -452.733 -73.0297)" gradientUnits="userSpaceOnUse">
	<stop  offset="0" style="stop-color:#EBC187"/>
	<stop  offset="8.090000e-02" style="stop-color:#EBC187"/>
	<stop  offset="0.1732" style="stop-color:#D8B279"/>
	<stop  offset="0.337" style="stop-color:#AD8437"/>
	<stop  offset="0.3834" style="stop-color:#A88136"/>
	<stop  offset="0.4489" style="stop-color:#9A7733"/>
	<stop  offset="0.5258" style="stop-color:#83682C"/>
	<stop  offset="0.6107" style="stop-color:#635020"/>
	<stop  offset="0.6442" style="stop-color:#534317"/>
	<stop  offset="1" style="stop-color:#E3BB82"/>
</radialGradient>
<path fill="url(#SVGID_1_)" d="M146.6,98.5c0,0,15.1,9.9,41.9,11.5c0,0,11.7,76.5-42.7,101.7C145.8,211.6,149.2,128.8,146.6,98.5z"
	/>
<g>
	<path fill="#CFECEF" stroke="#070808" stroke-width="3.6326" stroke-miterlimit="10" d="M163.6,77.7c0,0-15.2,20.5-28.9,41.5
		c-12,18.3-27.8,58.2-21,78.6c0,0,55.2-16.3,58.5-76.1C174.3,81.3,163.6,77.7,163.6,77.7z"/>
	<path fill="#AEDDF2" d="M167.2,85.5c0,0,5.8,44-9.6,65.8C142.2,173,123,181.2,123,181.2s-0.3-27.7,11.8-50.8
		c8.2-15.7,28.9-44.1,28.9-44.1L167.2,85.5z"/>
	<path fill="#86B6CC" d="M156.6,113.8c0,0-13.1,2.6-17.8,4c0,0,13.5-1.8,16.7-1.6c0,0-12.2,29-14.6,31.4c0,0-16.7,1.1-19.8,2.7
		c0,0,16.3-1.4,19.3-0.7c0,0-24.5,47.4-24.5,46.5c0-0.9,14.3-21.6,18.2-30.1c3.4-7.3,8.1-14.4,8.1-14.4s8.3,10,10.8,19.8
		c0,0-3.8-16.3-9.8-23.1l16.2-29.9c0,0,8,10,9.9,21.7c0,0-1.7-17.6-8.2-24.9c0,0,9.3-19.9,8.7-25l-2.9-8.6
		C166.8,81.7,164.5,100.4,156.6,113.8z"/>
</g>
<path fill="#F5BD1F" stroke="#070808" stroke-width="2" stroke-miterlimit="10" d="M169.4,74.5c0,0,1.6,20.9,23.9,26.4
	c15,3.7,29.8-6.8,34.5-25.8S233.4,38,212.7,38c-32.6,0-33.8,11.7-35.6,27C172.3,68.5,169.4,74.5,169.4,74.5z"/>
<path fill="#9A6733" stroke="#070808" stroke-width="2" stroke-miterlimit="10" d="M234.1,62.3c-2.7,13.4-6.3,12.8-6.3,12.8
	c3.9-11.7,3.4-14.4,1.3-18.7c-5.5-11.2-21.8-12.8-34.2-12c-15.1,1-15.2,13.2-18.2,21.7s-10.9,11.4-10.9,11.4s-1.4-4.4-2.2-13.3
	c-0.3-3.5-0.5-7.6-0.5-12.5c0-17.4,16.8-31.1,43.2-29.6c7.9,0.4,13.8,3.1,18.1,7C234.2,38,235.9,53.1,234.1,62.3z"/>
<g>
	<path fill="#070808" d="M197.6,91.4c0,0-0.4,0.1-1,0.1c-0.6,0-1.5,0.1-2.6,0c-0.5,0-1.1-0.1-1.7-0.3c-0.6-0.1-1.3-0.3-1.9-0.5
		c-0.6-0.2-1.3-0.5-2-0.8c-0.7-0.3-1.3-0.7-1.9-1.1c-0.6-0.4-1.2-0.9-1.7-1.3c-0.3-0.2-0.5-0.5-0.8-0.7c-0.1-0.1-0.2-0.3-0.4-0.4
		c-0.1-0.1-0.2-0.3-0.3-0.4c-0.2-0.3-0.4-0.5-0.6-0.8c-0.2-0.3-0.4-0.5-0.5-0.8c-0.3-0.5-0.6-1.1-0.8-1.5c-0.2-0.5-0.4-1-0.6-1.4
		c-0.1-0.4-0.3-0.8-0.3-1.1c-0.2-0.6-0.2-1-0.2-1s0.2,0.3,0.4,0.9c0.1,0.3,0.3,0.6,0.5,1c0.1,0.2,0.2,0.4,0.3,0.6
		c0.1,0.2,0.3,0.4,0.4,0.6c0.3,0.4,0.6,0.9,1,1.4c0.2,0.2,0.4,0.5,0.6,0.7c0.1,0.1,0.2,0.2,0.3,0.4c0.1,0.1,0.2,0.2,0.3,0.3
		c0.1,0.1,0.2,0.2,0.3,0.4c0.1,0.1,0.2,0.2,0.4,0.3c0.2,0.2,0.5,0.4,0.7,0.7c0.5,0.4,1.1,0.8,1.6,1.2c0.6,0.4,1.2,0.7,1.8,1
		c0.6,0.3,1.2,0.6,1.8,0.8c0.6,0.2,1.2,0.4,1.8,0.6c0.6,0.2,1.1,0.3,1.6,0.4c1,0.2,1.9,0.4,2.5,0.5
		C197.2,91.4,197.6,91.4,197.6,91.4z"/>
</g>
<g>
	<path fill="#070808" d="M183.2,77.6c0,0-0.5-0.1-1.2-0.1c-0.2,0-0.4,0-0.6,0c-0.2,0-0.4,0-0.6,0s-0.4,0.1-0.7,0.1
		c-0.2,0.1-0.4,0.1-0.6,0.2c-0.2,0.1-0.4,0.2-0.6,0.3c-0.2,0.1-0.4,0.3-0.5,0.4c-0.2,0.1-0.3,0.3-0.4,0.4s-0.1,0.1-0.2,0.2
		c-0.1,0.1-0.1,0.2-0.2,0.2c-0.1,0.1-0.2,0.3-0.3,0.4c-0.1,0.1-0.2,0.2-0.2,0.3c-0.1,0.2-0.2,0.3-0.2,0.3s0-0.1,0.1-0.3
		c0-0.1,0-0.2,0.1-0.4c0-0.2,0.1-0.3,0.2-0.5c0.1-0.2,0.1-0.4,0.3-0.6c0.1-0.2,0.3-0.4,0.4-0.6c0.1-0.1,0.2-0.2,0.3-0.3l0.1-0.1
		c0.1,0,0.1-0.1,0.2-0.1c0.2-0.1,0.5-0.3,0.7-0.4c0.3-0.1,0.5-0.2,0.8-0.2c0.1,0,0.3,0,0.4,0s0.3,0,0.4,0c0.3,0,0.5,0,0.7,0.1
		c0.2,0,0.4,0.1,0.6,0.2C182.8,77.2,183.2,77.6,183.2,77.6z"/>
</g>
<g>
	<path fill="#C3A02E" d="M199,79.6c0,0,0.1,0,0.2-0.1c1-0.5,5.7-2.7,7.7-1.5c2.2,1.4,0.5,3,0.5,3S203.8,79.8,199,79.6z"/>
	<path fill="#070808" d="M199,79.6c0.4-0.2,0.9-0.5,1.3-0.7c0.4-0.2,0.9-0.4,1.4-0.6c0.5-0.2,0.9-0.3,1.4-0.5
		c0.2-0.1,0.5-0.1,0.7-0.2c0.2,0,0.5-0.1,0.7-0.1h0.4h0.4c0.1,0,0.3,0,0.4,0c0.1,0,0.3,0,0.4,0l0.4,0.1c0.1,0,0.2,0.1,0.4,0.2h0.1
		c0,0,0.1,0,0.1,0.1l0.2,0.1l0.2,0.1l0.2,0.1c0.1,0.1,0.2,0.2,0.3,0.3s0.2,0.2,0.2,0.3c0.1,0.2,0.2,0.5,0.2,0.8
		c0,0.3-0.1,0.6-0.2,0.8c-0.1,0.2-0.3,0.5-0.5,0.7l-0.1,0.1h-0.1c-0.3-0.1-0.7-0.2-1-0.3c-0.3-0.1-0.7-0.2-1-0.3
		c-0.3-0.1-0.7-0.1-1-0.2c-0.3-0.1-0.7-0.1-1-0.2c-0.4-0.1-0.7-0.1-1-0.2l-1.1-0.1c-0.4-0.1-0.7-0.1-1.1-0.1L199,79.6z M199,79.6
		h1.1c0.4,0,0.7,0,1.1,0.1l1.1,0.1c0.4,0,0.7,0.1,1.1,0.1c0.4,0,0.7,0.1,1.1,0.2s0.7,0.1,1.1,0.2c0.3,0.1,0.7,0.2,1,0.2
		c0.3,0.1,0.7,0.2,1,0.3h-0.2c0.1-0.2,0.3-0.4,0.4-0.6c0.1-0.2,0.2-0.4,0.2-0.6c0-0.1,0-0.2,0-0.3c0-0.1-0.1-0.2-0.1-0.3
		s-0.1-0.2-0.2-0.3c-0.1-0.1-0.1-0.2-0.2-0.2l-0.1-0.1l-0.2-0.1l-0.2-0.1h-0.1h-0.1c-0.1,0-0.2-0.1-0.3-0.1l-0.3-0.1
		c-0.1,0-0.2,0-0.3,0c-0.1,0-0.2,0-0.4,0h-0.4h-0.4c-0.2,0-0.5,0.1-0.7,0.1s-0.5,0.1-0.7,0.2c-0.5,0.1-1,0.3-1.4,0.4
		c-0.5,0.2-0.9,0.3-1.4,0.5C199.9,79.2,199.4,79.4,199,79.6z"/>
</g>
<g>
	<path fill="#A06227" stroke="#070808" stroke-width="2.7245" stroke-miterlimit="10" d="M169.9,70.8c0,0-2.3,32.9-20.6,33.3
		c-2.3,0,1-4.4,3.4-7.6c6.2-8,12.5-13.3,14-29.8"/>
	<g>
		<path fill="#6F451B" d="M150.2,102.6c0,0,5.2-4,9.7-9.4c7.6-9,10-25.3,7.2-25.9c0,0,0.1,14.3-11.1,26.6
			C149.5,101.1,150.2,102.6,150.2,102.6z"/>
	</g>
</g>
<path opacity="0.5" fill="#FEE600" enable-background="new    " d="M221.5,49.8c0,0,8.2,46.1-28.6,50.2c0,0,20.9,4.8,31.5-18.3
	c7.1-13.3,5-22.6,5-22.6S229.1,56.4,221.5,49.8z"/>
<path fill="#6F451B" d="M212.7,24.2c-11.5-2.7-26.5,5.5-31.7,10.7c-11.6,11.6-10.4,25.9-10.4,25.9l-5.8,3c-0.3-3.5-0.5-7.2-0.5-12.1
	c0-19.8,18.2-29.4,41.3-28.9C211.9,23,204.6,21.6,212.7,24.2z"/>
<g>
	
		<radialGradient id="SVGID_2_" cx="-461.8936" cy="2352.958" r="251.801" gradientTransform="matrix(2.813215e-02 -0.4319 0.1133 7.371731e-03 -130.3558 -64.6191)" gradientUnits="userSpaceOnUse">
		<stop  offset="0" style="stop-color:#EBC187"/>
		<stop  offset="8.090000e-02" style="stop-color:#EBC187"/>
		<stop  offset="0.1732" style="stop-color:#D8B279"/>
		<stop  offset="0.337" style="stop-color:#AD8437"/>
		<stop  offset="0.3834" style="stop-color:#A88136"/>
		<stop  offset="0.4489" style="stop-color:#9A7733"/>
		<stop  offset="0.5258" style="stop-color:#83682C"/>
		<stop  offset="0.6107" style="stop-color:#635020"/>
		<stop  offset="0.6442" style="stop-color:#534317"/>
		<stop  offset="1" style="stop-color:#E3BB82"/>
	</radialGradient>
	<path fill="url(#SVGID_2_)" stroke="#070808" stroke-width="2" stroke-miterlimit="10" d="M92.5,93.8c0,0,30,1.9,53.2-8.2
		c0,0,22.2,13,50.2,13.6c0,0,18.2,100.7-51.9,121.5C144.1,220.7,80.2,206.5,92.5,93.8z"/>
	
		<linearGradient id="SVGID_3_" gradientUnits="userSpaceOnUse" x1="1463.4883" y1="1262.0518" x2="1701.5039" y2="1262.0518" gradientTransform="matrix(0.4327 9.564932e-03 -9.564932e-03 0.4327 -527.7292 -406.2321)">
		<stop  offset="0" style="stop-color:#A88036"/>
		<stop  offset="0.6136" style="stop-color:#EBC187"/>
	</linearGradient>
	<path fill="url(#SVGID_3_)" d="M95.8,96.5c0,0,26.7,3,50-7.1c0,0,21.6,11.8,49.5,12.4c0,0,16.4,91.4-50.7,118.8
		C144.6,220.6,83.6,200.1,95.8,96.5z"/>
	
		<radialGradient id="SVGID_4_" cx="1516.0059" cy="683.1504" r="183.5899" gradientTransform="matrix(0.4326 1.376312e-02 -4.531441e-02 1.4221 -512.3132 -833.4171)" gradientUnits="userSpaceOnUse">
		<stop  offset="1" style="stop-color:#534317"/>
		<stop  offset="1" style="stop-color:#332721"/>
	</radialGradient>
	<path fill="url(#SVGID_4_)" d="M144.6,215c-1.5-0.7-4-1.9-6.9-3.8c-4.7-3.1-11.6-8.5-18.1-17.3c-7.4-9.9-12.8-21.9-16.1-35.7
		c-3.8-16.1-4.8-34.8-2.8-55.4c0.6,0,1.2,0,1.8,0.1c9.2,0.2,26.7-0.5,43.1-7c6.1,3,23.3,10.3,45,11.7c0.9,7.7,2.2,24.7-0.8,43.2
		c-2.4,14.5-6.9,27-13.5,37.3C168.4,200.1,157.8,209.2,144.6,215z"/>
	
		<linearGradient id="SVGID_5_" gradientUnits="userSpaceOnUse" x1="1439.0732" y1="1228.2803" x2="1676.1499" y2="1228.2803" gradientTransform="matrix(0.4328 0 0 0.4328 -519.9557 -375.9996)">
		<stop  offset="0" style="stop-color:#A88036"/>
		<stop  offset="0.6136" style="stop-color:#EBC187"/>
	</linearGradient>
	<path fill="url(#SVGID_5_)" d="M144.1,213c-3.6-1.7-13.8-7-23.4-20.4c-6.9-9.6-11.6-20.2-14.7-33.6c-3.6-15.9-5.3-33.2-3.3-53.7
		c0.8,0,2.5-0.3,3.4-0.3c8.5,0.2,20.9-1.3,39.7-6.8c5.2,2.7,22.8,9.8,43.5,11c0.8,6.9,1.5,23.6-1.5,42.4
		c-2.2,14.1-7.7,26.3-13.8,36.3C166.8,199.9,156.7,207.3,144.1,213z"/>
</g>
<rect id="_x3C_Slice_x3E__2_" x="100.9" y="188.2" fill="none" width="0.4" height="0.4"/>
<path fill="#961B1E" stroke="#070808" stroke-width="2" stroke-miterlimit="10" d="M25.2,125.8c0,0-0.3,8.5,9.5,12.5
	c0,0,20.1,2.8,19.5-13.1C54.2,125.3,35.2,133.1,25.2,125.8z"/>
<path fill="#AC8569" d="M54.6,115.2c-2.3-17-17-15.4-17.9-15.5c0,0-4.1,0.2-6.5,3.1c-8.4,11.1-1.6,20.3,0.1,24.3
	c-1.3-0.2-2.6-0.8-4.8-2c-7.4-13.4,2.8-25.1,2.8-25.1c5.3-5.2,9.3-2.7,9.3-2.7c10.7-0.4,12.6,4.7,14.8,7.2
	C53.4,105.7,55.2,110.6,54.6,115.2z"/>
<path fill="#AC8569" d="M58.6,200.5c0,0-16.4,5.3-21.5,20.4c-1.7-0.7-2.6-1.3-4.1-2.4c0.4-3,9.5-16.9,21.7-19.5
	c-4.5-18.5,8.7-33.7,8.8-33.8C60.8,172.5,53.7,181.6,58.6,200.5z"/>
<path fill="#AC8569" d="M109.1,205l-3.3,1.5c-5-10.9-4.1-18.1-3.5-21.4l-0.3,0.4C102,185.5,104.2,199.7,109.1,205z"/>
<path fill="#AC8569" d="M99.9,227.8c-3.6-0.9-4.5-1.8-4.5-1.8c-0.1-13.8,10-19.4,18.4-20.4C113.1,206.5,99.8,211.6,99.9,227.8z"/>
<path opacity="0.3" fill="#FFFFFF" enable-background="new    " d="M221.7,137.1c-0.9,1.7-1.2,1.9-1.2,1.9
	c-4.1-1.2-10.8-2.6-10.8-2.6c-1.3-5-10-26.4-10-26.4l1.2-1.8c0,0.1-0.3,0.7-0.3,0.8c2.3,6.2,7.5,14.8,10.1,24.3
	c3.9,2,6.4,2.4,6.4,2.4L221.7,137.1z"/>
<path opacity="0.3" fill="#FFFFFF" enable-background="new    " d="M243,144.5c0,6.1-3,12.5-8.7,16.2c3.6-3.1,6-7.9,6.1-12.6
	c0.2-8.1-5-9.9-5-9.9l0.8-3C240.1,136.1,243,139,243,144.5z"/>
<path opacity="0.3" fill="#FFFFFF" enable-background="new    " d="M228.5,150.2L228.5,150.2c-0.6-0.2-1.4,0.5-1.6-0.2
	c-1.8-6.1,6.1-15.7,4.6-17.9c-1.5-2.3-5.6,0.4-5.6,0.4c1.7-2.2,4.5-4,7.1-1.8C237.9,134.8,231.3,150.4,228.5,150.2z"/>
<path opacity="0.3" fill="#FFFFFF" enable-background="new    " d="M207.7,167.2c0,0,9.8,8.3,2.9,28.9c0,0,1.1,1.3,2.4-0.3
	c0,0,7.9-21.9-4.9-33.1L207.7,167.2z"/>
<path opacity="0.5" fill="#FFFFFF" enable-background="new    " d="M198.9,126.1c0,0,16.5,39-14.7,67.8c0,0,22.8-6.9,22.7-43.6
	c-0.8-16.6-7.9-30-7.9-30L198.9,126.1z"/>
<path opacity="0.5" fill="#FEE600" enable-background="new    " d="M174.6,203.4c0,0,17.1,1.6,30.1,17.9c0,0,4.6,0.4,5.9-0.7
	c0,0-10.6-19.6-32.6-20.7L174.6,203.4z"/>
<path opacity="0.5" fill="#FEE600" enable-background="new    " d="M214.9,198.8c0,0,12.7,1.3,30.9,15.6c0,0,6.6-0.4,7.9-1.5
	c0,0-14.1-16.5-36.1-17.6L214.9,198.8z"/>
<path fill="#FFFFFF" stroke="#070808" stroke-width="1.8163" stroke-miterlimit="10" d="M192.8,202.9c-0.4-0.5-1.1-0.6-1.4-0.2
	l-5.2,6c-0.3,0.4-0.2,1.1,0.2,1.5l0,0c0.4,0.5,1.1,0.6,1.4,0.2l5.2-6C193.3,204.1,193.2,203.4,192.8,202.9L192.8,202.9z"/>
<path fill="#FFFFFF" stroke="#070808" stroke-width="1.8163" stroke-miterlimit="10" d="M186.5,200.3c-0.4-0.5-1.1-0.6-1.6-0.1
	l-7.7,7.5c-0.5,0.5-0.5,1.2-0.1,1.8l0,0c0.4,0.5,1.1,0.6,1.6,0.1l7.7-7.5C186.9,201.6,186.9,200.8,186.5,200.3L186.5,200.3z"/>
<path fill="#FFFFFF" stroke="#070808" stroke-width="1.8163" stroke-miterlimit="10" d="M239.6,199.8c-0.4-0.5-1.1-0.6-1.4-0.2
	l-5.2,6.1c-0.3,0.4-0.2,1.1,0.2,1.5l0,0c0.4,0.5,1.1,0.6,1.4,0.2l5.2-6.1C240.1,201,240,200.3,239.6,199.8L239.6,199.8z"/>
<path fill="#FFFFFF" stroke="#070808" stroke-width="1.8163" stroke-miterlimit="10" d="M233.7,196.2c-0.4-0.5-1.1-0.6-1.6-0.1
	l-7.7,7.5c-0.5,0.5-0.5,1.3-0.1,1.8l0,0c0.4,0.5,1.1,0.6,1.6,0.1l7.7-7.5C234,197.5,234.1,196.7,233.7,196.2L233.7,196.2z"/>
<path fill="#FFFFFF" stroke="#070808" stroke-width="1.8163" stroke-miterlimit="10" d="M225.7,194.3c-0.4-0.5-1.1-0.6-1.6-0.1
	l-7.7,7.5c-0.5,0.5-0.5,1.3-0.1,1.8l0,0c0.4,0.5,1.1,0.6,1.6,0.1l7.7-7.5C226.1,195.6,226.1,194.8,225.7,194.3L225.7,194.3z"/>
<g>
	<path fill="#763718" stroke="#070808" stroke-width="1.8163" stroke-miterlimit="10" d="M162.5,65.9c0,0,8.8-7,18.5-7.4
		c13.2-0.5,9,0.6,30.3,4.9c11.6,2.5,17.2,3.4,20.2,4.9c0,0,0.6,6.6-1.4,9c0,0-7.8-0.7-14.7-4.2c-6.9-3.5-35.5-5.8-35.5-5.8
		s-13.6,6.9-16.9,5.3C163.1,72.7,161.7,69.9,162.5,65.9z"/>
	<path fill="#8B989F" stroke="#070808" stroke-width="1.8163" stroke-miterlimit="10" d="M230.3,73.9c-1.9,5.8-8.3,8.9-14.3,6.9
		s-9.2-8.3-7.3-14.1c1.9-5.8,8.3-8.9,14.3-6.9S232.2,68.1,230.3,73.9z"/>
	<path fill="#C1DFF0" stroke="#070808" stroke-width="1.8163" stroke-miterlimit="10" d="M228.7,72.3c-1.5,4.3-6.3,6.6-10.8,5.1
		s-7-6.2-5.5-10.5c1.5-4.3,6.3-6.6,10.8-5.1C227.7,63.2,230.2,68,228.7,72.3z"/>
	<path fill="#8B989F" stroke="#070808" stroke-width="1.8163" stroke-miterlimit="10" d="M180.8,61.3c-2.1,6.2,1.3,12.9,7.5,14.9
		c6.2,2.1,12.9-1.2,15-7.4c2.1-6.2-1.3-12.9-7.5-14.9C189.6,51.8,182.9,55.1,180.8,61.3z"/>
	<path fill="#C1DFF0" stroke="#070808" stroke-width="1.8163" stroke-miterlimit="10" d="M184.6,62c-1.5,4.5,1,9.4,5.7,10.9
		c4.6,1.5,9.6-0.8,11.1-5.3s-1-9.4-5.7-10.9S186.1,57.5,184.6,62z"/>
	<path fill="#72BEDC" d="M190.3,57.2c0,0-3.6,5.5-0.7,9.7c3,4.2,6.9,4.3,8.2,4c0,0-6.8,4.9-11.5-2.1
		C182.4,63.1,187.8,57.5,190.3,57.2z"/>
	<path fill="#72BEDC" d="M217.7,62.7c0,0-3.4,5-0.6,8.9c2.8,3.9,6.5,4,7.8,3.8c0,0-6.4,4.5-10.9-2C210.2,68,215.3,62.9,217.7,62.7z"
		/>
	<path fill="#ECF8FE" d="M222.7,62.4c0,0,4.7,4.4,2.7,9l1.8,0.5C227.2,71.9,229.5,65.3,222.7,62.4z"/>
</g>
<linearGradient id="SVGID_6_" gradientUnits="userSpaceOnUse" x1="1901.4941" y1="1228.0508" x2="1448.0886" y2="1228.0508" gradientTransform="matrix(0.4328 0 0 0.4328 -519.9557 -375.9996)">
	<stop  offset="0" style="stop-color:#A88036"/>
	<stop  offset="0.6136" style="stop-color:#EBC187"/>
</linearGradient>
<path fill="url(#SVGID_6_)" d="M145.9,98.3l-0.3,114.4c0,0,51.1-19.9,43.8-103.4C189.4,109.3,159.2,106.4,145.9,98.3z"/>
<path opacity="0.6" fill="#FFFFFF" enable-background="new    " d="M191.5,54.1c0,0,12.4,0.5,11,13.1c-0.2,1.8-2.5,5.9-2.5,5.9
	s6.1-5,1.8-13.9C199.2,53.8,191.5,54.1,191.5,54.1z"/>
<path opacity="0.6" fill="#FFFFFF" enable-background="new    " d="M219.3,59.6c0,0,11.6,0.9,10.2,13.5c-0.2,1.8-2.9,5.1-2.9,5.1
	s6.9-4.8,2.5-13.2C226.5,59.6,219.3,59.6,219.3,59.6z"/>
<path opacity="0.6" fill="#FFFFFF" enable-background="new    " d="M216.4,61.3c0,0-6.7,2-6.1,9c0.5,7.1,7.9,9.2,12.4,7.9
	c0,0-9.1,2.2-11.4-7.5C210.3,64.8,216.4,61.3,216.4,61.3z"/>
<path opacity="0.6" fill="#FFFFFF" enable-background="new    " d="M188.6,56.6c0,0-6.7,2-6.1,9c0.5,7.1,7.9,9.2,12.4,7.9
	c0,0-9.1,2.2-11.4-7.5C182.4,60.1,188.6,56.6,188.6,56.6z"/>
<path opacity="0.3" fill="#FFFFFF" enable-background="new    " d="M211.7,23.8c0,0,27.5,3.9,20.4,42.6
	C232.1,66.4,234.9,33.8,211.7,23.8z"/>
<path fill="#070808" d="M272,30.9c-1.3,2-3.7,2.8-5.6,1.6c-1.8-1.1-2.3-3.7-1-5.7c1.3-2,3.7-2.8,5.6-1.6
	C272.8,26.3,273.3,28.9,272,30.9z"/>
<g>
	<path fill="#070808" d="M201.3,31.2c0.6-0.9,1.2-1.9,1.8-2.8L204,27c0.3-0.5,0.6-0.9,1-1.4c0.4-0.4,0.7-0.9,1-1.3l1-1.3l2.1-2.6
		l2.1-2.6l1-1.3c0.3-0.4,0.7-0.9,1-1.3l4-5.3l0.2-0.3l0.4,0.1c0.9,0.2,1.8,0.3,2.6,0.4c0.9,0.1,1.8,0.2,2.7,0.3
		c1.8,0.2,3.6,0.3,5.3,0.4c0.9,0,1.8,0,2.7,0c0.4,0,0.9,0,1.3-0.1c0.4-0.1,0.9,0,1.3,0c0.4,0,0.9,0,1.3,0s0.9-0.1,1.3-0.1l0.7-0.1
		l0.7-0.1l0.7-0.2L239,10l-0.6,0.4l-0.6,0.3l-0.6,0.3l-0.6,0.2c-0.4,0.1-0.9,0.3-1.3,0.4c-0.4,0.1-0.9,0.2-1.4,0.3l-0.7,0.1
		c-0.2,0-0.5,0-0.7,0c-0.5,0-0.9,0-1.4,0c-0.9,0-1.8,0-2.7,0c-1.8-0.1-3.6-0.2-5.4-0.4c-0.9-0.1-1.8-0.2-2.7-0.3
		c-0.9-0.1-1.8-0.3-2.7-0.4l0.6-0.2l-4,5.4c-0.3,0.4-0.7,0.9-1,1.3l-1,1.3l-2.1,2.6l-2.1,2.6l-1,1.3c-0.3,0.4-0.7,0.9-1,1.3
		c-0.3,0.5-0.7,0.8-1.1,1.2l-1.2,1.2C202.9,29.6,202.2,30.4,201.3,31.2z"/>
</g>
<g>
	<path fill="#070808" d="M222.2,37.6l1.2-1.2l1.2-1.2l2.4-2.3c0.4-0.4,0.9-0.7,1.3-1.1l1.3-1.1l2.5-2.2l2.5-2.2l1.3-1.1
		c0.4-0.4,0.8-0.7,1.2-1.1l4.9-4.5l0.3-0.3l0.4,0.2c2.1,1,4.2,2,6.3,2.9s4.3,1.8,6.4,2.6c2.2,0.8,4.4,1.5,6.6,2.1
		c0.5,0.2,1.1,0.3,1.6,0.5c0.6,0.1,1.1,0.3,1.7,0.4c0.6,0.1,1.1,0.2,1.7,0.3c0.6,0.1,1.1,0.1,1.7,0.1c-0.6,0.1-1.2,0.2-1.7,0.3
		c-0.5,0.1-1.2,0-1.8,0c-0.6,0-1.2-0.1-1.8-0.1c-0.6-0.1-1.2-0.1-1.8-0.3c-0.3-0.1-0.6-0.1-0.9-0.2s-0.6-0.1-0.9-0.2
		c-0.6-0.2-1.1-0.3-1.7-0.5c-1.1-0.4-2.2-0.7-3.3-1.1c-2.2-0.8-4.4-1.7-6.5-2.6c-2.1-0.9-4.3-1.9-6.4-2.9l0.7-0.1l-4.9,4.5
		c-0.4,0.4-0.8,0.8-1.2,1.1l-1.3,1.1l-2.5,2.2l-2.5,2.2l-1.3,1.1c-0.4,0.3-0.8,0.7-1.3,1.1l-2.7,1.9C224.1,36.4,223.2,37,222.2,37.6
		z"/>
</g>
<circle fill="#070808" cx="239.2" cy="9.8" r="4.3"/>
</svg>
