<?xml version="1.0" encoding="utf-8"?>
<!-- Generator: Adobe Illustrator 16.0.0, SVG Export Plug-In . SVG Version: 6.00 Build 0)  -->
<!DOCTYPE svg PUBLIC "-//W3C//DTD SVG 1.1//EN" "http://www.w3.org/Graphics/SVG/1.1/DTD/svg11.dtd">
<svg version="1.1" id="Layer_1" xmlns="http://www.w3.org/2000/svg" xmlns:xlink="http://www.w3.org/1999/xlink" x="0px" y="0px"
	 width="811px" height="62.525px" viewBox="0 0 811 62.525" enable-background="new 0 0 811 62.525" xml:space="preserve">
<g>
	<g>
		<defs>
			<rect id="SVGID_1_" x="1" width="81.036" height="62.525"/>
		</defs>
		<clipPath id="SVGID_2_">
			<use xlink:href="#SVGID_1_"  overflow="visible"/>
		</clipPath>
		<g clip-path="url(#SVGID_2_)">
			<defs>
				<rect id="SVGID_3_" x="1" width="81.036" height="62.525"/>
			</defs>
			<clipPath id="SVGID_4_">
				<use xlink:href="#SVGID_3_"  overflow="visible"/>
			</clipPath>
			<path clip-path="url(#SVGID_4_)" fill-rule="evenodd" clip-rule="evenodd" fill="#8B191C" d="M40.393,9.027
				c2-1.295,4.113-2.409,6.341-3.342c2.724-1.181,5.589-2.038,8.599-2.571c3.637-0.61,7.303-0.695,10.998-0.257
				C69.377,3.275,72.358,4,75.271,5.028c0.324,0.952,0.667,1.904,1.029,2.856c0.552,1.504,1.038,3.038,1.457,4.599
				c0.323,1.2,0.619,2.381,0.886,3.542c0.076,0.362,0.047,0.705-0.086,1.028c-1.352-0.171-2.714-0.267-4.085-0.286
				c-3.771-0.19-7.227,0.714-10.369,2.714c-1.085,0.724-2.019,1.619-2.799,2.685c-0.99,1.39-1.743,2.904-2.257,4.542
				c-0.8,2.647-1.485,5.352-2.057,8.113c-0.248,1.2-0.514,2.399-0.8,3.6c-0.305,1.218-0.61,2.418-0.915,3.599
				c-0.171,0.724-0.352,1.466-0.542,2.228c-0.133,0.533-0.305,1.047-0.514,1.542c-0.343,0.896-0.752,1.81-1.229,2.742
				c-0.286,0.59-0.619,1.085-1,1.486c-1.124,1.143-2.342,2.238-3.657,3.285c-1.295,1.047-2.666,1.933-4.113,2.657
				c-1.009,0.457-2.019,0.914-3.028,1.371c-1.333,0.571-2.714,1.067-4.142,1.485c-1.486,0.381-2.99,0.629-4.514,0.743
				c-1.98,0.267-3.961,0.381-5.941,0.342c-2.876-0.038-5.723-0.314-8.542-0.828c-1.333-0.19-2.646-0.514-3.942-0.971
				c1.485-0.933,2.971-1.857,4.456-2.771c1.657-1.047,3.257-2.152,4.799-3.313c1.542-1.143,2.98-2.353,4.313-3.628
				c1.295-1.276,2.523-2.628,3.685-4.057c0.78-0.933,1.533-1.875,2.256-2.828c1.904-2.552,3.504-5.275,4.799-8.17
				c1.352-3.047,2.304-6.199,2.856-9.456c-0.667,0.171-1.342,0.2-2.028,0.086c-2.171,0-4.313-0.209-6.428-0.628
				c-2.095-0.438-4.132-1.066-6.113-1.885c0.934-1.162,1.876-2.314,2.829-3.457c1.504-1.771,3.161-3.361,4.97-4.771
				C36.374,11.722,38.335,10.322,40.393,9.027"/>
			<path clip-path="url(#SVGID_4_)" fill-rule="evenodd" clip-rule="evenodd" fill="#C61D23" d="M40.535,9.027
				c2-1.295,4.114-2.409,6.342-3.342c2.724-1.181,5.589-2.038,8.598-2.571c3.638-0.61,7.303-0.695,10.998-0.257
				C69.52,3.275,72.5,4,75.414,5.028c0.324,0.952,0.666,1.904,1.028,2.856c0.381,1.028,0.733,2.066,1.057,3.114
				c-2.647-0.857-5.332-1.476-8.056-1.857c-3.695-0.438-7.361-0.353-10.998,0.257c-3.009,0.533-5.876,1.39-8.599,2.571
				c-2.228,0.933-4.342,2.047-6.341,3.342c-2.057,1.295-4.019,2.695-5.885,4.199c-1.504,1.181-2.905,2.485-4.199,3.914
				c-0.152-0.019-0.305-0.048-0.457-0.086c-2.095-0.438-4.132-1.066-6.113-1.885c0.933-1.162,1.876-2.314,2.828-3.457
				c1.504-1.771,3.161-3.361,4.971-4.771C36.517,11.722,38.479,10.322,40.535,9.027"/>
		</g>
		<g clip-path="url(#SVGID_2_)">
			<defs>
				<rect id="SVGID_5_" x="1" width="81.036" height="62.525"/>
			</defs>
			<clipPath id="SVGID_6_">
				<use xlink:href="#SVGID_5_"  overflow="visible"/>
			</clipPath>
			
				<path clip-path="url(#SVGID_6_)" fill="none" stroke="#000000" stroke-width="2" stroke-linecap="round" stroke-miterlimit="3" d="
				M41.278,23.881c-0.552,3.257-1.504,6.409-2.856,9.456c-1.295,2.895-2.895,5.618-4.799,8.17c-0.724,0.952-1.476,1.895-2.257,2.828
				c-1.161,1.428-2.39,2.781-3.685,4.057c-1.333,1.275-2.771,2.485-4.313,3.628c-1.542,1.162-3.143,2.266-4.799,3.313
				c-1.485,0.914-2.971,1.838-4.456,2.771c1.295,0.457,2.609,0.781,3.942,0.971c2.818,0.514,5.666,0.79,8.541,0.828
				c1.981,0.039,3.961-0.076,5.942-0.342c1.524-0.114,3.028-0.362,4.514-0.743c1.428-0.418,2.809-0.914,4.142-1.485
				c1.009-0.457,2.018-0.914,3.028-1.371c1.447-0.724,2.818-1.609,4.113-2.657c1.314-1.047,2.533-2.142,3.657-3.285
				c0.381-0.4,0.714-0.896,1-1.486c0.476-0.933,0.886-1.847,1.229-2.742c0.209-0.495,0.381-1.009,0.514-1.542
				c0.19-0.762,0.372-1.504,0.542-2.228c0.305-1.181,0.61-2.381,0.915-3.599c0.286-1.2,0.552-2.4,0.8-3.6
				c0.571-2.761,1.257-5.466,2.057-8.113c0.514-1.638,1.267-3.152,2.256-4.542c0.781-1.066,1.714-1.961,2.8-2.685
				c3.142-2,6.599-2.904,10.369-2.714c1.371,0.019,2.733,0.114,4.085,0.286c0.019-0.045,0.038-0.093,0.057-0.143
				c0.084-0.28,0.094-0.575,0.029-0.885c-0.267-1.161-0.562-2.342-0.886-3.542c-0.418-1.562-0.904-3.095-1.457-4.599
				c-0.361-0.953-0.704-1.904-1.028-2.856c-0.075-0.027-0.152-0.056-0.228-0.086c-0.024-0.009-0.048-0.018-0.072-0.029
				c-2.818-0.966-5.699-1.652-8.641-2.056c-3.695-0.438-7.36-0.353-10.998,0.257c-3.009,0.533-5.875,1.39-8.599,2.571
				c-2.228,0.933-4.342,2.047-6.341,3.342c-2.057,1.295-4.019,2.695-5.885,4.199c-1.81,1.409-3.466,3-4.97,4.771
				c-0.953,1.143-1.896,2.295-2.829,3.457c1.981,0.819,4.019,1.447,6.113,1.885c2.114,0.419,4.256,0.628,6.428,0.628
				C39.935,24.081,40.611,24.052,41.278,23.881z"/>
		</g>
		<g clip-path="url(#SVGID_2_)">
			<defs>
				<rect id="SVGID_7_" x="1" width="81.036" height="62.525"/>
			</defs>
			<clipPath id="SVGID_8_">
				<use xlink:href="#SVGID_7_"  overflow="visible"/>
			</clipPath>
			<g clip-path="url(#SVGID_8_)">
				<defs>
					
						<rect id="SVGID_9_" x="70.582" y="3.882" transform="matrix(-0.9997 -0.0253 0.0253 -0.9997 150.1837 23.7584)" width="9.32" height="14.093"/>
				</defs>
				<clipPath id="SVGID_10_">
					<use xlink:href="#SVGID_9_"  overflow="visible"/>
				</clipPath>
				<path clip-path="url(#SVGID_10_)" fill="none" stroke="#000000" stroke-width="2.1424" stroke-miterlimit="10" d="M73.252,6.608
					c-0.948,1.195-1.557,2.361-1.827,3.497c-0.628,2.346,0.201,4.177,2.484,5.492c1.142,0.676,2.636,1.229,4.483,1.656
					c0.13,0.042,0.261,0.074,0.391,0.096L74.569,5.099L73.252,6.58L73.252,6.608z"/>
			</g>
		</g>
	</g>
</g>
<g>
	<g>
		<defs>
			<rect id="SVGID_11_" x="81" width="81.036" height="62.525"/>
		</defs>
		<clipPath id="SVGID_12_">
			<use xlink:href="#SVGID_11_"  overflow="visible"/>
		</clipPath>
		<g clip-path="url(#SVGID_12_)">
			<defs>
				<rect id="SVGID_13_" x="81" width="81.036" height="62.525"/>
			</defs>
			<clipPath id="SVGID_14_">
				<use xlink:href="#SVGID_13_"  overflow="visible"/>
			</clipPath>
			<path clip-path="url(#SVGID_14_)" fill-rule="evenodd" clip-rule="evenodd" fill="#8B191C" d="M121.078,23.567
				c-4.799,0.895-9.227-0.028-13.283-2.771c-1.257-0.857-2.409-1.847-3.456-2.971l-1.171-1.428
				c4.552-1.619,8.398-3.171,11.541-4.656c0.495-0.229,1.952-1.009,4.371-2.342c2.19-1.2,3.59-1.924,4.199-2.171
				c5.027-2.075,10.036-3.39,15.025-3.942c6.056-0.686,11.732-0.181,17.026,1.514c0.438,1.676,1.133,4.028,2.085,7.056
				c0.762,2.476,1.371,4.39,1.828,5.742c-3.695-0.571-8.017,0.047-12.969,1.857c-2.247,0.838-4.457,3.466-6.627,7.884
				c-1.143,2.342-2.371,5.303-3.685,8.884c-5.294,12.436-14.254,19.882-26.88,22.338c-6.303,1.219-12.083,1.2-17.339-0.057
				c4.438-3.009,8.988-6.723,13.654-11.141C114.708,38.526,119.935,30.594,121.078,23.567"/>
		</g>
		<g clip-path="url(#SVGID_12_)">
			<defs>
				<rect id="SVGID_15_" x="81" width="81.036" height="62.525"/>
			</defs>
			<clipPath id="SVGID_16_">
				<use xlink:href="#SVGID_15_"  overflow="visible"/>
			</clipPath>
			<path clip-path="url(#SVGID_16_)" fill-rule="evenodd" clip-rule="evenodd" fill="#C61D23" d="M116.05,18.939
				c-2.228,1.047-4.723,2.132-7.484,3.256c-0.229-0.133-0.447-0.276-0.657-0.428c-1.257-0.857-2.409-1.848-3.457-2.971l-1.171-1.428
				c4.552-1.619,8.398-3.171,11.541-4.656c0.495-0.229,1.952-1.01,4.37-2.342c2.19-1.2,3.59-1.924,4.199-2.171
				c5.028-2.077,10.037-3.39,15.026-3.942c6.056-0.686,11.731-0.181,17.025,1.514c0.19,0.686,0.418,1.495,0.685,2.428
				c-3.428-0.286-6.97-0.22-10.626,0.2c-6.227,0.686-12.483,2.324-18.768,4.913c-0.743,0.305-2.485,1.21-5.228,2.714
				C118.498,17.682,116.679,18.654,116.05,18.939"/>
		</g>
		<g clip-path="url(#SVGID_12_)">
			<defs>
				<rect id="SVGID_17_" x="81" width="81.036" height="62.525"/>
			</defs>
			<clipPath id="SVGID_18_">
				<use xlink:href="#SVGID_17_"  overflow="visible"/>
			</clipPath>
			
				<path clip-path="url(#SVGID_18_)" fill="none" stroke="#000000" stroke-width="2" stroke-linecap="round" stroke-miterlimit="3" d="
				M114.708,11.741c-3.142,1.485-6.989,3.038-11.541,4.656l1.171,1.428c1.047,1.124,2.2,2.114,3.456,2.971
				c4.057,2.742,8.484,3.667,13.283,2.771c-1.143,7.027-6.37,14.958-15.682,23.795c-4.666,4.418-9.217,8.131-13.655,11.141
				c5.256,1.257,11.036,1.276,17.339,0.057c12.626-2.457,21.586-9.902,26.881-22.338c1.314-3.581,2.542-6.542,3.685-8.884
				c2.171-4.418,4.38-7.046,6.627-7.884c4.952-1.81,9.274-2.428,12.969-1.857c-0.458-1.353-1.067-3.266-1.829-5.742
				c-0.952-3.028-1.647-5.38-2.085-7.056c-5.294-1.695-10.97-2.2-17.026-1.514c-4.989,0.552-9.998,1.867-15.025,3.942
				c-0.609,0.248-2.009,0.971-4.199,2.171C116.66,10.731,115.203,11.512,114.708,11.741z"/>
		</g>
		<g clip-path="url(#SVGID_12_)">
			<defs>
				<rect id="SVGID_19_" x="81" width="81.036" height="62.525"/>
			</defs>
			<clipPath id="SVGID_20_">
				<use xlink:href="#SVGID_19_"  overflow="visible"/>
			</clipPath>
			<g clip-path="url(#SVGID_20_)">
				<defs>
					
						<rect id="SVGID_21_" x="150.582" y="3.882" transform="matrix(-0.9997 -0.0253 0.0253 -0.9997 310.1581 25.7828)" width="9.32" height="14.093"/>
				</defs>
				<clipPath id="SVGID_22_">
					<use xlink:href="#SVGID_21_"  overflow="visible"/>
				</clipPath>
				<path clip-path="url(#SVGID_22_)" fill="none" stroke="#000000" stroke-width="2.1424" stroke-miterlimit="10" d="
					M153.252,6.608c-0.948,1.195-1.557,2.361-1.827,3.497c-0.628,2.346,0.201,4.177,2.484,5.492
					c1.142,0.676,2.636,1.229,4.483,1.656c0.13,0.042,0.261,0.074,0.391,0.096l-4.215-12.251l-1.316,1.481L153.252,6.608z"/>
			</g>
		</g>
	</g>
</g>
<g>
	<g>
		<defs>
			<rect id="SVGID_23_" x="163" width="81.036" height="62.525"/>
		</defs>
		<clipPath id="SVGID_24_">
			<use xlink:href="#SVGID_23_"  overflow="visible"/>
		</clipPath>
		<g clip-path="url(#SVGID_24_)">
			<defs>
				<rect id="SVGID_25_" x="163" width="81.036" height="62.525"/>
			</defs>
			<clipPath id="SVGID_26_">
				<use xlink:href="#SVGID_25_"  overflow="visible"/>
			</clipPath>
			<path clip-path="url(#SVGID_26_)" fill-rule="evenodd" clip-rule="evenodd" fill="#8B191C" d="M199.421,23.624
				c-3.313,1.257-6.694,0.99-10.141-0.8c-1.067-0.553-2.076-1.219-3.028-2l-1.114-1.029c0.361-0.838,1.047-1.847,2.057-3.028
				c2-2.361,4.618-4.428,7.855-6.199c10.322-5.656,24.805-7.237,43.449-4.742c0.152,0.286,0.667,2.285,1.542,5.999
				c0.438,1.867,0.867,3.695,1.286,5.485c-2.628-0.571-5.428-0.696-8.398-0.372c-5.923,0.667-9.722,3.285-11.397,7.855
				c-6.514,16.758-16.893,27.357-31.137,31.794c-4.438,1.39-9.008,2.076-13.711,2.057c-2.342,0-4.237-0.143-5.685-0.429
				C187.281,37.593,196.755,26.062,199.421,23.624"/>
		</g>
		<g clip-path="url(#SVGID_24_)">
			<defs>
				<path id="SVGID_27_" d="M195.051,10.569c-3.238,1.771-5.856,3.837-7.856,6.199c-1.009,1.18-1.695,2.189-2.057,3.028l1.115,1.028
					c0.952,0.78,1.961,1.447,3.028,2c3.447,1.79,6.827,2.057,10.141,0.8c-2.666,2.437-12.141,13.969-28.423,34.593
					c1.448,0.286,3.342,0.429,5.685,0.429c4.704,0.019,9.273-0.667,13.712-2.058c14.244-4.437,24.623-15.035,31.137-31.793
					c1.675-4.571,5.475-7.189,11.397-7.856c2.97-0.324,5.771-0.2,8.398,0.372c-0.418-1.79-0.847-3.619-1.286-5.485
					c-0.876-3.713-1.391-5.713-1.542-5.999c-5.707-0.764-11.023-1.146-15.95-1.146C211.38,4.682,202.213,6.645,195.051,10.569"/>
			</defs>
			<clipPath id="SVGID_28_">
				<use xlink:href="#SVGID_27_"  overflow="visible"/>
			</clipPath>
			<path clip-path="url(#SVGID_28_)" fill-rule="evenodd" clip-rule="evenodd" fill="#C61D23" d="M248.043,8.396
				c-19.212,0.784-36.981,4.854-53.308,12.208c-4.077,1.615-7.302,3.239-9.677,4.872c-3.193-1.402-4.984-3.129-5.374-5.183
				c-0.646-3.327,3.16-6.622,11.417-9.883c12.721-5.729,26.57-8.895,41.549-9.499c7.476-0.3,13.69-0.032,18.642,0.807l1.458,6.543
				C251.232,8.292,249.664,8.337,248.043,8.396"/>
		</g>
		<g clip-path="url(#SVGID_24_)">
			<defs>
				<rect id="SVGID_29_" x="163" width="81.036" height="62.525"/>
			</defs>
			<clipPath id="SVGID_30_">
				<use xlink:href="#SVGID_29_"  overflow="visible"/>
			</clipPath>
			<g clip-path="url(#SVGID_30_)">
				<defs>
					
						<rect id="SVGID_31_" x="232.582" y="3.882" transform="matrix(-0.9997 -0.0253 0.0253 -0.9997 474.1318 27.8578)" width="9.32" height="14.093"/>
				</defs>
				<clipPath id="SVGID_32_">
					<use xlink:href="#SVGID_31_"  overflow="visible"/>
				</clipPath>
				<path clip-path="url(#SVGID_32_)" fill="none" stroke="#000000" stroke-width="2.1424" stroke-miterlimit="10" d="
					M235.252,6.608c-0.948,1.195-1.557,2.361-1.827,3.497c-0.628,2.346,0.201,4.177,2.484,5.492
					c1.142,0.676,2.636,1.229,4.483,1.656c0.13,0.042,0.261,0.074,0.391,0.096l-4.215-12.251l-1.316,1.481L235.252,6.608z"/>
			</g>
		</g>
		<g clip-path="url(#SVGID_24_)">
			<defs>
				<rect id="SVGID_33_" x="163" width="81.036" height="62.525"/>
			</defs>
			<clipPath id="SVGID_34_">
				<use xlink:href="#SVGID_33_"  overflow="visible"/>
			</clipPath>
			
				<path clip-path="url(#SVGID_34_)" fill="none" stroke="#000000" stroke-width="2" stroke-linecap="round" stroke-miterlimit="3" d="
				M189.281,22.824c3.447,1.79,6.827,2.057,10.141,0.8c-2.667,2.438-12.141,13.969-28.423,34.593
				c1.447,0.286,3.342,0.429,5.685,0.429c4.704,0.019,9.274-0.667,13.711-2.057c14.245-4.438,24.624-15.035,31.137-31.793
				c1.675-4.571,5.475-7.189,11.397-7.856c2.971-0.324,5.771-0.2,8.398,0.372c-0.419-1.79-0.847-3.618-1.286-5.485
				c-0.876-3.713-1.39-5.713-1.542-5.999c-18.644-2.495-33.126-0.915-43.449,4.742c-3.237,1.771-5.856,3.837-7.855,6.199
				c-1.01,1.181-1.695,2.19-2.057,3.028l1.114,1.028C187.205,21.605,188.214,22.272,189.281,22.824z"/>
		</g>
	</g>
</g>
<g>
	<g>
		<defs>
			<rect id="SVGID_35_" x="244" width="81.036" height="62.525"/>
		</defs>
		<clipPath id="SVGID_36_">
			<use xlink:href="#SVGID_35_"  overflow="visible"/>
		</clipPath>
		<g clip-path="url(#SVGID_36_)">
			<defs>
				<rect id="SVGID_37_" x="244" width="81.036" height="62.525"/>
			</defs>
			<clipPath id="SVGID_38_">
				<use xlink:href="#SVGID_37_"  overflow="visible"/>
			</clipPath>
			<g clip-path="url(#SVGID_38_)">
				<defs>
					<rect id="SVGID_39_" x="251.284" y="5.113" width="70.187" height="53.19"/>
				</defs>
				<clipPath id="SVGID_40_">
					<use xlink:href="#SVGID_39_"  overflow="visible"/>
				</clipPath>
			</g>
		</g>
		<g clip-path="url(#SVGID_36_)">
			<defs>
				<rect id="SVGID_41_" x="244" width="81.036" height="62.525"/>
			</defs>
			<clipPath id="SVGID_42_">
				<use xlink:href="#SVGID_41_"  overflow="visible"/>
			</clipPath>
			<path clip-path="url(#SVGID_42_)" fill-rule="evenodd" clip-rule="evenodd" fill="#8B191C" d="M279.25,23.281
				c-1.847,0.419-3.866,0.448-6.056,0.085c-4.38-0.742-7.408-3.095-9.084-7.056c6.247-6.36,17.235-10.074,32.965-11.141
				c7.864-0.514,15.111-0.4,21.738,0.343l1.257,4.828c0.838,3.371,1.256,5.475,1.256,6.313c-11.026-0.704-21.51,5.037-31.451,17.225
				c-4.971,6.113-8.846,12.284-11.626,18.511c-3.733,0.038-7.741,0.371-12.026,1c-8.532,1.276-14.112,3.437-16.74,6.484
				c2.076-6.094,7.665-14.016,16.768-23.767C270.785,31.213,275.118,26.938,279.25,23.281"/>
			<path clip-path="url(#SVGID_42_)" fill-rule="evenodd" clip-rule="evenodd" fill="#C61D23" d="M318.085,4.897
				c-6.583-0.727-13.775-0.836-21.577-0.327c-15.73,1.066-26.719,4.78-32.965,11.141c0.822,1.943,1.971,3.497,3.444,4.665
				c6.28-5.109,16.122-8.447,29.55-10c7.761-0.879,14.941-1.11,21.547-0.698V4.897z"/>
			<path clip-path="url(#SVGID_42_)" fill="none" stroke="#000000" stroke-width="2" stroke-miterlimit="3" d="M279.25,23.281
				c-4.132,3.656-8.465,7.932-12.998,12.826c-9.104,9.75-14.692,17.672-16.768,23.767c2.628-3.047,8.208-5.208,16.74-6.484
				c4.285-0.628,8.293-0.961,12.026-1c2.781-6.228,6.656-12.398,11.626-18.511c9.941-12.188,20.425-17.929,31.451-17.225
				c0-0.838-0.418-2.942-1.256-6.313l-1.257-4.828c-6.627-0.743-13.874-0.857-21.738-0.343c-15.73,1.067-26.719,4.78-32.965,11.141
				c1.676,3.961,4.704,6.313,9.084,7.056C275.384,23.729,277.403,23.7,279.25,23.281z"/>
		</g>
		<g clip-path="url(#SVGID_36_)">
			<defs>
				<rect id="SVGID_43_" x="244" width="81.036" height="62.525"/>
			</defs>
			<clipPath id="SVGID_44_">
				<use xlink:href="#SVGID_43_"  overflow="visible"/>
			</clipPath>
			<g clip-path="url(#SVGID_44_)">
				<defs>
					
						<rect id="SVGID_45_" x="313.582" y="3.882" transform="matrix(-0.9997 -0.0253 0.0253 -0.9997 636.106 29.9076)" width="9.32" height="14.093"/>
				</defs>
				<clipPath id="SVGID_46_">
					<use xlink:href="#SVGID_45_"  overflow="visible"/>
				</clipPath>
				<path clip-path="url(#SVGID_46_)" fill="none" stroke="#000000" stroke-width="2.1424" stroke-miterlimit="10" d="
					M316.252,6.608c-0.948,1.195-1.557,2.361-1.827,3.497c-0.628,2.346,0.201,4.177,2.484,5.492
					c1.142,0.676,2.636,1.229,4.483,1.656c0.13,0.042,0.261,0.074,0.391,0.096l-4.215-12.251l-1.316,1.481L316.252,6.608z"/>
			</g>
		</g>
	</g>
</g>
<g>
	<g>
		<defs>
			<rect id="SVGID_47_" x="325" width="81.036" height="62.525"/>
		</defs>
		<clipPath id="SVGID_48_">
			<use xlink:href="#SVGID_47_"  overflow="visible"/>
		</clipPath>
		<g clip-path="url(#SVGID_48_)">
			<defs>
				<rect id="SVGID_49_" x="325" width="81.036" height="62.525"/>
			</defs>
			<clipPath id="SVGID_50_">
				<use xlink:href="#SVGID_49_"  overflow="visible"/>
			</clipPath>
			<path clip-path="url(#SVGID_50_)" fill-rule="evenodd" clip-rule="evenodd" fill="#8B191C" d="M344.253,14.14
				c3.295-1.333,7.303-2.609,12.026-3.828c5.332-1.371,10.664-2.428,15.997-3.171c2.4-0.324,7.104-0.581,14.112-0.771
				c5.693-0.133,9.998-0.619,12.912-1.457c0.381,0.076,1.181,2.018,2.399,5.827c1.257,3.809,1.628,5.79,1.114,5.942
				c-14.454,1.124-26.48,7.113-36.079,17.968c-4.799,5.428-8.151,10.741-10.055,15.94l-27.223,7.798
				c1.561-4.342,3.979-9.045,7.255-14.111c6.513-10.113,14.016-16.921,22.51-20.425c-4.552,0.533-8.522-0.962-11.912-4.485
				c-1.124-1.181-2.009-2.399-2.657-3.656C344.063,14.569,343.93,14.045,344.253,14.14"/>
		</g>
		<g clip-path="url(#SVGID_48_)">
			<defs>
				<rect id="SVGID_51_" x="325" width="81.036" height="62.525"/>
			</defs>
			<clipPath id="SVGID_52_">
				<use xlink:href="#SVGID_51_"  overflow="visible"/>
			</clipPath>
			<path clip-path="url(#SVGID_52_)" fill-rule="evenodd" clip-rule="evenodd" fill="#C61D23" d="M347.31,19.368
				c-1.123-1.181-2.009-2.399-2.656-3.656c-0.59-1.143-0.724-1.667-0.4-1.571c3.295-1.333,7.304-2.609,12.027-3.828
				c5.333-1.371,10.665-2.428,15.997-3.171c2.399-0.324,7.103-0.581,14.111-0.771c5.695-0.133,9.998-0.619,12.912-1.457
				c0.305,0.057,0.904,1.371,1.799,3.942c-2.932,0.628-6.589,1.114-10.969,1.457c-8.055,0.686-13.455,1.304-16.197,1.856
				c-6.075,1.181-12.14,2.733-18.196,4.656c-2.952,0.953-5.656,1.904-8.113,2.856C347.528,19.586,347.424,19.482,347.31,19.368"/>
		</g>
		<g clip-path="url(#SVGID_48_)">
			<defs>
				<rect id="SVGID_53_" x="325" width="81.036" height="62.525"/>
			</defs>
			<clipPath id="SVGID_54_">
				<use xlink:href="#SVGID_53_"  overflow="visible"/>
			</clipPath>
			<path clip-path="url(#SVGID_54_)" fill="none" stroke="#000000" stroke-width="2" stroke-miterlimit="3" d="M344.653,15.711
				c-0.59-1.143-0.724-1.667-0.4-1.571c3.295-1.333,7.304-2.609,12.027-3.828c5.333-1.371,10.665-2.428,15.997-3.171
				c2.399-0.324,7.104-0.581,14.111-0.771c5.695-0.133,9.998-0.619,12.912-1.457c0.381,0.076,1.181,2.018,2.399,5.827
				c1.257,3.809,1.628,5.79,1.114,5.942c-14.454,1.124-26.48,7.113-36.079,17.968c-4.799,5.428-8.151,10.741-10.055,15.94
				l-27.223,7.798c1.562-4.342,3.98-9.045,7.256-14.111c6.513-10.113,14.016-16.921,22.51-20.425
				c-4.551,0.533-8.522-0.962-11.912-4.485C346.187,18.187,345.3,16.968,344.653,15.711z"/>
		</g>
		<g clip-path="url(#SVGID_48_)">
			<defs>
				<rect id="SVGID_55_" x="325" width="81.036" height="62.525"/>
			</defs>
			<clipPath id="SVGID_56_">
				<use xlink:href="#SVGID_55_"  overflow="visible"/>
			</clipPath>
			<g clip-path="url(#SVGID_56_)">
				<defs>
					
						<rect id="SVGID_57_" x="394.582" y="3.882" transform="matrix(-0.9997 -0.0253 0.0253 -0.9997 798.08 31.9573)" width="9.32" height="14.093"/>
				</defs>
				<clipPath id="SVGID_58_">
					<use xlink:href="#SVGID_57_"  overflow="visible"/>
				</clipPath>
				<path clip-path="url(#SVGID_58_)" fill="none" stroke="#000000" stroke-width="2.1424" stroke-miterlimit="10" d="
					M397.252,6.608c-0.948,1.195-1.557,2.361-1.827,3.497c-0.628,2.346,0.201,4.177,2.484,5.492
					c1.142,0.676,2.636,1.229,4.483,1.656c0.13,0.042,0.261,0.074,0.391,0.096l-4.215-12.251l-1.316,1.481L397.252,6.608z"/>
			</g>
		</g>
	</g>
</g>
<g>
	<g>
		<defs>
			<rect id="SVGID_59_" x="406" width="81.036" height="62.525"/>
		</defs>
		<clipPath id="SVGID_60_">
			<use xlink:href="#SVGID_59_"  overflow="visible"/>
		</clipPath>
		<g clip-path="url(#SVGID_60_)">
			<defs>
				<rect id="SVGID_61_" x="406" width="81.036" height="62.525"/>
			</defs>
			<clipPath id="SVGID_62_">
				<use xlink:href="#SVGID_61_"  overflow="visible"/>
			</clipPath>
			<path clip-path="url(#SVGID_62_)" fill-rule="evenodd" clip-rule="evenodd" fill="#8B191C" d="M425.253,14.14
				c3.295-1.333,7.303-2.609,12.026-3.828c5.332-1.371,10.664-2.428,15.997-3.171c2.4-0.324,7.104-0.581,14.112-0.771
				c5.693-0.133,9.998-0.619,12.912-1.457c0.381,0.076,1.181,2.018,2.399,5.827c1.257,3.809,1.628,5.79,1.114,5.942
				c-14.454,1.124-26.48,7.113-36.079,17.968c-4.799,5.428-8.151,10.741-10.055,15.94l-27.223,7.798
				c1.561-4.342,3.979-9.045,7.255-14.111c6.513-10.113,14.016-16.921,22.51-20.425c-4.552,0.533-8.522-0.962-11.912-4.485
				c-1.124-1.181-2.009-2.399-2.657-3.656C425.063,14.569,424.93,14.045,425.253,14.14"/>
		</g>
		<g clip-path="url(#SVGID_60_)">
			<defs>
				<rect id="SVGID_63_" x="406" width="81.036" height="62.525"/>
			</defs>
			<clipPath id="SVGID_64_">
				<use xlink:href="#SVGID_63_"  overflow="visible"/>
			</clipPath>
			<path clip-path="url(#SVGID_64_)" fill-rule="evenodd" clip-rule="evenodd" fill="#C61D23" d="M428.31,19.368
				c-1.123-1.181-2.009-2.399-2.656-3.656c-0.59-1.143-0.724-1.667-0.4-1.571c3.295-1.333,7.304-2.609,12.027-3.828
				c5.333-1.371,10.665-2.428,15.997-3.171c2.399-0.324,7.103-0.581,14.111-0.771c5.695-0.133,9.998-0.619,12.912-1.457
				c0.305,0.057,0.904,1.371,1.799,3.942c-2.932,0.628-6.589,1.114-10.969,1.457c-8.055,0.686-13.455,1.304-16.197,1.856
				c-6.075,1.181-12.14,2.733-18.196,4.656c-2.952,0.953-5.656,1.904-8.113,2.856C428.528,19.586,428.424,19.482,428.31,19.368"/>
		</g>
		<g clip-path="url(#SVGID_60_)">
			<defs>
				<rect id="SVGID_65_" x="406" width="81.036" height="62.525"/>
			</defs>
			<clipPath id="SVGID_66_">
				<use xlink:href="#SVGID_65_"  overflow="visible"/>
			</clipPath>
			<path clip-path="url(#SVGID_66_)" fill="none" stroke="#000000" stroke-width="2" stroke-miterlimit="3" d="M425.653,15.711
				c-0.59-1.143-0.724-1.667-0.4-1.571c3.295-1.333,7.304-2.609,12.027-3.828c5.333-1.371,10.665-2.428,15.997-3.171
				c2.399-0.324,7.104-0.581,14.111-0.771c5.695-0.133,9.998-0.619,12.912-1.457c0.381,0.076,1.181,2.018,2.399,5.827
				c1.257,3.809,1.628,5.79,1.114,5.942c-14.454,1.124-26.48,7.113-36.079,17.968c-4.799,5.428-8.151,10.741-10.055,15.94
				l-27.223,7.798c1.562-4.342,3.98-9.045,7.256-14.111c6.513-10.113,14.016-16.921,22.51-20.425
				c-4.551,0.533-8.522-0.962-11.912-4.485C427.187,18.187,426.3,16.968,425.653,15.711z"/>
		</g>
		<g clip-path="url(#SVGID_60_)">
			<defs>
				<rect id="SVGID_67_" x="406" width="81.036" height="62.525"/>
			</defs>
			<clipPath id="SVGID_68_">
				<use xlink:href="#SVGID_67_"  overflow="visible"/>
			</clipPath>
			<g clip-path="url(#SVGID_68_)">
				<defs>
					
						<rect id="SVGID_69_" x="475.582" y="3.882" transform="matrix(-0.9997 -0.0253 0.0253 -0.9997 960.0541 34.007)" width="9.32" height="14.093"/>
				</defs>
				<clipPath id="SVGID_70_">
					<use xlink:href="#SVGID_69_"  overflow="visible"/>
				</clipPath>
				<path clip-path="url(#SVGID_70_)" fill="none" stroke="#000000" stroke-width="2.1424" stroke-miterlimit="10" d="
					M478.252,6.608c-0.948,1.195-1.557,2.361-1.827,3.497c-0.628,2.346,0.201,4.177,2.484,5.492
					c1.142,0.676,2.636,1.229,4.483,1.656c0.13,0.042,0.261,0.074,0.391,0.096l-4.215-12.251l-1.316,1.481L478.252,6.608z"/>
			</g>
		</g>
	</g>
</g>
<g>
	<g>
		<defs>
			<rect id="SVGID_71_" x="487" width="81.036" height="62.525"/>
		</defs>
		<clipPath id="SVGID_72_">
			<use xlink:href="#SVGID_71_"  overflow="visible"/>
		</clipPath>
		<g clip-path="url(#SVGID_72_)">
			<defs>
				<rect id="SVGID_73_" x="487" width="81.036" height="62.525"/>
			</defs>
			<clipPath id="SVGID_74_">
				<use xlink:href="#SVGID_73_"  overflow="visible"/>
			</clipPath>
			<g clip-path="url(#SVGID_74_)">
				<defs>
					<rect id="SVGID_75_" x="494.284" y="5.113" width="70.187" height="53.19"/>
				</defs>
				<clipPath id="SVGID_76_">
					<use xlink:href="#SVGID_75_"  overflow="visible"/>
				</clipPath>
			</g>
		</g>
		<g clip-path="url(#SVGID_72_)">
			<defs>
				<rect id="SVGID_77_" x="487" width="81.036" height="62.525"/>
			</defs>
			<clipPath id="SVGID_78_">
				<use xlink:href="#SVGID_77_"  overflow="visible"/>
			</clipPath>
			<path clip-path="url(#SVGID_78_)" fill-rule="evenodd" clip-rule="evenodd" fill="#8B191C" d="M522.25,23.281
				c-1.847,0.419-3.866,0.448-6.056,0.085c-4.38-0.742-7.408-3.095-9.084-7.056c6.246-6.36,17.235-10.074,32.965-11.141
				c7.864-0.514,15.111-0.4,21.738,0.343l1.257,4.828c0.838,3.371,1.256,5.475,1.256,6.313c-11.026-0.704-21.51,5.037-31.451,17.225
				c-4.971,6.113-8.846,12.284-11.626,18.511c-3.733,0.038-7.741,0.371-12.026,1c-8.532,1.276-14.112,3.437-16.74,6.484
				c2.076-6.094,7.665-14.016,16.768-23.767C513.785,31.213,518.118,26.938,522.25,23.281"/>
			<path clip-path="url(#SVGID_78_)" fill-rule="evenodd" clip-rule="evenodd" fill="#C61D23" d="M561.085,4.897
				c-6.583-0.727-13.775-0.836-21.577-0.327c-15.73,1.066-26.719,4.78-32.965,11.141c0.822,1.943,1.971,3.497,3.444,4.665
				c6.28-5.109,16.122-8.447,29.55-10c7.761-0.879,14.941-1.11,21.547-0.698V4.897z"/>
			<path clip-path="url(#SVGID_78_)" fill="none" stroke="#000000" stroke-width="2" stroke-miterlimit="3" d="M522.25,23.281
				c-4.132,3.656-8.465,7.932-12.998,12.826c-9.104,9.75-14.692,17.672-16.768,23.767c2.628-3.047,8.208-5.208,16.74-6.484
				c4.285-0.628,8.293-0.961,12.026-1c2.781-6.228,6.656-12.398,11.626-18.511c9.941-12.188,20.425-17.929,31.451-17.225
				c0-0.838-0.418-2.942-1.256-6.313l-1.257-4.828c-6.627-0.743-13.874-0.857-21.738-0.343c-15.73,1.067-26.719,4.78-32.965,11.141
				c1.676,3.961,4.704,6.313,9.084,7.056C518.384,23.729,520.403,23.7,522.25,23.281z"/>
		</g>
		<g clip-path="url(#SVGID_72_)">
			<defs>
				<rect id="SVGID_79_" x="487" width="81.036" height="62.525"/>
			</defs>
			<clipPath id="SVGID_80_">
				<use xlink:href="#SVGID_79_"  overflow="visible"/>
			</clipPath>
			<g clip-path="url(#SVGID_80_)">
				<defs>
					
						<rect id="SVGID_81_" x="556.582" y="3.882" transform="matrix(-0.9997 -0.0253 0.0253 -0.9997 1122.0281 36.0567)" width="9.32" height="14.093"/>
				</defs>
				<clipPath id="SVGID_82_">
					<use xlink:href="#SVGID_81_"  overflow="visible"/>
				</clipPath>
				<path clip-path="url(#SVGID_82_)" fill="none" stroke="#000000" stroke-width="2.1424" stroke-miterlimit="10" d="
					M559.252,6.608c-0.948,1.195-1.557,2.361-1.827,3.497c-0.628,2.346,0.201,4.177,2.484,5.492
					c1.142,0.676,2.636,1.229,4.483,1.656c0.13,0.042,0.261,0.074,0.391,0.096l-4.215-12.251l-1.316,1.481L559.252,6.608z"/>
			</g>
		</g>
	</g>
</g>
<g>
	<g>
		<defs>
			<rect id="SVGID_83_" x="568" width="81.035" height="62.525"/>
		</defs>
		<clipPath id="SVGID_84_">
			<use xlink:href="#SVGID_83_"  overflow="visible"/>
		</clipPath>
		<g clip-path="url(#SVGID_84_)">
			<defs>
				<rect id="SVGID_85_" x="568" width="81.035" height="62.525"/>
			</defs>
			<clipPath id="SVGID_86_">
				<use xlink:href="#SVGID_85_"  overflow="visible"/>
			</clipPath>
			<path clip-path="url(#SVGID_86_)" fill-rule="evenodd" clip-rule="evenodd" fill="#8B191C" d="M604.422,23.624
				c-3.314,1.257-6.694,0.99-10.142-0.8c-1.066-0.553-2.075-1.219-3.027-2l-1.114-1.029c0.361-0.838,1.047-1.847,2.057-3.028
				c2-2.361,4.618-4.428,7.855-6.199c10.322-5.656,24.805-7.237,43.448-4.742c0.153,0.286,0.667,2.285,1.543,5.999
				c0.438,1.867,0.867,3.695,1.285,5.485c-2.628-0.571-5.427-0.696-8.398-0.372c-5.922,0.667-9.722,3.285-11.397,7.855
				c-6.513,16.758-16.893,27.357-31.137,31.794c-4.438,1.39-9.008,2.076-13.711,2.057c-2.342,0-4.237-0.143-5.685-0.429
				C592.281,37.593,601.755,26.062,604.422,23.624"/>
		</g>
		<g clip-path="url(#SVGID_84_)">
			<defs>
				<path id="SVGID_87_" d="M600.051,10.569c-3.238,1.771-5.856,3.837-7.856,6.199c-1.009,1.18-1.695,2.189-2.057,3.028l1.115,1.028
					c0.952,0.78,1.961,1.447,3.028,2c3.447,1.79,6.827,2.057,10.141,0.8c-2.666,2.437-12.141,13.969-28.423,34.593
					c1.448,0.286,3.342,0.429,5.685,0.429c4.704,0.019,9.273-0.667,13.712-2.058c14.244-4.437,24.623-15.035,31.137-31.793
					c1.675-4.571,5.475-7.189,11.397-7.856c2.971-0.324,5.771-0.2,8.397,0.372c-0.418-1.79-0.847-3.619-1.285-5.485
					c-0.876-3.713-1.391-5.713-1.542-5.999c-5.707-0.764-11.023-1.146-15.95-1.146C616.38,4.682,607.214,6.645,600.051,10.569"/>
			</defs>
			<clipPath id="SVGID_88_">
				<use xlink:href="#SVGID_87_"  overflow="visible"/>
			</clipPath>
			<path clip-path="url(#SVGID_88_)" fill-rule="evenodd" clip-rule="evenodd" fill="#C61D23" d="M653.043,8.396
				c-19.212,0.784-36.981,4.854-53.308,12.208c-4.077,1.615-7.302,3.239-9.677,4.872c-3.192-1.402-4.984-3.129-5.374-5.183
				c-0.646-3.327,3.16-6.622,11.417-9.883c12.722-5.729,26.57-8.895,41.549-9.499c7.476-0.3,13.689-0.032,18.643,0.807l1.457,6.543
				C656.232,8.292,654.664,8.337,653.043,8.396"/>
		</g>
		<g clip-path="url(#SVGID_84_)">
			<defs>
				<rect id="SVGID_89_" x="568" width="81.035" height="62.525"/>
			</defs>
			<clipPath id="SVGID_90_">
				<use xlink:href="#SVGID_89_"  overflow="visible"/>
			</clipPath>
			<g clip-path="url(#SVGID_90_)">
				<defs>
					
						<rect id="SVGID_91_" x="637.583" y="3.882" transform="matrix(-0.9997 -0.0253 0.0253 -0.9997 1284.0032 38.1072)" width="9.319" height="14.093"/>
				</defs>
				<clipPath id="SVGID_92_">
					<use xlink:href="#SVGID_91_"  overflow="visible"/>
				</clipPath>
				<path clip-path="url(#SVGID_92_)" fill="none" stroke="#000000" stroke-width="2.1424" stroke-miterlimit="10" d="
					M640.252,6.608c-0.948,1.195-1.557,2.361-1.826,3.497c-0.628,2.346,0.2,4.177,2.483,5.492c1.143,0.676,2.637,1.229,4.483,1.656
					c0.131,0.042,0.261,0.074,0.392,0.096l-4.216-12.251l-1.315,1.481L640.252,6.608z"/>
			</g>
		</g>
		<g clip-path="url(#SVGID_84_)">
			<defs>
				<rect id="SVGID_93_" x="568" width="81.035" height="62.525"/>
			</defs>
			<clipPath id="SVGID_94_">
				<use xlink:href="#SVGID_93_"  overflow="visible"/>
			</clipPath>
			
				<path clip-path="url(#SVGID_94_)" fill="none" stroke="#000000" stroke-width="2" stroke-linecap="round" stroke-miterlimit="3" d="
				M594.28,22.824c3.447,1.79,6.827,2.057,10.142,0.8c-2.667,2.438-12.141,13.969-28.423,34.593
				c1.447,0.286,3.342,0.429,5.685,0.429c4.704,0.019,9.274-0.667,13.711-2.057c14.244-4.438,24.624-15.035,31.137-31.793
				c1.676-4.571,5.476-7.189,11.397-7.856c2.972-0.324,5.771-0.2,8.398,0.372c-0.418-1.79-0.847-3.618-1.285-5.485
				c-0.876-3.713-1.39-5.713-1.543-5.999c-18.644-2.495-33.126-0.915-43.448,4.742c-3.237,1.771-5.856,3.837-7.855,6.199
				c-1.01,1.181-1.695,2.19-2.057,3.028l1.114,1.028C592.205,21.605,593.214,22.272,594.28,22.824z"/>
		</g>
	</g>
</g>
<g>
	<g>
		<defs>
			<rect id="SVGID_95_" x="649" width="81.035" height="62.525"/>
		</defs>
		<clipPath id="SVGID_96_">
			<use xlink:href="#SVGID_95_"  overflow="visible"/>
		</clipPath>
		<g clip-path="url(#SVGID_96_)">
			<defs>
				<rect id="SVGID_97_" x="649" width="81.035" height="62.525"/>
			</defs>
			<clipPath id="SVGID_98_">
				<use xlink:href="#SVGID_97_"  overflow="visible"/>
			</clipPath>
			<path clip-path="url(#SVGID_98_)" fill-rule="evenodd" clip-rule="evenodd" fill="#8B191C" d="M689.078,23.567
				c-4.799,0.895-9.227-0.028-13.283-2.771c-1.257-0.857-2.409-1.847-3.457-2.971l-1.171-1.428
				c4.552-1.619,8.398-3.171,11.541-4.656c0.495-0.229,1.952-1.009,4.37-2.342c2.189-1.2,3.59-1.924,4.199-2.171
				c5.027-2.075,10.036-3.39,15.025-3.942c6.057-0.686,11.731-0.181,17.025,1.514c0.438,1.676,1.134,4.028,2.086,7.056
				c0.762,2.476,1.371,4.39,1.828,5.742c-3.695-0.571-8.018,0.047-12.969,1.857c-2.248,0.838-4.457,3.466-6.628,7.884
				c-1.143,2.342-2.371,5.303-3.685,8.884c-5.295,12.436-14.255,19.882-26.881,22.338c-6.304,1.219-12.083,1.2-17.34-0.057
				c4.438-3.009,8.989-6.723,13.654-11.141C682.708,38.526,687.936,30.594,689.078,23.567"/>
		</g>
		<g clip-path="url(#SVGID_96_)">
			<defs>
				<rect id="SVGID_99_" x="649" width="81.035" height="62.525"/>
			</defs>
			<clipPath id="SVGID_100_">
				<use xlink:href="#SVGID_99_"  overflow="visible"/>
			</clipPath>
			<path clip-path="url(#SVGID_100_)" fill-rule="evenodd" clip-rule="evenodd" fill="#C61D23" d="M684.051,18.939
				c-2.229,1.047-4.724,2.132-7.484,3.256c-0.229-0.133-0.447-0.276-0.657-0.428c-1.257-0.857-2.409-1.848-3.456-2.971l-1.172-1.428
				c4.552-1.619,8.398-3.171,11.541-4.656c0.495-0.229,1.952-1.01,4.37-2.342c2.19-1.2,3.59-1.924,4.199-2.171
				c5.027-2.077,10.036-3.39,15.025-3.942c6.057-0.686,11.731-0.181,17.025,1.514c0.19,0.686,0.419,1.495,0.686,2.428
				c-3.428-0.286-6.97-0.22-10.626,0.2c-6.228,0.686-12.483,2.324-18.768,4.913c-0.743,0.305-2.485,1.21-5.229,2.714
				C686.497,17.682,684.679,18.654,684.051,18.939"/>
		</g>
		<g clip-path="url(#SVGID_96_)">
			<defs>
				<rect id="SVGID_101_" x="649" width="81.035" height="62.525"/>
			</defs>
			<clipPath id="SVGID_102_">
				<use xlink:href="#SVGID_101_"  overflow="visible"/>
			</clipPath>
			
				<path clip-path="url(#SVGID_102_)" fill="none" stroke="#000000" stroke-width="2" stroke-linecap="round" stroke-miterlimit="3" d="
				M682.708,11.741c-3.143,1.485-6.989,3.038-11.541,4.656l1.171,1.428c1.048,1.124,2.2,2.114,3.457,2.971
				c4.057,2.742,8.484,3.667,13.283,2.771c-1.143,7.027-6.37,14.958-15.683,23.795c-4.666,4.418-9.218,8.131-13.655,11.141
				c5.257,1.257,11.037,1.276,17.34,0.057c12.626-2.457,21.586-9.902,26.881-22.338c1.313-3.581,2.542-6.542,3.685-8.884
				c2.171-4.418,4.38-7.046,6.628-7.884c4.951-1.81,9.273-2.428,12.969-1.857c-0.457-1.353-1.067-3.266-1.828-5.742
				c-0.953-3.028-1.647-5.38-2.086-7.056c-5.294-1.695-10.969-2.2-17.025-1.514c-4.989,0.552-9.998,1.867-15.025,3.942
				c-0.609,0.248-2.01,0.971-4.199,2.171C684.66,10.731,683.203,11.512,682.708,11.741z"/>
		</g>
		<g clip-path="url(#SVGID_96_)">
			<defs>
				<rect id="SVGID_103_" x="649" width="81.035" height="62.525"/>
			</defs>
			<clipPath id="SVGID_104_">
				<use xlink:href="#SVGID_103_"  overflow="visible"/>
			</clipPath>
			<g clip-path="url(#SVGID_104_)">
				<defs>
					
						<rect id="SVGID_105_" x="718.583" y="3.882" transform="matrix(-0.9997 -0.0253 0.0253 -0.9997 1445.9772 40.157)" width="9.319" height="14.093"/>
				</defs>
				<clipPath id="SVGID_106_">
					<use xlink:href="#SVGID_105_"  overflow="visible"/>
				</clipPath>
				<path clip-path="url(#SVGID_106_)" fill="none" stroke="#000000" stroke-width="2.1424" stroke-miterlimit="10" d="
					M721.252,6.608c-0.948,1.195-1.557,2.361-1.826,3.497c-0.628,2.346,0.2,4.177,2.483,5.492c1.143,0.676,2.637,1.229,4.483,1.656
					c0.131,0.042,0.261,0.074,0.392,0.096l-4.216-12.251l-1.315,1.481L721.252,6.608z"/>
			</g>
		</g>
	</g>
</g>
<g>
	<g>
		<defs>
			<rect id="SVGID_107_" x="730" width="81.035" height="62.525"/>
		</defs>
		<clipPath id="SVGID_108_">
			<use xlink:href="#SVGID_107_"  overflow="visible"/>
		</clipPath>
		<g clip-path="url(#SVGID_108_)">
			<defs>
				<rect id="SVGID_109_" x="730" width="81.035" height="62.525"/>
			</defs>
			<clipPath id="SVGID_110_">
				<use xlink:href="#SVGID_109_"  overflow="visible"/>
			</clipPath>
			<path clip-path="url(#SVGID_110_)" fill-rule="evenodd" clip-rule="evenodd" fill="#8B191C" d="M769.393,9.027
				c1.999-1.295,4.113-2.409,6.342-3.342c2.724-1.181,5.589-2.038,8.598-2.571c3.638-0.61,7.304-0.695,10.998-0.257
				c3.047,0.418,6.027,1.143,8.941,2.171c0.324,0.952,0.666,1.904,1.028,2.856c0.552,1.504,1.038,3.038,1.457,4.599
				c0.323,1.2,0.618,2.381,0.886,3.542c0.075,0.362,0.047,0.705-0.086,1.028c-1.353-0.171-2.714-0.267-4.085-0.286
				c-3.771-0.19-7.228,0.714-10.37,2.714c-1.085,0.724-2.019,1.619-2.799,2.685c-0.99,1.39-1.743,2.904-2.257,4.542
				c-0.8,2.647-1.485,5.352-2.057,8.113c-0.247,1.2-0.515,2.399-0.8,3.6c-0.305,1.218-0.609,2.418-0.914,3.599
				c-0.172,0.724-0.353,1.466-0.543,2.228c-0.133,0.533-0.305,1.047-0.514,1.542c-0.343,0.896-0.753,1.81-1.229,2.742
				c-0.286,0.59-0.62,1.085-1,1.486c-1.124,1.143-2.343,2.238-3.656,3.285c-1.296,1.047-2.667,1.933-4.113,2.657
				c-1.01,0.457-2.019,0.914-3.028,1.371c-1.334,0.571-2.714,1.067-4.143,1.485c-1.485,0.381-2.989,0.629-4.513,0.743
				c-1.98,0.267-3.962,0.381-5.942,0.342c-2.876-0.038-5.723-0.314-8.541-0.828c-1.333-0.19-2.646-0.514-3.942-0.971
				c1.486-0.933,2.972-1.857,4.457-2.771c1.656-1.047,3.256-2.152,4.799-3.313c1.542-1.143,2.98-2.353,4.313-3.628
				c1.295-1.276,2.523-2.628,3.685-4.057c0.78-0.933,1.533-1.875,2.257-2.828c1.904-2.552,3.504-5.275,4.799-8.17
				c1.353-3.047,2.305-6.199,2.856-9.456c-0.666,0.171-1.342,0.2-2.027,0.086c-2.171,0-4.313-0.209-6.428-0.628
				c-2.095-0.438-4.132-1.066-6.113-1.885c0.934-1.162,1.876-2.314,2.828-3.457c1.504-1.771,3.161-3.361,4.971-4.771
				C765.374,11.722,767.336,10.322,769.393,9.027"/>
			<path clip-path="url(#SVGID_110_)" fill-rule="evenodd" clip-rule="evenodd" fill="#C61D23" d="M769.535,9.027
				c2-1.295,4.113-2.409,6.342-3.342c2.724-1.181,5.589-2.038,8.598-2.571c3.639-0.61,7.304-0.695,10.998-0.257
				c3.047,0.418,6.028,1.143,8.941,2.171c0.324,0.952,0.666,1.904,1.028,2.856c0.381,1.028,0.733,2.066,1.058,3.114
				c-2.648-0.857-5.333-1.476-8.056-1.857c-3.695-0.438-7.361-0.353-10.998,0.257c-3.01,0.533-5.876,1.39-8.599,2.571
				c-2.229,0.933-4.342,2.047-6.342,3.342c-2.057,1.295-4.018,2.695-5.885,4.199c-1.504,1.181-2.904,2.485-4.199,3.914
				c-0.152-0.019-0.304-0.048-0.457-0.086c-2.095-0.438-4.132-1.066-6.113-1.885c0.934-1.162,1.876-2.314,2.828-3.457
				c1.505-1.771,3.162-3.361,4.971-4.771C765.517,11.722,767.479,10.322,769.535,9.027"/>
		</g>
		<g clip-path="url(#SVGID_108_)">
			<defs>
				<rect id="SVGID_111_" x="730" width="81.035" height="62.525"/>
			</defs>
			<clipPath id="SVGID_112_">
				<use xlink:href="#SVGID_111_"  overflow="visible"/>
			</clipPath>
			
				<path clip-path="url(#SVGID_112_)" fill="none" stroke="#000000" stroke-width="2" stroke-linecap="round" stroke-miterlimit="3" d="
				M770.277,23.881c-0.552,3.257-1.504,6.409-2.856,9.456c-1.295,2.895-2.895,5.618-4.799,8.17
				c-0.724,0.952-1.476,1.895-2.257,2.828c-1.161,1.428-2.39,2.781-3.685,4.057c-1.333,1.275-2.771,2.485-4.313,3.628
				c-1.543,1.162-3.143,2.266-4.799,3.313c-1.486,0.914-2.972,1.838-4.457,2.771c1.295,0.457,2.609,0.781,3.942,0.971
				c2.818,0.514,5.666,0.79,8.541,0.828c1.981,0.039,3.961-0.076,5.942-0.342c1.523-0.114,3.027-0.362,4.513-0.743
				c1.429-0.418,2.81-0.914,4.143-1.485c1.01-0.457,2.019-0.914,3.027-1.371c1.447-0.724,2.818-1.609,4.114-2.657
				c1.313-1.047,2.532-2.142,3.656-3.285c0.381-0.4,0.714-0.896,1-1.486c0.476-0.933,0.885-1.847,1.228-2.742
				c0.21-0.495,0.382-1.009,0.515-1.542c0.19-0.762,0.371-1.504,0.543-2.228c0.305-1.181,0.609-2.381,0.914-3.599
				c0.285-1.2,0.552-2.4,0.8-3.6c0.571-2.761,1.257-5.466,2.057-8.113c0.514-1.638,1.267-3.152,2.257-4.542
				c0.781-1.066,1.714-1.961,2.799-2.685c3.143-2,6.6-2.904,10.37-2.714c1.371,0.019,2.732,0.114,4.085,0.286
				c0.019-0.045,0.037-0.093,0.057-0.143c0.085-0.28,0.095-0.575,0.028-0.885c-0.267-1.161-0.562-2.342-0.885-3.542
				c-0.419-1.562-0.905-3.095-1.457-4.599c-0.362-0.953-0.705-1.904-1.028-2.856c-0.075-0.027-0.152-0.056-0.229-0.086
				c-0.024-0.009-0.048-0.018-0.071-0.029c-2.818-0.966-5.699-1.652-8.642-2.056c-3.695-0.438-7.36-0.353-10.998,0.257
				c-3.009,0.533-5.875,1.39-8.599,2.571c-2.228,0.933-4.342,2.047-6.341,3.342c-2.057,1.295-4.019,2.695-5.885,4.199
				c-1.81,1.409-3.467,3-4.971,4.771c-0.952,1.143-1.895,2.295-2.828,3.457c1.98,0.819,4.019,1.447,6.113,1.885
				c2.114,0.419,4.256,0.628,6.428,0.628C768.936,24.081,769.611,24.052,770.277,23.881z"/>
		</g>
		<g clip-path="url(#SVGID_108_)">
			<defs>
				<rect id="SVGID_113_" x="730" width="81.035" height="62.525"/>
			</defs>
			<clipPath id="SVGID_114_">
				<use xlink:href="#SVGID_113_"  overflow="visible"/>
			</clipPath>
			<g clip-path="url(#SVGID_114_)">
				<defs>
					
						<rect id="SVGID_115_" x="799.583" y="3.882" transform="matrix(-0.9997 -0.0253 0.0253 -0.9997 1607.9512 42.2068)" width="9.319" height="14.093"/>
				</defs>
				<clipPath id="SVGID_116_">
					<use xlink:href="#SVGID_115_"  overflow="visible"/>
				</clipPath>
				<path clip-path="url(#SVGID_116_)" fill="none" stroke="#000000" stroke-width="2.1424" stroke-miterlimit="10" d="
					M802.252,6.608c-0.948,1.195-1.557,2.361-1.826,3.497c-0.628,2.346,0.2,4.177,2.483,5.492c1.143,0.676,2.637,1.229,4.483,1.656
					c0.131,0.042,0.261,0.074,0.392,0.096l-4.216-12.251l-1.315,1.481L802.252,6.608z"/>
			</g>
		</g>
	</g>
</g>
</svg>
