<?xml version="1.0" encoding="utf-8"?>
<!-- Generator: Adobe Illustrator 16.0.0, SVG Export Plug-In . SVG Version: 6.00 Build 0)  -->
<!DOCTYPE svg PUBLIC "-//W3C//DTD SVG 1.1//EN" "http://www.w3.org/Graphics/SVG/1.1/DTD/svg11.dtd">
<svg version="1.1" id="Layer_1" xmlns="http://www.w3.org/2000/svg" xmlns:xlink="http://www.w3.org/1999/xlink" x="0px" y="0px"
	 width="43px" height="43px" viewBox="0 0 72.8 74.1" style="enable-background:new 0 0 72.8 74.1;" xml:space="preserve">
<style type="text/css">
<![CDATA[
	.st0{fill-rule:evenodd;clip-rule:evenodd;fill:#ffffff;}
]]>
</style>
<path class="st0" d="M61.4,3.6c-16.3,0-32.5,0-48.8,0c-5.2,0-8.4,3.2-8.4,8.5c0,16.2,0,32.4,0,48.6c0,5.3,3.2,8.4,8.4,8.4
	c8.1,0,16.3,0,24.4,0c8.1,0,16.1,0,24.2,0c5.4,0,8.6-3.1,8.6-8.5c0-16.2,0-32.4,0-48.6C69.8,6.8,66.7,3.6,61.4,3.6z M54.3,37.2
	c-3.7,15-28.5,21.4-40,5.8c4.4,4.2,12,4.5,16.8-0.5c-2.8,0.4-4.9-2.4-1.4-3.9c-3.1,0.3-4.9-1.3-5.6-2.7c0.7-0.8,1.5-1.1,3.1-1.2
	c-3.4-0.8-4.7-2.5-5.1-4.5c1-0.2,2.1-0.4,2.8-0.3c-3-1.6-4-3.9-3.9-5.7c5.4,2,8.8,3.6,11.6,5.1c1,0.5,2.2,1.5,3.4,2.8
	c1.6-4.3,3.7-8.8,7.1-11c-0.1,0.5-0.3,1-0.7,1.3c1-0.9,2.3-1.5,3.5-1.7c-0.2,1-1.5,1.5-2.4,1.8c0.6-0.2,4-1.7,4.4-0.9
	c0.4,1-2.3,1.4-2.8,1.6c-0.4,0.1-0.7,0.3-1.1,0.4c4.3-0.4,8.4,3.1,9.6,7.5c0.1,0.3,0.2,0.7,0.3,1c1.6,0.6,4.4,0,5.3-0.6
	c-0.7,1.6-2.4,2.7-4.9,2.9c1.2,0.5,3.5,0.8,5.1,0.5C58.7,36.2,57.1,37.2,54.3,37.2z"/>
</svg>
