<?xml version="1.0" encoding="utf-8"?>
<!-- Generator: Adobe Illustrator 16.0.0, SVG Export Plug-In . SVG Version: 6.00 Build 0)  -->
<!DOCTYPE svg PUBLIC "-//W3C//DTD SVG 1.1//EN" "http://www.w3.org/Graphics/SVG/1.1/DTD/svg11.dtd">
<svg version="1.1" id="Layer_1" xmlns="http://www.w3.org/2000/svg" xmlns:xlink="http://www.w3.org/1999/xlink" x="0px" y="0px"
	 width="7.9px" height="7.7px" viewBox="0 0 7.9 7.7" style="enable-background:new 0 0 7.9 7.7;" xml:space="preserve">
<style type="text/css">
<![CDATA[
	.st0{fill:#6E6F71;}
]]>
</style>
<path class="st0" d="M6.1,3.9C6.2,4.6,6,5.4,5.5,6C4.6,6.9,3,7,2,6.1c-1-0.9-1-2.5-0.1-3.4C2.5,2,3.2,1.8,4,1.9l0.8-0.8
	C3.5,0.7,2.1,1,1.2,2C-0.1,3.3,0,5.5,1.4,6.8C2.7,8.1,4.9,8,6.2,6.6c0.9-1,1.1-2.4,0.7-3.6L6.1,3.9z"/>
<path class="st0" d="M7.7,0.2C7.4-0.1,7-0.1,6.8,0.2L6.5,0.5l0.9,0.9l0.3-0.3C7.9,0.9,7.9,0.4,7.7,0.2"/>
<polygon class="st0" points="2.8,5.1 4,4.8 7.1,1.7 6.2,0.8 3.1,3.9 "/>
</svg>
