<?xml version="1.0" encoding="utf-8"?>
<!-- Generator: Adobe Illustrator 16.0.0, SVG Export Plug-In . SVG Version: 6.00 Build 0)  -->
<!DOCTYPE svg PUBLIC "-//W3C//DTD SVG 1.1//EN" "http://www.w3.org/Graphics/SVG/1.1/DTD/svg11.dtd">
<svg version="1.1" id="Layer_1" xmlns="http://www.w3.org/2000/svg" xmlns:xlink="http://www.w3.org/1999/xlink" x="0px" y="0px"
	 width="8.6px" height="8.6px" viewBox="0 0 8.6 8.6" style="enable-background:new 0 0 8.6 8.6;" xml:space="preserve">
<style type="text/css">
<![CDATA[
	.st0{fill:#6E6F71;}
]]>
</style>
<path class="st0" d="M4.3,0C1.9,0,0,1.9,0,4.3c0,2.4,1.9,4.3,4.3,4.3s4.3-1.9,4.3-4.3C8.6,1.9,6.7,0,4.3,0 M4.3,7.8
	c-1.9,0-3.5-1.5-3.5-3.5s1.5-3.5,3.5-3.5s3.5,1.5,3.5,3.5S6.2,7.8,4.3,7.8"/>
<path class="st0" d="M6.3,4.3c0,1.1-0.9,2-2,2c-1.1,0-2-0.9-2-2c0-1.1,0.9-2,2-2C5.4,2.3,6.3,3.2,6.3,4.3"/>
</svg>
