<?xml version="1.0" encoding="utf-8"?>
<!-- Generator: Adobe Illustrator 16.0.0, SVG Export Plug-In . SVG Version: 6.00 Build 0)  -->
<!DOCTYPE svg PUBLIC "-//W3C//DTD SVG 1.1//EN" "http://www.w3.org/Graphics/SVG/1.1/DTD/svg11.dtd">
<svg version="1.1" id="Layer_1" xmlns="http://www.w3.org/2000/svg" xmlns:xlink="http://www.w3.org/1999/xlink" x="0px" y="0px"
	 width="8.6px" height="8.6px" viewBox="0 0 8.6 8.6" style="enable-background:new 0 0 8.6 8.6;" xml:space="preserve">
<style type="text/css">
<![CDATA[
	.st0{fill:#6E6F71;}
]]>
</style>
<path class="st0" d="M4.3,0C1.9,0,0,1.9,0,4.3c0,2.4,1.9,4.3,4.3,4.3c2.4,0,4.3-1.9,4.3-4.3C8.6,1.9,6.7,0,4.3,0 M4.3,7.8
	c-1.9,0-3.5-1.5-3.5-3.5c0-1.9,1.5-3.5,3.5-3.5c1.9,0,3.5,1.5,3.5,3.5C7.8,6.2,6.2,7.8,4.3,7.8"/>
<path class="st0" d="M6,5.4L4.9,4.3L6,3.3c0.2-0.2,0.2-0.4,0-0.6c-0.2-0.2-0.4-0.2-0.6,0L4.3,3.7L3.3,2.6c-0.2-0.2-0.4-0.2-0.6,0
	c-0.2,0.2-0.2,0.4,0,0.6l1.1,1.1L2.6,5.4C2.5,5.6,2.5,5.8,2.6,6s0.4,0.2,0.6,0l1.1-1.1L5.4,6C5.6,6.2,5.8,6.2,6,6S6.2,5.6,6,5.4"/>
</svg>
