<?xml version="1.0" encoding="utf-8"?>
<!-- Generator: Adobe Illustrator 16.0.0, SVG Export Plug-In . SVG Version: 6.00 Build 0)  -->
<!DOCTYPE svg PUBLIC "-//W3C//DTD SVG 1.1//EN" "http://www.w3.org/Graphics/SVG/1.1/DTD/svg11.dtd">
<svg version="1.1" id="Layer_1" xmlns="http://www.w3.org/2000/svg" xmlns:xlink="http://www.w3.org/1999/xlink" x="0px" y="0px"
	 width="252.8px" height="49.1px" viewBox="0 0 252.8 49.1" style="enable-background:new 0 0 252.8 49.1;" xml:space="preserve">
<style type="text/css">
<![CDATA[
	.st0{fill:#EFA521;}
	.st1{fill:#F6BA1E;}
	.st2{fill:#FDDB3A;}
	.st3{fill:#FDE577;}
	.st4{fill:#FFCF35;}
	.st5{fill:#FFFFFF;}
	.st6{fill:#D67627;}
]]>
</style>
<path class="st2" d="M39.5,17.7c0.7,1.9,0,2.9-2.1,2.9H26.7c-0.6-1.9-1.7-2.9-3.2-2.9c-2,0-3.1,1.4-3.4,4.2h16.9
	c2.6,0,3.7,1.5,3.3,4.5c-0.6,3.5-2.1,6.4-4.3,8.7c-3.1,3.1-7.2,4.7-12.4,4.7c-5.2,0-9.3-1.6-12.3-4.7c-1.7-1.6-2.9-3.7-3.7-6
	c-0.6-1.9,0.1-2.8,2.2-2.8h10.6c0.6,1.9,1.6,2.9,3.2,2.9c1.9,0,3.1-1.4,3.5-4.2H10c-2.7-0.1-3.8-1.6-3.2-4.5c0.6-3.5,2-6.3,4.3-8.6
	c3-3.1,7.1-4.7,12.3-4.7c5.1,0,9.3,1.6,12.4,4.7C37.5,13.3,38.7,15.3,39.5,17.7"/>
<path class="st4" d="M36.9,21.8H20c0.3-2.8,1.4-4.2,3.4-4.2c1.6,0,2.6,1,3.2,2.9h10.6c2.2,0,2.9-1,2.1-2.9c-0.8-2.3-2-4.3-3.6-6
	C32.7,8.6,28.6,7,23.5,7c-0.9,0-1.8,0.1-2.6,0.1c3.6,0.1,6.6,0.2,9.3,2.6c4.5,3.9-0.8,7.8-3.4,6.5c-2.5-1.2-8.7-1.7-8.7,5.4
	c0,0,0,1.1,2,1.1h9.7c0,0,5.2-0.5,5.2,2.4c0,2.7-3.3,15.2-19.9,12.8c2.4,1.2,5.1,1.8,8.3,1.8c5.1,0,9.3-1.6,12.4-4.7
	c2.3-2.3,3.7-5.2,4.3-8.7C40.6,23.3,39.5,21.8,36.9,21.8"/>
<path class="st4" d="M17.4,38.6L15.8,38c-5.1-2.2-7.2-7-7.2-8.8c0-1.8,1-2,1-2h8c2.4,0,0.6,3.4,6.1,3.4c5.5,0,5.1-6.3,5.1-6.3h-1.3
	H12.4c-3.7,0-3.2-6.8-0.8-11.3c1.4-2.8,4-4.3,5.8-5c-2.4,0.8-4.5,2-6.2,3.8c-2.3,2.3-3.8,5.2-4.3,8.6c-0.5,2.9,0.6,4.4,3.2,4.5H27
	c-0.4,2.8-1.6,4.2-3.5,4.2c-1.6,0-2.6-1-3.2-2.9H9.6c-2.1,0-2.9,0.9-2.2,2.8c0.8,2.4,2,4.4,3.7,6c1.9,2,4.2,3.3,7,4L17.4,38.6z"/>
<path class="st1" d="M36.9,21.8H20c0.3-2.8,1.4-4.2,3.4-4.2c1.6,0,2.6,1,3.2,2.9h10.6c2.2,0,2.9-1,2.1-2.9c-0.8-2.3-2-4.3-3.6-6
	C33.3,9.1,30,7.6,26,7.2c1.8,0.3,3.7,1,5.1,2.3c4.7,4.3,2.7,6.7,2.3,7.1c-0.6,0.6-2.9,3.2-7,1c-4-2.3-6.3-0.2-7.1,2.2
	c-0.8,2.4,0.2,2.6,1.1,2.6h14.3c0,0,4.2-0.5,2.5,4.2c-1.7,4.6-5.2,12.2-18.6,12.5c1.5,0.4,3.1,0.5,4.9,0.5c5.1,0,9.3-1.6,12.4-4.7
	c2.3-2.3,3.7-5.2,4.3-8.7C40.6,23.3,39.5,21.8,36.9,21.8"/>
<path class="st1" d="M8,28.7c0-2.2,1.9-1.9,1.9-1.9h7.3c3.7,0,2.5,3.2,6.5,3.2c4.1,0,4.1-5.5,4.1-5.5H11.6c-4,0-3.6-3.9-3.6-3.9
	c0-7.5,5.6-11.1,8.7-12.5c-2.2,0.8-4.1,2-5.6,3.6c-2.3,2.3-3.8,5.2-4.3,8.6c-0.5,2.9,0.6,4.4,3.2,4.5H27c-0.4,2.8-1.6,4.2-3.5,4.2
	c-1.6,0-2.6-1-3.2-2.9H9.6c-2.1,0-2.9,0.9-2.2,2.8c0.8,2.4,2,4.4,3.7,6c1.5,1.5,3.2,2.6,5.2,3.4C11.6,36.4,8,31.2,8,28.7"/>
<path class="st1" d="M17.9,38.9c0.1,0,0.2,0,0.2,0.1l-0.1,0C18,38.9,18,38.9,17.9,38.9"/>
<path class="st0" d="M36.9,21.8H20c0.3-2.8,1.4-4.2,3.4-4.2c1.6,0,2.6,1,3.2,2.9h10.6c2.2,0,2.9-1,2.1-2.9c-0.8-2.3-2-4.3-3.6-6
	C33.3,9.1,30,7.6,26,7.2c2.3,0.2,5.1,1.3,6.6,2.6c4.7,4.3,4.3,6.7,3.6,8.1c-1,2-5.7,2.4-8.4,1.4c-0.7-0.3-2.3-2.1-4.4-2.1
	c-1.9,0-3,1.1-3.4,2.5c-0.8,2.4-0.6,2.5,0.4,2.5h14.3c0,0,5.1-0.4,4,4.5c-2.6,12.4-15.2,13-15.2,13s0.1,0,0.2,0
	c5.1,0,9.1-1.6,12.2-4.7c2.3-2.3,3.7-5.2,4.3-8.7C40.6,23.3,39.5,21.8,36.9,21.8"/>
<path class="st6" d="M36.9,21.8H20c0.3-2.8,1.4-4.2,3.4-4.2c1.6,0,2.6,1,3.2,2.9h10.6c2.2,0,2.9-1,2.1-2.9c-0.8-2.3-2-4.3-3.6-6
	c-0.7-0.7-1.4-1.3-2.2-1.8c1.2,1.1,3.2,3.1,4.2,5.5c1.6,3.8-0.1,4.6-2.1,4.6h-8.1h-0.5c0,0-1-2.6-3.9-2.6s-3.5,3.7-3.5,4.2
	c0,0,0,0.2,0.3,0.2h16.2c0,0,2.4,0.3,3,1.9c0.6,1.7-0.3,7.3-4.6,11.6c-1.1,1.1-5.3,3.7-10,4c-4.7,0.3-7.2-0.5-9.2-1.4
	c1.6,0.7,5,2.1,10.8,1.4c5.5-0.7,8.4-3.4,9.5-4.5c2.3-2.3,3.7-5.2,4.3-8.7C40.6,23.3,39.5,21.8,36.9,21.8"/>
<path class="st6" d="M10,24.8H27c-0.4,2.8-1.6,4.2-3.5,4.2c-1.6,0-2.6-1-3.2-2.9H9.6c-2.1,0-2.9,0.9-2.2,2.8
	c0.6,1.7,1.3,3.2,2.4,4.5c-1.3-1.9-2.3-4-2.3-5.1c0-1.7,1.6-1.9,1.6-1.9h10.1c0.9,0,0.9,0.5,0.9,0.5c1.3,2.8,3.6,2.4,3.6,2.4
	c3.1,0,3.4-4.7,3.4-4.7H10.4c-3.4,0-3.3-3-3.3-3c0-3.9,1.7-7.1,3.1-9c-1.8,2.1-3,4.7-3.5,7.7C6.3,23.2,7.3,24.7,10,24.8"/>
<path class="st3" d="M30.2,11.1c0,0-3.5-3.4-10-2.5c-6.5,0.9-8.5,8-8.8,11.1c-0.3,3.1,0.5,4.2,2.1,4.2h15.8c0,0,0.5,8.2-5.3,8.2
	c-5.8,0-5.7-3.6-8.1-3.6c-2.3,0-5.7,0.7-4.6,3.8c1.1,3.1,9.6,7.2,15.8,3.1c6.2-4.1,8.5-12.1,1.9-12.1H17.6c0,0-1.5-0.2-1.5-1.3
	c0.1-1.1,0.1-4.4,2.5-6.1c2.4-1.7,6.2-1.5,8.1-0.8C28.6,15.8,31,13.7,30.2,11.1"/>
<path class="st5" d="M19.6,8.5c0,0-5.5,0.6-7.8,8.2c-0.4,1.4-0.9,5.2,0.4,6c0,0-4-1.1-1.9-6.3C11.5,13,15.3,9.2,19.6,8.5"/>
<path class="st5" d="M29.9,22.5c0,0,6.8-1,8,1.4c1.2,2.4-1.6,7.2-1.6,7.2S41.1,22,29.9,22.5"/>
<path class="st2" d="M73.6,14.5c0,5.8-5.2,5.9-5.2,5.9h-4.1v19.3H50.4V20.3h-4.1c0,0-5.3-0.2-5.3-5.9c0-5.6,5.3-5.7,5.3-5.7h22
	C68.4,8.7,73.6,8.9,73.6,14.5"/>
<path class="st4" d="M68.4,8.7h-3.6c1.7,0.7,3.4,1.6,3.4,4.7C68.3,18,63,18,63,18h-1.8c-1.8,0-1.5,1.5-1.5,1.5v16.7v0.1
	c0,0.7-0.8,0.7-0.8,0.7h-5.8c0,0-0.7,0.1-0.7-0.7V20.1c0-1.9-2.2-1.8-2.2-1.8H46c-2.5,0-4.5-2.5-3.3-6.4c0.6-2.1,2.3-2.9,3.8-3.3
	h-0.2c0,0-5.3,0.1-5.3,5.7c0,5.7,5.3,5.9,5.3,5.9h4.1v19.3h13.8V20.3h4.1c0,0,5.2-0.1,5.2-5.9C73.6,8.9,68.4,8.7,68.4,8.7"/>
<path class="st1" d="M68.4,8.7h-2.6c1.5,0.4,4.3,1.4,4.3,4.5c0,4.6-4,5.8-6.4,5.8c-2.5,0-2.5,0.7-2.5,2.6v15.6
	c0,0.9-0.9,0.9-0.9,0.9h-8.9V20.9c0-1.2,0.1-1.7-2.2-1.7c-2.3,0-7.3,0.5-7.6-4.1c-0.2-3.9,1-4.5,2.1-5.6c-1.3,0.7-2.6,2.2-2.6,5
	c0,5.7,5.3,5.9,5.3,5.9h4.1v19.3h13.8V20.3h4.1c0,0,5.2-0.1,5.2-5.9C73.6,8.9,68.4,8.7,68.4,8.7"/>
<path class="st0" d="M68.4,8.7h-0.7c1.4,0.3,4.3,0.8,4.3,5.1c0,6-6.7,6-8.2,6c-1.4,0-1.1,0.7-1.1,5.3v12.3c0,0,0.1,1.5-1.3,1.5h-11
	v0.7h13.8V20.3h4.1c0,0,5.2-0.1,5.2-5.9C73.6,8.9,68.4,8.7,68.4,8.7"/>
<path class="st6" d="M69.7,9c1.7,0.6,3.3,2,3.3,5.3c0,5.8-6.2,5.5-6.2,5.5h-2.2c-1,0-0.9,1-0.9,1v17.4c0,1.1-0.7,1.1-0.7,1.1H51.6
	c-1,0-0.9-0.9-0.9-0.9V20.5c0-0.7-0.4-0.6-3.7-0.6c-3.3,0-4.7-2.2-4.7-2.2c-1.7-2.2-0.9-5.3-0.4-6.6c-0.5,0.8-0.8,1.9-0.8,3.3
	c0,5.7,5.3,5.9,5.3,5.9h4.1v19.3h13.8V20.3h4.1c0,0,5.2-0.1,5.2-5.9C73.6,10.7,71.2,9.4,69.7,9"/>
<path class="st3" d="M61.3,10.2c0,0-4.7,1.1-10.2,0c-5.5-1.1-7.7,0.8-7.6,3.6c0.1,2.8,3.9,4.1,7.6,3.7c3.7-0.4,3.8,6,3.3,9.3
	c-0.5,3.4-2.4,9,2,8.9c4.4-0.1,2.3-12.8,1.9-16.4c-0.4-3.6,1.7-3.2,3-2.8c1.3,0.4,5.5-0.3,5.5-3.8C66.8,9.2,61.9,9.8,61.3,10.2"/>
<path class="st5" d="M45.6,10.1c0,0-2.7,0.9-2.8,3.7c-0.2,2.9,1.9,4,5.4,3.9c0,0-4-0.7-4.2-3.8C43.8,10.7,45.6,10.1,45.6,10.1"/>
<path class="st2" d="M73.8,39.6V25.4c0-5.5,1.5-9.8,4.6-12.9c3.1-3.1,7.2-4.7,12.4-4.7c5.1,0,9.3,1.6,12.4,4.7
	c3.1,3,4.7,7.3,4.7,12.9v14.2h-13v-8.8h-8v8.8H73.8z M86.7,26.1h8V25c0-3.9-1.3-6-4-6.2c-2.7,0.2-4,2.3-4,6.2V26.1z"/>
<path class="st4" d="M103.2,12.5c-3.1-3.1-7.2-4.7-12.4-4.7c-1.4,0-2.8,0.1-4.1,0.4c2.3,0,6.8,0.4,10.4,3.9c5,4.8,5.2,8.9,5.2,12.1
	v12.5H98V22.2c0,0-0.2-6.6-7-6.6c-7.3,0-6.5,8.9-6.5,10.7v13.2v0.1h2.2v-8.8h8v8.8h13V25.4C107.8,19.9,106.3,15.6,103.2,12.5
	 M94.8,26.1h-8V25c0-3.9,1.3-6,4-6.2c2.7,0.2,4,2.3,4,6.2V26.1z"/>
<path class="st4" d="M75.7,21.4c0-3.6,0.9-6.3,2.1-8.3c-2.7,3-4.1,7.1-4.1,12.3v14.2h2V21.4z"/>
<path class="st1" d="M76.7,14.5c-2,2.8-2.9,6.5-2.9,10.9v14.2h0.9V24.3C74.7,20.5,75.4,17.3,76.7,14.5"/>
<path class="st1" d="M103.2,12.5c-3.1-3.1-7.2-4.7-12.4-4.7c-0.2,0-0.3,0-0.5,0c3.9,0.4,10.6,2.1,13.5,9.7c0,0,1,1.8,1,8.4v10.3
	c0,0,0.1,1.6-1.6,1.6h-4.8c0,0-1.8,0.1-1.8-1.6V23.5c0-1.4-0.6-6.5-5.6-6.5c-4.6,0-5.3,5.3-5.3,7v13.3v2.3h1.1v-8.8h8v8.8h13V25.4
	C107.8,19.9,106.3,15.6,103.2,12.5 M94.8,26.1h-8V25c0-3.9,1.3-6,4-6.2c2.7,0.2,4,2.3,4,6.2V26.1z"/>
<path class="st4" d="M75.7,37.4c0,0-0.1,0.9,0.5,0.9h8.2c0,0,0.6-0.1,0.6-0.9c0-0.8,0.6-0.6,0.6-0.6v2.8H75.5v-2.1L75.7,37.4z"/>
<path class="st0" d="M103.2,12.5c-1.6-1.6-3.6-2.8-5.8-3.6c3,1.6,8.9,5.8,8.9,14v13.5c0,0,0.2,2.3-2.1,2.3h-6.5c0,0-2.1,0.1-2.1-2.6
	v-5.8c0,0,0.3-1.4-1.3-1.4h-6.8c0,0-1.2-0.2-1.2,1.2v8.2c0,0,0,0.7-1.3,0.7h-11h-0.2v0.7h13v-8.8h8v8.8h13V25.4
	C107.8,19.9,106.3,15.6,103.2,12.5"/>
<path class="st6" d="M75.3,17c-1.1,2.4-1.6,5.2-1.6,8.4v14.2h0.5V24.5C74.2,21.7,74.6,19.2,75.3,17"/>
<path class="st0" d="M91,18.5c-3,0.2-4.6,2.6-4.6,7.1v1.3h9.1v-1.3C95.6,21.2,94,18.8,91,18.5 M94.8,26.1h-8V25c0-3.9,1.3-6,4-6.2
	c2.7,0.2,4,2.3,4,6.2V26.1z"/>
<path class="st6" d="M103.2,12.5c-0.1-0.1-0.3-0.2-0.4-0.4c2.2,2.1,4.3,5.2,4.3,9v15.2c0,0,0.3,2.9-1.8,2.9H97c0,0-1.9,0.2-1.9-1.2
	v-6.6c0,0,0.2-1.2-1.2-1.2h-6.7c0,0-0.5,0-0.5,0.6h8v8.8h13V25.4C107.8,19.9,106.3,15.6,103.2,12.5"/>
<path class="st6" d="M90.9,18.7c-0.9,0.1-1.6,0.4-2.2,0.8C89.2,19.1,89.9,18.8,90.9,18.7c2.6,0.3,3.9,2.4,3.9,6.3v1.1h-8V25
	c0-0.2,0-0.5,0-0.7c0,0.3,0,0.6,0,0.9v1.2H95v-1.2C95,21.1,93.6,18.9,90.9,18.7"/>
<path class="st3" d="M77.3,21.7c0,0,0.8,4.3,0.2,7.3c-0.6,3-2.9,8.7,2.9,8.9c5.8,0.2,2.9-8.5,2.9-10.1c-0.1-1.7-0.5-13.8,6.2-13.9
	s9.6,2.8,9.6,7.2c0.1,4.4-2.1,14.8,0.9,15.1c3,0.3,1.5-12.6,1-14.7c-0.6-2.1-1.9-12.4-12-11.2C78.9,11.5,77.3,17.4,77.3,21.7"/>
<path class="st5" d="M87.7,9.7c0,0-11.2,1-11.5,12C76.2,21.7,80.7,11,87.7,9.7"/>
<rect x="74" y="39.3" class="st6" width="12.8" height="0.3"/>
<path class="st2" d="M142.6,17.7c0.7,1.9,0,2.9-2.1,2.9h-10.6c-0.6-1.9-1.7-2.9-3.2-2.9c-2,0-3.1,1.4-3.4,4.2H140
	c2.6,0,3.7,1.5,3.3,4.5c-0.6,3.5-2.1,6.4-4.3,8.7c-3.1,3.1-7.2,4.7-12.4,4.7c-5.2,0-9.3-1.6-12.3-4.7c-1.7-1.6-2.9-3.7-3.7-6
	c-0.6-1.9,0.1-2.8,2.2-2.8h10.6c0.6,1.9,1.6,2.9,3.2,2.9c1.9,0,3.1-1.4,3.5-4.2h-16.9c-2.7-0.1-3.8-1.6-3.2-4.5
	c0.6-3.5,2-6.3,4.3-8.6c3-3.1,7.1-4.7,12.3-4.7c5.1,0,9.3,1.6,12.4,4.7C140.6,13.3,141.8,15.3,142.6,17.7"/>
<path class="st4" d="M140,21.8h-16.9c0.3-2.8,1.4-4.2,3.4-4.2c1.6,0,2.6,1,3.2,2.9h10.6c2.2,0,2.9-1,2.1-2.9c-0.8-2.3-2-4.3-3.6-6
	c-3.1-3.1-7.2-4.7-12.4-4.7c-0.9,0-1.8,0.1-2.6,0.1c3.6,0.1,6.6,0.2,9.3,2.6c4.5,3.9-0.8,7.8-3.4,6.5c-2.5-1.2-8.7-1.7-8.7,5.4
	c0,0,0,1.1,2,1.1h9.7c0,0,5.2-0.5,5.2,2.4c0,2.7-3.3,15.2-19.9,12.8c2.4,1.2,5.1,1.8,8.3,1.8c5.1,0,9.3-1.6,12.4-4.7
	c2.3-2.3,3.7-5.2,4.3-8.7C143.8,23.3,142.7,21.8,140,21.8"/>
<path class="st4" d="M120.5,38.6l-1.6-0.7c-5.1-2.2-7.2-7-7.2-8.8c0-1.8,1-2,1-2h8c2.4,0,0.6,3.4,6.1,3.4c5.5,0,5.1-6.3,5.1-6.3
	h-1.3h-15.2c-3.7,0-3.2-6.8-0.8-11.3c1.4-2.8,4-4.3,5.8-5c-2.4,0.8-4.5,2-6.2,3.8c-2.3,2.3-3.8,5.2-4.3,8.6
	c-0.5,2.9,0.6,4.4,3.2,4.5h16.9c-0.4,2.8-1.6,4.2-3.5,4.2c-1.6,0-2.6-1-3.2-2.9h-10.6c-2.1,0-2.9,0.9-2.2,2.8c0.8,2.4,2,4.4,3.7,6
	c1.9,2,4.2,3.3,7,4L120.5,38.6z"/>
<path class="st1" d="M140,21.8h-16.9c0.3-2.8,1.4-4.2,3.4-4.2c1.6,0,2.6,1,3.2,2.9h10.6c2.2,0,2.9-1,2.1-2.9c-0.8-2.3-2-4.3-3.6-6
	c-2.6-2.6-5.9-4.1-9.9-4.5c1.8,0.3,3.7,1,5.1,2.3c4.7,4.3,2.7,6.7,2.3,7.1c-0.6,0.6-2.9,3.2-7,1c-4.1-2.3-6.3-0.2-7.1,2.2
	c-0.8,2.4,0.2,2.6,1.1,2.6h14.3c0,0,4.2-0.5,2.5,4.2c-1.7,4.6-5.2,12.2-18.6,12.5c1.5,0.4,3.1,0.5,4.9,0.5c5.1,0,9.3-1.6,12.4-4.7
	c2.3-2.3,3.7-5.2,4.3-8.7C143.8,23.3,142.7,21.8,140,21.8"/>
<path class="st1" d="M111.1,28.7c0-2.2,1.9-1.9,1.9-1.9h7.3c3.7,0,2.5,3.2,6.5,3.2c4.1,0,4.1-5.5,4.1-5.5h-16.3
	c-4,0-3.6-3.9-3.6-3.9c0-7.5,5.6-11.1,8.7-12.5c-2.2,0.8-4.1,2-5.6,3.6c-2.3,2.3-3.8,5.2-4.3,8.6c-0.5,2.9,0.6,4.4,3.2,4.5h16.9
	c-0.4,2.8-1.6,4.2-3.5,4.2c-1.6,0-2.6-1-3.2-2.9h-10.6c-2.1,0-2.9,0.9-2.2,2.8c0.8,2.4,2,4.4,3.7,6c1.5,1.5,3.2,2.6,5.2,3.4
	C114.7,36.4,111.1,31.2,111.1,28.7"/>
<path class="st1" d="M121,38.9c0.1,0,0.2,0,0.2,0.1l-0.1,0C121.2,38.9,121.1,38.9,121,38.9"/>
<path class="st0" d="M140,21.8h-16.9c0.3-2.8,1.4-4.2,3.4-4.2c1.6,0,2.6,1,3.2,2.9h10.6c2.2,0,2.9-1,2.1-2.9c-0.8-2.3-2-4.3-3.6-6
	c-2.6-2.6-5.9-4.1-9.9-4.5c2.3,0.2,5.1,1.3,6.6,2.6c4.7,4.3,4.3,6.7,3.6,8.1c-1,2-5.7,2.4-8.4,1.4c-0.7-0.3-2.3-2.1-4.4-2.1
	c-1.9,0-3,1.1-3.4,2.5c-0.8,2.4-0.6,2.5,0.4,2.5h14.3c0,0,5.1-0.4,4,4.5c-2.6,12.4-15.2,13-15.2,13s0.1,0,0.2,0
	c5.1,0,9.1-1.6,12.2-4.7c2.3-2.3,3.7-5.2,4.3-8.7C143.8,23.3,142.7,21.8,140,21.8"/>
<path class="st6" d="M140,21.8h-16.9c0.3-2.8,1.4-4.2,3.4-4.2c1.6,0,2.6,1,3.2,2.9h10.6c2.2,0,2.9-1,2.1-2.9c-0.8-2.3-2-4.3-3.6-6
	c-0.7-0.7-1.4-1.3-2.2-1.8c1.2,1.1,3.2,3.1,4.2,5.5c1.6,3.8-0.1,4.6-2.1,4.6h-8.1h-0.5c0,0-1-2.6-3.9-2.6c-2.8,0-3.5,3.7-3.5,4.2
	c0,0,0,0.2,0.3,0.2h16.2c0,0,2.4,0.3,3,1.9c0.6,1.7-0.3,7.3-4.6,11.6c-1.1,1.1-5.3,3.7-10,4c-4.7,0.3-7.2-0.5-9.2-1.4
	c1.6,0.7,5,2.1,10.8,1.4c5.5-0.7,8.4-3.4,9.5-4.5c2.3-2.3,3.7-5.2,4.3-8.7C143.8,23.3,142.7,21.8,140,21.8"/>
<path class="st6" d="M113.2,24.8h16.9c-0.4,2.8-1.6,4.2-3.5,4.2c-1.6,0-2.6-1-3.2-2.9h-10.6c-2.1,0-2.9,0.9-2.2,2.8
	c0.6,1.7,1.3,3.2,2.4,4.5c-1.3-1.9-2.3-4-2.3-5.1c0-1.7,1.6-1.9,1.6-1.9h10.1c0.9,0,0.9,0.5,0.9,0.5c1.3,2.8,3.6,2.4,3.6,2.4
	c3.1,0,3.4-4.7,3.4-4.7h-16.7c-3.4,0-3.3-3-3.3-3c0-3.9,1.7-7.1,3.1-9c-1.8,2.1-3,4.7-3.5,7.7C109.4,23.2,110.5,24.7,113.2,24.8"/>
<path class="st3" d="M133.3,11.1c0,0-3.5-3.4-10-2.5c-6.5,0.9-8.5,8-8.8,11.1c-0.3,3.1,0.5,4.2,2.1,4.2h15.8c0,0,0.5,8.2-5.3,8.2
	s-5.7-3.6-8.1-3.6c-2.3,0-5.7,0.7-4.6,3.8c1.1,3.1,9.6,7.2,15.8,3.1c6.2-4.1,8.5-12.1,1.9-12.1h-11.5c0,0-1.5-0.2-1.5-1.3
	c0.1-1.1,0.1-4.4,2.5-6.1c2.4-1.7,6.2-1.5,8.1-0.8C131.7,15.8,134.1,13.7,133.3,11.1"/>
<path class="st5" d="M122.8,8.5c0,0-5.5,0.6-7.8,8.2c-0.4,1.4-0.9,5.2,0.4,6c0,0-4-1.1-1.9-6.3C114.6,13,118.5,9.2,122.8,8.5"/>
<path class="st5" d="M133.1,22.5c0,0,6.8-1,8,1.4c1.2,2.4-1.6,7.2-1.6,7.2S144.2,22,133.1,22.5"/>
<path class="st2" d="M159.2,28.1v11.5h-13.8V14.6c0-4.3,2.3-6.5,6.9-6.5c4.6,0,6.9,2.2,6.9,6.5v8.9h4v-8.9c0-4.3,2.3-6.5,6.9-6.5
	c4.6,0,6.9,2.2,6.9,6.5v25.1h-13.8V28.1H159.2z"/>
<path class="st4" d="M170.1,8.1c-0.9,0-1.6,0.1-2.3,0.2c1.3,0.2,3.5,1.1,3.5,4.7v21.9c0,0,0.2,1.4-0.9,1.4h-4v-8.4v-1.1
	c0,0,0.2-1.5-0.8-1.5h-6.8c0,0-1.6-0.2-1.6,1.3v9.1v1c0,0,0.2,1.1-0.9,1.1h-8.4c0,0-0.8-0.1-0.8-0.7V13.4c0,0-0.4-3.8,3.1-5.1
	c-3.2,0.6-4.9,2.7-4.9,6.3v25.1h13.8V28.1h4v11.5H177V14.6C177,10.2,174.7,8.1,170.1,8.1"/>
<path class="st1" d="M170.1,8.1c-0.6,0-1.2,0-1.8,0.1c2,0.2,5.2,1,5.2,4.8v21.7v0.7c0,0,0.2,1.9-1.6,1.9h-4.7c0,0-2.2,0.2-2.2-1.5
	v-8c0,0,0.3-1.4-1.2-1.4h-4.7c0,0-1.3,0.1-1.3,1.3v9.1c0,0,0.1,1.7-1.3,1.7h-8.7c0,0-1.8,0.1-1.8-1.4V14c0,0-0.1-3,1.5-4.8
	c-1.5,1.1-2.2,2.8-2.2,5.3v25.1h13.8V28.1h4v11.5H177V14.6C177,10.2,174.7,8.1,170.1,8.1"/>
<path class="st0" d="M170.7,8.1c1.8,0.4,4.4,1.6,4.4,5.1v22.7c0,0,0.4,2.3-1.3,2.3h-8.1c0,0-1.6,0.2-1.6-1.9V28c0,0,0.1-0.8-0.7-0.8
	h-4.1c0,0-0.7-0.2-0.7,0.7v10.2c0,0,0.1,0.9-0.9,0.9h-12.2l-0.1-0.1v0.7h13.8V28.1h4v11.5H177v-25C177,10.4,174.9,8.3,170.7,8.1"/>
<path class="st6" d="M145.6,15.7c0-2.1,0.2-3.7,0.6-4.9c-0.6,1-0.9,2.3-0.9,3.8v25.1h0.3V15.7z"/>
<polygon class="st6" points="157.7,39.2 145.5,39.2 145.4,39.2 145.3,39.2 145.3,39.6 159.2,39.6 159.2,39.2 "/>
<path class="st6" d="M173.9,8.8c0.9,0.5,2.3,0.7,2.3,7.3v21.5c0,0,0.2,1.3-1.3,1.3h-10.1c0,0-1,0-1-0.7V28.1c0,0,0-0.4-0.6-0.4h-3.6
	c0,0-0.4,0-0.4,0.5h4v11.5H177V14.6C177,11.7,176,9.7,173.9,8.8"/>
<path class="st4" d="M158,12.3v10.1v0.8c0,0-0.1,1,1,1h5.6c0,0,1,0.1,1-1.3v-9c0,0,0.1-5.1,2.2-5.7c-3.7,0.8-4.6,3.6-4.6,6.3v8.9h-4
	v-8.9c0-3-1.1-4.9-3.3-5.9C156.7,9.3,158,10.4,158,12.3"/>
<path class="st1" d="M159.2,23.5v-0.2v-8.7c0-1.6-0.3-2.9-0.9-3.9c0.1,0.4,0.2,0.9,0.2,1.4v9.9v0.8c0,0-0.3,1,0.8,1h4.5
	c0,0,1,0.1,1-1.3v-9c0,0,0-2.6,0.8-4.2c-1.8,1.2-2.3,3.3-2.3,5.3v8.7v0.2H159.2z"/>
<path class="st6" d="M163.2,14.6v8.7v0.2h-4v0.3c0,0,0,0,0,0h4.5v-1v-8.6c0-2,0.6-3.5,1.3-4.5C163.6,10.9,163.2,12.7,163.2,14.6"/>
<path class="st3" d="M152.7,10.3c-2.2-0.1-5.8,1.8-4.5,8.5c1.4,6.7,0.8,7.3,0.3,10.7c-0.5,3.4-0.6,7.7,3.6,7.6
	c4.2-0.1,4.9-4.1,3.8-9.2C154.8,22.7,161.5,10.7,152.7,10.3"/>
<path class="st3" d="M169.9,22.2c0,0-0.5-3.1,0.1-6c0.5-2.9,0-4.7-1.5-4.9c-1.5-0.2-2.1,4.6-1.5,7.3s1,5.5,0.6,9.1
	c-0.4,3.6-1.1,7,1.2,7C171.1,34.6,170.8,26.4,169.9,22.2"/>
<path class="st5" d="M151.5,9.5c0,0-4.4-0.4-4.4,4.8v10.1C147.1,24.3,146.6,10.8,151.5,9.5"/>
<path class="st5" d="M169.1,9.5c0,0,4.8-0.2,5.5,4.9c0.9,6.6,1,8.3,1,8.3s0.1-7.3,0.1-8.8C175.5,12.5,174.8,8.9,169.1,9.5"/>
<path class="st2" d="M195.6,7c5.1,0,9.3,1.6,12.4,4.7c2.3,2.3,3.7,5.2,4.3,8.7c0.5,2.9-0.6,4.4-3.3,4.5h-16.9
	c0.3,2.8,1.5,4.2,3.4,4.2c1.6,0,2.7-1,3.2-2.9h10.6c2.2,0,2.9,1,2.1,2.9c-0.8,2.3-2,4.3-3.6,6c-3.1,3.1-7.2,4.7-12.4,4.7
	c-5.1,0-9.3-1.6-12.3-4.7c-2.3-2.3-3.7-5.2-4.3-8.6c-0.4-2.9-0.2-5.7,0.6-8.6c0.8-2.4,2-4.4,3.7-6C186.3,8.6,190.4,7,195.6,7
	 M192.1,20.2h6.9c-0.4-2.8-1.6-4.2-3.5-4.2c-1.5,0-2.6,1-3.2,2.9L192.1,20.2z"/>
<path class="st4" d="M209.5,26.1h-10.6c-0.6,1.9-1.6,2.9-3.2,2.9c-1.9,0-3.1-1.4-3.4-4.2H209c2.7-0.1,3.8-1.6,3.3-4.5
	c-0.6-3.5-2.1-6.4-4.3-8.7c-3.1-3.1-7.2-4.7-12.4-4.7c-0.8,0-1.6,0-2.4,0.1c2.7,0.4,9,1.6,10.6,5.4c2.1,5-2.9,4.7-4.4,3.2
	c-1.5-1.5-9.2-3-9.5,4c-0.3,7,0.7,11.7,5.1,11.7c3.6,0,4.3-2.3,5.8-2.3c1.5,0,3.5,0,3.5,0s1.2,0.2,0.2,1.9c-0.7,1.2-3.7,5-8,6.2
	c-4.7,1.4-11.9,0.8-15.9-6c0.7,1.3,1.6,2.4,2.6,3.5c3.1,3.1,7.2,4.7,12.3,4.7c5.1,0,9.3-1.6,12.4-4.7c1.6-1.6,2.9-3.6,3.6-6
	C212.3,27.1,211.6,26.1,209.5,26.1 M192.4,18.9c0.6-1.9,1.7-2.9,3.2-2.9c1.9,0,3.1,1.4,3.5,4.2h-6.9L192.4,18.9z"/>
<path class="st4" d="M181.2,17c1.9-4.7,4.6-7.3,7.1-8.7c-1.9,0.8-3.6,1.9-5.1,3.4c-1.7,1.6-2.9,3.6-3.7,6c-0.8,2.9-1,5.7-0.6,8.6
	c0,0.3,0.1,0.5,0.2,0.8C179.1,24.4,179.6,21.1,181.2,17"/>
<path class="st1" d="M179.9,19c0.9-3.1,2.4-5.7,4.3-7.7c0.6-0.7,1.3-1.4,2-1.9c-1.1,0.7-2.1,1.4-3,2.4c-1.7,1.6-2.9,3.6-3.7,6
	c-0.8,2.9-1,5.7-0.6,8.6c0,0.1,0,0.1,0,0.2C178.9,24,179.3,21.5,179.9,19"/>
<path class="st1" d="M188.1,8.5c0.1,0,0.2-0.1,0.2-0.1C188.3,8.3,188.2,8.4,188.1,8.5C188.2,8.4,188.1,8.4,188.1,8.5"/>
<path class="st6" d="M179.4,19.2c0.9-3.1,2.4-5.7,4.3-7.7c0.6-0.7,1.8-1.6,2.5-2.1c-1.1,0.7-2.1,1.4-3,2.4c-1.7,1.6-2.9,3.6-3.7,6
	c-0.8,2.9-1,5.7-0.6,8.6c0,0.1,0,0.1,0,0.2C178.9,24,178.8,21.7,179.4,19.2"/>
<path class="st1" d="M188.1,8.5c0.1,0,0.2-0.1,0.2-0.1C188.3,8.3,188.2,8.4,188.1,8.5C188.2,8.4,188.1,8.4,188.1,8.5"/>
<path class="st1" d="M209.5,26.1h-10.6c-0.6,1.9-1.6,2.9-3.2,2.9c-1.9,0-3.1-1.4-3.4-4.2H209c2.7-0.1,3.8-1.6,3.3-4.5
	c-0.6-3.5-2.1-6.4-4.3-8.7c-3.1-3.1-7.2-4.7-12.4-4.7c-0.2,0-0.5,0-0.7,0c2.6,0.3,9.1,1.6,11.7,6.2c3.3,5.8-2.8,6.8-5.1,5.6
	c-2.3-1.3-2.6-3.5-6.2-3.5s-4.5,4.2-4.5,6s-0.7,9.4,4.7,9.4c0,0,2.3-0.1,3.6-1.3c0,0,1.1-1.1,1.8-1.1h5c0,0,2.1-0.3,1.5,1.3
	c-0.6,1.6-9.1,15.5-23.7,5.7c3,2.8,7,4.3,11.9,4.3c5.1,0,9.3-1.6,12.4-4.7c1.6-1.6,2.9-3.6,3.6-6C212.3,27.1,211.6,26.1,209.5,26.1
	 M192.4,18.9c0.6-1.9,1.7-2.9,3.2-2.9c1.9,0,3.1,1.4,3.5,4.2h-6.9L192.4,18.9z"/>
<path class="st0" d="M195.9,15.7c-1.8,0-3.1,1.2-3.8,3.5l-0.3,1.5c0,0-0.1,0.5,0.6,0.5h7.1c0.6,0,0.6-0.5,0.6-0.5
	C199.6,17.4,198.2,15.7,195.9,15.7 M192.4,18.9c0.6-1.9,1.7-2.9,3.2-2.9c1.9,0,3.1,1.4,3.5,4.2h-6.9L192.4,18.9z"/>
<path class="st6" d="M197.2,16.4c1,0.6,1.6,1.9,1.9,3.8h-6.9l-0.1,0.5h7.5C199.2,18.4,198.4,17,197.2,16.4"/>
<path class="st0" d="M209.5,26.1h-10.6c-0.6,1.9-1.6,2.9-3.2,2.9c-1.9,0-3.1-1.4-3.4-4.2H209c2.7-0.1,3.8-1.6,3.3-4.5
	c-0.6-3.5-2.1-6.4-4.3-8.7c-2.1-2.1-4.6-3.4-7.6-4.1c2.4,0.9,7.6,3.6,9.1,10.4c1.1,5.2-7.3,5-7.3,5h-10c0,0-0.8,0-0.8,1.1
	c0,1,0.1,5.2,3.1,6c0,0,0,0,0.1,0c0.1,0,0.2,0,0.3,0.1c0.1,0,0.1,0,0.2,0c0.1,0,0.1,0,0.2,0c0.1,0,0.3,0,0.4,0c0.3,0,0.5,0,0.8,0
	c0.6-0.1,1.4-0.3,2.1-1.1c0,0,0.3-0.4,0.8-0.8c0.3-0.4,0.7-0.8,1.4-0.8h7c0,0,2.5-0.2,1.1,2.5c-1.4,2.6-9.1,13.4-22.5,7.2
	c2.6,1.5,5.7,2.3,9.3,2.3c5.1,0,9.3-1.6,12.4-4.7c1.6-1.6,2.9-3.6,3.6-6C212.3,27.1,211.6,26.1,209.5,26.1"/>
<path class="st6" d="M209.5,26.1h-10.6c-0.6,1.9-1.6,2.9-3.2,2.9c-1.9,0-3.1-1.4-3.4-4.2H209c2.7-0.1,3.8-1.6,3.3-4.5
	c-0.6-3.5-2.1-6.4-4.3-8.7c-0.6-0.6-1.3-1.2-2-1.7c1.4,1.3,4,4.1,5.1,8.2c1.5,5.8-1.4,6.2-4.2,6.2h-14.6c0,0-0.5,0.1-0.3,0.9
	c0.2,0.8,0.8,4,3.4,4c2.6,0,3.2-1.6,3.2-1.6s0.3-0.9,0.9-0.9h9.3c0,0,2.9-0.2,2.1,1.9c-0.7,2-5.8,14.4-22.1,9.8
	c2,0.7,4.2,1.1,6.7,1.1c5.1,0,9.3-1.6,12.4-4.7c1.6-1.6,2.9-3.6,3.6-6C212.3,27.1,211.6,26.1,209.5,26.1"/>
<path class="st3" d="M193.1,13.4c0,0,1.7-0.3,2.6-0.1c1.1,0.2,3.1,1.4,4.1-0.9s-7.3-5.9-13.8-0.8c-7.8,6.1-5.5,16.8-3.3,20.1
	c2.2,3.3,9.2,7.2,14.5,4.5c5.3-2.7,1.9-4.8-1.8-3.3c-3.5,1.5-7.9-5-7.5-11C188.2,16.6,189.9,14.2,193.1,13.4"/>
<path class="st5" d="M191.1,9.1c0,0-10.5,1.8-10.4,15.5C180.7,24.6,183.2,12.7,191.1,9.1"/>
<path class="st5" d="M207.2,14.7c0,0,3,8-1.8,8.2c0,0,5,0.4,4.2-3.7C209.1,16.8,207.2,14.7,207.2,14.7"/>
<path class="st2" d="M246.3,13.6c-0.1,4.2-2.5,6.2-7.1,6c-2.2,0-4.6-0.4-7.1-1.2c-2.6-0.8-3.9,0.6-4,4.3v17h-13.8V14.4
	c0-4.4,2.3-6.6,6.9-6.6c3.5,0,5.6,1.2,6.4,3.6c3.9-2.9,7.5-4.4,10.8-4.4C243.6,7,246.2,9.2,246.3,13.6"/>
<path class="st4" d="M215.9,15.4c0-3.8,1.1-5.9,2.3-7.1c-2.6,0.8-3.9,2.9-3.9,6.1v25.2h1.6V15.4z"/>
<path class="st1" d="M216.1,9.5c-1.2,1.1-1.7,2.7-1.7,4.9v25.2h0.9V13.3C215.3,11.8,215.5,10.5,216.1,9.5"/>
<path class="st4" d="M238.5,7c-3.4,0-7,1.5-10.8,4.4c-0.8-2.3-2.8-3.5-6.1-3.6c1.4,0.4,4.2,1.6,5.2,5.7c0,0,3.4-2.7,7.4-3.2
	s6,1,6.2,2.7c0.2,1.7-3.1,5.6-9.2,2.7c-6.6-3.1-7.8,2.5-7.8,4.2v19.2v0.4h4.7v-17c0-3.7,1.4-5.1,4-4.3c2.5,0.8,4.9,1.2,7.1,1.2
	c4.7,0.2,7.1-1.8,7.1-6C246.2,9.2,243.6,7,238.5,7"/>
<rect x="215.7" y="37.3" class="st4" width="11.2" height="2.3"/>
<path class="st1" d="M238.5,7c-3.4,0-7,1.5-10.8,4.4c-0.7-2-2.4-3.2-5.1-3.5c1.5,0.4,3.6,1.5,4.6,4.4c0,0,4.8-3,8.5-3.3
	c3.7-0.3,6.5,0.8,6.6,4.2c0.1,3.4-3.9,5.5-7.3,4.6c-3.4-0.9-6.7-2.9-8.9-0.7c-1.1,1.1-0.8,4.6-0.8,4.6v15.8c0,0,0.1,0.7-0.9,0.7
	h-9.3v1.4h10.2h1.6h1.2v-17c0-3.7,1.4-5.1,4-4.3c2.5,0.8,4.9,1.2,7.1,1.2c4.7,0.2,7.1-1.8,7.1-6C246.2,9.2,243.6,7,238.5,7"/>
<path class="st6" d="M227.3,11.8c0,0,0.2-0.2,0.5-0.5c0,0-0.1,0.1-0.1,0.1c-0.5-1.6-1.7-2.6-3.4-3.2C225.2,8.7,226.5,9.7,227.3,11.8
	"/>
<path class="st0" d="M238.5,7c-1.9,0-3.9,0.5-6,1.4c2-0.6,7.1-1.9,10.2,0.8c4,3.4,0.3,7.4,0.3,7.4s-3,3.4-9.7,1.1
	c-6.7-2.2-6.6,1.3-6.6,3.4v15.8c0,0,0.2,1.8-1,1.8h-11v0.8h10.6h1.6h1.2v-17c0-3.7,1.4-5.1,4-4.3c2.5,0.8,4.9,1.2,7.1,1.2
	c4.7,0.2,7.1-1.8,7.1-6C246.2,9.2,243.6,7,238.5,7"/>
<path class="st6" d="M214.9,11.3c-0.4,0.9-0.5,1.9-0.5,3.1v25.2h0.5v-27C214.8,12.2,214.8,11.7,214.9,11.3"/>
<path class="st6" d="M241.4,7.3c1.6,0.6,3.5,1.9,4,4.4c0.9,4.6-1.4,8-6.6,7.6c-5.2-0.4-7.1-2.3-9.5-1.3c-1.9,0.8-1.6,6.5-1.6,7.4
	v13.1c0,0,0.2,0.6-0.6,0.6h-12.5v0.5h10.6h1.6h1.2v-17c0-3.7,1.4-5.1,4-4.3c2.5,0.8,4.9,1.2,7.1,1.2c4.7,0.2,7.1-1.8,7.1-6
	C246.2,10.2,244.6,8.1,241.4,7.3"/>
<path class="st3" d="M225.8,14.7c0,0,3.8-0.7,5.7,0.2c1.9,0.9,6.2,2,6.5-1.2c0.3-3.2-7-1.1-10.3-0.1c-3.3,1.1-3.1-0.4-4.2-2.2
	c-1.6-2.6-7.6-2.2-6.1,4.9c1.5,7.2-0.1,9.4-0.3,12.6c-0.2,3.2-1.1,7.3,2.8,7.2s2.7-7,2.3-12.7C221.9,17.4,224,14.3,225.8,14.7"/>
<path class="st5" d="M243.5,10.4c0,0,1.3,3.5-1,6.2c-2.3,2.9-7.2,0.9-7.2,0.9S242.3,19.9,243.5,10.4"/>
<path class="st5" d="M219.3,9.5c0,0-3.3,0.7-3.3,6v10.7C215.9,26.1,216.4,10.9,219.3,9.5"/>
</svg>
