<?xml version="1.0" encoding="utf-8"?>
<!-- Generator: Adobe Illustrator 16.0.0, SVG Export Plug-In . SVG Version: 6.00 Build 0)  -->
<!DOCTYPE svg PUBLIC "-//W3C//DTD SVG 1.1//EN" "http://www.w3.org/Graphics/SVG/1.1/DTD/svg11.dtd">
<svg version="1.1" id="Layer_1" xmlns="http://www.w3.org/2000/svg" xmlns:xlink="http://www.w3.org/1999/xlink" x="0px" y="0px"
	 width="12.7px" height="12.8px" viewBox="0 0 12.7 12.8" style="enable-background:new 0 0 12.7 12.8;" xml:space="preserve">
<style type="text/css">
<![CDATA[
	.st0{fill:none;stroke:#010101;stroke-width:5;stroke-miterlimit:10;}
	.st1{fill:#FFFFFF;}
]]>
</style>
<path class="st1" d="M12,11c-0.1,0-1.4-0.9-3.5-1.4c0.7-0.9,1.2-2.2,1.4-3.1c0.3-1.2,0.2-3.5-1-4.9C8.3,0.8,7.4,0.4,6.3,0.4
	s-2,0.4-2.7,1.3c-1.1,1.4-1.2,3.7-1,4.9c0.2,0.8,0.7,2.1,1.4,3.1c-2,0.4-3.4,1.3-3.5,1.4c-0.3,0.2-0.4,0.5-0.3,0.8
	c0.1,0.3,0.4,0.5,0.7,0.5h10.5c0.3,0,0.6-0.2,0.7-0.5C12.4,11.5,12.3,11.2,12,11 M7.9,9.1L7.8,9.3c-0.9,1-2.1,1-3,0L4.7,9.1
	c-1-1.3-1.6-3.1-1.3-4.7c0.2-1.6,1.1-3.3,2.9-3.3s2.7,1.7,2.9,3.3C9.5,6.1,9,7.8,7.9,9.1 M1.1,11.6c0.1,0,1.3-0.9,3.2-1.3l0.9-0.2
	c0.3,0.2,0.7,0.4,1.1,0.4c0.4,0,0.8-0.1,1.1-0.4l0.9,0.2c1.9,0.4,3.1,1.2,3.2,1.3H1.1z"/>
<line class="st0" x1="24.6" y1="6.6" x2="24.6" y2="6.6"/>
</svg>
