<?xml version="1.0" encoding="utf-8"?>
<!-- Generator: Adobe Illustrator 16.0.0, SVG Export Plug-In . SVG Version: 6.00 Build 0)  -->
<!DOCTYPE svg PUBLIC "-//W3C//DTD SVG 1.1//EN" "http://www.w3.org/Graphics/SVG/1.1/DTD/svg11.dtd">
<svg version="1.1" id="Layer_1" xmlns="http://www.w3.org/2000/svg" xmlns:xlink="http://www.w3.org/1999/xlink" x="0px" y="0px"
	 width="14.4px" height="15.3px" viewBox="0 0 14.4 15.3" style="enable-background:new 0 0 14.4 15.3;" xml:space="preserve">
<style type="text/css">
<![CDATA[
	.st0{fill:#808184;}
]]>
</style>
<path class="st0" d="M14,13.3c-0.1-0.1-1.7-1.1-4.2-1.7c0.9-1.1,1.5-2.7,1.7-3.7c0.3-1.4,0.2-4.2-1.1-5.9c-0.8-1-1.9-1.5-3.2-1.5
	C5.9,0.5,4.8,1.1,4,2.1C2.6,3.8,2.5,6.5,2.9,7.9c0.2,1,0.8,2.5,1.7,3.7c-2.4,0.5-4.1,1.6-4.2,1.7c-0.3,0.2-0.5,0.6-0.4,1
	c0.1,0.4,0.5,0.6,0.9,0.6h12.6c0.4,0,0.7-0.3,0.9-0.6C14.5,13.9,14.3,13.5,14,13.3 M9.1,11L9,11.2c-1.1,1.2-2.5,1.2-3.5,0L5.3,11
	C4,9.4,3.4,7.4,3.7,5.4C3.9,3.4,5,1.4,7.2,1.4c2.2,0,3.3,2,3.5,3.9C11,7.4,10.4,9.4,9.1,11 M0.9,14c0.1,0,1.6-1,3.9-1.5l1.1-0.2
	c0.4,0.3,0.8,0.4,1.3,0.4c0.5,0,0.9-0.2,1.3-0.4l1.1,0.2c2.3,0.5,3.8,1.5,3.9,1.5H0.9z"/>
</svg>
