<?xml version="1.0" encoding="utf-8"?>
<!-- Generator: Adobe Illustrator 16.0.0, SVG Export Plug-In . SVG Version: 6.00 Build 0)  -->
<!DOCTYPE svg PUBLIC "-//W3C//DTD SVG 1.1//EN" "http://www.w3.org/Graphics/SVG/1.1/DTD/svg11.dtd">
<svg version="1.1" id="Layer_1" xmlns="http://www.w3.org/2000/svg" xmlns:xlink="http://www.w3.org/1999/xlink" x="0px" y="0px"
	 width="87.2px" height="87.5px" viewBox="0 0 87.2 87.5" enable-background="new 0 0 87.2 87.5" xml:space="preserve">
<path fill="#FFFFFF" d="M83.9,76.5c-0.5-0.4-10.2-6.7-24.7-9.8c5.3-6.7,8.7-15.7,10.2-21.8c2-8.3,1.2-24.6-6.8-34.8
	C57.9,4.1,51.3,1,43.6,1c-7.7,0-14.2,3.1-18.9,9.1c-8,10.2-8.8,26.5-6.8,34.8c1.4,6,4.9,15,10.2,21.8c-14.4,3.1-24.2,9.5-24.7,9.8
	c-2,1.3-2.8,3.7-2.1,6c0.7,2.3,2.8,3.8,5.1,3.8h74.6c2.3,0,4.4-1.5,5.1-3.8C86.7,80.2,85.8,77.8,83.9,76.5 M55,63.3l-0.9,1.1
	c-6.3,7.3-14.6,7.3-21,0l-0.9-1.1c-7.4-9.4-11.1-21.8-9.5-33.7c1.5-11.4,8-23.3,20.9-23.3c12.9,0,19.4,11.9,20.9,23.3
	C66.1,41.5,62.4,53.9,55,63.3 M6.3,80.9c0.4-0.2,9.4-6.2,22.9-9.1l6.6-1.4c2.4,1.6,5,2.5,7.8,2.5c2.9,0,5.4-1,7.8-2.5l6.6,1.4
	c13.4,2.9,22.4,8.7,22.9,9.1H6.3z"/>
</svg>
