<svg xmlns="http://www.w3.org/2000/svg" xmlns:xlink="http://www.w3.org/1999/xlink" version="1.1" id="ROCKET" x="0px" y="0px" width="100px" height="100px" viewBox="5.0 -10.0 100.0 135.0" enable-background="new 0 0 100 100" xml:space="preserve">
<path d="M50.039,85.444c-7.422,0-8.721-1.093-8.905-1.312c-0.116-0.137-0.149-0.326-0.087-0.494l3.194-8.716  c0.096-0.26,0.384-0.39,0.641-0.298c0.259,0.096,0.393,0.383,0.297,0.642l-3.057,8.341c0.582,0.257,2.491,0.838,7.917,0.838  c5.194,0,7.23-0.585,7.909-0.867l-3.078-8.405c-0.095-0.259,0.038-0.547,0.298-0.642c0.258-0.093,0.547,0.037,0.642,0.298  l3.227,8.81c0.068,0.188,0.019,0.399-0.128,0.536C58.683,84.387,57.193,85.444,50.039,85.444z"/>
<path d="M35.588,53.829c-0.244,0-0.458-0.179-0.494-0.428c-0.539-3.688-0.812-7.554-0.812-11.491  c0-19.022,10.807-36.827,15.717-36.827c4.402,0,15.716,17.509,15.716,36.827c0,3.939-0.271,7.799-0.808,11.471  c-0.041,0.273-0.299,0.453-0.567,0.423c-0.273-0.04-0.462-0.294-0.423-0.567c0.529-3.624,0.798-7.435,0.798-11.326  c0-19.302-11.217-35.827-14.716-35.827c-3.605,0-14.717,16.12-14.717,35.827c0,3.889,0.27,7.707,0.801,11.347  c0.04,0.273-0.149,0.527-0.422,0.567C35.637,53.827,35.612,53.829,35.588,53.829z"/>
<path d="M55.351,75.606c-0.001,0-0.002,0-0.003,0l-10.764-0.055c-0.276-0.001-0.499-0.227-0.498-0.503  c0.001-0.274,0.225-0.497,0.5-0.497c0.001,0,0.001,0,0.002,0l10.765,0.055c0.275,0.001,0.498,0.227,0.497,0.503  C55.85,75.384,55.626,75.606,55.351,75.606z"/>
<path d="M23.747,92.827c-0.073,0-0.146-0.016-0.214-0.048c-0.175-0.083-0.286-0.259-0.286-0.452V79.952  c0-0.069,0.015-0.139,0.042-0.202l11.788-26.671c0.081-0.182,0.248-0.289,0.462-0.298c0.2,0.002,0.379,0.122,0.457,0.306  l9.195,21.823c0.086,0.204,0.027,0.44-0.144,0.581L24.064,92.714C23.973,92.788,23.86,92.827,23.747,92.827z M24.247,80.058V91.27  l19.878-16.314l-8.601-20.412L24.247,80.058z"/>
<path d="M76.253,92.827c-0.113,0-0.226-0.039-0.317-0.113L54.95,75.491c-0.171-0.141-0.229-0.377-0.144-0.581l9.194-21.823  c0.078-0.184,0.257-0.304,0.457-0.306c0.163-0.014,0.38,0.115,0.461,0.298L76.71,79.75c0.028,0.063,0.043,0.133,0.043,0.202v12.375  c0,0.193-0.111,0.369-0.286,0.452C76.398,92.812,76.325,92.827,76.253,92.827z M55.873,74.955l19.88,16.314V80.058l-11.28-25.515  L55.873,74.955z"/>
<path d="M49.915,94.917c-0.276,0-0.5-0.224-0.5-0.5V54.864c0-0.276,0.224-0.5,0.5-0.5s0.5,0.224,0.5,0.5v39.553  C50.415,94.693,50.191,94.917,49.915,94.917z"/>
<path d="M49.958,17.077c-6.993,0-8.868-1.025-8.944-1.069c-0.24-0.137-0.323-0.442-0.186-0.682c0.136-0.238,0.437-0.321,0.677-0.189  c0.043,0.023,1.883,0.94,8.454,0.94c6.6,0,8.343-0.927,8.359-0.936c0.238-0.133,0.543-0.051,0.68,0.185s0.062,0.536-0.173,0.677  C58.642,16.113,56.837,17.077,49.958,17.077z"/>
<path d="M50,36.167c-3.125,0-5.667-2.542-5.667-5.667s2.542-5.667,5.667-5.667c3.124,0,5.666,2.542,5.666,5.667  S53.124,36.167,50,36.167z M50,25.834c-2.573,0-4.667,2.093-4.667,4.667s2.093,4.667,4.667,4.667s4.666-2.093,4.666-4.667  S52.573,25.834,50,25.834z"/>
<text x="0.0" y="117.5" font-size="5.0" font-weight="bold" font-family="Helvetica Neue, Helvetica, Arial-Unicode, Arial, Sans-serif" fill="#000000">Created by Daniel Jack Clark</text><text x="0.0" y="122.5" font-size="5.0" font-weight="bold" font-family="Helvetica Neue, Helvetica, Arial-Unicode, Arial, Sans-serif" fill="#000000">from the Noun Project</text></svg>