<?xml version="1.0" encoding="utf-8"?>
<!-- Generator: Adobe Illustrator 16.0.0, SVG Export Plug-In . SVG Version: 6.00 Build 0)  -->
<!DOCTYPE svg PUBLIC "-//W3C//DTD SVG 1.1//EN" "http://www.w3.org/Graphics/SVG/1.1/DTD/svg11.dtd">
<svg version="1.1" id="Layer_1" xmlns="http://www.w3.org/2000/svg" xmlns:xlink="http://www.w3.org/1999/xlink" x="0px" y="0px"
	 width="12px" height="12.3px" viewBox="0 0 12 12.3" style="enable-background:new 0 0 12 12.3;" xml:space="preserve">
<style type="text/css">
<![CDATA[
	.st0{fill:#F2F2F2;}
]]>
</style>
<path class="st0" d="M1.2,7.3h4.9c0.2,0,0.4,0,0.5-0.1l4.2-2.4c0.2,0.5,0.2,1,0.2,1.5c0,2.8-2.2,5-5,5C3.7,11.3,1.7,9.6,1.2,7.3
	 M0.4,6.6C0.5,9.6,3,12,6.1,12c3.2,0,5.7-2.6,5.7-5.7c0-0.9-0.2-1.8-0.6-2.5L6.2,6.6c-0.1,0-0.1,0-0.2,0H0.4z M0.4,5.9h5.4V0.6
	C2.8,0.7,0.5,3,0.4,5.9 M1.2,5.2C1.6,3.3,3.1,1.8,5,1.4v3.8H1.2z M7.1,1.4c1,0.2,1.9,0.7,2.6,1.5L7.1,4.4V1.4 M6.4,0.6v5.1l4.4-2.5
	C9.9,1.6,8.3,0.7,6.4,0.6"/>
</svg>
