<?xml version="1.0" encoding="utf-8"?>
<!-- Generator: Adobe Illustrator 16.0.0, SVG Export Plug-In . SVG Version: 6.00 Build 0)  -->
<!DOCTYPE svg PUBLIC "-//W3C//DTD SVG 1.1//EN" "http://www.w3.org/Graphics/SVG/1.1/DTD/svg11.dtd">
<svg version="1.1" id="Layer_1" xmlns="http://www.w3.org/2000/svg" xmlns:xlink="http://www.w3.org/1999/xlink" x="0px" y="0px"
	 width="16.3px" height="16.3px" viewBox="0 0 16.3 16.3" enable-background="new 0 0 16.3 16.3" xml:space="preserve">
<path fill="#808184" d="M1.6,9.6h6.6c0.3,0,0.5-0.1,0.7-0.2l5.7-3.3c0.2,0.7,0.3,1.3,0.3,2c0,3.7-3,6.8-6.8,6.8
	C5,14.9,2.2,12.6,1.6,9.6 M0.5,8.6c0.3,4,3.6,7.3,7.7,7.3c4.3,0,7.7-3.5,7.7-7.7c0-1.2-0.3-2.4-0.8-3.4L8.4,8.6
	c-0.1,0-0.2,0.1-0.2,0.1H0.5z M0.5,7.6h7.2V0.4C3.8,0.7,0.7,3.8,0.5,7.6 M1.6,6.7c0.6-2.6,2.6-4.6,5.2-5.2v5.2H1.6z M9.6,1.5
	c1.4,0.3,2.6,1,3.6,2L9.6,5.6V1.5 M8.7,0.4v6.9l6-3.4C13.3,1.9,11.1,0.6,8.7,0.4"/>
</svg>
