<?xml version="1.0" encoding="UTF-8"?>
<!-- Generator: Adobe Illustrator 16.0.0, SVG Export Plug-In . SVG Version: 6.00 Build 0)  -->
<!DOCTYPE svg PUBLIC "-//W3C//DTD SVG 1.1//EN" "http://www.w3.org/Graphics/SVG/1.1/DTD/svg11.dtd">
<svg version="1.1" id="Layer_1" xmlns="http://www.w3.org/2000/svg" xmlns:xlink="http://www.w3.org/1999/xlink" x="0px" y="0px" width="16px" height="16.9px" viewBox="0 0 16 16.9" enable-background="new 0 0 16 16.9" xml:space="preserve">
<path fill="#808184" d="M15.1,13.4l-2.7-2.7c0.7-1.1,1.2-2.4,1.2-3.8c0-3.6-3-6.6-6.6-6.6c-3.6,0-6.6,3-6.6,6.6c0,3.6,3,6.6,6.6,6.6  c1,0,2-0.2,2.8-0.6l2.9,2.9c0.3,0.3,0.7,0.5,1.2,0.5c0.5,0,0.9-0.2,1.2-0.5C15.7,15.2,15.7,14.1,15.1,13.4 M3,7c0-2.2,1.8-4,4-4  c2.2,0,4,1.8,4,4c0,2.2-1.8,4-4,4C4.8,10.9,3,9.1,3,7"/>
</svg>