<?xml version="1.0" encoding="utf-8"?>
<!-- Generator: Adobe Illustrator 16.0.0, SVG Export Plug-In . SVG Version: 6.00 Build 0)  -->
<!DOCTYPE svg PUBLIC "-//W3C//DTD SVG 1.1//EN" "http://www.w3.org/Graphics/SVG/1.1/DTD/svg11.dtd">
<svg version="1.1" id="Layer_1" xmlns="http://www.w3.org/2000/svg" xmlns:xlink="http://www.w3.org/1999/xlink" x="0px" y="0px"
	 width="277px" height="326px" viewBox="0 0 277 326" enable-background="new 0 0 277 326" xml:space="preserve">
<g>
	<g>
		<path fill="#6D2D18" d="M38.661,62.099c-47.437,107.34-25.678,162.484-21.819,172.904c9.625,25.982,44.104,48.181,44.104,48.181
			v6.274c0,0,7.54,19.333,75.164,19.333c58.102,0.37,72.591-17.216,72.591-17.216v-7.385c0,0,36.976-16.545,49.33-57.823
			c16.668-55.686-15.796-156.457-25.242-163.79C232.789,62.577,129.35,23.14,38.661,62.099z"/>
		<path fill="#A14B24" d="M44.385,64.455c0,0-48.687,106.261-15.965,172.192c18.021,38.958,60.417,42.283,84.978,46.533
			c24.562,4.252,60.319,0.319,98.14-32.76c37.252-32.584,33.015-79.124,34.542-100.41c3.18-44.278-4.651-61.471-9.928-82.269
			C236.151,67.741,148.768,97.045,44.385,64.455z"/>
		<path fill="#C25628" d="M124.321,270.48c-30.276,0.085-67.151-11.688-88.084-48.535c-23.174-40.787-10.052-96.57-3.307-131.121
			c2.509-12.851,4.424-22.857,7.064-25.213c32.521,9.973,68.002,15.029,103.464,15.029c28.39,0,52.104-3.323,67.002-6.111
			c6.435-1.204,4.048-0.554,13.137-3.205c12.986,15.955,12.814,57.09,12.512,74.294c-0.188,10.807-12.054,75.835-44.96,98.868
			C164.723,262.981,141.182,270.48,124.321,270.48z"/>
		<path fill="#D45928" d="M98.201,235.002c-24.848-3.568-56.916-30.974-61.323-54.09c-4.307-22.586-5.662-58.894-2.026-83.031
			c1.949-12.948,5.266-26.028,7.906-28.385c32.522,9.973,67.402,14.747,102.864,14.747c28.389,0,38.771-2.445,53.668-5.233
			c6.436-1.205,13.73,30.738,11.95,50.756c-1.381,15.536,5.368,61.047-52.679,96.78C136.604,240.061,114.89,237.397,98.201,235.002z
			"/>
		<path fill="#E75E25" d="M60.772,95.549c-3.65,0.766-14.891,1.084-15.226,10.357c-0.345,9.562-1.888,53.11,13.198,64.567
			c35.058,26.619,54.995-3.721,58.752-13.268c0,0,10.435-36.372,10.402-45.465c-0.027-7.588-18.718-16.563-43.691-16.891
			C59.235,94.523,66.882,94.265,60.772,95.549z"/>
		<path fill="#F89A3D" d="M61.891,102.544c0,0-4.128,0.558-2.927,2.721c1.203,2.162,5.631,2.372,8.917,2.804
			c3.286,0.431,2.373,0.737,5.592,0.761c3.218,0.023,1.898-4.064-3.123-5.428C65.33,102.037,64.709,100.937,61.891,102.544z"/>
		<path fill="#F89A3D" d="M86.41,108.932c-1.356,0.604-3.809,1.938,2.971,2.666c6.779,0.729,12.098-1.489,5.449-2.197
			C88.181,108.692,89.405,107.598,86.41,108.932z"/>
	</g>
	<g>
		<g>
			<path fill="#AC4825" d="M241.911,56.948c-0.252,13.263-48.277,23.1-107.265,21.972C75.658,77.793,28.045,66.128,28.299,52.865
				c0.063-3.315,0.063-3.315,0.107-13.239c16.379-8.309,62.917-9.578,107.158-8.732c43.744,0.836,90.104,4.036,106.455,12.816
				C241.911,56.948,241.979,53.522,241.911,56.948z"/>
			<path fill="#D35828" d="M226.837,67.441c-11.544,5.488-36.842,9.739-88.871,10.054C78.697,77.852,41.571,63.93,36.006,60.428
				c-2.18-2.219-3.811-7.923-2.735-10.777C61.59,61.608,92.438,65.818,134.736,66.626c64.681,1.237,88.814-13.658,94.252-9.93
				C229.896,57.321,229.03,63.96,226.837,67.441z"/>
			<path fill="#D66A27" d="M140.762,75.568C70.753,75.128,42.923,62.723,37.085,59.47c-0.825-1.032-0.824-4.596-0.848-6.469
				c21.274,7.247,59.833,14.873,98.461,15.611c42.282,0.808,67.646-4.515,81.284-7.907c5.013-1.247,8.633-2.148,10.669-2.109
				c0.077,0.002,0.147,0.003,0.215,0.008c-0.069,1.62-0.67,4.765-1.789,6.918C204.604,74.833,163.567,75.711,140.762,75.568z"/>
		</g>
		<g>
			
				<ellipse transform="matrix(0.9998 0.0191 -0.0191 0.9998 0.8211 -2.5767)" fill="#D46A28" cx="135.213" cy="41.667" rx="106.826" ry="24.019"/>
			<path fill="#E68425" d="M240.179,43.673c-0.248,12.989-50.089,21.807-102.107,20.582C85.159,63.01,36.723,53,34.899,44.524
				c-0.762-3.536,7.698-2.584,14.34-5.518c17.21-7.607,47.406-21.106,89.704-20.298C197.564,19.83,240.429,30.685,240.179,43.673z"
				/>
		</g>
		<path fill="#DF7F26" d="M70.104,64.445c-0.61-0.118-6.136-2.663-6.87,0.086C62.5,67.28,85.48,69.741,85.48,69.741
			s16.596,2.055,19.569,2.361c2.974,0.305,7.629,2.113,7.709-0.598c0,0,4.468,0.228,3.498-1.174
			c-0.969-1.402-20.643-2.469-24.359-2.866C88.18,67.066,78.351,66.046,70.104,64.445z"/>
		<path fill="#FBAE36" d="M69.31,65.465c-0.3-0.047-3-1.06-3.353,0.021c-0.354,1.081,10.864,2.092,10.864,2.092
			s8.103,0.84,9.555,0.964c1.452,0.126,3.726,0.847,3.759-0.22c0,0-8.372-1.466-10.187-1.629
			C78.135,66.53,73.337,66.11,69.31,65.465z"/>
	</g>
	<g>
		<path fill="#EDAE1F" d="M28.119,31.337c0,0,3.587-10.261,34.541-13.727c30.952-3.465,36.396-4.727,42.452-5.416
			c6.055-0.69,28.412-1.546,40.985,2.001c5.481,1.546,41.046,2.109,52.485,0.859c11.438-1.249,22.204-0.382,26.915,6.058
			c0,0,20.186,2.065,19.514,19.562c-0.673,17.496-16.149,19.995-26.243,16.871c-10.093-3.124-20.859-0.826-23.552,1.15
			c-2.69,1.974,0,13.181-6.056,19.762c-6.055,6.581-17.493,15.33-28.26-4.666c-8.359-11.512-14.482-13.983-20.246-14.229
			c-20.246-0.867-37.896,29.292-50.85,27.903C65.619,84.869,71.577,57.205,57.15,53C33.864,46.215,23.561,41.186,28.119,31.337z"/>
		<path fill="#FFC711" d="M176.935,80.838c-2.971,0-7.337,3.355-10.572-7.121c-5.087-16.474-10.713-19.98-27.92-20.716
			c-8.446-0.359-12.108,4.434-15.719,6.408c-9.105,4.979-15.35,24.327-31.362,24.387C68.944,83.88,71.803,54.839,63.217,49.651
			c-2.787-1.683-6.468-3.125-9.545-3.525c-22.676-2.942-23.227-11.019-23.471-11.364c-3.593-5.095,2.995-12.705,29.188-16.707
			c30.782-4.704,47.193-5.024,50.414-5.08c20.716-0.354,32.283,1.356,35.58,1.865c9.376,1.447,30.136,2.649,40.316,2.649
			c4.492,0,21.112-1.44,23.399-1.473c13.087-0.189,16.473,6.243,16.473,6.243s4.711,1.704,8.548,3.901
			c5.525,3.164,9.218,9.192,9.02,14.324c-0.226,5.884,1.567,9.636-9.746,14.831c-1.773,0.814-9.719,0.18-11.572-0.394
			c-3.874-1.2-8.569-2.773-12.933-2.773c-6.743,0-11.292,1.056-14.412,3.345c-3.033,2.225-5.426,5.218-5.789,9.242
			c-0.327,3.624-0.217,7.651-2.628,10.271C181.39,80.079,178.339,80.838,176.935,80.838z"/>
		<path fill="#FAD506" d="M45.964,40.056c0,0-13.458-7.498,0-10.623c13.457-3.125,30.953-4.374,34.99-5.624
			c0,0,15.974-2.756,33.644-4.998c17.67-2.243,51.5,6.693,61.595,7.942c10.093,1.25,23.488-0.035,30.219,0.153
			c6.729,0.187,13.532,0,12.068,6.232c0,0,21.944,6.452,10.137,12.076c-8.719,4.152-29.521-7.661-46.731,7.072
			c-5.089,4.357-8.757,13.455-8.757,13.455s-2.559,1.983-7.313-5.434c-3.202-4.994-22.402-15.052-36.414-13.379
			c-11.534,1.378-29.077,31.783-42.147,31.336c-17.18-0.588-10.558-30.227-23.985-32.902C51.084,42.936,47.313,42.487,45.964,40.056
			z"/>
		<path fill="#FBF183" d="M103.031,21.303c0,0-10.766,0-11.438,2.499c-0.673,2.5,5.72,1.195,5.72,1.195
			c7.065-1.25,11.511-2.647,15.14-2.131c5.439,0.774,12.786,1.562,9.42-1.562C118.508,18.179,103.031,21.303,103.031,21.303z"/>
		<path fill="#FBF183" d="M129.275,19.915c-2.841,0.012,2.49,3.807,7.713,2.739C142.213,21.587,145.389,19.842,129.275,19.915z"/>
		<path fill="#FBF183" d="M52.485,42.935c0,0,5.115,0.82,11.151,4.284c7.161,4.107,5.688,32.878,26.498,32.878
			c5.516,0,35.636-30.446,46.145-30.793c3.414-0.113,2.74-1.888-2.937-0.942c-16.949,2.827-32.013,28.732-45.362,29.311
			c-15.015,0.65-17.608-28.154-22.137-30.691C60.731,44.118,52.475,40.744,52.485,42.935z"/>
		<path fill="#FBF183" d="M167.179,75.053c0,0,2.882,9.376,9.756,5.785c6.874-3.59,9.88-4.664,10.658-8.426
			c0.777-3.761-0.292-5.8-2.038-0.965c-1.746,4.835-8.361,7.514-10.605,8.432C170.555,81.672,166.18,67.822,167.179,75.053z"/>
	</g>
	<path fill="#5F280F" d="M211.602,273.899c1.754-3.067,10.62-15.58,4.767-15.52c-3.949,0.68-11.709,9.12-16.474,12.116
		s-20.557,10.755-30.223,14.159c-9.668,3.404-16.474,10.21,1.905,8.713c18.38-1.498,29.542-7.487,29.542-7.487
		S208.879,278.665,211.602,273.899z"/>
	<path fill="#B45727" d="M62.777,285.742c0,0-0.783,4.31,0,6.269c0.783,1.958,22.917,15.474,63.853,15.474
		c65.246,0,78.738-15.671,78.738-15.671v-5.287c0,0-20.566,16.061-76.583,16.061C83.709,302.587,62.777,285.742,62.777,285.742z"/>
	<path fill="#F08E32" d="M77.984,296.733c0,0-2.51,0.694-0.607,1.753c1.904,1.061,9.889,2.754,14.023,3.909
		c4.334,1.215,1.708,0.368,20.372,2.74c0,0,15.775,2.027,18.995,0.187c1.235-0.706-0.641-0.985-3.334-1.142
		c-2.69-0.157-8.582,0.046-14.909-0.667c-6.324-0.712-20.114-2.7-23.784-3.906C85.07,298.401,80.048,296.493,77.984,296.733z"/>
	<path fill="#6D2D18" d="M180.499,95.523c-1.077-1.973-2.354-2.664-2.575-5.226c-0.432-4.999-0.048-9.483-2.078-7.639
		c0,0-0.092,8.403-2.242,13.264c-1.673,3.782-1.224,9.714,2.921,9.974C180.669,106.158,183.577,101.156,180.499,95.523z"/>
	<g>
		<path fill="#EDAE1F" d="M176.048,81.772c0,0-0.089,8.403-2.239,13.266c-1.675,3.781-1.225,9.712,2.92,9.974
			c4.145,0.26,7.052-4.742,3.974-10.373c-1.078-1.975-2.353-2.665-2.575-5.227C177.697,84.412,178.079,79.929,176.048,81.772z"/>
		<path fill="#FFC711" d="M176.732,103.723c-0.323-0.038-0.808-0.162-1.281-0.783c-1.193-1.562-1.242-4.919-0.109-7.48
			c0.607-1.373,1.058-2.995,1.391-4.635c0.331,1.237,0.927,2.056,1.509,2.853c0.325,0.446,0.66,0.906,0.968,1.469
			c1.778,3.253,1.26,6.156-0.046,7.589c-0.449,0.495-1.214,1.068-2.305,1C176.816,103.731,176.774,103.729,176.732,103.723z"/>
		<path fill="#F4F2AB" d="M175.364,96.146c0,0-0.702,0.104-0.759,2.029c-0.058,1.926-0.206,1.368,0.098,1.365
			c0.305-0.003,0.228-1.431,0.321-1.647C175.117,97.674,175.562,96.397,175.364,96.146z"/>
		<path fill="#F4F2AB" d="M177.207,103.733c0,0,1.982-0.209,2.52-1.807c-0.01-0.542-0.646,0.379-0.646,0.379
			s-0.798,0.818-1.802,1.06C176.275,103.605,176.883,103.713,177.207,103.733z"/>
	</g>
	<path fill="#6D2D18" d="M198.87,131.258c-2.11-3.865-4.606-5.217-5.039-10.231c-0.845-9.788-2.171-12.724-2.781-15.734
		c0,0-2.299,15.408-5.679,26.749c-2.312,7.757-1.37,20.552,6.743,21.062C200.23,153.612,204.896,142.283,198.87,131.258z"/>
	<g>
		<path fill="#EDAE1F" d="M190.538,105.292c0,0-0.734,15.826-3.02,26.711c-1.683,8.029-0.587,19.512,8.099,19.533
			c8.687,0.024,13.732-10.297,6.188-21.155c-2.645-3.806-6.977-4.519-7.956-9.599C191.943,110.865,191.815,108.03,190.538,105.292z"
			/>
		<path fill="#FFC711" d="M195.74,149.11c-0.681-0.038-2.606-0.367-3.851-1.408c-5.174-4.331-4.091-10.681-2.249-15.924
			c0.988-2.811,2.11-7.637,2.473-10.944c0.939,2.429,3.372,5.525,4.744,7.044c0.767,0.85,3.097,2.239,3.849,3.322
			c4.36,6.274,4.063,12.617,0.924,15.649C199.908,148.513,195.827,149.115,195.74,149.11z"/>
		<path fill="#F4F2AB" d="M190.987,134.026c0,0-1.442,0.29-1.172,4.137c0.268,3.848-0.155,2.752,0.478,2.709
			c0.636-0.043,0.188-2.88,0.337-3.326C190.78,137.102,191.452,134.505,190.987,134.026z"/>
		<path fill="#F4F2AB" d="M196.357,148.933c0,0,4.602-0.655,5.396-3.904c-0.132-1.078-1.781,0.832-1.781,0.832
			s-1.498,1.727-3.541,2.328S195.677,148.928,196.357,148.933z"/>
	</g>
	<g>
		<path fill="#EDAE1F" d="M230.809,213.014c0,0-2.728,19.123-11.461,36.466c-6.474,12.857-12.67,14.127-14.762,19.26
			c-1.705,4.179,2.191,12.875,1.438,17.63c-1.642,10.365,2.434,17.412,7.808,11.719c5.374-5.695-0.977-18.407,7.363-20.667
			c8.341-2.258,2.742,9.317,12.191,8.271c8.145-0.902,7.221-11.349,6.669-19.484c-0.553-8.136,2.3-24.856,3.257-35.127
			c0.684-7.338,0.453-41.025,0.453-41.025S237.105,174.768,230.809,213.014z"/>
		<path fill="#FFC711" d="M208.537,297.741c-0.449-1.024-1.47-5.601-1.146-8.541c0.422-3.858-0.051-15.294,0.307-18.776
			c2.23-1.727,10.051-11.175,16.836-23.136c9.866-17.386,8.812-29.606,9.003-30.587c0,0,4.14-15.765,3.807-17.507
			c-0.503-2.621,2.704-2.455,2.704-2.455c0.126-1.13,0.603,11.081,0.734,10.089c1.798,15.665-1.291,31.617-2.056,35.535
			c-1.043,5.349-2.713,10.817-1.972,16.372c0.338,2.525,0.687,5.138,0.858,7.665c0.302,4.447-0.459,7.942-0.377,10.074
			c0.149,3.88-2.564,6.293-5.558,6.405c-0.838,0.029-2.685-5.407-3.294-5.476l-0.812-0.091c-1.517-0.171-0.928-0.397-1.329-0.976
			c-0.547-0.78,0.978-1.809-1.158-2.051c-1.142-0.128-2.524,0.051-4.486,0.584c-6.478,1.753-6.479,7.067-6.479,10.947
			c-0.001,2.761-0.513,10.379-2.177,12.14C211.464,298.467,208.765,297.593,208.537,297.741z"/>
	</g>
</g>
</svg>
