<?xml version="1.0" encoding="utf-8"?>
<!-- Generator: Adobe Illustrator 16.0.0, SVG Export Plug-In . SVG Version: 6.00 Build 0)  -->
<!DOCTYPE svg PUBLIC "-//W3C//DTD SVG 1.1//EN" "http://www.w3.org/Graphics/SVG/1.1/DTD/svg11.dtd">
<svg version="1.1" id="Layer_1" xmlns="http://www.w3.org/2000/svg" xmlns:xlink="http://www.w3.org/1999/xlink" x="0px" y="0px"
	 width="43px" height="43px" viewBox="0 0 72.2 73.5" style="enable-background:new 0 0 72.2 73.5;" xml:space="preserve">
<style type="text/css">
<![CDATA[
	.st0{fill-rule:evenodd;clip-rule:evenodd;fill:#ffffff;}
]]>
</style>
<path class="st0" d="M61.1,3.5c-16.3,0-32.5,0-48.8,0c-5.2,0-8.4,3.2-8.4,8.5c0,16.2,0,32.4,0,48.6c0,5.3,3.2,8.4,8.4,8.4
	c8.1,0,16.3,0,24.4,0c0.5,0,1,0,1.5,0V44.8h-6v-8.7h6v-2.7v-2.7v-0.4c0-2.6,0.1-6.5,1.9-9c2-2.6,4.7-4.4,9.3-4.4
	c7.6,0,10.8,1.1,10.8,1.1l-1.5,8.9c0,0-2.5-0.7-4.8-0.7c-2.3,0-4.4,0.8-4.4,3.2v0.9v3.1v2.7h9.6l-0.7,8.7h-8.9V69
	c3.8,0,7.6,0,11.4,0c5.4,0,8.6-3.1,8.6-8.5c0-16.2,0-32.4,0-48.6C69.5,6.7,66.3,3.5,61.1,3.5z"/>
</svg>
