<?xml version="1.0" encoding="utf-8"?>
<!-- Generator: Adobe Illustrator 16.0.0, SVG Export Plug-In . SVG Version: 6.00 Build 0)  -->
<!DOCTYPE svg PUBLIC "-//W3C//DTD SVG 1.1//EN" "http://www.w3.org/Graphics/SVG/1.1/DTD/svg11.dtd">
<svg version="1.1" id="Layer_1" xmlns="http://www.w3.org/2000/svg" xmlns:xlink="http://www.w3.org/1999/xlink" x="0px" y="0px"
	 width="43px" height="43px" viewBox="0 0 73.5 75.9" style="enable-background:new 0 0 73.5 75.9;" xml:space="preserve">
<style type="text/css">
<![CDATA[
	.st0{fill-rule:evenodd;clip-rule:evenodd;fill:#ffffff;}
]]>
</style>
<path class="st0" d="M37.7,69c-8.1,0-16.3,0-24.4,0c-5.2,0-8.4-3.2-8.4-8.4c0-16.2,0-32.4,0-48.6c0-5.3,3.2-8.5,8.4-8.5
	c16.3,0,32.5,0,48.8,0c5.2,0,8.4,3.2,8.4,8.4c0,16.2,0,32.4,0,48.6c0,5.4-3.2,8.5-8.6,8.5C53.9,69,45.8,69,37.7,69z M18.2,31.2
	c-2,0-3.8,0-5.9,0c0,0.7,0,1.3,0,1.9c0,8.3,0,16.5,0,24.8c0,3,0.6,3.6,3.6,3.6c14.5,0,29,0,43.6,0c2.8,0,3.5-0.8,3.5-3.5
	c0-8.4,0-16.7,0-25.1c0-0.5-0.1-1-0.1-1.6c-1.9,0-3.8,0-5.6,0c1.6,9.4-1.1,17-9.2,22.1c-7,4.3-14.3,4.2-21.2-0.3
	C19.1,48,16.6,40.5,18.2,31.2z M50.1,36.4c0.1-6.9-5.4-12.5-12.3-12.6c-6.7-0.1-12.4,5.5-12.4,12.2c-0.1,7,5.5,12.6,12.3,12.7
	C44.5,48.7,50,43.2,50.1,36.4z M56.8,11.1c-1.1,0-2.3,0-3.4,0c-1.9,0-2.9,1-2.9,2.9c0,2.3,0,4.6,0,6.9c0,1.8,1,2.8,2.8,2.8
	c2.3,0.1,4.7,0.1,7,0c1.7,0,2.7-1,2.7-2.7c0.1-2.4,0.1-4.8,0-7.2c0-1.7-1.1-2.6-2.8-2.6C59.1,11.1,57.9,11.1,56.8,11.1z"/>
</svg>
