<?xml version="1.0" encoding="utf-8"?>
<!-- Generator: Adobe Illustrator 16.0.0, SVG Export Plug-In . SVG Version: 6.00 Build 0)  -->
<!DOCTYPE svg PUBLIC "-//W3C//DTD SVG 1.1//EN" "http://www.w3.org/Graphics/SVG/1.1/DTD/svg11.dtd">
<svg version="1.1" id="Layer_1" xmlns="http://www.w3.org/2000/svg" xmlns:xlink="http://www.w3.org/1999/xlink" x="0px" y="0px"
	 width="328px" height="259px" viewBox="0 0 328 259" enable-background="new 0 0 328 259" xml:space="preserve">
<path fill="#775A45" d="M85.6,233.2c0,0,11.9,1.7,11.9,0.4c0,0-2-2.3-0.2-10.5c1.8-8.1-8.7-23.3-12.5-18.6
	C81,209.2,85.6,233.2,85.6,233.2z"/>
<g>
	<path fill="#775A45" d="M82.2,220.4c-0.4,0.1-6.4,18.4-5,26.7c0,0,19.7,4.8,34.2,0.6c0,0,1-10.9-17.8-15.2"/>
	<path fill="#070808" d="M82.2,220.4c-0.1,0.1-0.1,0.2-0.2,0.4c0,0.1-0.1,0.3-0.1,0.4c-0.1,0.3-0.2,0.5-0.2,0.8l-0.4,1.7
		c-0.3,1.1-0.5,2.2-0.8,3.3c-0.3,1.1-0.5,2.2-0.7,3.3c-0.1,0.6-0.2,1.1-0.4,1.7c-0.1,0.6-0.3,1.1-0.4,1.7c-0.5,2.2-0.9,4.5-1.1,6.7
		c-0.1,1.1-0.2,2.2-0.2,3.4c0,1.1,0,2.2,0.2,3.3l-0.4-0.5c0.7,0.2,1.4,0.3,2.1,0.4c0.7,0.1,1.4,0.3,2.1,0.4c1.4,0.2,2.8,0.5,4.2,0.6
		c2.8,0.4,5.7,0.6,8.6,0.7c0.7,0,1.4,0,2.1,0.1c0.7,0,1.4,0,2.1,0c0.7,0,1.4,0,2.1-0.1c0.7,0,1.4-0.1,2.1-0.1
		c0.7-0.1,1.4-0.1,2.1-0.2c0.7-0.1,1.4-0.2,2.1-0.3c0.7-0.1,1.4-0.3,2.1-0.4c0.7-0.1,1.4-0.3,2.1-0.5l-0.4,0.5c0-0.2,0-0.5,0-0.7
		c0-0.2,0-0.5-0.1-0.7c-0.1-0.5-0.2-1-0.4-1.4c-0.2-0.5-0.3-0.9-0.6-1.4c-0.2-0.5-0.5-0.9-0.7-1.3l-0.4-0.6l-0.5-0.6l-0.5-0.6
		l-0.5-0.5c-0.4-0.4-0.7-0.7-1.1-1c-0.4-0.3-0.8-0.6-1.2-0.9c-0.4-0.3-0.9-0.6-1.3-0.8c-0.4-0.3-0.9-0.6-1.3-0.8
		c-0.4-0.3-0.9-0.5-1.4-0.8c-0.5-0.2-0.9-0.5-1.4-0.7c-0.5-0.2-0.9-0.4-1.4-0.6c-0.5-0.2-1-0.4-1.5-0.6c-0.5-0.2-1-0.4-1.5-0.5
		l-1.5-0.5l1.6,0.3c0.5,0.1,1,0.2,1.5,0.3s1,0.3,1.5,0.4c0.5,0.1,1,0.3,1.5,0.5c0.5,0.2,1,0.4,1.5,0.5c0.5,0.2,1,0.4,1.5,0.6
		c0.5,0.2,1,0.5,1.4,0.7c0.5,0.3,0.9,0.6,1.4,0.9c0.4,0.3,0.9,0.6,1.3,1c0.4,0.3,0.8,0.7,1.2,1.1l0.6,0.6l0.5,0.6l0.5,0.7l0.5,0.7
		c0.3,0.5,0.6,0.9,0.8,1.4c0.2,0.5,0.4,1,0.6,1.5c0.2,0.5,0.3,1.1,0.4,1.6c0.1,0.6,0.1,1.1,0.1,1.7l0,0.4l-0.4,0.1
		c-0.7,0.2-1.4,0.4-2.1,0.5c-0.7,0.2-1.4,0.3-2.1,0.4c-0.7,0.1-1.4,0.2-2.2,0.3c-0.7,0.1-1.4,0.2-2.2,0.2c-0.7,0.1-1.5,0.1-2.2,0.1
		c-0.7,0-1.5,0.1-2.2,0.1c-0.7,0-1.5,0-2.2,0c-0.7,0-1.5,0-2.2-0.1c-2.9-0.1-5.8-0.4-8.7-0.7c-1.4-0.2-2.9-0.4-4.3-0.7
		c-0.7-0.1-1.4-0.3-2.1-0.4c-0.7-0.1-1.4-0.3-2.1-0.5l-0.4-0.1l-0.1-0.4c-0.2-1.2-0.2-2.4-0.2-3.5c0-1.2,0.1-2.3,0.2-3.5
		c0.3-2.3,0.7-4.6,1.1-6.8l0.4-1.7c0.1-0.6,0.2-1.1,0.4-1.7c0.3-1.1,0.7-2.2,1.1-3.3c0.4-1.1,0.8-2.2,1.2-3.2
		c0.2-0.5,0.4-1.1,0.6-1.6c0.1-0.3,0.2-0.5,0.4-0.8c0.1-0.1,0.1-0.3,0.2-0.4C82,220.7,82.1,220.5,82.2,220.4z"/>
</g>
<path fill="#FFFFFF" stroke="#070808" stroke-width="2" stroke-miterlimit="10" d="M266.3,24.4c0,0-50.3-35.7-163.6-2l86.4-1.8
	L266.3,24.4z"/>
<path fill="#FFFFFF" stroke="#070808" stroke-width="2" stroke-miterlimit="10" d="M91.9,171.7c0,0-44.7,18.9-46.2,9.5
	c-5.3-32.5-7.6-82.4,5.6-135.6c0,0,3.5-15.2,44.2,5.9"/>
<path fill="#B5B5B6" d="M94.7,51.9c0,0-34.5-16.2-36.6-8.1C45,94.6,43.7,146.3,49,177.4c1.5,9,45.5-9.1,45.5-9.1
	S93.6,67.4,94.7,51.9z"/>
<polygon points="265.9,162.4 256.7,164.7 242.4,134.1 265.9,128.6 "/>
<path d="M246.8,178.1c0,14.6,8.2,30,4.7,36.4c-1.5,2.8-13.9,0.5-15.7,0.5c-6.1,0-11-15.9-11-36.9c0-20.9,4.9-37.9,11-37.9
	c2.3,0,13.5-2.7,15.2,1.5C253.8,148.5,246.8,165.1,246.8,178.1z"/>
<ellipse fill="#2B2B2B" cx="251.7" cy="177.5" rx="11" ry="37.9"/>
<ellipse cx="253.5" cy="176.7" rx="5" ry="18.2"/>
<ellipse fill="#7D7D7D" cx="251.4" cy="176.4" rx="5" ry="18.2"/>
<path d="M293.2,146.8c0,13.4,6.8,27.6,3.9,33.4c-1.3,2.5-11.4,0.5-13,0.5c-5,0-9.1-14.6-9.1-33.9c0-19.2,4.1-34.8,9.1-34.8
	c1.9,0,11.1-2.5,12.5,1.3C299.1,119.6,293.2,134.9,293.2,146.8z"/>
<ellipse fill="#2B2B2B" cx="297.3" cy="146.2" rx="9.1" ry="34.8"/>
<ellipse cx="298.9" cy="145.8" rx="4.1" ry="16.7"/>
<ellipse fill="#7D7D7D" cx="296.5" cy="146.3" rx="4.1" ry="16.7"/>
<path d="M136.4,167.4c0,14.6,8.2,30,4.7,36.4c-1.5,2.8-13.9,0.5-15.7,0.5c-6.1,0-11-15.9-11-36.9c0-20.9,4.9-37.9,11-37.9
	c2.3,0,13.5-2.7,15.2,1.5C143.5,137.8,136.4,154.4,136.4,167.4z"/>
<ellipse fill="#2B2B2B" cx="141.3" cy="166.8" rx="11" ry="37.9"/>
<path fill="#CCC9C6" stroke="#070808" stroke-width="2" stroke-miterlimit="10" d="M315.3,72.3c6.1,29.3,4.9,50.1,4.9,50.1l-8.6,9.8
	c-1-9-3.2-15.3-5.7-15.3c-3.5,0-6.3,11.4-6.3,25.5c0,1.2,0,2.4,0.1,3.6l-12.8,14.6c0,0-26.9-100.6-23.3-135c0,0,25.3,4.1,30.3,6.5
	C303.1,38.7,313,61,315.3,72.3z"/>
<path fill="#CCC9C6" stroke="#070808" stroke-width="4" stroke-miterlimit="10" d="M237.2,190.6c-51.6,0.6-134.6-16.7-134.6-16.7
	s-7.3-49.3-7.3-71.4C95.3,82,96,41,98,23.1c56.9-10.3,129.3-7.6,129.3-7.6s9.9,75.5,9.9,97.4C237.2,133.5,240.6,177.5,237.2,190.6z"
	/>
<polygon fill="#565656" points="235.5,133.5 166.3,132 102.6,172.3 182.6,181.2 235.2,186.3 "/>
<path fill="#434343" d="M167,139.5l-3.4-101.2l66.1-5.1c0,0,6.3,61.8,6.1,69.2l-0.3,33L167,139.5z"/>
<path fill="#B2B3B3" d="M235.5,131.2"/>
<path d="M278.5,32l8.4,47.1l20.9-4.5c0,0-6.7-28.1-17.5-38.4C287.6,33.6,281.8,32.2,278.5,32z"/>
<path opacity="0.5" fill="#7D7D7D" enable-background="new    " d="M163.7,38.4L98.6,23c0,0-2.7,123,4.6,147.3l62.5-34.1L163.7,38.4
	z"/>
<path fill="#CCC9C6" stroke="#070808" stroke-width="2" stroke-miterlimit="10" d="M283,147.4c0,0-6.2,11.8-17.1,17.9
	c-1.9-13.1-5.9-25.7-10.4-25.7c-6.5,0-11.7,18.1-11.7,40.4c0,1.5,0,2.9,0.1,4.3c-2.2,2.1-4.4,4.2-6.7,6.3
	c5.2-56.5-5.3-144.2-9.9-175.2c0,0,16.4-0.3,43.7,9.6C274.9,38.2,288.9,77.4,283,147.4z"/>
<path fill="#FFFFFF" d="M100.7,26.8c0,0,69.8-9.8,126.5-6.6l0.1-3.9c0,0-98.6-0.8-128.7,8c0,0-6.2,73.9-2.3,91.2S97,99.3,97,99.3
	l0,0l1.7,19.3C98.7,118.6,96.6,62.9,100.7,26.8z"/>
<path fill="#45763B" stroke="#000000" stroke-width="2" stroke-miterlimit="10" d="M288.9,86.2l-0.4,26.2c0,0,13.2-7.9,20.7-13.5
	c2.4-4-0.7-18-0.7-18L288.9,86.2z"/>
<g>
	<g>
		<path fill="#45763B" stroke="#000000" stroke-width="4" stroke-miterlimit="10" d="M213.7,86.3c0,0,0.3-14.9-9.1-21.1
			c-6-4-26.4,5.4-21.4,16.1c2.2,1.4,5.7,0.6,8.4,1.1c7.8,1.4,12.3,10.3,12.3,10.3L213.7,86.3z"/>
		<g>
			<path fill="#45763B" d="M206.8,78.5c0,0,2.2-6.6-5.4-14.2c-3.6-3.5-12.2-4-14,3.8c-1.3,6,8.1,3.3,13.7,13.8"/>
			<path d="M206.8,78.5c0,0,0.1-0.2,0.1-0.6c0-0.4,0.1-1,0-1.7c0-0.7-0.2-1.6-0.4-2.6c-0.3-1-0.7-2-1.2-3.1
				c-0.6-1.1-1.3-2.2-2.2-3.3c-0.4-0.6-0.9-1.1-1.4-1.6c-0.3-0.3-0.5-0.5-0.8-0.8c-0.1-0.1-0.3-0.3-0.4-0.4l-0.2-0.2l-0.2-0.2
				c-1.2-0.8-2.7-1.3-4.2-1.5c-1.5-0.1-3.1,0.1-4.4,0.9c-1.3,0.8-2.3,2-2.8,3.4c-0.1,0.4-0.3,0.7-0.3,1.1c0,0.1-0.1,0.2-0.1,0.3
				c0,0.1,0,0.2-0.1,0.3c0,0.2,0,0.3-0.1,0.5c0,0.7,0.2,1.2,0.6,1.6c0.4,0.4,1.1,0.8,1.7,1.2c0.7,0.4,1.3,0.7,2,1
				c1.3,0.7,2.5,1.4,3.6,2.2c1,0.8,1.9,1.6,2.6,2.5c0.7,0.8,1.2,1.6,1.6,2.2c0.4,0.6,0.6,1.2,0.8,1.5c0.2,0.4,0.2,0.6,0.2,0.6
				s-0.1-0.2-0.3-0.5c-0.2-0.3-0.6-0.8-1-1.4c-0.9-1.1-2.4-2.7-4.4-4c-1-0.7-2.2-1.3-3.5-1.9c-0.7-0.3-1.3-0.6-2-0.9
				c-0.7-0.4-1.5-0.7-2.1-1.4c-0.3-0.3-0.6-0.8-0.8-1.2c-0.2-0.5-0.3-1-0.3-1.5c0-0.2,0-0.5,0.1-0.7c0-0.1,0-0.2,0.1-0.3
				c0-0.1,0.1-0.2,0.1-0.3c0.1-0.4,0.2-0.9,0.4-1.3c0.3-0.8,0.8-1.7,1.4-2.4c0.6-0.7,1.3-1.4,2.1-1.8c1.6-1,3.5-1.2,5.3-1.1
				c1.8,0.2,3.5,0.8,4.9,1.8c0.3,0.2,0.7,0.6,1,0.8c0.2,0.2,0.3,0.3,0.4,0.4c0.1,0.1,0.3,0.3,0.4,0.4c0.5,0.6,1,1.2,1.5,1.8
				c0.9,1.2,1.6,2.5,2.1,3.7c0.5,1.2,0.8,2.4,1,3.4c0.2,1,0.2,2,0.1,2.7c-0.1,0.8-0.2,1.3-0.3,1.7C206.9,78.3,206.8,78.5,206.8,78.5
				z"/>
		</g>
	</g>
	<path fill="#578E4A" d="M192.5,63.2c0,0-3.3,2.7,2,6.9c5.3,4.1,6.7,11.2,6.7,11.2s-2.4-6.3-10.9-9.4
		C185.1,70,190.4,63.8,192.5,63.2z"/>
	<path fill="#578E4A" d="M185.9,72.2c0,0-2.4,6.9,1.3,6.9c7.4,0,10.9,4.8,10.9,4.8s-3.4-2.9-13-2.7
		C180.7,79.1,185.9,72.2,185.9,72.2z"/>
</g>
<g>
	<path fill="#45763B" stroke="#000000" stroke-width="2" stroke-miterlimit="10" d="M228,92.5c6.4,8.6,10,15.2,10,15.2
		s1.5,2.8,4,34.8c3.1,38.1-17.7,28.5-25.4,30.4c-7.7,1.9-64,3.7-59-30.8c3.4-23.5,24.3-32.3,24.3-32.3s-3.8-17.1,12.8-23.7
		C216.7,77.3,224.2,87.4,228,92.5z"/>
	<g>
		<path fill="#578E4A" d="M200.2,87.3c0,0-19.3,1.5-16.1,24.4c0,0-33.2,14.2-23.6,45c0,0,10.9,19.1,48.8,15.5
			c0,0-49.4-12.4-29.8-37.5c11.8-15.4,17.7-10.1,23.6-10.1c0,0-7.5-14-3.9-15.2C199.1,109.4,219,97.3,200.2,87.3z"/>
	</g>
	
		<text transform="matrix(1.3816 -0.3412 0.2398 0.9708 205.9336 137.8496)" fill="#32401A" font-family="'CalistoMT'" font-size="39.9434">$</text>
	
		<text transform="matrix(1.3816 -0.3412 0.2398 0.9708 207.3867 136.9404)" fill="#A1BC64" font-family="'CalistoMT'" font-size="39.9434">$</text>
</g>
<g>
	<g>
		<path fill="#45763B" stroke="#000000" stroke-width="2" stroke-miterlimit="10" d="M140.4,94.1c0,0,4.8-12,13.1-12.1
			c5.3-0.1,16.5,11.8,7.2,22.3c-5.5-3.8-16.9-1.2-16.9-1.2L140.4,94.1z"/>
		<g>
			<path fill="#45763B" d="M147.9,91.7c0,0,1.3-5.7,9.1-7.6c3.6-0.9,9.2,2.8,7.1,9.2c-1.6,4.9-6.3-1.4-14.1,3.5"/>
			<path d="M147.9,91.7c0,0,0-0.2,0.1-0.5c0.1-0.3,0.2-0.7,0.4-1.3c0.2-0.5,0.6-1.2,1.1-1.8c0.5-0.7,1.1-1.4,1.9-2
				c0.8-0.7,1.8-1.2,2.8-1.7c0.5-0.2,1.1-0.5,1.7-0.6c0.3-0.1,0.6-0.2,0.9-0.3c0.2,0,0.3-0.1,0.5-0.1c0.2,0,0.4-0.1,0.5-0.1
				c1.4-0.1,2.8,0.3,4,1.1c1.2,0.8,2.3,1.9,2.8,3.2c0.6,1.3,0.7,2.9,0.5,4.3c-0.1,0.7-0.3,1.4-0.5,2c-0.1,0.4-0.3,0.7-0.6,1
				c-0.2,0.3-0.6,0.6-1,0.8c-0.4,0.2-0.8,0.3-1.2,0.3c-0.4,0-0.7,0-1,0c-0.6-0.1-1.2-0.2-1.8-0.3c-1.1-0.2-2.1-0.4-3-0.4
				c-0.9,0-1.8,0.1-2.6,0.2c-0.8,0.1-1.4,0.3-2,0.5c-0.5,0.2-1,0.4-1.2,0.5c-0.3,0.1-0.4,0.2-0.4,0.2s0.1-0.1,0.4-0.3
				s0.6-0.5,1.1-0.7c0.5-0.3,1.1-0.6,1.9-0.9c0.8-0.3,1.7-0.5,2.7-0.6c1-0.1,2.1,0,3.3,0.1c0.6,0.1,1.1,0.1,1.7,0.2
				c0.5,0,1,0,1.4-0.2c0.2-0.1,0.3-0.2,0.4-0.4c0.1-0.2,0.2-0.4,0.3-0.6c0.2-0.5,0.3-1.1,0.4-1.7c0.2-1.2,0.1-2.3-0.4-3.4
				c-0.5-1.1-1.3-2-2.2-2.6c-1-0.6-2.1-0.9-3.2-0.9c-0.5,0-1.1,0.2-1.6,0.3c-0.5,0.1-1.1,0.3-1.6,0.5c-1,0.4-1.9,0.8-2.7,1.4
				c-0.8,0.5-1.4,1.1-2,1.6c-0.5,0.6-1,1.1-1.3,1.6c-0.3,0.5-0.5,0.9-0.7,1.1C148,91.5,147.9,91.7,147.9,91.7z"/>
		</g>
	</g>
	<path fill="#45763B" stroke="#000000" stroke-width="2" stroke-miterlimit="10" d="M120.5,168.4c-4.9-2.7-21.3-3-26-18.1
		c-1.4-4.5-1.8-10.3-0.5-17.8c3.2-19.1,17.8-24.9,17.8-24.9s4.2-4.8,11.1-10.6c4-3.4,11.2-11.3,29.9-3.9c0.5,0.2,1,0.4,1.6,0.6
		c16.8,7.1,6.2,28.8,6.2,28.8s10.5,11.4,12.4,28.5C176.4,181.8,127,171.8,120.5,168.4z"/>
	<path fill="#578E4A" d="M120.8,166.7c-4.9-2.7-21-2.9-25.7-18c6.3,3.7,12.1,15.1,24.9,8.5c0,0,12,17.2,26.6-0.8
		c10.8-13.3,4.5-30.3-7-31.6c0,0,30.5-8.3,12.9-30.6c0.5,0.2,1,0.4,1.6,0.6c16.8,7.1,4.6,27.2,4.6,27.2s10.5,11.4,12.4,28.5
		C174.7,181.4,127.2,170.2,120.8,166.7z"/>
	
		<text transform="matrix(1.2081 0.383 -0.235 0.972 110.6006 136.7764)" fill="#32401A" font-family="'CalistoMT'" font-size="34.7032">$</text>
	
		<text transform="matrix(1.2081 0.383 -0.235 0.972 112.2363 136.5947)" fill="#A1BC64" font-family="'CalistoMT'" font-size="34.7032">$</text>
</g>
<path fill="#FFFFFF" stroke="#070808" stroke-width="2" stroke-miterlimit="10" d="M98.6,23c0,0-3.3,25.6-2.3,28.8l134.8-1.1
	c0,0-0.8-25-3.4-35.5c0,0-66.2-18.2-129.8,7.9"/>
<path fill="#CCC9C6" d="M101.2,26.9c0,0,50.1-24.4,123.3-6.1c0,0,2.1,20.3,1.7,24.8c0,0-92,4.1-126.3,0.4
	C99.5,41.5,101.2,26.9,101.2,26.9z"/>
<text transform="matrix(0.9464 -1.749990e-02 3.179982e-02 0.9995 107.2974 42.7119)" fill="#25421E" font-family="'CooperBlackStd'" font-size="20.5209">SECURITY</text>
<text transform="matrix(0.9464 -1.749990e-02 3.179982e-02 0.9995 108.3555 41.8037)" fill="#6FB25C" font-family="'CooperBlackStd'" font-size="20.5209">SECURITY</text>
<text transform="matrix(0.9464 -1.749990e-02 3.179982e-02 0.9995 108.0835 42.167)" fill="#45763B" font-family="'CooperBlackStd'" font-size="20.5209">SECURITY</text>
<path fill="#CCC9C6" stroke="#070808" stroke-width="2" stroke-miterlimit="10" d="M315.3,109.4l-7.5,4.2c0,0-0.4,17.5,2.2,17.5
	l3.2,0.4l6.7-5.8c0,0,2.4-13-0.4-17.1c-2.1-1.3-4-2.7-4-2.7L315.3,109.4z"/>
<path fill="#9D9B9A" d="M312.5,130.1l-1.1-15.4l-2.8,0.4c0,0-0.5,12.6,1.8,15.3C310.9,131.1,312.5,130.1,312.5,130.1z"/>
<linearGradient id="SVGID_1_" gradientUnits="userSpaceOnUse" x1="1329.0674" y1="-369.1826" x2="1353.9814" y2="-369.1826" gradientTransform="matrix(0.3979 0 0 -0.3979 -241.957 -86.4795)">
	<stop  offset="0" style="stop-color:#FFFFFF"/>
	<stop  offset="1" style="stop-color:#000000"/>
</linearGradient>
<path opacity="0.6" fill="url(#SVGID_1_)" enable-background="new    " d="M293.2,42.4c0,0,0,5.6-6.3,32.2l1.2,3.8l4.2-1.7
	c0,0,3.6-17.3,4.5-28.9C296.8,47.8,295.2,43.9,293.2,42.4z"/>
<ellipse fill="#FFFFFF" stroke="#070808" stroke-width="2" stroke-miterlimit="10" cx="238.7" cy="24.4" rx="1.2" ry="1.6"/>
<ellipse fill="#FFFFFF" stroke="#070808" stroke-width="2" stroke-miterlimit="10" cx="61.7" cy="48" rx="1.2" ry="1.6"/>
<ellipse fill="#FFFFFF" stroke="#070808" stroke-width="2" stroke-miterlimit="10" cx="56.3" cy="75.4" rx="1.2" ry="1.6"/>
<ellipse fill="#FFFFFF" stroke="#070808" stroke-width="2" stroke-miterlimit="10" cx="57.4" cy="64.6" rx="1.2" ry="1.6"/>
<ellipse fill="#FFFFFF" stroke="#070808" stroke-width="2" stroke-miterlimit="10" cx="246.4" cy="25.5" rx="1.2" ry="1.6"/>
<ellipse fill="#FFFFFF" stroke="#070808" stroke-width="2" stroke-miterlimit="10" cx="254.6" cy="26.8" rx="1.2" ry="1.6"/>
<ellipse fill="#FFFFFF" stroke="#070808" stroke-width="2" stroke-miterlimit="10" cx="260.9" cy="27.7" rx="1.2" ry="1.6"/>
<path fill="#FFFFFF" stroke="#070808" stroke-width="2" stroke-miterlimit="10" d="M268.6,30.2c0,0.9-0.5,1.6-1.2,1.6
	c-0.7,0-1.2-0.7-1.2-1.6c0-0.9,0.5-1.6,1.2-1.6C268,28.6,268.6,29.3,268.6,30.2z"/>
<g>
	<path fill="#45763B" stroke="#000000" stroke-width="2" stroke-miterlimit="10" d="M253.4,69.6l-14.1,3.9
		c-0.2-20.7,0.1-38.5,0.1-38.5l32.4,4.8c0,0,3.8,12.8,6.6,33.1l-11.5-3.1l-8.6-25.8L253.4,69.6z"/>
	<path fill="#45763B" stroke="#000000" stroke-width="2" stroke-miterlimit="10" d="M280.4,132.9l-15.8,10.7c0,0-11-9.5-19-8.1
		c-4.6,0.8-5.9-31.7-6.3-60.1l9.9,18.3l0,31.3l11.3-14.5l15.3,15.6L272.2,92l7-13C280.9,94.2,281.9,112.8,280.4,132.9z"/>
	<polygon fill="#45763B" stroke="#000000" stroke-width="2" stroke-miterlimit="10" points="259.5,61.2 263.4,76 274.2,77.6 
		265,87.8 269.2,110.4 259.8,100.1 251.5,110.4 253.2,91.8 246.2,78.6 255.9,76 	"/>
</g>
<g>
	<g>
		<path fill="#FFFFFF" stroke="#070808" stroke-width="4" stroke-miterlimit="10" d="M252,45.4c7.1,72.1,4.5,107.5-2.4,154.8
			c-0.5,3.5-17.2-9-17.2-9s2.2-56.2,1.9-75c-0.3-16.1-3-64.5-3-64.5S251.4,39.9,252,45.4z"/>
		<path fill="#B0AEAE" d="M247.1,48c4.2,68.5,7.1,96.1-1.9,149.2c-0.6,3.4-11.4-6.6-11.4-6.6s1.9-55,1.9-72.9
			c0-15.3-2.5-66.1-2.5-66.1S246.8,42.8,247.1,48z"/>
	</g>
	<ellipse fill="#FFFFFF" stroke="#070808" stroke-width="2" stroke-miterlimit="10" cx="243.7" cy="51.9" rx="1.2" ry="1.6"/>
	<ellipse fill="#FFFFFF" stroke="#070808" stroke-width="2" stroke-miterlimit="10" cx="245.2" cy="68.4" rx="1.2" ry="1.6"/>
	<ellipse fill="#FFFFFF" stroke="#070808" stroke-width="2" stroke-miterlimit="10" cx="246.4" cy="89.4" rx="1.2" ry="1.6"/>
	<ellipse fill="#FFFFFF" stroke="#070808" stroke-width="2" stroke-miterlimit="10" cx="247.6" cy="109.7" rx="1.2" ry="1.6"/>
	<ellipse fill="#FFFFFF" stroke="#070808" stroke-width="2" stroke-miterlimit="10" cx="248.5" cy="126.3" rx="1.2" ry="1.6"/>
	<ellipse fill="#FFFFFF" stroke="#070808" stroke-width="2" stroke-miterlimit="10" cx="248.5" cy="144.7" rx="1.2" ry="1.6"/>
	<ellipse fill="#FFFFFF" stroke="#070808" stroke-width="2" stroke-miterlimit="10" cx="246.4" cy="164.7" rx="1.2" ry="1.6"/>
	<ellipse fill="#FFFFFF" stroke="#070808" stroke-width="2" stroke-miterlimit="10" cx="243.7" cy="190.6" rx="1.2" ry="1.6"/>
</g>
<path fill="#775A45" stroke="#070808" stroke-width="5" stroke-miterlimit="10" d="M91.7,139.9c-0.2-0.1-0.5-0.1-0.7-0.2
	c0.2-0.2,0.4-0.3,0.5-0.5C91.6,139.6,91.7,139.9,91.7,139.9z"/>
<path fill="#775A45" stroke="#070808" stroke-width="5" stroke-miterlimit="10" d="M93.6,137.3c0,0-1.1,1-2.1,1.9
	C91.3,138.2,91.2,136.5,93.6,137.3z"/>
<g>
	<path fill="#775A45" d="M89,220.7c-12.3,6.2-14,12.9-15.9,22.2c0,0-14.7,12.1-24.4,6.4c-6.1-3.6-5.5-3.2-6.5-3.6
		c2.3-10.5,2.9-17.1,9.6-30.1c3-5.8,2.7-20.8-0.5-27.7c-3.6-7.7-6.4-10.4-4.5-21.6c1.1-6.4,10.6-17.8,11.7-18.7
		c10-6.5,17,1.8,26.3,6.2"/>
	<path fill="#070808" d="M89,220.7c-0.5,0.3-1,0.6-1.6,0.9c-0.5,0.3-1,0.6-1.5,0.9c-0.5,0.3-1,0.7-1.5,1c-0.5,0.3-1,0.7-1.4,1.1
		c-0.5,0.4-0.9,0.8-1.4,1.2c-0.4,0.4-0.9,0.8-1.3,1.2c-0.4,0.4-0.8,0.9-1.2,1.3c-0.4,0.5-0.7,0.9-1,1.4c-0.3,0.5-0.6,1-0.9,1.5
		c-0.3,0.5-0.5,1-0.8,1.6c-0.2,0.5-0.5,1.1-0.7,1.6c-0.2,0.6-0.4,1.1-0.5,1.7c-0.7,2.3-1.1,4.6-1.5,6.9l0,0.2l-0.2,0.2
		c-0.6,0.5-1.1,0.9-1.7,1.4c-0.6,0.4-1.2,0.8-1.8,1.2c-1.2,0.8-2.5,1.5-3.7,2.2c-2.6,1.3-5.3,2.4-8.2,3c-1.4,0.3-2.9,0.4-4.4,0.3
		c-1.5-0.1-3-0.4-4.4-1.1c-0.3-0.2-0.7-0.3-1-0.5l-0.9-0.5l-1.8-1.1l-1.8-1.1c-0.3-0.2-0.6-0.3-0.9-0.5c-0.3-0.2-0.5-0.2-0.9-0.4
		l-0.6-0.2l0.1-0.7c0.9-4.3,1.7-8.6,2.8-12.8c0.6-2.1,1.2-4.3,2-6.3c0.8-2.1,1.6-4.1,2.5-6.1c0.5-1,0.9-2,1.4-3l0.7-1.5l0.2-0.4
		l0.2-0.3l0.2-0.4l0.1-0.3c0.7-1.9,1.1-4.1,1.3-6.2c0.2-2.1,0.3-4.3,0.2-6.4c-0.1-2.2-0.2-4.3-0.6-6.4c-0.3-2.1-0.8-4.2-1.6-6.2
		c-0.4-1-0.9-1.9-1.4-2.9l-1.5-2.9c-1-2-1.9-4.1-2.3-6.3c-0.5-2.2-0.5-4.5-0.3-6.8c0.1-1.1,0.2-2.2,0.4-3.3l0.1-0.4l0-0.2l0-0.1
		l0-0.1c0.1-0.3,0.1-0.5,0.2-0.8c0.1-0.3,0.2-0.6,0.3-0.8c0.1-0.3,0.2-0.5,0.3-0.8c0.8-2.1,1.9-4.1,3.1-5.9c1.2-1.9,2.4-3.7,3.8-5.4
		c0.7-0.9,1.3-1.7,2-2.6c0.4-0.4,0.7-0.9,1.1-1.3l0.6-0.6c0.2-0.2,0.4-0.4,0.6-0.7l0,0l0,0c0.5-0.3,1.1-0.7,1.6-0.9
		c0.3-0.2,0.6-0.3,0.9-0.4c0.3-0.1,0.6-0.3,0.9-0.4L62,145l0.5-0.1l0.5-0.1l0.5-0.1l0.5-0.1l0.5-0.1c0.3,0,0.6-0.1,1-0.1
		c0.6,0,1.3,0,1.9,0.1c0.3,0,0.6,0.1,0.9,0.1c0.3,0.1,0.6,0.1,0.9,0.2c0.6,0.2,1.2,0.4,1.8,0.6c0.6,0.2,1.1,0.5,1.7,0.7
		c1.1,0.5,2.2,1.1,3.2,1.8c1,0.6,2,1.3,3,2c1,0.7,2,1.3,3,2c0.5,0.3,1,0.6,1.5,0.9c0.5,0.3,1,0.6,1.6,0.9c-2.2-1-4.3-2.2-6.4-3.3
		c-1-0.6-2.1-1.2-3.1-1.8c-1.1-0.6-2.1-1.1-3.2-1.5c-0.5-0.2-1.1-0.4-1.7-0.6s-1.1-0.3-1.7-0.4c-0.3,0-0.6-0.1-0.9-0.1
		c-0.3,0-0.6-0.1-0.9-0.1c-0.6,0-1.1,0-1.7,0c-0.3,0-0.6,0.1-0.8,0.1l-0.4,0.1l-0.4,0.1l-0.4,0.1l-0.4,0.1l-0.4,0.1l-0.4,0.2
		c-0.3,0.1-0.5,0.2-0.8,0.3c-0.3,0.1-0.5,0.2-0.8,0.4c-0.3,0.1-0.5,0.3-0.8,0.4l-0.7,0.4l0.1-0.1c-0.1,0.1-0.3,0.3-0.5,0.5l-0.5,0.6
		c-0.4,0.4-0.7,0.8-1,1.2c-0.7,0.8-1.4,1.7-2,2.6c-1.3,1.7-2.6,3.5-3.7,5.3c-1.1,1.8-2.2,3.7-3,5.7c-0.2,0.5-0.4,1-0.5,1.5
		c-0.1,0.2-0.1,0.5-0.2,0.8l0,0.1l0,0c0,0,0,0,0,0l0,0.1l0,0.2l-0.1,0.4c-0.2,1.1-0.3,2.1-0.4,3.2c-0.2,2.1-0.2,4.3,0.3,6.3
		c0.4,2.1,1.2,4,2.2,5.9l1.5,2.9c0.5,1,1,2,1.4,3c0.8,2.1,1.3,4.3,1.7,6.5c0.3,2.2,0.5,4.4,0.6,6.6c0.1,2.2,0,4.4-0.2,6.7
		c-0.2,2.2-0.6,4.4-1.4,6.6l-0.2,0.4l-0.2,0.4l-0.2,0.4l-0.2,0.4l-0.7,1.5c-0.5,1-0.9,2-1.4,2.9c-0.9,2-1.7,4-2.4,6
		c-0.7,2-1.4,4.1-1.9,6.2c-1.1,4.2-1.9,8.5-2.8,12.8l-0.5-0.9c0.3,0.1,0.7,0.3,1,0.4c0.3,0.2,0.7,0.3,1,0.5l1.8,1.1l1.8,1.1l0.9,0.5
		c0.3,0.2,0.6,0.3,0.9,0.5c1.2,0.5,2.5,0.8,3.8,0.9c1.3,0.1,2.7,0,4-0.3c2.7-0.5,5.3-1.6,7.7-2.9c1.2-0.6,2.4-1.4,3.6-2.1
		c0.6-0.4,1.2-0.8,1.7-1.2c0.6-0.4,1.2-0.8,1.7-1.2l-0.3,0.4c0.5-2.3,1.1-4.7,1.9-7c0.2-0.6,0.4-1.1,0.6-1.7
		c0.2-0.6,0.5-1.1,0.8-1.7c0.3-0.5,0.6-1.1,0.9-1.6c0.3-0.5,0.7-1,1-1.5c0.4-0.5,0.7-1,1.1-1.4c0.4-0.5,0.8-0.9,1.3-1.3
		c0.4-0.4,0.9-0.8,1.4-1.2c0.5-0.4,0.9-0.8,1.4-1.1c0.5-0.3,1-0.7,1.5-1c0.5-0.3,1-0.6,1.5-0.9c0.5-0.3,1-0.6,1.6-0.8
		C88,221.2,88.5,220.9,89,220.7z"/>
</g>
<g>
	<g>
		<path fill="#775A45" d="M71.8,155.1c11.8-0.1,18.1,0.9,23.8,1.5c20,2.2,35,14.5,27,25.4c-9.7,13.3-15.1-1-30.3-0.6
			C79,181.8,79,183,79,183"/>
		<path fill="#070808" d="M71.8,155.1c0,0,0.5,0,1.3-0.1c0.8,0,2.1-0.1,3.7-0.1c0.8,0,1.7,0,2.6,0c1,0,2,0,3.1,0
			c1.1,0,2.3,0.1,3.5,0.1c1.2,0.1,2.5,0.2,3.9,0.3c1.4,0.1,2.8,0.3,4.2,0.4c1.4,0.1,3,0.3,4.5,0.5c3.1,0.5,6.3,1.3,9.6,2.4
			c3.2,1.2,6.5,2.7,9.5,4.8c1.5,1,2.9,2.2,4.2,3.6c1.3,1.4,2.3,3,3.1,4.8c0.4,0.9,0.6,1.8,0.7,2.8c0.1,1,0.1,2-0.1,2.9
			c-0.2,1-0.5,1.9-0.9,2.8c-0.4,0.9-0.9,1.7-1.5,2.4c-1.1,1.5-2.3,2.8-3.8,4c-0.7,0.6-1.6,1-2.5,1.3c-0.9,0.3-1.8,0.5-2.8,0.4
			c-1.9,0-3.5-0.7-5-1.3c-1.5-0.7-2.9-1.4-4.3-2.1c-2.8-1.3-5.5-2.3-8.1-2.8c-1.3-0.2-2.6-0.3-3.8-0.4c-1.2,0-2.4,0-3.5,0
			c-2.2,0-4.1,0.1-5.7,0.2c-1.6,0.1-2.8,0.3-3.6,0.4c-0.4,0.1-0.7,0.2-0.9,0.3c-0.2,0.1-0.3,0.2-0.2,0.2c0,0,0-0.1,0.2-0.2
			c0.2-0.1,0.5-0.2,0.9-0.4c0.8-0.3,2-0.5,3.6-0.7c1.6-0.2,3.5-0.5,5.7-0.6c0.6,0,1.1-0.1,1.7-0.1c0.6,0,1.2-0.1,1.8-0.1
			c1.3,0,2.6,0.1,4,0.3c2.7,0.4,5.6,1.4,8.4,2.7c1.4,0.6,2.8,1.4,4.3,2c1.5,0.6,3,1.1,4.5,1.1c1.5,0,3-0.6,4.3-1.5
			c1.3-1,2.4-2.3,3.4-3.7c0.5-0.7,0.9-1.4,1.3-2.1c0.3-0.8,0.6-1.5,0.7-2.4c0.3-1.6,0.1-3.3-0.6-4.9c-0.6-1.6-1.6-3-2.8-4.3
			c-1.2-1.3-2.5-2.4-3.9-3.4c-2.8-2-6-3.5-9.1-4.6c-3.1-1.1-6.3-1.9-9.3-2.4c-1.5-0.3-3-0.4-4.4-0.6c-1.4-0.2-2.8-0.4-4.2-0.5
			c-1.3-0.2-2.6-0.3-3.8-0.5c-1.2-0.1-2.4-0.3-3.5-0.3c-1.1-0.1-2.1-0.2-3.1-0.3c-0.9-0.1-1.8-0.1-2.6-0.2c-1.6-0.1-2.8-0.1-3.7-0.2
			C72.3,155.1,71.8,155.1,71.8,155.1z"/>
	</g>
	<path fill="#961B1E" stroke="#070808" stroke-width="3" stroke-miterlimit="10" d="M99.1,181.5c0,0-1.4-13.5,11.4-21.1
		c0,0-5.6-4.3-15-3.8c0,0-14.5,12.6-7.9,22.3C87.7,178.9,91.2,181.4,99.1,181.5z"/>
</g>
<g>
	<path fill="#775A45" d="M96.5,228.6c-0.4-7.9,7.1-20.2,8.2-33.6c1.7-21.1-3.7-27.1-4.5-29c-5.3-13.1-16.5-13.5-17.2-15.8"/>
	<path fill="#070808" d="M96.5,228.6c0,0,0-0.1,0-0.3c0-0.2,0-0.4,0-0.7c0-0.7,0-1.6,0.2-2.8c0.2-1.2,0.5-2.7,0.9-4.3
		c0.4-1.6,1-3.5,1.6-5.4c0.6-2,1.3-4.1,2-6.4c0.7-2.3,1.3-4.7,1.8-7.2c0.3-1.3,0.5-2.5,0.7-3.8c0.2-1.3,0.3-2.6,0.4-4
		c0.2-2.7,0.2-5.4,0.2-8.2c-0.1-2.7-0.3-5.5-0.7-8.1c-0.4-2.6-1.1-5.2-2.1-7.5c-0.3-0.6-0.5-1.1-0.8-1.7c-0.3-0.6-0.6-1.1-0.9-1.7
		c-0.3-0.6-0.5-1.1-0.7-1.7c-0.2-0.5-0.5-1.1-0.8-1.6c-1.1-2-2.4-3.8-3.9-5.2c-1.4-1.4-2.9-2.6-4.3-3.4c-1.4-0.9-2.7-1.5-3.8-2.1
		c-1.1-0.5-1.9-1-2.5-1.4c-0.3-0.2-0.4-0.4-0.5-0.6c0-0.1-0.1-0.1-0.1-0.2c0,0,0-0.1,0-0.1s0,0.1,0.1,0.2c0.1,0.1,0.3,0.3,0.5,0.5
		c0.5,0.3,1.4,0.7,2.6,1.1c1.1,0.4,2.5,1,4,1.8c1.5,0.8,3.2,1.9,4.7,3.3c1.6,1.4,3.1,3.2,4.3,5.4c0.3,0.5,0.6,1.1,0.9,1.6
		c0.3,0.6,0.5,1.2,0.8,1.7c0.2,0.5,0.6,1,0.9,1.6c0.3,0.6,0.6,1.2,0.9,1.8c1.1,2.4,1.8,5.1,2.3,7.8c0.2,1.4,0.4,2.8,0.5,4.1
		c0.1,1.4,0.2,2.8,0.2,4.2c0.1,2.8,0,5.6-0.3,8.3c-0.1,1.3-0.2,2.7-0.4,4.1c-0.2,1.3-0.5,2.7-0.8,3.9c-1.2,5.1-2.9,9.7-4.3,13.6
		c-0.7,1.9-1.4,3.7-1.9,5.3c-0.5,1.6-0.9,3-1.2,4.2c-0.2,1.2-0.4,2.1-0.4,2.8c0,0.3,0,0.6,0,0.7C96.5,228.5,96.5,228.6,96.5,228.6z"
		/>
</g>
<path fill="#E8BD9B" stroke="#070808" stroke-miterlimit="10" d="M99.9,174.2c2.5,8.7,4.5,30.2-8,36.7c-5.7,3-6-12.2-6.6-27.4
	c-0.8-19.4-24.7-43.9,5-24.9C101.7,166,96.7,162.8,99.9,174.2z"/>
<path stroke="#000000" stroke-width="6" stroke-miterlimit="10" d="M84.3,109.9c1.3,2.5,8.4,3.5,11.8,10.7c4.8,10-6.6,22.1-6.6,22.1
	c-17.8,19.5-37.2,15.6-39.9,15.7c-1.6,0.1-6.8-0.6-13.6-4.3c-8.3-4.6-4.3-20.2-4.3-20.2l-1.5-4c-1.7-0.7-0.4-5.1,0.1-6.2
	c-1.6,2.4-16.3,1.2-13.1-8c4-11.3,16.2-5.7,16.2-5.7c12-14.1,28.4-18.7,28.4-18.7c-2.3-4.4,1.8-13.5,12.1-9.9
	c11.9,4.2,1.5,13.2,1.5,13.2l0.3,0.4c5.6,3.6,6.2,8.3,6.2,8.3S81.1,105.9,84.3,109.9z"/>
<path fill="#775A45" d="M94.4,137.8c0,0,6.4-7.8,3.4-16.7c-2.2-6.6-11.2-11-11.2-11s-2.5-11.1-9.1-14.7L94.4,137.8z"/>
<path fill="#775A45" d="M31.4,134.2c0,0-5.6,12.6,2.3,19.3c5.2,4.4,14.7,6.3,14.7,6.3s1.7,0.2,4.4,0.1c9.4-0.2,31.2-2.9,42.2-23.2
	L76.9,94.1c0,0,10.2-8.9-2.3-13.9c-10.4-4.2-16.3,5.1-14,9.9c0,0-13.6,5.8-22.4,13.3c-1.9,1.6-3.6,3.3-4.9,5.1
	c0,0-10.2-6.8-17.1,6.6c-2.7,11.6,11.8,11.4,13.4,9.1c-0.4,1-1.6,4-0.9,5.4c0.1,0.2,0.3,0.4,0.6,0.5l2.1,4L31.4,134.2z"/>
<path fill="#FFFFFF" d="M78.5,107.3c0,0,6.2,11.1-8.2,10.2C68.3,109.4,77.1,107.8,78.5,107.3z"/>
<path fill="#FFFFFF" d="M42,128.5c0,0,5-10.8,14-5.5C56.9,131.1,44,138.1,42,128.5z"/>
<path fill="#39A59B" d="M53.2,124.7c0,0,0.2,3.6-3.8,4.9c-4,1.3-6.7-0.9-6.7-0.9s3.1-5.8,9.9-6.2L53.2,124.7z"/>
<path fill="#39A59B" d="M76.3,108.1c0,0,3.9,8.4-6.3,7.6c0,0,0-2.7,3.1-5.9L76.3,108.1z"/>
<path stroke="#000000" stroke-miterlimit="10" d="M74.4,109c0,0,3.3,5.8-3.7,5C70.7,114.1,71.3,110.2,74.4,109z"/>
<path stroke="#000000" stroke-miterlimit="10" d="M50.1,126.4c-3.3,2.6-5.6-0.3-5.6-0.3s1.2-3,5.6-4
	C50.1,122.1,51.5,125.3,50.1,126.4z"/>
<path fill="#E9BB9B" d="M91.8,140.9c0,0,6.4-17.8-11.3-21.7c0,0-6.5,4.1-8.3,4.7c-1.8,0.6-14.9,10.5-22.5,10.6
	c0,0-9.3,19.5,7.8,25.1C57.5,159.6,82,158.5,91.8,140.9z"/>
<path fill="#AC8569" d="M40.4,102.9c0,0,10.3-9.7,20.1-12.7c6.3-0.9,11.4,1.9,11.4,1.9s5.4-2.6,3.9-7.1c-1.5-4.5-8.5-4.6-9.2-4.7
	c1.9-1.3,20.2-0.5,11.8,12.4l-1.6,1.6c0,0,5.2,4.3,5.8,6.3c-0.9,0.6-1.8,0-1.8,0L79,101C79,101,63.1,87.3,40.4,102.9z"/>
<path fill="#AC8569" d="M83.9,114.2l2.4-3.7l1.7,0.6c17.1,10,8.3,23.1,8.3,23.1l0.5-2.2C98.6,118.9,83.9,114.2,83.9,114.2z"/>
<path fill="#FFFFFF" d="M45,127.4c0.3,0.3,0.8,0.4,1.2,0.2c0.4-0.2,0.5-0.7,0.2-1c-0.3-0.3-0.8-0.4-1.2-0.2
	C44.8,126.6,44.7,127.1,45,127.4z"/>
<path fill="#FFFFFF" d="M72.2,113.8c0.3,0.4,0.8,0.5,1.2,0.3c0.4-0.3,0.5-0.8,0.2-1.2c-0.3-0.4-0.8-0.5-1.2-0.3
	C72,112.8,71.9,113.4,72.2,113.8z"/>
<g>
	<path d="M80.5,119.3c0,0,0.1,0,0.3,0c0.2,0,0.5,0,0.9,0.1c0.4,0.1,0.9,0.1,1.4,0.3c0.5,0.1,1.1,0.3,1.8,0.5c0.3,0.1,0.7,0.2,1,0.4
		c0.3,0.2,0.7,0.3,1,0.5c0.7,0.4,1.4,0.8,2.1,1.4c0.7,0.5,1.3,1.2,1.9,1.9c0.3,0.4,0.6,0.7,0.8,1.1c0.1,0.2,0.3,0.4,0.4,0.6l0.3,0.6
		c0.2,0.4,0.4,0.9,0.6,1.3c0.1,0.4,0.3,0.9,0.4,1.3c0.2,0.9,0.4,1.8,0.4,2.7c0.1,0.9,0,1.7,0,2.5c-0.1,0.8-0.2,1.5-0.3,2.2
		c-0.1,0.3-0.1,0.7-0.2,1c-0.1,0.3-0.2,0.6-0.2,0.8c-0.1,0.3-0.1,0.5-0.2,0.7c-0.1,0.2-0.2,0.4-0.2,0.6c-0.3,0.7-0.4,1.2-0.4,1.2
		s0.1-0.4,0.2-1.2c0-0.2,0.1-0.4,0.1-0.6c0-0.2,0.1-0.5,0.1-0.8c0-0.3,0.1-0.6,0.1-0.9c0-0.3,0.1-0.6,0.1-1c0.1-0.7,0.1-1.4,0.1-2.1
		c0-0.8,0-1.5-0.1-2.4c-0.1-0.8-0.3-1.6-0.5-2.5c-0.1-0.4-0.3-0.8-0.4-1.2c-0.2-0.4-0.3-0.8-0.5-1.2l-0.3-0.6
		c-0.1-0.2-0.2-0.4-0.3-0.5c-0.2-0.4-0.5-0.7-0.7-1c-0.5-0.6-1.1-1.3-1.7-1.8c-0.6-0.5-1.2-1-1.9-1.4c-0.6-0.4-1.3-0.7-1.9-1
		c-1.2-0.6-2.2-0.9-3-1.2c-0.4-0.1-0.7-0.2-0.9-0.3C80.6,119.3,80.5,119.3,80.5,119.3z"/>
</g>
<g>
	<path d="M49.7,134.3c0,0-0.2,0.5-0.4,1.3c-0.1,0.4-0.3,0.9-0.4,1.5c-0.1,0.6-0.3,1.2-0.4,1.9c-0.1,0.7-0.3,1.5-0.4,2.3
		c-0.1,0.8-0.2,1.7-0.3,2.5c0,0.4,0,0.9,0,1.3c0,0.5,0,0.9,0,1.4c0,0.9,0.2,1.8,0.3,2.7l0.2,0.7l0.1,0.3l0.1,0.3l0.2,0.7
		c0.1,0.2,0.2,0.4,0.2,0.6c0.2,0.4,0.4,0.8,0.6,1.2c0.2,0.4,0.4,0.8,0.7,1.1c0.3,0.3,0.5,0.7,0.8,1c0.3,0.3,0.5,0.6,0.8,0.9
		c0.3,0.3,0.6,0.5,0.8,0.8c0.3,0.2,0.6,0.5,0.8,0.7c0.3,0.2,0.6,0.4,0.8,0.6c0.3,0.2,0.5,0.4,0.8,0.5c0.3,0.1,0.5,0.3,0.7,0.4
		c0.2,0.1,0.4,0.2,0.6,0.3c0.8,0.4,1.2,0.6,1.2,0.6s-0.5-0.1-1.3-0.4c-0.4-0.1-0.9-0.3-1.4-0.6c-0.3-0.1-0.6-0.3-0.9-0.4
		c-0.3-0.2-0.6-0.3-0.9-0.5c-0.3-0.2-0.6-0.4-1-0.6c-0.3-0.2-0.6-0.5-1-0.8c-0.3-0.3-0.6-0.6-0.9-0.9c-0.3-0.3-0.6-0.7-0.9-1.1
		c-0.5-0.8-1.1-1.6-1.4-2.5c-0.1-0.2-0.2-0.5-0.3-0.7l-0.2-0.7l-0.1-0.4l-0.1-0.4l-0.2-0.7c-0.2-1-0.3-2-0.3-2.9c0-1,0-1.9,0.1-2.8
		c0.1-0.9,0.3-1.8,0.4-2.6c0.1-0.4,0.2-0.8,0.3-1.2c0.1-0.4,0.2-0.7,0.3-1.1c0.2-0.7,0.5-1.3,0.7-1.9c0.2-0.5,0.4-1,0.6-1.4
		C49.5,134.7,49.7,134.3,49.7,134.3z"/>
</g>
<g>
	<path fill="none" d="M76.2,107.8"/>
</g>
<g>
	<path fill="none" d="M82,106.3"/>
</g>
<path fill="none" stroke="#000000" stroke-width="2" stroke-miterlimit="10" d="M76.4,108c0.4,0.8,2.9,8.9-6.1,7.9"/>
<path fill="none" stroke="#000000" stroke-width="2" stroke-miterlimit="10" d="M52.2,121.7c0.4-0.1,3.5,5.2-2.4,7.9
	c-3.9,1.8-6.9-1.6-6.9-1.6C43.5,126.8,44.7,122.6,52.2,121.7z"/>
<path fill="none" stroke="#000000" stroke-width="3" stroke-miterlimit="10" d="M89.7,106.1"/>
<path fill="none" stroke="#000000" stroke-width="3" stroke-miterlimit="10" d="M86.7,105"/>
<path fill="#AC8569" d="M29.5,124.7c-0.4,1-1.6,4-0.9,5.4c5.6-2.3,4.6-8.1,4.6-8.1c-7.3,3.8-17.2-2.1-10.8-9.2
	c4.6-5.1,11.2-0.7,11.2-0.7c0.5-2.8,6.5-8.2,6.5-8.2s7.6-5.5,12.7-9.8c-1.7,1.4-14.3,6.5-19.5,14.5c0,0-11.9-6.8-17.2,7.1
	C12.2,125.7,27.8,127,29.5,124.7z"/>
<path fill="#AC8569" d="M34.5,154c6,4.5,16,5.8,18.8,5.7C25.4,156.5,35.1,135,35.1,135h-1.9l-1.9,0.2
	C31.2,135.2,26.1,147.7,34.5,154z"/>
<g>
	<path fill="#070808" d="M56.5,145.9c0,0,0.3,0.4,1,0.8c0.3,0.2,0.8,0.5,1.3,0.7c0.5,0.2,1.2,0.4,1.9,0.4c0.7,0.1,1.5,0.1,2.2-0.1
		c0.8-0.1,1.6-0.4,2.4-0.7c0.4-0.1,0.8-0.4,1.2-0.5c0.2-0.1,0.4-0.2,0.6-0.3c0.2-0.1,0.4-0.2,0.6-0.3c0.4-0.2,0.8-0.5,1.2-0.8
		c0.4-0.3,0.8-0.5,1.2-0.8c0.8-0.6,1.5-1.2,2.2-1.8c0.3-0.3,0.7-0.6,1-0.9c0.3-0.3,0.7-0.6,1-0.9c0.3-0.3,0.6-0.6,0.9-0.9
		c0.3-0.3,0.6-0.6,0.9-0.9c0.6-0.6,1.1-1.2,1.6-1.7c0.5-0.5,0.9-1,1.3-1.5c0.4-0.4,0.7-0.8,1-1.1c0.6-0.6,0.9-1,0.9-1
		s-0.3,0.4-0.7,1.1c-0.2,0.4-0.5,0.8-0.9,1.3c-0.3,0.5-0.7,1-1.2,1.6c-0.4,0.6-0.9,1.2-1.5,1.9c-0.6,0.6-1.1,1.3-1.8,2
		c-0.3,0.3-0.6,0.7-1,1c-0.3,0.3-0.7,0.7-1.1,1c-0.7,0.6-1.5,1.3-2.3,1.9c-0.4,0.3-0.8,0.6-1.2,0.9c-0.4,0.3-0.8,0.5-1.3,0.8
		c-0.4,0.3-0.9,0.5-1.3,0.7c-0.5,0.2-0.9,0.4-1.3,0.5c-0.9,0.3-1.8,0.5-2.7,0.6c-0.9,0.1-1.7,0-2.5-0.1c-0.7-0.1-1.4-0.4-1.9-0.7
		c-0.5-0.3-1-0.6-1.3-0.9c-0.3-0.3-0.5-0.6-0.7-0.7C56.5,146,56.5,145.9,56.5,145.9z"/>
</g>
<g>
	<path fill="#070808" d="M58.1,144.6c0,0,0,0.1-0.1,0.2c0,0.1-0.1,0.3-0.2,0.5c-0.1,0.2-0.2,0.4-0.3,0.6c0,0.1,0,0.1-0.1,0.2
		c0,0.1,0,0.1-0.1,0.2c0,0.1-0.1,0.2-0.1,0.3c0,0.1-0.1,0.2-0.1,0.3c0,0.1,0,0.2,0,0.3c0,0,0,0.1,0,0.1c0,0,0,0.1,0,0.1
		c0,0.1,0,0.2,0,0.3c0,0.1,0,0.2,0,0.3c0,0.1,0,0.2,0,0.2c0,0.1,0,0.2,0,0.2s-0.1,0-0.2-0.1c-0.1,0-0.1-0.1-0.2-0.1
		c-0.1-0.1-0.2-0.1-0.3-0.2c0,0-0.1-0.1-0.1-0.1c0-0.1-0.1-0.1-0.1-0.2c0-0.1-0.1-0.1-0.1-0.2c0-0.1,0-0.2-0.1-0.2
		c-0.1-0.2-0.1-0.3,0-0.5c0-0.2,0.1-0.4,0.1-0.5c0.1-0.2,0.1-0.3,0.2-0.5c0.1-0.1,0.2-0.3,0.3-0.4c0.1-0.1,0.2-0.2,0.3-0.3
		c0.1-0.1,0.2-0.2,0.3-0.2c0.2-0.1,0.4-0.2,0.5-0.2C58,144.6,58.1,144.6,58.1,144.6z"/>
</g>
<g>
	<path fill="#45763B" stroke="#070808" stroke-width="2" stroke-miterlimit="10" d="M172.8,172.9c0,0,3.5,1.3,5.4,6.6
		c2.2,6.3-2.7,11.5-2.7,11.5s-5.1,3.6-6.8-3.2c0,0,7.6-6.8,4.6-13.3L172.8,172.9z"/>
	<g>
		<g>
			<path fill="#45763B" d="M148.5,177c0,0,18.4,14.1,26,3c9.9-14.5,3.9-27.2-2.5-35.6"/>
			<path d="M148.5,177c0,0,0.2,0.1,0.7,0.4c0.4,0.2,1.1,0.6,1.9,1c0.8,0.4,1.8,0.9,3,1.4c0.3,0.1,0.6,0.2,0.9,0.4
				c0.3,0.1,0.6,0.3,0.9,0.5c0.6,0.3,1.3,0.6,2,0.9c1.4,0.6,3,1.2,4.7,1.5c1.7,0.4,3.6,0.6,5.4,0.3c1.8-0.3,3.6-1.2,4.9-2.6
				c0.3-0.3,0.6-0.7,0.9-1.1c0.3-0.4,0.6-0.9,0.9-1.3c0.3-0.4,0.5-0.9,0.8-1.3l0.7-1.4c0.9-1.8,1.6-3.8,2.1-5.7c0.2-1,0.4-2,0.5-2.9
				c0.1-1,0.2-2,0.1-2.9c0-1.9-0.3-3.8-0.7-5.5s-1-3.3-1.6-4.7c-0.2-0.3-0.3-0.7-0.4-1.1c-0.1-0.3-0.3-0.7-0.4-1
				c-0.1-0.3-0.3-0.6-0.4-1c-0.1-0.3-0.3-0.6-0.4-0.9c-0.6-1.1-1.1-2.1-1.5-2.9c-0.5-0.8-0.8-1.4-1.1-1.9c-0.3-0.4-0.4-0.6-0.4-0.6
				s0.2,0.2,0.5,0.6c0.3,0.4,0.8,0.9,1.4,1.6c0.6,0.7,1.3,1.6,2,2.7c0.2,0.3,0.4,0.6,0.6,0.8c0.2,0.3,0.4,0.6,0.6,0.9
				c0.4,0.6,0.8,1.3,1.1,2c0.6,1.5,1.2,3.2,1.7,5c0.4,1.8,0.7,3.8,0.7,5.8c0,1,0,2.1-0.2,3.1c-0.1,1-0.3,2.1-0.6,3.1
				c-0.5,2.1-1.3,4.1-2.2,6.1l-0.8,1.4c-0.3,0.5-0.6,0.9-0.8,1.4c-0.3,0.4-0.6,0.9-0.9,1.3c-0.3,0.5-0.7,0.9-1.1,1.3
				c-0.8,0.8-1.7,1.5-2.7,2c-1,0.5-2,0.8-3.1,1c-2.1,0.4-4.1,0.1-6-0.3c-1.8-0.4-3.5-1-5-1.6c-0.7-0.3-1.4-0.6-2.1-1
				c-0.3-0.2-0.7-0.3-1-0.5c-0.3-0.2-0.6-0.4-0.8-0.6c-1.1-0.7-2-1.4-2.7-2c-0.7-0.6-1.3-1.1-1.6-1.4
				C148.7,177.2,148.5,177,148.5,177z"/>
		</g>
		<g>
			<path fill="#45763B" d="M169.4,167.7l-5.6,6.1c-23.6,18.9-42.6,12.9-52.9,2.2c-7.1-7.3-10.1-16.9-7.8-21.9
				c5.7-12.5,20.8-20.3,20.8-20.3c9-4.8,15.7-3.7,26.5-2.2c30.6,4.1,23.2,21.7,23.2,21.7l0.6,2.3"/>
			<path d="M169.4,167.7c-0.8,1.1-1.7,2.2-2.5,3.3c-0.9,1.1-1.7,2.2-2.6,3.2l0,0l-0.1,0.1c-1.4,1.2-2.9,2.4-4.4,3.5s-3,2.2-4.7,3.1
				c-3.3,1.8-6.7,3.4-10.3,4.5c-3.6,1.1-7.4,1.7-11.2,1.7c-3.8,0-7.6-0.7-11.1-2.1c-3.6-1.4-6.8-3.3-9.7-5.8
				c-2.9-2.4-5.4-5.3-7.4-8.6c-1-1.6-1.9-3.3-2.6-5.1c-0.7-1.8-1.2-3.6-1.4-5.6c-0.1-1-0.2-2-0.1-3c0.1-1,0.3-2,0.7-3
				c0.8-1.8,1.7-3.4,2.8-5c2.1-3.1,4.7-5.9,7.6-8.4c2.8-2.5,5.9-4.7,9.1-6.6c3.2-1.9,6.8-3.5,10.5-4.2c3.8-0.7,7.6-0.5,11.3-0.2
				c1.9,0.2,3.7,0.4,5.5,0.7c1.8,0.2,3.7,0.5,5.5,0.8c1.8,0.3,3.7,0.8,5.5,1.3c1.8,0.5,3.6,1.2,5.3,2c0.9,0.4,1.7,0.9,2.5,1.4
				c0.8,0.5,1.6,1,2.3,1.7c1.4,1.3,2.7,2.9,3.5,4.6c0.9,1.7,1.3,3.7,1.3,5.6c0,1.9-0.3,3.8-1.1,5.5l0-0.1l0.5,2.3l-0.7-2.3l0,0l0,0
				c0.3-0.9,0.4-1.8,0.5-2.7c0.1-0.9,0.1-1.8-0.1-2.7c-0.2-1.8-0.8-3.5-1.7-4.9c-0.9-1.5-2.1-2.7-3.5-3.8c-0.7-0.5-1.4-1.1-2.1-1.5
				c-0.7-0.5-1.5-0.9-2.3-1.3c-1.6-0.8-3.3-1.4-5-1.9c-1.7-0.5-3.5-0.9-5.3-1.3c-1.8-0.3-3.6-0.6-5.4-0.8c-1.8-0.2-3.6-0.5-5.5-0.7
				c-3.6-0.4-7.2-0.5-10.7,0.1c-3.5,0.6-6.8,2.1-9.9,4c-3.1,1.9-6.1,4-8.8,6.4c-2.7,2.4-5.2,5-7.2,8c-1,1.5-1.9,3-2.6,4.6
				c-0.6,1.5-0.7,3.2-0.5,5c0.2,1.7,0.7,3.4,1.3,5.1c0.6,1.7,1.5,3.2,2.4,4.8c3.8,6.1,9.5,11,16.1,13.5c3.3,1.3,6.9,1.9,10.5,2
				c3.6,0,7.1-0.5,10.6-1.6c3.4-1,6.8-2.5,9.9-4.3c1.5-0.9,3.1-1.8,4.7-2.8s3-2,4.5-3.1l-0.1,0.1c1-0.9,2-1.9,3-2.8
				C167.3,169.5,168.4,168.6,169.4,167.7z"/>
		</g>
	</g>
	
		<text transform="matrix(0.5178 1.6646 -0.961 0.2764 133.1279 148.3184)" fill="#32401A" font-family="'CalistoMT'" font-size="27.418">$</text>
	
		<text transform="matrix(0.5178 1.6646 -0.961 0.2764 134.1494 149.1992)" fill="#A1BC64" font-family="'CalistoMT'" font-size="27.418">$</text>
	<path fill="#578E4A" d="M163.3,173.7c-23.6,18.9-44.4,11.9-56.1-3.7c-0.5-0.6,11.7,10,28.3,10.1c9.8,0.1,24.2-5.9,36.2-15
		C170.5,167.2,165.9,171.2,163.3,173.7z"/>
	<path fill="#578E4A" d="M135.1,132.7c26.6-4.3,37.1,10,37.1,10c3,5.2,1.6,11.1,1.3,10.5C163,130.2,136.3,132.4,135.1,132.7z"/>
</g>
<path fill="#AC8569" d="M53.6,222.1c-6.3,14.5-7.1,25.6-7.1,25.6s-1.9-1-3.3-2.4c1.3-7.5,4.7-19.7,7.4-25.1c1.6-3.2,8-17,1.2-33.1
	c-9.5-15.7-2.5-22.9-1.6-25.3c0,0-5,10.4,4.5,25.4C60.6,196.7,59.5,208.4,53.6,222.1z"/>
<path fill="#961B1E" stroke="#000000" stroke-miterlimit="10" d="M85,102.9L85,102.9c-0.2-0.8-0.2-1.3-0.2-1.3s-7.1-1.7-12.7,2.5
	c-2.5,1.9-4.7,5.8-8.2,7.5c-3.7,1.8-8,3.8-12.9,4.7c-6.9,1.3-12.2,4.2-15.9,6.9c-2,1.5-3.5,2.9-4.6,4.1c0,0,0,0,0,0
	c-0.9,0.9-1.5,1.7-1.8,2.1c0,0,0,0,0,0c0,0,0,0,0,0c-0.2,0.3-0.3,0.4-0.3,0.4l2.9,4.6c0,0,1-0.4,13.6-0.2
	c13.8,0.2,31.4-11.5,34.3-13.7s7.8-11.6,7.8-11.6C85.9,107.2,85.3,104.5,85,102.9z M50.5,131.4c-3.3,1.1-6.7,0.1-9-1.5
	c0.1-2,2.5-4.2,5.5-5.9c5.7-3.1,8.9-1.9,8.9-1.9S58.6,129,50.5,131.4z M73.9,117.9c-1.5,0.3-4-0.3-4-0.3s-1-4.2,3.4-7.6
	c4-3.2,6-2.2,6-2.2C82.7,113.3,78.5,116.9,73.9,117.9z"/>
<path d="M81.1,123.1c1.8,2.8-0.5,7.4-5,10.4c-4.5,3-9.7,3.1-11.4,0.4c-1.8-2.8,0.5-7.4,5-10.4C74.3,120.5,79.4,120.3,81.1,123.1z"/>
<path fill="#E5E5E5" d="M72.4,126.1c0.5,1.1,2.2,1.3,3.9,0.6c1.6-0.8,2.6-2.2,2.1-3.3c-0.5-1.1-2.2-1.3-3.9-0.6
	C72.9,123.6,71.9,125,72.4,126.1z"/>
<g>
	<path fill="#775A45" d="M41.9,245.6c0.7,0.7,10,6.1,16.5,7.8c26.3,6.9,27.8-1.3,27.8-1.3c-4.7-10.7-8.8-14-19.6-15.7"/>
	<path fill="#070808" d="M42.4,245c0.1,0.1,0.1,0.1,0.2,0.2l0.3,0.2c0.2,0.1,0.4,0.3,0.6,0.4c0.4,0.3,0.8,0.5,1.3,0.8
		c0.9,0.5,1.7,1,2.6,1.4c1.7,0.9,3.5,1.8,5.3,2.6c1.8,0.8,3.6,1.5,5.5,2.1c0.9,0.3,1.9,0.5,2.9,0.8c1,0.2,1.9,0.5,2.9,0.7l1.5,0.3
		l1.5,0.3c0.5,0.1,1,0.2,1.5,0.3c0.5,0.1,1,0.2,1.5,0.2c1,0.1,2,0.2,2.9,0.3c1,0.1,2,0.1,2.9,0.1c1,0,2,0,2.9-0.1
		c1-0.1,1.9-0.2,2.9-0.5c0.9-0.2,1.8-0.6,2.6-1.1c0.4-0.3,0.7-0.5,1.1-0.9c0.2-0.2,0.3-0.3,0.4-0.5c0.1-0.1,0.1-0.2,0.2-0.3
		c0-0.1,0.1-0.2,0.1-0.3l0,0.3c-0.4-1-0.9-2-1.3-3c-0.2-0.5-0.5-1-0.7-1.5c-0.3-0.5-0.5-1-0.8-1.4c-0.3-0.5-0.6-0.9-0.9-1.4
		c-0.3-0.5-0.6-0.9-1-1.3c-0.3-0.4-0.7-0.8-1.1-1.2c-0.4-0.4-0.8-0.8-1.2-1.1c-0.4-0.4-0.9-0.7-1.3-1c-0.5-0.3-0.9-0.6-1.4-0.9
		c-0.5-0.3-1-0.5-1.5-0.7c-0.5-0.2-1-0.4-1.5-0.6c-1-0.4-2.1-0.7-3.2-0.9c-0.5-0.1-1.1-0.3-1.6-0.4c-0.5-0.1-1.1-0.2-1.6-0.3
		c0.6,0.1,1.1,0.2,1.6,0.3c0.5,0.1,1.1,0.2,1.6,0.3c1.1,0.2,2.2,0.5,3.2,0.8c0.5,0.2,1.1,0.4,1.6,0.6c0.5,0.2,1,0.4,1.5,0.7
		c0.5,0.3,1,0.5,1.5,0.8c0.5,0.3,0.9,0.6,1.4,1c0.4,0.3,0.9,0.7,1.3,1.1c0.4,0.4,0.8,0.8,1.2,1.2c0.4,0.4,0.7,0.9,1,1.3
		c0.3,0.5,0.6,0.9,0.9,1.4c0.3,0.5,0.6,1,0.9,1.4c0.3,0.5,0.5,1,0.8,1.5c0.5,1,1,2,1.5,3l0.1,0.1l0,0.1c0,0.2-0.1,0.3-0.1,0.5
		c-0.1,0.1-0.1,0.3-0.2,0.4c-0.1,0.2-0.3,0.5-0.5,0.7c-0.4,0.4-0.8,0.8-1.2,1.1c-0.9,0.6-1.9,1-2.9,1.3c-1,0.3-2,0.4-3,0.6
		c-1,0.1-2,0.2-3,0.2c-1,0-2,0-3-0.1c-1-0.1-2-0.2-3-0.3c-0.5-0.1-1-0.1-1.5-0.2c-0.5-0.1-1-0.1-1.5-0.2l-1.5-0.3l-1.5-0.3
		c-1-0.2-2-0.4-2.9-0.6c-1-0.2-1.9-0.5-2.9-0.7c-2-0.5-3.9-1.3-5.7-2c-1.9-0.8-3.7-1.7-5.5-2.6c-0.9-0.5-1.8-0.9-2.7-1.4
		c-0.4-0.2-0.9-0.5-1.3-0.8c-0.2-0.1-0.4-0.3-0.7-0.4l-0.3-0.2c-0.1-0.1-0.3-0.2-0.4-0.3L42.4,245z"/>
</g>
<g>
	<path fill="#775A45" d="M65.4,163.1c24.7-3.5,40.3,0.9,44.6,1.8c4.6,0.9,8.4,2.4,11.2,4.2c6.9,4.5,11.3,13.1,5.6,18.3
		c-6.7,6-17.1-0.9-38.1-0.9c-4.4,0-5.3-0.3-13.4,1.3"/>
	<path fill="#070808" d="M65.4,163.1c0,0,0.5-0.1,1.5-0.3c0.5-0.1,1.1-0.2,1.7-0.3c0.7-0.1,1.5-0.3,2.4-0.4c1.8-0.3,4-0.6,6.5-0.8
		c0.6-0.1,1.3-0.1,1.9-0.2c0.7-0.1,1.4-0.1,2.1-0.1c0.7,0,1.4,0,2.2,0c0.7,0,1.5,0,2.3,0c3.1,0.1,6.5,0.2,10,0.6
		c3.5,0.4,7.3,1,11,1.8c0.9,0.2,1.9,0.4,2.8,0.6c0.5,0.1,1,0.2,1.4,0.3l0.7,0.2l0.7,0.2c2,0.5,3.9,1.2,5.8,2
		c0.5,0.2,0.9,0.4,1.4,0.7l0.7,0.4l0.7,0.4l0.3,0.2l0.1,0.1l0.1,0.1l0.2,0.1c0.2,0.1,0.4,0.3,0.6,0.4c0.4,0.3,0.9,0.6,1.3,1
		c1.6,1.4,3.1,3,4.2,4.8c1.1,1.8,2,3.9,2.2,6.1c0.1,1.1,0,2.2-0.4,3.3c-0.3,1.1-0.9,2.1-1.6,2.9c-0.2,0.2-0.4,0.4-0.6,0.6l-0.3,0.3
		l-0.3,0.2c-0.4,0.4-0.9,0.7-1.4,1c-0.9,0.6-2,0.9-3,1.1c-2.1,0.4-4.1,0.3-6.1,0.1c-2-0.2-3.8-0.5-5.7-0.9c-1.8-0.3-3.6-0.6-5.3-0.9
		c-3.5-0.6-6.8-1-9.8-1.2c-1.5-0.1-3-0.2-4.4-0.2c-1.4,0-2.7-0.1-4-0.2c-1.3-0.1-2.4-0.2-3.5-0.1c-1.1,0-2.1,0.1-2.9,0.1
		c-1.8,0.1-3.2,0.3-4.1,0.4c-1,0.1-1.5,0.2-1.5,0.2s0.5-0.1,1.4-0.4c0.9-0.2,2.3-0.6,4.1-0.9c0.9-0.2,1.9-0.3,3-0.5
		c1.1-0.1,2.3-0.2,3.5-0.2c1.2,0,2.6-0.1,4-0.1c1.4,0.1,2.9,0.1,4.5,0.2c3.1,0.2,6.4,0.6,9.9,1.2c1.8,0.3,3.5,0.6,5.4,0.9
		c1.8,0.3,3.7,0.6,5.6,0.8c1.9,0.2,3.8,0.3,5.6-0.1c0.9-0.2,1.8-0.5,2.5-1c0.4-0.2,0.8-0.5,1.1-0.8l0.3-0.2l0.2-0.2
		c0.2-0.2,0.3-0.3,0.5-0.5c1.2-1.4,1.8-3.2,1.6-5.1c-0.1-1.9-0.9-3.7-1.9-5.4c-1.1-1.7-2.4-3.1-3.9-4.4c-0.4-0.3-0.8-0.6-1.2-0.9
		c-0.2-0.1-0.4-0.3-0.6-0.4l-0.2-0.1l-0.1,0l-0.1,0l-0.3-0.2l-0.6-0.4l-0.7-0.3c-0.4-0.2-0.9-0.4-1.3-0.7c-1.8-0.8-3.7-1.4-5.5-1.9
		l-0.7-0.2l-0.7-0.2c-0.5-0.1-1-0.2-1.4-0.3c-1-0.2-1.9-0.4-2.8-0.6c-3.7-0.8-7.4-1.4-10.9-1.8c-3.5-0.4-6.8-0.6-9.9-0.6
		c-0.8,0-1.5,0-2.2,0c-0.7,0-1.4,0-2.1,0c-1.4,0-2.7,0-4,0c-2.5,0-4.7,0.1-6.5,0.2c-0.9,0-1.7,0.1-2.4,0.1c-0.7,0-1.3,0.1-1.8,0.1
		C65.9,163,65.4,163.1,65.4,163.1z"/>
</g>
<g>
	<path fill="#775A45" d="M73.1,158.5"/>
</g>
<path fill="#AC8569" d="M127.7,183.9c-5.6-22.1-55-21.2-56.6-20.9c20.6-2.1,29.3-0.5,38.1,2.2c4.5,1.4,7.1,2.5,10.1,3.9
	C131.6,175,128,185.2,127.7,183.9z"/>
<path fill="#961B1E" stroke="#070808" stroke-miterlimit="10" d="M105.2,186.8c0,0-0.6-11.9,10.3-20.9c0,0-4.4-4.4-12-3.3
	c0,0-12.1,10-7.3,22.8C96.1,185.5,98.7,187.2,105.2,186.8z"/>
<path fill="#AC8569" d="M44.4,241.1c0,0,20.8,18.1,40.3,12.2c0,0-13.3,8.6-41.6-8L44.4,241.1z"/>
<path fill="#CD2027" d="M86.3,109c0,0-2.2-2.9-3.1-3.7c-1.7-1.5-1.9-1-7.8,0.8c-6.1,1.9-4.7,8.3-21,12.6c-3.8,1-8.5,1.4-11.7,3.2
	c-3,1.7-6.7,3.9-8.9,6.2c-0.2,0.7-0.2,2.3,0.8,5.6c-0.6,0.1-2.6,0.2-2.9,0.4c-1.1-1.6-2.1-3.4-2.7-4.2c0.9-0.9,4.4-4.7,6.1-5.9
	c3.7-2.8,9-5.6,15.9-6.9c4.9-0.9,9.6-2.9,13.3-4.7c3.5-1.7,5.7-5.7,8.2-7.5c5.5-4.2,11.9-2.9,11.9-2.9S86.2,108.2,86.3,109z"/>
<path fill="#CD2027" d="M102.6,164.1c0,0-5.2,7-6.4,8.6c0,0,7.1-3.8,12.8-1l4.8-4.9C113.9,166.8,109.2,162.7,102.6,164.1z"/>
<g>
	<g>
		<path fill="#2E4F26" d="M170.5,205.7l-1.8,47.1l-1.8-47.1c0-1,0.7-1.8,1.7-1.9c1,0,1.8,0.7,1.9,1.7
			C170.5,205.6,170.5,205.6,170.5,205.7z"/>
	</g>
	<g>
		<path fill="#69A55A" d="M172.3,205.8l-1.8,47.1l-1.8-47.1c0-1,0.7-1.8,1.7-1.9s1.8,0.7,1.9,1.7
			C172.3,205.7,172.3,205.8,172.3,205.8z"/>
	</g>
	<g>
		<path fill="#2E4F26" d="M157.1,205.7l-1.4,30.8l-1.4-30.8c0-0.8,0.6-1.5,1.4-1.5c0.8,0,1.5,0.6,1.5,1.4
			C157.1,205.6,157.1,205.6,157.1,205.7z"/>
	</g>
	<g>
		<path fill="#69A55A" d="M158.8,205.8l-1.4,30.8l-1.4-30.8c0-0.8,0.6-1.5,1.4-1.5c0.8,0,1.5,0.6,1.5,1.4
			C158.8,205.7,158.8,205.7,158.8,205.8z"/>
	</g>
</g>
</svg>
