<?xml version="1.0" encoding="utf-8"?>
<!-- Generator: Adobe Illustrator 16.0.0, SVG Export Plug-In . SVG Version: 6.00 Build 0)  -->
<!DOCTYPE svg PUBLIC "-//W3C//DTD SVG 1.1//EN" "http://www.w3.org/Graphics/SVG/1.1/DTD/svg11.dtd">
<svg version="1.1" id="Layer_1" xmlns="http://www.w3.org/2000/svg" xmlns:xlink="http://www.w3.org/1999/xlink" x="0px" y="0px"
	 width="779.912px" height="60.115px" viewBox="0 0 779.912 60.115" enable-background="new 0 0 779.912 60.115"
	 xml:space="preserve">
<g>
	<g>
		<defs>
			<rect id="SVGID_1_" width="77.912" height="60.115"/>
		</defs>
		<clipPath id="SVGID_2_">
			<use xlink:href="#SVGID_1_"  overflow="visible"/>
		</clipPath>
		<g clip-path="url(#SVGID_2_)">
			<defs>
				<rect id="SVGID_3_" width="77.912" height="60.115"/>
			</defs>
			<clipPath id="SVGID_4_">
				<use xlink:href="#SVGID_3_"  overflow="visible"/>
			</clipPath>
			<path clip-path="url(#SVGID_4_)" fill-rule="evenodd" clip-rule="evenodd" fill="#8B191C" d="M37.874,8.679
				c1.922-1.246,3.955-2.316,6.097-3.213c2.619-1.135,5.374-1.959,8.267-2.472c3.497-0.586,7.021-0.668,10.574-0.247
				c2.929,0.403,5.795,1.099,8.597,2.087c0.312,0.916,0.64,1.831,0.989,2.747c0.53,1.446,0.998,2.92,1.4,4.422
				c0.311,1.153,0.595,2.289,0.852,3.406c0.073,0.347,0.046,0.677-0.083,0.988c-1.3-0.165-2.609-0.256-3.927-0.274
				c-3.625-0.183-6.949,0.687-9.97,2.609c-1.043,0.696-1.941,1.556-2.691,2.582c-0.952,1.336-1.676,2.792-2.17,4.367
				c-0.769,2.544-1.428,5.145-1.978,7.8c-0.238,1.153-0.494,2.307-0.769,3.46c-0.292,1.172-0.586,2.325-0.879,3.46
				c-0.165,0.696-0.339,1.41-0.521,2.142c-0.128,0.513-0.293,1.007-0.495,1.483c-0.33,0.861-0.724,1.74-1.181,2.637
				c-0.274,0.567-0.595,1.043-0.961,1.428c-1.08,1.099-2.251,2.151-3.515,3.158c-1.246,1.007-2.563,1.858-3.955,2.554
				c-0.97,0.439-1.94,0.879-2.911,1.318c-1.282,0.549-2.609,1.025-3.982,1.428c-1.428,0.366-2.875,0.604-4.339,0.714
				c-1.904,0.256-3.809,0.366-5.713,0.329c-2.765-0.037-5.502-0.302-8.212-0.796c-1.282-0.183-2.545-0.494-3.79-0.934
				c1.428-0.897,2.856-1.785,4.284-2.664c1.593-1.007,3.131-2.069,4.614-3.186c1.483-1.099,2.866-2.262,4.147-3.488
				c1.245-1.227,2.426-2.527,3.543-3.9c0.75-0.897,1.474-1.803,2.169-2.719c1.831-2.454,3.369-5.072,4.614-7.855
				c1.3-2.93,2.215-5.96,2.746-9.091c-0.641,0.165-1.291,0.192-1.95,0.082c-2.087,0-4.147-0.201-6.18-0.604
				c-2.014-0.421-3.973-1.025-5.877-1.812c0.897-1.117,1.803-2.225,2.719-3.323c1.446-1.703,3.039-3.232,4.779-4.587
				C34.01,11.27,35.896,9.924,37.874,8.679"/>
			<path clip-path="url(#SVGID_4_)" fill-rule="evenodd" clip-rule="evenodd" fill="#C61D23" d="M38.011,8.679
				c1.923-1.246,3.955-2.316,6.097-3.213c2.619-1.135,5.374-1.959,8.267-2.472c3.498-0.586,7.021-0.668,10.574-0.247
				c2.93,0.403,5.795,1.099,8.597,2.087c0.312,0.916,0.641,1.831,0.989,2.747c0.366,0.989,0.705,1.987,1.016,2.994
				c-2.545-0.824-5.126-1.419-7.745-1.785c-3.552-0.421-7.077-0.339-10.574,0.247c-2.893,0.513-5.649,1.336-8.267,2.472
				c-2.142,0.897-4.174,1.968-6.097,3.213c-1.978,1.246-3.863,2.591-5.658,4.038c-1.446,1.135-2.792,2.39-4.038,3.763
				c-0.146-0.018-0.292-0.045-0.439-0.083c-2.015-0.421-3.973-1.025-5.878-1.812c0.897-1.117,1.804-2.225,2.719-3.323
				c1.446-1.703,3.04-3.232,4.779-4.587C34.147,11.27,36.034,9.924,38.011,8.679"/>
		</g>
		<g clip-path="url(#SVGID_2_)">
			<defs>
				<rect id="SVGID_5_" width="77.912" height="60.115"/>
			</defs>
			<clipPath id="SVGID_6_">
				<use xlink:href="#SVGID_5_"  overflow="visible"/>
			</clipPath>
			
				<path clip-path="url(#SVGID_6_)" fill="none" stroke="#000000" stroke-width="2" stroke-linecap="round" stroke-miterlimit="3" d="
				M38.725,22.96c-0.531,3.131-1.446,6.162-2.746,9.091c-1.246,2.783-2.783,5.401-4.614,7.855c-0.696,0.916-1.419,1.822-2.17,2.719
				c-1.116,1.373-2.298,2.673-3.542,3.9c-1.282,1.227-2.665,2.39-4.147,3.488c-1.483,1.117-3.021,2.179-4.614,3.186
				c-1.428,0.879-2.856,1.767-4.284,2.664c1.245,0.439,2.508,0.751,3.79,0.934c2.71,0.495,5.447,0.76,8.212,0.796
				c1.904,0.037,3.808-0.073,5.713-0.329c1.465-0.11,2.911-0.348,4.339-0.714c1.373-0.403,2.701-0.879,3.982-1.428
				c0.971-0.439,1.94-0.879,2.911-1.318c1.392-0.696,2.709-1.547,3.955-2.554c1.263-1.007,2.435-2.06,3.515-3.158
				c0.367-0.385,0.687-0.861,0.961-1.428c0.458-0.897,0.852-1.776,1.181-2.637c0.202-0.476,0.366-0.971,0.494-1.483
				c0.183-0.732,0.357-1.446,0.522-2.142c0.293-1.135,0.586-2.289,0.879-3.46c0.275-1.153,0.531-2.307,0.769-3.46
				c0.549-2.655,1.208-5.255,1.978-7.8c0.494-1.575,1.218-3.031,2.169-4.367c0.751-1.026,1.648-1.886,2.692-2.582
				c3.021-1.922,6.344-2.792,9.97-2.609c1.318,0.018,2.627,0.11,3.927,0.274c0.018-0.043,0.036-0.09,0.055-0.137
				c0.081-0.269,0.09-0.553,0.027-0.851c-0.256-1.117-0.54-2.252-0.852-3.406c-0.402-1.501-0.87-2.976-1.401-4.422
				c-0.348-0.916-0.677-1.831-0.988-2.747c-0.073-0.026-0.146-0.053-0.22-0.083c-0.023-0.008-0.046-0.017-0.069-0.027
				c-2.709-0.929-5.479-1.588-8.308-1.978c-3.552-0.421-7.077-0.339-10.574,0.247c-2.894,0.513-5.649,1.337-8.267,2.472
				c-2.143,0.897-4.175,1.968-6.097,3.213c-1.978,1.245-3.863,2.591-5.658,4.037c-1.74,1.355-3.333,2.884-4.779,4.587
				c-0.916,1.099-1.822,2.207-2.719,3.323c1.904,0.787,3.863,1.391,5.877,1.812c2.032,0.403,4.092,0.604,6.18,0.604
				C37.435,23.153,38.084,23.125,38.725,22.96z"/>
		</g>
		<g clip-path="url(#SVGID_2_)">
			<defs>
				<rect id="SVGID_7_" width="77.912" height="60.115"/>
			</defs>
			<clipPath id="SVGID_8_">
				<use xlink:href="#SVGID_7_"  overflow="visible"/>
			</clipPath>
			<g clip-path="url(#SVGID_8_)">
				<defs>
					
						<rect id="SVGID_9_" x="66.9" y="3.732" transform="matrix(-0.9997 -0.0253 0.0253 -0.9997 142.4727 22.8166)" width="8.96" height="13.551"/>
				</defs>
				<clipPath id="SVGID_10_">
					<use xlink:href="#SVGID_9_"  overflow="visible"/>
				</clipPath>
				<path clip-path="url(#SVGID_10_)" fill="none" stroke="#000000" stroke-width="2.1424" stroke-miterlimit="10" d="M69.467,6.354
					c-0.912,1.149-1.497,2.27-1.756,3.362c-0.604,2.256,0.193,4.016,2.388,5.28c1.098,0.65,2.535,1.181,4.311,1.593
					c0.125,0.04,0.25,0.071,0.376,0.092L70.733,4.902l-1.265,1.424L69.467,6.354z"/>
			</g>
		</g>
	</g>
</g>
<g>
	<g>
		<defs>
			<rect id="SVGID_11_" x="78" width="77.912" height="60.115"/>
		</defs>
		<clipPath id="SVGID_12_">
			<use xlink:href="#SVGID_11_"  overflow="visible"/>
		</clipPath>
		<g clip-path="url(#SVGID_12_)">
			<defs>
				<rect id="SVGID_13_" x="78" width="77.912" height="60.115"/>
			</defs>
			<clipPath id="SVGID_14_">
				<use xlink:href="#SVGID_13_"  overflow="visible"/>
			</clipPath>
			<path clip-path="url(#SVGID_14_)" fill-rule="evenodd" clip-rule="evenodd" fill="#8B191C" d="M116.533,22.658
				c-4.614,0.86-8.871-0.027-12.771-2.664c-1.208-0.824-2.316-1.776-3.323-2.856l-1.126-1.374c4.376-1.556,8.075-3.049,11.096-4.477
				c0.476-0.22,1.877-0.97,4.202-2.252c2.105-1.153,3.452-1.849,4.038-2.087c4.833-1.995,9.649-3.259,14.446-3.79
				c5.823-0.659,11.279-0.174,16.369,1.456c0.421,1.611,1.09,3.873,2.005,6.784c0.733,2.38,1.318,4.22,1.758,5.52
				c-3.552-0.549-7.708,0.046-12.469,1.785c-2.16,0.806-4.285,3.333-6.372,7.581c-1.099,2.252-2.28,5.099-3.543,8.542
				c-5.09,11.957-13.705,19.116-25.845,21.478c-6.06,1.171-11.617,1.154-16.671-0.055c4.266-2.893,8.642-6.463,13.128-10.711
				C110.408,37.041,115.435,29.415,116.533,22.658"/>
		</g>
		<g clip-path="url(#SVGID_12_)">
			<defs>
				<rect id="SVGID_15_" x="78" width="77.912" height="60.115"/>
			</defs>
			<clipPath id="SVGID_16_">
				<use xlink:href="#SVGID_15_"  overflow="visible"/>
			</clipPath>
			<path clip-path="url(#SVGID_16_)" fill-rule="evenodd" clip-rule="evenodd" fill="#C61D23" d="M111.699,18.209
				c-2.142,1.007-4.541,2.05-7.196,3.131c-0.22-0.128-0.43-0.265-0.631-0.412c-1.209-0.824-2.316-1.776-3.323-2.856l-1.126-1.374
				c4.376-1.556,8.075-3.048,11.096-4.477c0.476-0.22,1.877-0.971,4.202-2.252c2.105-1.154,3.452-1.85,4.038-2.087
				c4.833-1.997,9.649-3.259,14.446-3.791c5.823-0.659,11.279-0.174,16.369,1.456c0.183,0.659,0.403,1.437,0.659,2.334
				c-3.296-0.275-6.701-0.211-10.217,0.192c-5.987,0.659-12.002,2.234-18.044,4.724c-0.714,0.293-2.39,1.163-5.026,2.609
				C114.052,17,112.304,17.934,111.699,18.209"/>
		</g>
		<g clip-path="url(#SVGID_12_)">
			<defs>
				<rect id="SVGID_17_" x="78" width="77.912" height="60.115"/>
			</defs>
			<clipPath id="SVGID_18_">
				<use xlink:href="#SVGID_17_"  overflow="visible"/>
			</clipPath>
			
				<path clip-path="url(#SVGID_18_)" fill="none" stroke="#000000" stroke-width="2" stroke-linecap="round" stroke-miterlimit="3" d="
				M110.408,11.288c-3.021,1.428-6.719,2.921-11.096,4.477l1.126,1.373c1.007,1.081,2.115,2.033,3.323,2.856
				c3.9,2.637,8.157,3.525,12.771,2.664c-1.099,6.756-6.125,14.382-15.078,22.878c-4.486,4.248-8.862,7.818-13.128,10.711
				c5.054,1.208,10.611,1.227,16.671,0.055c12.14-2.362,20.754-9.521,25.845-21.478c1.263-3.442,2.444-6.29,3.543-8.542
				c2.087-4.248,4.211-6.774,6.372-7.581c4.761-1.739,8.917-2.334,12.469-1.785c-0.439-1.3-1.025-3.14-1.758-5.52
				c-0.916-2.912-1.583-5.173-2.005-6.784c-5.09-1.63-10.546-2.115-16.369-1.456c-4.797,0.531-9.613,1.795-14.446,3.79
				c-0.586,0.238-1.932,0.934-4.038,2.087C112.285,10.317,110.885,11.068,110.408,11.288z"/>
		</g>
		<g clip-path="url(#SVGID_12_)">
			<defs>
				<rect id="SVGID_19_" x="78" width="77.912" height="60.115"/>
			</defs>
			<clipPath id="SVGID_20_">
				<use xlink:href="#SVGID_19_"  overflow="visible"/>
			</clipPath>
			<g clip-path="url(#SVGID_20_)">
				<defs>
					
						<rect id="SVGID_21_" x="144.9" y="3.732" transform="matrix(-0.9997 -0.0253 0.0253 -0.9997 298.4478 24.7888)" width="8.96" height="13.551"/>
				</defs>
				<clipPath id="SVGID_22_">
					<use xlink:href="#SVGID_21_"  overflow="visible"/>
				</clipPath>
				<path clip-path="url(#SVGID_22_)" fill="none" stroke="#000000" stroke-width="2.1424" stroke-miterlimit="10" d="
					M147.467,6.354c-0.912,1.149-1.497,2.27-1.756,3.362c-0.604,2.256,0.193,4.016,2.388,5.28c1.098,0.65,2.535,1.181,4.311,1.593
					c0.125,0.04,0.25,0.071,0.376,0.092l-4.053-11.779l-1.265,1.424L147.467,6.354z"/>
			</g>
		</g>
	</g>
</g>
<g>
	<g>
		<defs>
			<rect id="SVGID_23_" x="156" width="77.912" height="60.115"/>
		</defs>
		<clipPath id="SVGID_24_">
			<use xlink:href="#SVGID_23_"  overflow="visible"/>
		</clipPath>
		<g clip-path="url(#SVGID_24_)">
			<defs>
				<rect id="SVGID_25_" x="156" width="77.912" height="60.115"/>
			</defs>
			<clipPath id="SVGID_26_">
				<use xlink:href="#SVGID_25_"  overflow="visible"/>
			</clipPath>
			<path clip-path="url(#SVGID_26_)" fill-rule="evenodd" clip-rule="evenodd" fill="#8B191C" d="M191.018,22.713
				c-3.186,1.208-6.436,0.952-9.75-0.769c-1.026-0.531-1.996-1.171-2.911-1.922l-1.071-0.989c0.348-0.806,1.007-1.776,1.978-2.911
				c1.922-2.27,4.44-4.257,7.553-5.96c9.924-5.438,23.849-6.958,41.774-4.559c0.147,0.274,0.641,2.197,1.483,5.768
				c0.421,1.794,0.833,3.552,1.236,5.273c-2.527-0.549-5.218-0.669-8.075-0.357c-5.694,0.641-9.348,3.159-10.958,7.553
				c-6.262,16.113-16.241,26.303-29.937,30.569c-4.267,1.336-8.661,1.995-13.183,1.977c-2.252,0-4.074-0.137-5.466-0.412
				C179.345,36.144,188.454,25.057,191.018,22.713"/>
		</g>
		<g clip-path="url(#SVGID_24_)">
			<defs>
				<path id="SVGID_27_" d="M186.816,10.162c-3.113,1.703-5.631,3.689-7.553,5.96c-0.97,1.135-1.629,2.105-1.978,2.911l1.072,0.989
					c0.916,0.75,1.886,1.392,2.911,1.922c3.314,1.721,6.564,1.978,9.75,0.77c-2.563,2.343-11.672,13.43-27.328,33.26
					c1.392,0.274,3.213,0.412,5.466,0.412c4.522,0.018,8.916-0.641,13.183-1.978c13.695-4.266,23.674-14.456,29.937-30.568
					c1.611-4.395,5.264-6.912,10.958-7.553c2.856-0.312,5.548-0.193,8.074,0.357c-0.402-1.721-0.814-3.479-1.236-5.273
					c-0.842-3.57-1.337-5.493-1.483-5.768c-5.487-0.734-10.598-1.102-15.335-1.102C202.516,4.501,193.702,6.388,186.816,10.162"/>
			</defs>
			<clipPath id="SVGID_28_">
				<use xlink:href="#SVGID_27_"  overflow="visible"/>
			</clipPath>
			<path clip-path="url(#SVGID_28_)" fill-rule="evenodd" clip-rule="evenodd" fill="#C61D23" d="M237.765,8.072
				c-18.471,0.754-35.556,4.667-51.253,11.738c-3.92,1.553-7.021,3.114-9.304,4.684c-3.069-1.348-4.792-3.008-5.167-4.982
				c-0.621-3.199,3.038-6.367,10.977-9.502c12.231-5.508,25.547-8.553,39.948-9.133c7.188-0.289,13.162-0.031,17.923,0.776
				l1.401,6.291C240.832,7.973,239.323,8.015,237.765,8.072"/>
		</g>
		<g clip-path="url(#SVGID_24_)">
			<defs>
				<rect id="SVGID_29_" x="156" width="77.912" height="60.115"/>
			</defs>
			<clipPath id="SVGID_30_">
				<use xlink:href="#SVGID_29_"  overflow="visible"/>
			</clipPath>
			<g clip-path="url(#SVGID_30_)">
				<defs>
					
						<rect id="SVGID_31_" x="222.9" y="3.732" transform="matrix(-0.9997 -0.0253 0.0253 -0.9997 454.4229 26.7611)" width="8.96" height="13.551"/>
				</defs>
				<clipPath id="SVGID_32_">
					<use xlink:href="#SVGID_31_"  overflow="visible"/>
				</clipPath>
				<path clip-path="url(#SVGID_32_)" fill="none" stroke="#000000" stroke-width="2.1424" stroke-miterlimit="10" d="
					M225.467,6.354c-0.912,1.149-1.497,2.27-1.756,3.362c-0.604,2.256,0.193,4.016,2.388,5.28c1.098,0.65,2.535,1.181,4.311,1.593
					c0.125,0.04,0.25,0.071,0.376,0.092l-4.053-11.779l-1.265,1.424L225.467,6.354z"/>
			</g>
		</g>
		<g clip-path="url(#SVGID_24_)">
			<defs>
				<rect id="SVGID_33_" x="156" width="77.912" height="60.115"/>
			</defs>
			<clipPath id="SVGID_34_">
				<use xlink:href="#SVGID_33_"  overflow="visible"/>
			</clipPath>
			
				<path clip-path="url(#SVGID_34_)" fill="none" stroke="#000000" stroke-width="2" stroke-linecap="round" stroke-miterlimit="3" d="
				M181.268,21.944c3.314,1.721,6.564,1.978,9.75,0.769c-2.563,2.344-11.672,13.431-27.328,33.26
				c1.392,0.274,3.213,0.412,5.466,0.412c4.522,0.018,8.917-0.641,13.183-1.978c13.695-4.267,23.674-14.456,29.937-30.568
				c1.611-4.395,5.264-6.912,10.958-7.553c2.856-0.312,5.548-0.192,8.075,0.357c-0.403-1.721-0.814-3.479-1.236-5.273
				c-0.842-3.57-1.336-5.493-1.483-5.768c-17.925-2.399-31.85-0.879-41.774,4.559c-3.113,1.703-5.63,3.69-7.553,5.96
				c-0.971,1.135-1.63,2.105-1.978,2.911l1.071,0.989C179.272,20.772,180.242,21.413,181.268,21.944z"/>
		</g>
	</g>
</g>
<g>
	<g>
		<defs>
			<rect id="SVGID_35_" x="234" width="77.912" height="60.115"/>
		</defs>
		<clipPath id="SVGID_36_">
			<use xlink:href="#SVGID_35_"  overflow="visible"/>
		</clipPath>
		<g clip-path="url(#SVGID_36_)">
			<defs>
				<rect id="SVGID_37_" x="234" width="77.912" height="60.115"/>
			</defs>
			<clipPath id="SVGID_38_">
				<use xlink:href="#SVGID_37_"  overflow="visible"/>
			</clipPath>
			<g clip-path="url(#SVGID_38_)">
				<defs>
					<rect id="SVGID_39_" x="241.003" y="4.916" width="67.481" height="51.14"/>
				</defs>
				<clipPath id="SVGID_40_">
					<use xlink:href="#SVGID_39_"  overflow="visible"/>
				</clipPath>
			</g>
		</g>
		<g clip-path="url(#SVGID_36_)">
			<defs>
				<rect id="SVGID_41_" x="234" width="77.912" height="60.115"/>
			</defs>
			<clipPath id="SVGID_42_">
				<use xlink:href="#SVGID_41_"  overflow="visible"/>
			</clipPath>
			<path clip-path="url(#SVGID_42_)" fill-rule="evenodd" clip-rule="evenodd" fill="#8B191C" d="M267.892,22.384
				c-1.776,0.402-3.717,0.43-5.823,0.082c-4.211-0.714-7.123-2.976-8.733-6.784c6.005-6.115,16.57-9.686,31.694-10.711
				c7.562-0.494,14.529-0.384,20.901,0.33l1.208,4.642c0.806,3.241,1.208,5.264,1.208,6.069
				c-10.601-0.677-20.681,4.843-30.239,16.562c-4.779,5.877-8.504,11.81-11.178,17.797c-3.589,0.037-7.443,0.357-11.562,0.961
				c-8.203,1.227-13.568,3.305-16.094,6.234c1.996-5.859,7.369-13.476,16.122-22.851C259.753,30.009,263.918,25.899,267.892,22.384"
				/>
			<path clip-path="url(#SVGID_42_)" fill-rule="evenodd" clip-rule="evenodd" fill="#C61D23" d="M305.229,4.708
				c-6.33-0.699-13.244-0.804-20.745-0.314c-15.124,1.026-25.689,4.596-31.694,10.711c0.791,1.868,1.896,3.362,3.312,4.485
				c6.038-4.913,15.5-8.121,28.411-9.615c7.462-0.845,14.366-1.067,20.717-0.671V4.708z"/>
			<path clip-path="url(#SVGID_42_)" fill="none" stroke="#000000" stroke-width="2" stroke-miterlimit="3" d="M267.892,22.384
				c-3.973,3.515-8.139,7.625-12.497,12.332c-8.752,9.375-14.126,16.991-16.122,22.851c2.526-2.93,7.892-5.008,16.094-6.234
				c4.12-0.604,7.974-0.924,11.562-0.961c2.674-5.988,6.399-11.92,11.178-17.797c9.558-11.719,19.638-17.239,30.239-16.562
				c0-0.806-0.402-2.829-1.208-6.069L305.931,5.3c-6.372-0.714-13.339-0.824-20.901-0.33c-15.124,1.026-25.689,4.596-31.694,10.711
				c1.611,3.808,4.522,6.07,8.733,6.784C264.174,22.814,266.116,22.786,267.892,22.384z"/>
		</g>
		<g clip-path="url(#SVGID_36_)">
			<defs>
				<rect id="SVGID_43_" x="234" width="77.912" height="60.115"/>
			</defs>
			<clipPath id="SVGID_44_">
				<use xlink:href="#SVGID_43_"  overflow="visible"/>
			</clipPath>
			<g clip-path="url(#SVGID_44_)">
				<defs>
					
						<rect id="SVGID_45_" x="300.9" y="3.732" transform="matrix(-0.9997 -0.0253 0.0253 -0.9997 610.3979 28.7333)" width="8.96" height="13.551"/>
				</defs>
				<clipPath id="SVGID_46_">
					<use xlink:href="#SVGID_45_"  overflow="visible"/>
				</clipPath>
				<path clip-path="url(#SVGID_46_)" fill="none" stroke="#000000" stroke-width="2.1424" stroke-miterlimit="10" d="
					M303.467,6.354c-0.912,1.149-1.497,2.27-1.756,3.362c-0.604,2.256,0.193,4.016,2.389,5.28c1.098,0.65,2.534,1.181,4.31,1.593
					c0.125,0.04,0.25,0.071,0.376,0.092l-4.052-11.779l-1.266,1.424L303.467,6.354z"/>
			</g>
		</g>
	</g>
</g>
<g>
	<g>
		<defs>
			<rect id="SVGID_47_" x="312" width="77.912" height="60.115"/>
		</defs>
		<clipPath id="SVGID_48_">
			<use xlink:href="#SVGID_47_"  overflow="visible"/>
		</clipPath>
		<g clip-path="url(#SVGID_48_)">
			<defs>
				<rect id="SVGID_49_" x="312" width="77.912" height="60.115"/>
			</defs>
			<clipPath id="SVGID_50_">
				<use xlink:href="#SVGID_49_"  overflow="visible"/>
			</clipPath>
			<path clip-path="url(#SVGID_50_)" fill-rule="evenodd" clip-rule="evenodd" fill="#8B191C" d="M330.511,13.595
				c3.168-1.281,7.022-2.508,11.562-3.68c5.127-1.318,10.253-2.334,15.38-3.048c2.307-0.312,6.83-0.559,13.568-0.742
				c5.474-0.128,9.613-0.596,12.414-1.401c0.367,0.073,1.135,1.941,2.307,5.603c1.208,3.662,1.565,5.566,1.071,5.713
				c-13.897,1.08-25.46,6.838-34.688,17.275c-4.614,5.218-7.836,10.327-9.667,15.326l-26.174,7.498
				c1.501-4.175,3.826-8.697,6.976-13.568c6.262-9.723,13.476-16.269,21.642-19.637c-4.376,0.512-8.194-0.925-11.453-4.312
				c-1.081-1.136-1.932-2.307-2.554-3.516C330.329,14.007,330.2,13.503,330.511,13.595"/>
		</g>
		<g clip-path="url(#SVGID_48_)">
			<defs>
				<rect id="SVGID_51_" x="312" width="77.912" height="60.115"/>
			</defs>
			<clipPath id="SVGID_52_">
				<use xlink:href="#SVGID_51_"  overflow="visible"/>
			</clipPath>
			<path clip-path="url(#SVGID_52_)" fill-rule="evenodd" clip-rule="evenodd" fill="#C61D23" d="M333.45,18.621
				c-1.08-1.136-1.932-2.307-2.554-3.516c-0.567-1.099-0.696-1.602-0.384-1.511c3.167-1.281,7.022-2.508,11.562-3.68
				c5.127-1.318,10.254-2.334,15.38-3.048c2.307-0.312,6.829-0.559,13.567-0.742c5.475-0.128,9.613-0.595,12.415-1.401
				c0.293,0.055,0.869,1.318,1.73,3.791c-2.819,0.604-6.335,1.071-10.546,1.4c-7.745,0.659-12.936,1.254-15.573,1.785
				c-5.841,1.135-11.672,2.627-17.495,4.477c-2.838,0.916-5.438,1.831-7.8,2.747C333.66,18.831,333.56,18.731,333.45,18.621"/>
		</g>
		<g clip-path="url(#SVGID_48_)">
			<defs>
				<rect id="SVGID_53_" x="312" width="77.912" height="60.115"/>
			</defs>
			<clipPath id="SVGID_54_">
				<use xlink:href="#SVGID_53_"  overflow="visible"/>
			</clipPath>
			<path clip-path="url(#SVGID_54_)" fill="none" stroke="#000000" stroke-width="2" stroke-miterlimit="3" d="M330.896,15.105
				c-0.567-1.099-0.696-1.602-0.384-1.511c3.167-1.281,7.021-2.508,11.562-3.68c5.127-1.318,10.254-2.334,15.38-3.048
				c2.307-0.312,6.83-0.559,13.567-0.742c5.475-0.128,9.613-0.596,12.415-1.401c0.366,0.073,1.135,1.941,2.307,5.603
				c1.208,3.662,1.565,5.566,1.071,5.713c-13.897,1.08-25.459,6.838-34.688,17.275c-4.614,5.218-7.837,10.327-9.668,15.326
				l-26.174,7.498c1.501-4.175,3.827-8.697,6.977-13.568c6.262-9.723,13.476-16.269,21.642-19.637
				c-4.376,0.512-8.194-0.925-11.453-4.312C332.37,17.485,331.518,16.314,330.896,15.105z"/>
		</g>
		<g clip-path="url(#SVGID_48_)">
			<defs>
				<rect id="SVGID_55_" x="312" width="77.912" height="60.115"/>
			</defs>
			<clipPath id="SVGID_56_">
				<use xlink:href="#SVGID_55_"  overflow="visible"/>
			</clipPath>
			<g clip-path="url(#SVGID_56_)">
				<defs>
					
						<rect id="SVGID_57_" x="378.9" y="3.732" transform="matrix(-0.9997 -0.0253 0.0253 -0.9997 766.3729 30.7055)" width="8.96" height="13.551"/>
				</defs>
				<clipPath id="SVGID_58_">
					<use xlink:href="#SVGID_57_"  overflow="visible"/>
				</clipPath>
				<path clip-path="url(#SVGID_58_)" fill="none" stroke="#000000" stroke-width="2.1424" stroke-miterlimit="10" d="
					M381.467,6.354c-0.912,1.149-1.497,2.27-1.756,3.362c-0.604,2.256,0.193,4.016,2.389,5.28c1.098,0.65,2.534,1.181,4.31,1.593
					c0.125,0.04,0.25,0.071,0.376,0.092l-4.052-11.779l-1.266,1.424L381.467,6.354z"/>
			</g>
		</g>
	</g>
</g>
<g>
	<g>
		<defs>
			<rect id="SVGID_59_" x="390" width="77.912" height="60.115"/>
		</defs>
		<clipPath id="SVGID_60_">
			<use xlink:href="#SVGID_59_"  overflow="visible"/>
		</clipPath>
		<g clip-path="url(#SVGID_60_)">
			<defs>
				<rect id="SVGID_61_" x="390" width="77.912" height="60.115"/>
			</defs>
			<clipPath id="SVGID_62_">
				<use xlink:href="#SVGID_61_"  overflow="visible"/>
			</clipPath>
			<path clip-path="url(#SVGID_62_)" fill-rule="evenodd" clip-rule="evenodd" fill="#8B191C" d="M408.511,13.595
				c3.168-1.281,7.022-2.508,11.562-3.68c5.127-1.318,10.253-2.334,15.38-3.048c2.307-0.312,6.83-0.559,13.568-0.742
				c5.474-0.128,9.613-0.596,12.414-1.401c0.367,0.073,1.135,1.941,2.307,5.603c1.208,3.662,1.565,5.566,1.071,5.713
				c-13.897,1.08-25.46,6.838-34.688,17.275c-4.614,5.218-7.836,10.327-9.667,15.326l-26.174,7.498
				c1.501-4.175,3.826-8.697,6.976-13.568c6.262-9.723,13.476-16.269,21.642-19.637c-4.376,0.512-8.194-0.925-11.453-4.312
				c-1.081-1.136-1.932-2.307-2.554-3.516C408.329,14.007,408.2,13.503,408.511,13.595"/>
		</g>
		<g clip-path="url(#SVGID_60_)">
			<defs>
				<rect id="SVGID_63_" x="390" width="77.912" height="60.115"/>
			</defs>
			<clipPath id="SVGID_64_">
				<use xlink:href="#SVGID_63_"  overflow="visible"/>
			</clipPath>
			<path clip-path="url(#SVGID_64_)" fill-rule="evenodd" clip-rule="evenodd" fill="#C61D23" d="M411.45,18.621
				c-1.08-1.136-1.932-2.307-2.554-3.516c-0.567-1.099-0.696-1.602-0.384-1.511c3.167-1.281,7.022-2.508,11.562-3.68
				c5.127-1.318,10.254-2.334,15.38-3.048c2.307-0.312,6.829-0.559,13.567-0.742c5.475-0.128,9.613-0.595,12.415-1.401
				c0.293,0.055,0.869,1.318,1.73,3.791c-2.819,0.604-6.335,1.071-10.546,1.4c-7.745,0.659-12.936,1.254-15.573,1.785
				c-5.841,1.135-11.672,2.627-17.495,4.477c-2.838,0.916-5.438,1.831-7.8,2.747C411.66,18.831,411.56,18.731,411.45,18.621"/>
		</g>
		<g clip-path="url(#SVGID_60_)">
			<defs>
				<rect id="SVGID_65_" x="390" width="77.912" height="60.115"/>
			</defs>
			<clipPath id="SVGID_66_">
				<use xlink:href="#SVGID_65_"  overflow="visible"/>
			</clipPath>
			<path clip-path="url(#SVGID_66_)" fill="none" stroke="#000000" stroke-width="2" stroke-miterlimit="3" d="M408.896,15.105
				c-0.567-1.099-0.696-1.602-0.384-1.511c3.167-1.281,7.021-2.508,11.562-3.68c5.127-1.318,10.254-2.334,15.38-3.048
				c2.307-0.312,6.83-0.559,13.567-0.742c5.475-0.128,9.613-0.596,12.415-1.401c0.366,0.073,1.135,1.941,2.307,5.603
				c1.208,3.662,1.565,5.566,1.071,5.713c-13.897,1.08-25.459,6.838-34.688,17.275c-4.614,5.218-7.837,10.327-9.668,15.326
				l-26.174,7.498c1.501-4.175,3.827-8.697,6.977-13.568c6.262-9.723,13.476-16.269,21.642-19.637
				c-4.376,0.512-8.194-0.925-11.453-4.312C410.37,17.485,409.518,16.314,408.896,15.105z"/>
		</g>
		<g clip-path="url(#SVGID_60_)">
			<defs>
				<rect id="SVGID_67_" x="390" width="77.912" height="60.115"/>
			</defs>
			<clipPath id="SVGID_68_">
				<use xlink:href="#SVGID_67_"  overflow="visible"/>
			</clipPath>
			<g clip-path="url(#SVGID_68_)">
				<defs>
					
						<rect id="SVGID_69_" x="456.9" y="3.732" transform="matrix(-0.9997 -0.0253 0.0253 -0.9997 922.348 32.6777)" width="8.96" height="13.551"/>
				</defs>
				<clipPath id="SVGID_70_">
					<use xlink:href="#SVGID_69_"  overflow="visible"/>
				</clipPath>
				<path clip-path="url(#SVGID_70_)" fill="none" stroke="#000000" stroke-width="2.1424" stroke-miterlimit="10" d="
					M459.467,6.354c-0.912,1.149-1.497,2.27-1.756,3.362c-0.604,2.256,0.193,4.016,2.389,5.28c1.098,0.65,2.534,1.181,4.31,1.593
					c0.125,0.04,0.25,0.071,0.376,0.092l-4.052-11.779l-1.266,1.424L459.467,6.354z"/>
			</g>
		</g>
	</g>
</g>
<g>
	<g>
		<defs>
			<rect id="SVGID_71_" x="468" width="77.912" height="60.115"/>
		</defs>
		<clipPath id="SVGID_72_">
			<use xlink:href="#SVGID_71_"  overflow="visible"/>
		</clipPath>
		<g clip-path="url(#SVGID_72_)">
			<defs>
				<rect id="SVGID_73_" x="468" width="77.912" height="60.115"/>
			</defs>
			<clipPath id="SVGID_74_">
				<use xlink:href="#SVGID_73_"  overflow="visible"/>
			</clipPath>
			<g clip-path="url(#SVGID_74_)">
				<defs>
					<rect id="SVGID_75_" x="475.003" y="4.916" width="67.481" height="51.14"/>
				</defs>
				<clipPath id="SVGID_76_">
					<use xlink:href="#SVGID_75_"  overflow="visible"/>
				</clipPath>
			</g>
		</g>
		<g clip-path="url(#SVGID_72_)">
			<defs>
				<rect id="SVGID_77_" x="468" width="77.912" height="60.115"/>
			</defs>
			<clipPath id="SVGID_78_">
				<use xlink:href="#SVGID_77_"  overflow="visible"/>
			</clipPath>
			<path clip-path="url(#SVGID_78_)" fill-rule="evenodd" clip-rule="evenodd" fill="#8B191C" d="M501.892,22.384
				c-1.776,0.402-3.717,0.43-5.823,0.082c-4.211-0.714-7.123-2.976-8.733-6.784c6.005-6.115,16.57-9.686,31.694-10.711
				c7.562-0.494,14.529-0.384,20.901,0.33l1.208,4.642c0.806,3.241,1.208,5.264,1.208,6.069
				c-10.601-0.677-20.681,4.843-30.239,16.562c-4.779,5.877-8.504,11.81-11.178,17.797c-3.589,0.037-7.443,0.357-11.562,0.961
				c-8.203,1.227-13.568,3.305-16.094,6.234c1.996-5.859,7.369-13.476,16.122-22.851C493.753,30.009,497.918,25.899,501.892,22.384"
				/>
			<path clip-path="url(#SVGID_78_)" fill-rule="evenodd" clip-rule="evenodd" fill="#C61D23" d="M539.229,4.708
				c-6.33-0.699-13.244-0.804-20.745-0.314c-15.124,1.026-25.689,4.596-31.694,10.711c0.791,1.868,1.896,3.362,3.312,4.485
				c6.038-4.913,15.5-8.121,28.411-9.615c7.462-0.845,14.366-1.067,20.717-0.671V4.708z"/>
			<path clip-path="url(#SVGID_78_)" fill="none" stroke="#000000" stroke-width="2" stroke-miterlimit="3" d="M501.892,22.384
				c-3.973,3.515-8.139,7.625-12.497,12.332c-8.752,9.375-14.126,16.991-16.122,22.851c2.526-2.93,7.892-5.008,16.094-6.234
				c4.12-0.604,7.974-0.924,11.562-0.961c2.674-5.988,6.399-11.92,11.178-17.797c9.558-11.719,19.638-17.239,30.239-16.562
				c0-0.806-0.402-2.829-1.208-6.069L539.931,5.3c-6.372-0.714-13.339-0.824-20.901-0.33c-15.124,1.026-25.689,4.596-31.694,10.711
				c1.611,3.808,4.522,6.07,8.733,6.784C498.174,22.814,500.116,22.786,501.892,22.384z"/>
		</g>
		<g clip-path="url(#SVGID_72_)">
			<defs>
				<rect id="SVGID_79_" x="468" width="77.912" height="60.115"/>
			</defs>
			<clipPath id="SVGID_80_">
				<use xlink:href="#SVGID_79_"  overflow="visible"/>
			</clipPath>
			<g clip-path="url(#SVGID_80_)">
				<defs>
					
						<rect id="SVGID_81_" x="534.9" y="3.732" transform="matrix(-0.9997 -0.0253 0.0253 -0.9997 1078.3231 34.6499)" width="8.96" height="13.551"/>
				</defs>
				<clipPath id="SVGID_82_">
					<use xlink:href="#SVGID_81_"  overflow="visible"/>
				</clipPath>
				<path clip-path="url(#SVGID_82_)" fill="none" stroke="#000000" stroke-width="2.1424" stroke-miterlimit="10" d="
					M537.467,6.354c-0.912,1.149-1.497,2.27-1.756,3.362c-0.604,2.256,0.193,4.016,2.389,5.28c1.098,0.65,2.534,1.181,4.31,1.593
					c0.125,0.04,0.25,0.071,0.376,0.092l-4.052-11.779l-1.266,1.424L537.467,6.354z"/>
			</g>
		</g>
	</g>
</g>
<g>
	<g>
		<defs>
			<rect id="SVGID_83_" x="546" width="77.912" height="60.115"/>
		</defs>
		<clipPath id="SVGID_84_">
			<use xlink:href="#SVGID_83_"  overflow="visible"/>
		</clipPath>
		<g clip-path="url(#SVGID_84_)">
			<defs>
				<rect id="SVGID_85_" x="546" width="77.912" height="60.115"/>
			</defs>
			<clipPath id="SVGID_86_">
				<use xlink:href="#SVGID_85_"  overflow="visible"/>
			</clipPath>
			<path clip-path="url(#SVGID_86_)" fill-rule="evenodd" clip-rule="evenodd" fill="#8B191C" d="M581.018,22.713
				c-3.186,1.208-6.436,0.952-9.75-0.769c-1.026-0.531-1.996-1.171-2.911-1.922l-1.071-0.989c0.348-0.806,1.007-1.776,1.978-2.911
				c1.922-2.27,4.44-4.257,7.553-5.96c9.924-5.438,23.849-6.958,41.774-4.559c0.147,0.274,0.641,2.197,1.483,5.768
				c0.421,1.794,0.833,3.552,1.236,5.273c-2.527-0.549-5.218-0.669-8.075-0.357c-5.694,0.641-9.348,3.159-10.958,7.553
				c-6.262,16.113-16.241,26.303-29.937,30.569c-4.267,1.336-8.661,1.995-13.183,1.977c-2.252,0-4.074-0.137-5.466-0.412
				C569.345,36.144,578.454,25.057,581.018,22.713"/>
		</g>
		<g clip-path="url(#SVGID_84_)">
			<defs>
				<path id="SVGID_87_" d="M576.816,10.162c-3.113,1.703-5.631,3.689-7.553,5.96c-0.97,1.135-1.629,2.105-1.978,2.911l1.072,0.989
					c0.916,0.75,1.885,1.392,2.911,1.922c3.314,1.721,6.564,1.978,9.75,0.77c-2.563,2.343-11.672,13.43-27.328,33.26
					c1.392,0.274,3.213,0.412,5.466,0.412c4.522,0.018,8.916-0.641,13.183-1.978c13.695-4.266,23.674-14.456,29.937-30.568
					c1.611-4.395,5.264-6.912,10.958-7.553c2.856-0.312,5.548-0.193,8.074,0.357c-0.402-1.721-0.814-3.479-1.236-5.273
					c-0.842-3.57-1.337-5.493-1.483-5.768c-5.487-0.734-10.598-1.102-15.335-1.102C592.516,4.501,583.702,6.388,576.816,10.162"/>
			</defs>
			<clipPath id="SVGID_88_">
				<use xlink:href="#SVGID_87_"  overflow="visible"/>
			</clipPath>
			<path clip-path="url(#SVGID_88_)" fill-rule="evenodd" clip-rule="evenodd" fill="#C61D23" d="M627.765,8.072
				c-18.471,0.754-35.556,4.667-51.253,11.738c-3.92,1.553-7.021,3.114-9.304,4.684c-3.069-1.348-4.792-3.008-5.167-4.982
				c-0.621-3.199,3.038-6.367,10.977-9.502c12.231-5.508,25.547-8.553,39.948-9.133c7.188-0.289,13.162-0.031,17.923,0.776
				l1.401,6.291C630.832,7.973,629.323,8.015,627.765,8.072"/>
		</g>
		<g clip-path="url(#SVGID_84_)">
			<defs>
				<rect id="SVGID_89_" x="546" width="77.912" height="60.115"/>
			</defs>
			<clipPath id="SVGID_90_">
				<use xlink:href="#SVGID_89_"  overflow="visible"/>
			</clipPath>
			<g clip-path="url(#SVGID_90_)">
				<defs>
					
						<rect id="SVGID_91_" x="612.9" y="3.732" transform="matrix(-0.9997 -0.0253 0.0253 -0.9997 1234.2981 36.6222)" width="8.96" height="13.551"/>
				</defs>
				<clipPath id="SVGID_92_">
					<use xlink:href="#SVGID_91_"  overflow="visible"/>
				</clipPath>
				<path clip-path="url(#SVGID_92_)" fill="none" stroke="#000000" stroke-width="2.1424" stroke-miterlimit="10" d="
					M615.467,6.354c-0.912,1.149-1.497,2.27-1.756,3.362c-0.604,2.256,0.193,4.016,2.388,5.28c1.098,0.65,2.535,1.181,4.311,1.593
					c0.125,0.04,0.25,0.071,0.376,0.092l-4.053-11.779l-1.265,1.424L615.467,6.354z"/>
			</g>
		</g>
		<g clip-path="url(#SVGID_84_)">
			<defs>
				<rect id="SVGID_93_" x="546" width="77.912" height="60.115"/>
			</defs>
			<clipPath id="SVGID_94_">
				<use xlink:href="#SVGID_93_"  overflow="visible"/>
			</clipPath>
			
				<path clip-path="url(#SVGID_94_)" fill="none" stroke="#000000" stroke-width="2" stroke-linecap="round" stroke-miterlimit="3" d="
				M571.268,21.944c3.314,1.721,6.564,1.978,9.75,0.769c-2.563,2.344-11.673,13.431-27.328,33.26
				c1.392,0.274,3.213,0.412,5.466,0.412c4.522,0.018,8.917-0.641,13.183-1.978c13.695-4.267,23.674-14.456,29.937-30.568
				c1.611-4.395,5.264-6.912,10.958-7.553c2.856-0.312,5.548-0.192,8.075,0.357c-0.403-1.721-0.814-3.479-1.236-5.273
				c-0.842-3.57-1.336-5.493-1.483-5.768c-17.925-2.399-31.85-0.879-41.774,4.559c-3.113,1.703-5.63,3.69-7.553,5.96
				c-0.971,1.135-1.63,2.105-1.978,2.911l1.071,0.989C569.272,20.772,570.242,21.413,571.268,21.944z"/>
		</g>
	</g>
</g>
<g>
	<g>
		<defs>
			<rect id="SVGID_95_" x="624" width="77.912" height="60.115"/>
		</defs>
		<clipPath id="SVGID_96_">
			<use xlink:href="#SVGID_95_"  overflow="visible"/>
		</clipPath>
		<g clip-path="url(#SVGID_96_)">
			<defs>
				<rect id="SVGID_97_" x="624" width="77.912" height="60.115"/>
			</defs>
			<clipPath id="SVGID_98_">
				<use xlink:href="#SVGID_97_"  overflow="visible"/>
			</clipPath>
			<path clip-path="url(#SVGID_98_)" fill-rule="evenodd" clip-rule="evenodd" fill="#8B191C" d="M662.533,22.658
				c-4.614,0.86-8.871-0.027-12.771-2.664c-1.208-0.824-2.316-1.776-3.323-2.856l-1.126-1.374c4.376-1.556,8.075-3.049,11.096-4.477
				c0.476-0.22,1.877-0.97,4.202-2.252c2.105-1.153,3.451-1.849,4.038-2.087c4.833-1.995,9.649-3.259,14.446-3.79
				c5.823-0.659,11.279-0.174,16.369,1.456c0.421,1.611,1.09,3.873,2.005,6.784c0.733,2.38,1.318,4.22,1.758,5.52
				c-3.552-0.549-7.708,0.046-12.469,1.785c-2.16,0.806-4.285,3.333-6.372,7.581c-1.099,2.252-2.28,5.099-3.543,8.542
				c-5.09,11.957-13.705,19.116-25.844,21.478c-6.06,1.171-11.617,1.154-16.671-0.055c4.266-2.893,8.642-6.463,13.128-10.711
				C656.408,37.041,661.435,29.415,662.533,22.658"/>
		</g>
		<g clip-path="url(#SVGID_96_)">
			<defs>
				<rect id="SVGID_99_" x="624" width="77.912" height="60.115"/>
			</defs>
			<clipPath id="SVGID_100_">
				<use xlink:href="#SVGID_99_"  overflow="visible"/>
			</clipPath>
			<path clip-path="url(#SVGID_100_)" fill-rule="evenodd" clip-rule="evenodd" fill="#C61D23" d="M657.699,18.209
				c-2.142,1.007-4.541,2.05-7.196,3.131c-0.22-0.128-0.43-0.265-0.631-0.412c-1.209-0.824-2.316-1.776-3.323-2.856l-1.126-1.374
				c4.376-1.556,8.075-3.048,11.096-4.477c0.476-0.22,1.877-0.971,4.202-2.252c2.105-1.154,3.452-1.85,4.038-2.087
				c4.833-1.997,9.649-3.259,14.446-3.791c5.823-0.659,11.279-0.174,16.369,1.456c0.183,0.659,0.403,1.437,0.659,2.334
				c-3.296-0.275-6.701-0.211-10.217,0.192c-5.987,0.659-12.002,2.234-18.044,4.724c-0.714,0.293-2.39,1.163-5.026,2.609
				C660.052,17,658.304,17.934,657.699,18.209"/>
		</g>
		<g clip-path="url(#SVGID_96_)">
			<defs>
				<rect id="SVGID_101_" x="624" width="77.912" height="60.115"/>
			</defs>
			<clipPath id="SVGID_102_">
				<use xlink:href="#SVGID_101_"  overflow="visible"/>
			</clipPath>
			
				<path clip-path="url(#SVGID_102_)" fill="none" stroke="#000000" stroke-width="2" stroke-linecap="round" stroke-miterlimit="3" d="
				M656.408,11.288c-3.021,1.428-6.719,2.921-11.096,4.477l1.126,1.373c1.007,1.081,2.115,2.033,3.323,2.856
				c3.9,2.637,8.157,3.525,12.771,2.664c-1.099,6.756-6.125,14.382-15.078,22.878c-4.486,4.248-8.862,7.818-13.128,10.711
				c5.054,1.208,10.611,1.227,16.671,0.055c12.14-2.362,20.754-9.521,25.845-21.478c1.263-3.442,2.444-6.29,3.543-8.542
				c2.087-4.248,4.211-6.774,6.372-7.581c4.761-1.739,8.917-2.334,12.469-1.785c-0.439-1.3-1.025-3.14-1.758-5.52
				c-0.916-2.912-1.583-5.173-2.005-6.784c-5.09-1.63-10.546-2.115-16.369-1.456c-4.797,0.531-9.613,1.795-14.446,3.79
				c-0.586,0.238-1.932,0.934-4.038,2.087C658.285,10.317,656.885,11.068,656.408,11.288z"/>
		</g>
		<g clip-path="url(#SVGID_96_)">
			<defs>
				<rect id="SVGID_103_" x="624" width="77.912" height="60.115"/>
			</defs>
			<clipPath id="SVGID_104_">
				<use xlink:href="#SVGID_103_"  overflow="visible"/>
			</clipPath>
			<g clip-path="url(#SVGID_104_)">
				<defs>
					
						<rect id="SVGID_105_" x="690.9" y="3.732" transform="matrix(-0.9997 -0.0253 0.0253 -0.9997 1390.2732 38.5944)" width="8.96" height="13.551"/>
				</defs>
				<clipPath id="SVGID_106_">
					<use xlink:href="#SVGID_105_"  overflow="visible"/>
				</clipPath>
				<path clip-path="url(#SVGID_106_)" fill="none" stroke="#000000" stroke-width="2.1424" stroke-miterlimit="10" d="
					M693.467,6.354c-0.912,1.149-1.497,2.27-1.756,3.362c-0.604,2.256,0.193,4.016,2.388,5.28c1.098,0.65,2.535,1.181,4.311,1.593
					c0.125,0.04,0.25,0.071,0.376,0.092l-4.053-11.779l-1.265,1.424L693.467,6.354z"/>
			</g>
		</g>
	</g>
</g>
<g>
	<g>
		<defs>
			<rect id="SVGID_107_" x="702" width="77.912" height="60.115"/>
		</defs>
		<clipPath id="SVGID_108_">
			<use xlink:href="#SVGID_107_"  overflow="visible"/>
		</clipPath>
		<g clip-path="url(#SVGID_108_)">
			<defs>
				<rect id="SVGID_109_" x="702" width="77.912" height="60.115"/>
			</defs>
			<clipPath id="SVGID_110_">
				<use xlink:href="#SVGID_109_"  overflow="visible"/>
			</clipPath>
			<path clip-path="url(#SVGID_110_)" fill-rule="evenodd" clip-rule="evenodd" fill="#8B191C" d="M739.874,8.679
				c1.922-1.246,3.955-2.316,6.097-3.213c2.619-1.135,5.374-1.959,8.267-2.472c3.497-0.586,7.021-0.668,10.574-0.247
				c2.929,0.403,5.795,1.099,8.596,2.087c0.312,0.916,0.641,1.831,0.989,2.747c0.53,1.446,0.998,2.92,1.4,4.422
				c0.311,1.153,0.595,2.289,0.852,3.406c0.073,0.347,0.046,0.677-0.083,0.988c-1.3-0.165-2.609-0.256-3.927-0.274
				c-3.625-0.183-6.949,0.687-9.97,2.609c-1.044,0.696-1.941,1.556-2.691,2.582c-0.952,1.336-1.676,2.792-2.17,4.367
				c-0.769,2.544-1.428,5.145-1.978,7.8c-0.238,1.153-0.494,2.307-0.769,3.46c-0.292,1.172-0.586,2.325-0.879,3.46
				c-0.165,0.696-0.339,1.41-0.522,2.142c-0.128,0.513-0.293,1.007-0.494,1.483c-0.33,0.861-0.724,1.74-1.181,2.637
				c-0.274,0.567-0.595,1.043-0.961,1.428c-1.08,1.099-2.252,2.151-3.515,3.158c-1.246,1.007-2.563,1.858-3.955,2.554
				c-0.97,0.439-1.94,0.879-2.911,1.318c-1.282,0.549-2.609,1.025-3.982,1.428c-1.428,0.366-2.875,0.604-4.339,0.714
				c-1.904,0.256-3.809,0.366-5.713,0.329c-2.765-0.037-5.502-0.302-8.212-0.796c-1.282-0.183-2.545-0.494-3.79-0.934
				c1.428-0.897,2.856-1.785,4.284-2.664c1.593-1.007,3.131-2.069,4.614-3.186c1.483-1.099,2.866-2.262,4.147-3.488
				c1.245-1.227,2.426-2.527,3.543-3.9c0.75-0.897,1.474-1.803,2.169-2.719c1.831-2.454,3.369-5.072,4.614-7.855
				c1.3-2.93,2.215-5.96,2.746-9.091c-0.641,0.165-1.291,0.192-1.95,0.082c-2.087,0-4.147-0.201-6.18-0.604
				c-2.014-0.421-3.973-1.025-5.877-1.812c0.897-1.117,1.803-2.225,2.719-3.323c1.446-1.703,3.039-3.232,4.779-4.587
				C736.01,11.27,737.896,9.924,739.874,8.679"/>
			<path clip-path="url(#SVGID_110_)" fill-rule="evenodd" clip-rule="evenodd" fill="#C61D23" d="M740.011,8.679
				c1.922-1.246,3.955-2.316,6.097-3.213c2.619-1.135,5.374-1.959,8.267-2.472c3.498-0.586,7.021-0.668,10.574-0.247
				c2.93,0.403,5.795,1.099,8.597,2.087c0.312,0.916,0.641,1.831,0.989,2.747c0.366,0.989,0.705,1.987,1.016,2.994
				c-2.545-0.824-5.126-1.419-7.745-1.785c-3.552-0.421-7.077-0.339-10.574,0.247c-2.893,0.513-5.649,1.336-8.267,2.472
				c-2.142,0.897-4.175,1.968-6.097,3.213c-1.978,1.246-3.863,2.591-5.658,4.038c-1.446,1.135-2.793,2.39-4.038,3.763
				c-0.146-0.018-0.292-0.045-0.439-0.083c-2.015-0.421-3.973-1.025-5.878-1.812c0.897-1.117,1.804-2.225,2.719-3.323
				c1.446-1.703,3.04-3.232,4.779-4.587C736.147,11.27,738.034,9.924,740.011,8.679"/>
		</g>
		<g clip-path="url(#SVGID_108_)">
			<defs>
				<rect id="SVGID_111_" x="702" width="77.912" height="60.115"/>
			</defs>
			<clipPath id="SVGID_112_">
				<use xlink:href="#SVGID_111_"  overflow="visible"/>
			</clipPath>
			
				<path clip-path="url(#SVGID_112_)" fill="none" stroke="#000000" stroke-width="2" stroke-linecap="round" stroke-miterlimit="3" d="
				M740.725,22.96c-0.531,3.131-1.446,6.162-2.746,9.091c-1.246,2.783-2.783,5.401-4.614,7.855c-0.696,0.916-1.419,1.822-2.17,2.719
				c-1.117,1.373-2.298,2.673-3.542,3.9c-1.282,1.227-2.665,2.39-4.147,3.488c-1.483,1.117-3.021,2.179-4.614,3.186
				c-1.428,0.879-2.856,1.767-4.284,2.664c1.245,0.439,2.508,0.751,3.79,0.934c2.71,0.495,5.447,0.76,8.212,0.796
				c1.904,0.037,3.808-0.073,5.713-0.329c1.465-0.11,2.911-0.348,4.339-0.714c1.373-0.403,2.701-0.879,3.982-1.428
				c0.971-0.439,1.94-0.879,2.911-1.318c1.392-0.696,2.709-1.547,3.955-2.554c1.263-1.007,2.435-2.06,3.515-3.158
				c0.367-0.385,0.687-0.861,0.961-1.428c0.458-0.897,0.851-1.776,1.181-2.637c0.202-0.476,0.366-0.971,0.494-1.483
				c0.183-0.732,0.357-1.446,0.522-2.142c0.293-1.135,0.586-2.289,0.879-3.46c0.275-1.153,0.531-2.307,0.769-3.46
				c0.549-2.655,1.208-5.255,1.978-7.8c0.494-1.575,1.218-3.031,2.169-4.367c0.751-1.026,1.648-1.886,2.692-2.582
				c3.021-1.922,6.344-2.792,9.97-2.609c1.318,0.018,2.627,0.11,3.927,0.274c0.018-0.043,0.036-0.09,0.055-0.137
				c0.081-0.269,0.09-0.553,0.027-0.851c-0.257-1.117-0.54-2.252-0.852-3.406c-0.402-1.501-0.87-2.976-1.401-4.422
				c-0.348-0.916-0.677-1.831-0.989-2.747c-0.072-0.026-0.146-0.053-0.219-0.083c-0.023-0.008-0.046-0.017-0.069-0.027
				c-2.71-0.929-5.479-1.588-8.308-1.978c-3.552-0.421-7.077-0.339-10.574,0.247c-2.894,0.513-5.649,1.337-8.268,2.472
				c-2.142,0.897-4.174,1.968-6.097,3.213c-1.978,1.245-3.863,2.591-5.658,4.037c-1.739,1.355-3.332,2.884-4.778,4.587
				c-0.916,1.099-1.822,2.207-2.719,3.323c1.904,0.787,3.863,1.391,5.877,1.812c2.032,0.403,4.092,0.604,6.18,0.604
				C739.435,23.153,740.084,23.125,740.725,22.96z"/>
		</g>
		<g clip-path="url(#SVGID_108_)">
			<defs>
				<rect id="SVGID_113_" x="702" width="77.912" height="60.115"/>
			</defs>
			<clipPath id="SVGID_114_">
				<use xlink:href="#SVGID_113_"  overflow="visible"/>
			</clipPath>
			<g clip-path="url(#SVGID_114_)">
				<defs>
					
						<rect id="SVGID_115_" x="768.9" y="3.732" transform="matrix(-0.9997 -0.0253 0.0253 -0.9997 1546.2483 40.5666)" width="8.96" height="13.551"/>
				</defs>
				<clipPath id="SVGID_116_">
					<use xlink:href="#SVGID_115_"  overflow="visible"/>
				</clipPath>
				<path clip-path="url(#SVGID_116_)" fill="none" stroke="#000000" stroke-width="2.1424" stroke-miterlimit="10" d="
					M771.467,6.354c-0.912,1.149-1.497,2.27-1.756,3.362c-0.604,2.256,0.193,4.016,2.388,5.28c1.098,0.65,2.535,1.181,4.311,1.593
					c0.125,0.04,0.25,0.071,0.376,0.092l-4.053-11.779l-1.265,1.424L771.467,6.354z"/>
			</g>
		</g>
	</g>
</g>
</svg>
