<?xml version="1.0" encoding="utf-8"?>
<!-- Generator: Adobe Illustrator 16.0.0, SVG Export Plug-In . SVG Version: 6.00 Build 0)  -->
<!DOCTYPE svg PUBLIC "-//W3C//DTD SVG 1.1//EN" "http://www.w3.org/Graphics/SVG/1.1/DTD/svg11.dtd">
<svg version="1.1" id="Layer_1" xmlns="http://www.w3.org/2000/svg" xmlns:xlink="http://www.w3.org/1999/xlink" x="0px" y="0px"
	 width="1424.84px" height="109.439px" viewBox="0 0 1424.84 109.439" enable-background="new 0 0 1424.84 109.439"
	 xml:space="preserve">
<g>
	<g>
		<defs>
			<rect id="SVGID_1_" width="141.84" height="109.439"/>
		</defs>
		<clipPath id="SVGID_2_">
			<use xlink:href="#SVGID_1_"  overflow="visible"/>
		</clipPath>
		<g clip-path="url(#SVGID_2_)">
			<defs>
				<rect id="SVGID_3_" width="141.84" height="109.439"/>
			</defs>
			<clipPath id="SVGID_4_">
				<use xlink:href="#SVGID_3_"  overflow="visible"/>
			</clipPath>
			<path clip-path="url(#SVGID_4_)" fill-rule="evenodd" clip-rule="evenodd" fill="#8b191c" d="M68.95,15.8
				c3.5-2.267,7.2-4.217,11.1-5.85c4.767-2.067,9.783-3.567,15.05-4.5c6.367-1.067,12.783-1.217,19.25-0.45
				c5.333,0.733,10.55,2,15.65,3.8c0.567,1.667,1.166,3.333,1.8,5c0.966,2.633,1.817,5.317,2.55,8.05
				c0.566,2.1,1.083,4.167,1.55,6.2c0.133,0.633,0.083,1.233-0.15,1.8c-2.367-0.3-4.75-0.467-7.15-0.5
				c-6.6-0.333-12.65,1.25-18.15,4.75c-1.9,1.267-3.534,2.833-4.9,4.7c-1.733,2.433-3.05,5.083-3.95,7.95
				c-1.4,4.633-2.6,9.367-3.6,14.2c-0.433,2.1-0.9,4.2-1.4,6.3c-0.533,2.133-1.067,4.233-1.6,6.3c-0.3,1.267-0.617,2.567-0.95,3.9
				c-0.233,0.933-0.534,1.833-0.9,2.7c-0.6,1.567-1.317,3.167-2.15,4.8c-0.5,1.033-1.084,1.9-1.75,2.6c-1.967,2-4.1,3.917-6.4,5.75
				c-2.267,1.833-4.667,3.383-7.2,4.65c-1.767,0.8-3.533,1.6-5.3,2.4c-2.334,1-4.75,1.867-7.25,2.6
				c-2.6,0.667-5.233,1.101-7.9,1.301c-3.467,0.467-6.934,0.667-10.4,0.6c-5.034-0.067-10.017-0.55-14.95-1.45
				c-2.334-0.333-4.633-0.899-6.9-1.7c2.6-1.632,5.2-3.25,7.8-4.85c2.9-1.833,5.7-3.767,8.4-5.8c2.7-2,5.217-4.117,7.55-6.35
				c2.267-2.233,4.417-4.6,6.45-7.1c1.366-1.633,2.683-3.283,3.95-4.95c3.333-4.467,6.133-9.233,8.4-14.3
				c2.367-5.333,4.033-10.85,5-16.55c-1.167,0.3-2.35,0.35-3.55,0.15c-3.8,0-7.55-0.367-11.25-1.1
				c-3.667-0.767-7.233-1.867-10.7-3.3c1.633-2.033,3.283-4.05,4.95-6.05c2.633-3.1,5.533-5.883,8.7-8.35
				C61.916,20.517,65.35,18.067,68.95,15.8"/>
			<path clip-path="url(#SVGID_4_)" fill-rule="evenodd" clip-rule="evenodd" fill="#c61d23" d="M69.2,15.8
				c3.5-2.267,7.2-4.217,11.1-5.85c4.767-2.067,9.783-3.567,15.05-4.5c6.367-1.067,12.783-1.217,19.25-0.45
				c5.333,0.733,10.55,2,15.65,3.8c0.567,1.667,1.166,3.333,1.8,5c0.667,1.8,1.283,3.617,1.85,5.45
				c-4.634-1.5-9.333-2.583-14.1-3.25c-6.467-0.767-12.884-0.617-19.25,0.45c-5.267,0.933-10.284,2.433-15.05,4.5
				c-3.9,1.633-7.6,3.583-11.1,5.85c-3.6,2.267-7.033,4.717-10.3,7.35c-2.633,2.067-5.084,4.35-7.35,6.85
				c-0.267-0.033-0.533-0.083-0.8-0.15c-3.667-0.767-7.233-1.867-10.7-3.3c1.633-2.033,3.283-4.05,4.95-6.05
				c2.633-3.1,5.533-5.883,8.7-8.35C62.166,20.517,65.6,18.067,69.2,15.8"/>
		</g>
		<g clip-path="url(#SVGID_2_)">
			<defs>
				<rect id="SVGID_5_" width="141.84" height="109.439"/>
			</defs>
			<clipPath id="SVGID_6_">
				<use xlink:href="#SVGID_5_"  overflow="visible"/>
			</clipPath>
			
				<path clip-path="url(#SVGID_6_)" fill="none" stroke="#000000" stroke-width="2" stroke-linecap="round" stroke-miterlimit="3" d="
				M70.5,41.8c-0.967,5.7-2.633,11.217-5,16.55c-2.267,5.067-5.067,9.833-8.4,14.3c-1.267,1.667-2.583,3.317-3.95,4.95
				c-2.033,2.5-4.183,4.867-6.45,7.1c-2.333,2.233-4.85,4.35-7.55,6.35c-2.7,2.033-5.5,3.967-8.4,5.8c-2.6,1.6-5.2,3.217-7.8,4.85
				c2.267,0.801,4.567,1.367,6.9,1.7c4.933,0.9,9.917,1.383,14.95,1.45c3.467,0.067,6.933-0.133,10.4-0.6
				c2.667-0.2,5.3-0.634,7.9-1.301c2.5-0.732,4.917-1.6,7.25-2.6c1.767-0.8,3.533-1.6,5.3-2.4c2.533-1.267,4.933-2.817,7.2-4.65
				c2.3-1.833,4.433-3.75,6.4-5.75c0.667-0.7,1.25-1.567,1.75-2.6c0.833-1.633,1.55-3.233,2.15-4.8c0.367-0.867,0.667-1.767,0.9-2.7
				c0.333-1.333,0.65-2.633,0.95-3.9c0.533-2.067,1.067-4.167,1.6-6.3c0.5-2.1,0.967-4.2,1.4-6.3c1-4.833,2.2-9.567,3.6-14.2
				c0.9-2.867,2.217-5.517,3.95-7.95c1.367-1.867,3-3.433,4.9-4.7c5.5-3.5,11.55-5.083,18.15-4.75c2.4,0.033,4.783,0.2,7.15,0.5
				c0.033-0.08,0.066-0.164,0.1-0.25c0.148-0.49,0.165-1.007,0.05-1.55c-0.467-2.033-0.983-4.1-1.55-6.2
				c-0.733-2.733-1.583-5.417-2.55-8.05c-0.633-1.667-1.233-3.333-1.8-5c-0.132-0.047-0.266-0.097-0.4-0.15
				c-0.042-0.015-0.084-0.031-0.125-0.05C124.542,6.908,119.5,5.708,114.35,5c-6.467-0.767-12.883-0.617-19.25,0.45
				c-5.267,0.933-10.283,2.433-15.05,4.5c-3.9,1.633-7.6,3.583-11.1,5.85c-3.6,2.267-7.033,4.717-10.3,7.35
				c-3.167,2.467-6.067,5.25-8.7,8.35c-1.667,2-3.317,4.017-4.95,6.05c3.467,1.433,7.033,2.533,10.7,3.3
				c3.7,0.733,7.45,1.1,11.25,1.1C68.15,42.15,69.333,42.1,70.5,41.8z"/>
		</g>
		<g clip-path="url(#SVGID_2_)">
			<defs>
				<rect id="SVGID_7_" width="141.84" height="109.439"/>
			</defs>
			<clipPath id="SVGID_8_">
				<use xlink:href="#SVGID_7_"  overflow="visible"/>
			</clipPath>
			<g clip-path="url(#SVGID_8_)">
				<defs>
					
						<rect id="SVGID_9_" x="121.793" y="6.795" transform="matrix(-0.9997 -0.0253 0.0253 -0.9997 259.3735 41.5396)" width="16.312" height="24.669"/>
				</defs>
				<clipPath id="SVGID_10_">
					<use xlink:href="#SVGID_9_"  overflow="visible"/>
				</clipPath>
				<path clip-path="url(#SVGID_10_)" fill="none" stroke="#000000" stroke-width="2.1424" stroke-miterlimit="10" d="
					M126.465,11.567c-1.66,2.092-2.725,4.132-3.197,6.121c-1.099,4.106,0.351,7.311,4.348,9.613c1.999,1.184,4.614,2.15,7.847,2.899
					c0.228,0.073,0.456,0.129,0.685,0.167l-7.378-21.443l-2.304,2.592L126.465,11.567z"/>
			</g>
		</g>
	</g>
</g>
<g>
	<g>
		<defs>
			<rect id="SVGID_11_" x="140" width="141.84" height="109.439"/>
		</defs>
		<clipPath id="SVGID_12_">
			<use xlink:href="#SVGID_11_"  overflow="visible"/>
		</clipPath>
		<g clip-path="url(#SVGID_12_)">
			<defs>
				<rect id="SVGID_13_" x="140" width="141.84" height="109.439"/>
			</defs>
			<clipPath id="SVGID_14_">
				<use xlink:href="#SVGID_13_"  overflow="visible"/>
			</clipPath>
			<path clip-path="url(#SVGID_14_)" fill-rule="evenodd" clip-rule="evenodd" fill="#8b191c" d="M210.15,41.25
				c-8.4,1.566-16.15-0.05-23.25-4.85c-2.2-1.5-4.217-3.233-6.05-5.2l-2.05-2.5c7.967-2.833,14.7-5.55,20.2-8.15
				c0.867-0.4,3.417-1.767,7.65-4.1c3.833-2.1,6.283-3.367,7.35-3.8c8.8-3.633,17.567-5.934,26.3-6.9
				c10.6-1.2,20.534-0.317,29.8,2.65c0.767,2.933,1.984,7.05,3.65,12.35c1.334,4.333,2.4,7.683,3.2,10.05
				c-6.467-1-14.033,0.083-22.7,3.25c-3.933,1.467-7.8,6.067-11.6,13.8c-2,4.1-4.15,9.283-6.45,15.55
				c-9.267,21.767-24.95,34.8-47.05,39.1c-11.033,2.133-21.15,2.1-30.35-0.101c7.767-5.267,15.733-11.767,23.9-19.5
				C199,67.433,208.15,53.55,210.15,41.25"/>
		</g>
		<g clip-path="url(#SVGID_12_)">
			<defs>
				<rect id="SVGID_15_" x="140" width="141.84" height="109.439"/>
			</defs>
			<clipPath id="SVGID_16_">
				<use xlink:href="#SVGID_15_"  overflow="visible"/>
			</clipPath>
			<path clip-path="url(#SVGID_16_)" fill-rule="evenodd" clip-rule="evenodd" fill="#c61d23" d="M201.35,33.15
				c-3.9,1.833-8.267,3.733-13.1,5.7c-0.4-0.233-0.783-0.483-1.15-0.75c-2.2-1.5-4.217-3.233-6.05-5.2L179,30.4
				c7.967-2.833,14.7-5.55,20.2-8.15c0.867-0.4,3.417-1.767,7.65-4.1c3.833-2.1,6.283-3.367,7.35-3.8
				c8.8-3.634,17.567-5.933,26.3-6.9c10.6-1.2,20.533-0.317,29.8,2.65c0.333,1.2,0.733,2.616,1.2,4.25c-6-0.5-12.2-0.384-18.6,0.35
				c-10.9,1.2-21.85,4.067-32.85,8.6c-1.3,0.533-4.35,2.117-9.15,4.75C205.633,30.95,202.45,32.65,201.35,33.15"/>
		</g>
		<g clip-path="url(#SVGID_12_)">
			<defs>
				<rect id="SVGID_17_" x="140" width="141.84" height="109.439"/>
			</defs>
			<clipPath id="SVGID_18_">
				<use xlink:href="#SVGID_17_"  overflow="visible"/>
			</clipPath>
			
				<path clip-path="url(#SVGID_18_)" fill="none" stroke="#000000" stroke-width="2" stroke-linecap="round" stroke-miterlimit="3" d="
				M199,20.55c-5.5,2.6-12.233,5.317-20.2,8.15l2.05,2.5c1.833,1.967,3.85,3.7,6.05,5.2c7.1,4.8,14.85,6.417,23.25,4.85
				c-2,12.3-11.15,26.183-27.45,41.65c-8.167,7.733-16.133,14.233-23.9,19.5c9.2,2.2,19.317,2.233,30.35,0.101
				c22.1-4.3,37.783-17.333,47.05-39.1c2.3-6.267,4.45-11.45,6.45-15.55c3.8-7.733,7.667-12.333,11.6-13.8
				c8.667-3.167,16.233-4.25,22.7-3.25c-0.8-2.367-1.867-5.717-3.2-10.05c-1.667-5.3-2.883-9.417-3.65-12.35
				c-9.267-2.967-19.2-3.85-29.8-2.65c-8.733,0.967-17.5,3.267-26.3,6.9c-1.067,0.433-3.517,1.7-7.35,3.8
				C202.417,18.783,199.867,20.15,199,20.55z"/>
		</g>
		<g clip-path="url(#SVGID_12_)">
			<defs>
				<rect id="SVGID_19_" x="140" width="141.84" height="109.439"/>
			</defs>
			<clipPath id="SVGID_20_">
				<use xlink:href="#SVGID_19_"  overflow="visible"/>
			</clipPath>
			<g clip-path="url(#SVGID_20_)">
				<defs>
					
						<rect id="SVGID_21_" x="261.793" y="6.795" transform="matrix(-0.9997 -0.0253 0.0253 -0.9997 539.3287 45.0807)" width="16.312" height="24.669"/>
				</defs>
				<clipPath id="SVGID_22_">
					<use xlink:href="#SVGID_21_"  overflow="visible"/>
				</clipPath>
				<path clip-path="url(#SVGID_22_)" fill="none" stroke="#000000" stroke-width="2.1424" stroke-miterlimit="10" d="
					M266.465,11.567c-1.66,2.092-2.725,4.132-3.197,6.121c-1.099,4.106,0.351,7.311,4.348,9.613c1.999,1.184,4.614,2.15,7.847,2.899
					c0.228,0.073,0.456,0.129,0.685,0.167l-7.378-21.443l-2.304,2.592L266.465,11.567z"/>
			</g>
		</g>
	</g>
</g>
<g>
	<g>
		<defs>
			<rect id="SVGID_23_" x="284" width="141.84" height="109.439"/>
		</defs>
		<clipPath id="SVGID_24_">
			<use xlink:href="#SVGID_23_"  overflow="visible"/>
		</clipPath>
		<g clip-path="url(#SVGID_24_)">
			<defs>
				<rect id="SVGID_25_" x="284" width="141.84" height="109.439"/>
			</defs>
			<clipPath id="SVGID_26_">
				<use xlink:href="#SVGID_25_"  overflow="visible"/>
			</clipPath>
			<path clip-path="url(#SVGID_26_)" fill-rule="evenodd" clip-rule="evenodd" fill="#8b191c" d="M347.75,41.35
				c-5.8,2.2-11.717,1.733-17.75-1.4c-1.867-0.967-3.633-2.133-5.3-3.5l-1.95-1.8c0.633-1.467,1.833-3.233,3.6-5.3
				c3.5-4.133,8.083-7.75,13.75-10.85c18.067-9.9,43.417-12.667,76.05-8.3c0.267,0.5,1.167,4,2.7,10.5
				c0.767,3.267,1.517,6.467,2.25,9.6c-4.6-1-9.5-1.217-14.7-0.65c-10.367,1.167-17.017,5.75-19.95,13.75
				c-11.4,29.333-29.567,47.884-54.5,55.65c-7.767,2.433-15.767,3.633-24,3.6c-4.1,0-7.417-0.25-9.95-0.75
				C326.5,65.8,343.083,45.617,347.75,41.35"/>
		</g>
		<g clip-path="url(#SVGID_24_)">
			<defs>
				<path id="SVGID_27_" d="M340.101,18.5c-5.668,3.1-10.251,6.716-13.751,10.85c-1.766,2.066-2.966,3.833-3.6,5.3l1.951,1.8
					c1.667,1.366,3.433,2.533,5.3,3.5c6.033,3.133,11.95,3.6,17.75,1.4c-4.667,4.266-21.25,24.45-49.751,60.549
					c2.534,0.5,5.85,0.75,9.951,0.75c8.233,0.033,16.232-1.167,24-3.601c24.933-7.766,43.099-26.316,54.5-55.649
					c2.933-8,9.583-12.583,19.95-13.75c5.199-0.567,10.1-0.351,14.699,0.65c-0.732-3.133-1.483-6.334-2.25-9.6
					c-1.533-6.5-2.434-10-2.699-10.5c-9.989-1.337-19.294-2.005-27.918-2.005C368.682,8.195,352.637,11.63,340.101,18.5"/>
			</defs>
			<clipPath id="SVGID_28_">
				<use xlink:href="#SVGID_27_"  overflow="visible"/>
			</clipPath>
			<path clip-path="url(#SVGID_28_)" fill-rule="evenodd" clip-rule="evenodd" fill="#c61d23" d="M432.854,14.696
				c-33.627,1.373-64.73,8.496-93.307,21.369c-7.136,2.828-12.781,5.67-16.938,8.527c-5.588-2.453-8.724-5.477-9.406-9.071
				c-1.13-5.824,5.531-11.59,19.984-17.299c22.267-10.028,46.508-15.57,72.725-16.626c13.085-0.526,23.962-0.056,32.63,1.413
				l2.551,11.453C438.437,14.514,435.691,14.592,432.854,14.696"/>
		</g>
		<g clip-path="url(#SVGID_24_)">
			<defs>
				<rect id="SVGID_29_" x="284" width="141.84" height="109.439"/>
			</defs>
			<clipPath id="SVGID_30_">
				<use xlink:href="#SVGID_29_"  overflow="visible"/>
			</clipPath>
			<g clip-path="url(#SVGID_30_)">
				<defs>
					
						<rect id="SVGID_31_" x="405.793" y="6.795" transform="matrix(-0.9997 -0.0253 0.0253 -0.9997 827.2826 48.723)" width="16.312" height="24.669"/>
				</defs>
				<clipPath id="SVGID_32_">
					<use xlink:href="#SVGID_31_"  overflow="visible"/>
				</clipPath>
				<path clip-path="url(#SVGID_32_)" fill="none" stroke="#000000" stroke-width="2.1424" stroke-miterlimit="10" d="
					M410.465,11.567c-1.66,2.092-2.725,4.132-3.197,6.121c-1.099,4.106,0.351,7.311,4.348,9.613c1.999,1.184,4.614,2.15,7.847,2.899
					c0.228,0.073,0.456,0.129,0.685,0.167l-7.378-21.443l-2.304,2.592L410.465,11.567z"/>
			</g>
		</g>
		<g clip-path="url(#SVGID_24_)">
			<defs>
				<rect id="SVGID_33_" x="284" width="141.84" height="109.439"/>
			</defs>
			<clipPath id="SVGID_34_">
				<use xlink:href="#SVGID_33_"  overflow="visible"/>
			</clipPath>
			
				<path clip-path="url(#SVGID_34_)" fill="none" stroke="#000000" stroke-width="2" stroke-linecap="round" stroke-miterlimit="3" d="
				M330,39.95c6.033,3.133,11.95,3.6,17.75,1.4c-4.667,4.267-21.25,24.45-49.75,60.55c2.533,0.5,5.85,0.75,9.95,0.75
				c8.233,0.033,16.233-1.167,24-3.6c24.933-7.767,43.1-26.317,54.5-55.65c2.933-8,9.583-12.583,19.95-13.75
				c5.2-0.567,10.1-0.35,14.7,0.65c-0.733-3.133-1.483-6.333-2.25-9.6c-1.533-6.5-2.433-10-2.7-10.5
				c-32.633-4.367-57.983-1.6-76.05,8.3c-5.667,3.1-10.25,6.717-13.75,10.85c-1.767,2.067-2.967,3.833-3.6,5.3l1.95,1.8
				C326.367,37.817,328.133,38.983,330,39.95z"/>
		</g>
	</g>
</g>
<g>
	<g>
		<defs>
			<rect id="SVGID_35_" x="427" width="141.84" height="109.439"/>
		</defs>
		<clipPath id="SVGID_36_">
			<use xlink:href="#SVGID_35_"  overflow="visible"/>
		</clipPath>
		<g clip-path="url(#SVGID_36_)">
			<defs>
				<rect id="SVGID_37_" x="427" width="141.84" height="109.439"/>
			</defs>
			<clipPath id="SVGID_38_">
				<use xlink:href="#SVGID_37_"  overflow="visible"/>
			</clipPath>
			<g clip-path="url(#SVGID_38_)">
				<defs>
					<rect id="SVGID_39_" x="439.75" y="8.949" width="122.85" height="93.101"/>
				</defs>
				<clipPath id="SVGID_40_">
					<use xlink:href="#SVGID_39_"  overflow="visible"/>
				</clipPath>
			</g>
		</g>
		<g clip-path="url(#SVGID_36_)">
			<defs>
				<rect id="SVGID_41_" x="427" width="141.84" height="109.439"/>
			</defs>
			<clipPath id="SVGID_42_">
				<use xlink:href="#SVGID_41_"  overflow="visible"/>
			</clipPath>
			<path clip-path="url(#SVGID_42_)" fill-rule="evenodd" clip-rule="evenodd" fill="#8b191c" d="M488.7,40.75
				c-3.233,0.733-6.767,0.783-10.6,0.15c-7.667-1.3-12.967-5.417-15.9-12.35c10.933-11.133,30.167-17.633,57.7-19.5
				c13.766-0.9,26.449-0.7,38.05,0.6l2.2,8.45c1.467,5.9,2.199,9.583,2.199,11.05c-19.3-1.233-37.649,8.816-55.05,30.15
				c-8.7,10.7-15.482,21.5-20.35,32.4c-6.534,0.067-13.55,0.65-21.05,1.75c-14.933,2.233-24.7,6.016-29.3,11.35
				c3.633-10.667,13.416-24.533,29.35-41.6C473.883,54.633,481.467,47.15,488.7,40.75"/>
			<path clip-path="url(#SVGID_42_)" fill-rule="evenodd" clip-rule="evenodd" fill="#c61d23" d="M556.674,8.571
				c-11.522-1.272-24.11-1.464-37.767-0.572c-27.533,1.867-46.767,8.367-57.7,19.5c1.439,3.401,3.451,6.12,6.029,8.166
				c10.992-8.944,28.219-14.785,51.723-17.504c13.584-1.538,26.153-1.943,37.715-1.222V8.571z"/>
			<path clip-path="url(#SVGID_42_)" fill="none" stroke="#000000" stroke-width="2" stroke-miterlimit="3" d="M488.7,40.75
				c-7.233,6.4-14.817,13.883-22.75,22.45c-15.934,17.067-25.717,30.933-29.35,41.6c4.6-5.334,14.367-9.117,29.3-11.35
				c7.5-1.1,14.516-1.683,21.05-1.75c4.867-10.9,11.65-21.7,20.35-32.4c17.4-21.334,35.75-31.383,55.05-30.15
				c0-1.467-0.732-5.15-2.199-11.05l-2.2-8.45c-11.601-1.3-24.284-1.5-38.05-0.6c-27.533,1.867-46.767,8.367-57.7,19.5
				c2.933,6.933,8.233,11.05,15.9,12.35C481.933,41.533,485.467,41.483,488.7,40.75z"/>
		</g>
		<g clip-path="url(#SVGID_36_)">
			<defs>
				<rect id="SVGID_43_" x="427" width="141.84" height="109.439"/>
			</defs>
			<clipPath id="SVGID_44_">
				<use xlink:href="#SVGID_43_"  overflow="visible"/>
			</clipPath>
			<g clip-path="url(#SVGID_44_)">
				<defs>
					
						<rect id="SVGID_45_" x="548.793" y="6.795" transform="matrix(-0.9997 -0.0253 0.0253 -0.9997 1113.2365 52.3394)" width="16.313" height="24.669"/>
				</defs>
				<clipPath id="SVGID_46_">
					<use xlink:href="#SVGID_45_"  overflow="visible"/>
				</clipPath>
				<path clip-path="url(#SVGID_46_)" fill="none" stroke="#000000" stroke-width="2.1424" stroke-miterlimit="10" d="
					M553.465,11.567c-1.659,2.092-2.725,4.132-3.196,6.121c-1.1,4.106,0.351,7.311,4.348,9.613c1.999,1.184,4.614,2.15,7.848,2.899
					c0.228,0.073,0.456,0.129,0.685,0.167l-7.378-21.443l-2.304,2.592L553.465,11.567z"/>
			</g>
		</g>
	</g>
</g>
<g>
	<g>
		<defs>
			<rect id="SVGID_47_" x="571" width="141.84" height="109.439"/>
		</defs>
		<clipPath id="SVGID_48_">
			<use xlink:href="#SVGID_47_"  overflow="visible"/>
		</clipPath>
		<g clip-path="url(#SVGID_48_)">
			<defs>
				<rect id="SVGID_49_" x="571" width="141.84" height="109.439"/>
			</defs>
			<clipPath id="SVGID_50_">
				<use xlink:href="#SVGID_49_"  overflow="visible"/>
			</clipPath>
			<path clip-path="url(#SVGID_50_)" fill-rule="evenodd" clip-rule="evenodd" fill="#8b191c" d="M604.7,24.75
				c5.767-2.333,12.783-4.567,21.05-6.7c9.333-2.4,18.666-4.25,28-5.55c4.2-0.567,12.433-1.017,24.7-1.35
				c9.966-0.233,17.5-1.084,22.6-2.55c0.667,0.133,2.067,3.533,4.2,10.2c2.2,6.666,2.85,10.133,1.95,10.4
				c-25.3,1.967-46.351,12.45-63.15,31.45c-8.399,9.5-14.267,18.8-17.6,27.9l-47.649,13.65c2.732-7.6,6.965-15.833,12.699-24.7
				c11.4-17.7,24.533-29.617,39.4-35.75c-7.968,0.933-14.917-1.684-20.851-7.85c-1.967-2.067-3.517-4.2-4.649-6.4
				C604.367,25.5,604.133,24.583,604.7,24.75"/>
		</g>
		<g clip-path="url(#SVGID_48_)">
			<defs>
				<rect id="SVGID_51_" x="571" width="141.84" height="109.439"/>
			</defs>
			<clipPath id="SVGID_52_">
				<use xlink:href="#SVGID_51_"  overflow="visible"/>
			</clipPath>
			<path clip-path="url(#SVGID_52_)" fill-rule="evenodd" clip-rule="evenodd" fill="#c61d23" d="M610.05,33.9
				c-1.966-2.067-3.517-4.2-4.649-6.4c-1.033-2-1.268-2.917-0.701-2.75c5.768-2.333,12.784-4.567,21.051-6.7
				c9.334-2.4,18.667-4.25,28-5.55c4.199-0.567,12.433-1.017,24.699-1.35c9.968-0.233,17.5-1.083,22.601-2.55
				c0.534,0.1,1.583,2.4,3.149,6.9c-5.133,1.1-11.532,1.95-19.199,2.55c-14.101,1.2-23.551,2.283-28.351,3.25
				c-10.633,2.067-21.25,4.783-31.85,8.15c-5.167,1.667-9.9,3.333-14.2,5C610.433,34.283,610.25,34.1,610.05,33.9"/>
		</g>
		<g clip-path="url(#SVGID_48_)">
			<defs>
				<rect id="SVGID_53_" x="571" width="141.84" height="109.439"/>
			</defs>
			<clipPath id="SVGID_54_">
				<use xlink:href="#SVGID_53_"  overflow="visible"/>
			</clipPath>
			<path clip-path="url(#SVGID_54_)" fill="none" stroke="#000000" stroke-width="2" stroke-miterlimit="3" d="M605.4,27.5
				c-1.033-2-1.268-2.917-0.701-2.75c5.768-2.333,12.783-4.567,21.051-6.7c9.334-2.4,18.667-4.25,28-5.55
				c4.199-0.567,12.433-1.017,24.699-1.35c9.968-0.233,17.5-1.084,22.601-2.55c0.667,0.133,2.066,3.533,4.2,10.2
				c2.199,6.666,2.85,10.133,1.949,10.4c-25.3,1.967-46.35,12.45-63.149,31.45c-8.4,9.5-14.268,18.8-17.601,27.9L578.8,102.2
				c2.733-7.6,6.968-15.833,12.7-24.7c11.4-17.7,24.532-29.617,39.399-35.75c-7.967,0.933-14.917-1.684-20.85-7.85
				C608.084,31.833,606.533,29.7,605.4,27.5z"/>
		</g>
		<g clip-path="url(#SVGID_48_)">
			<defs>
				<rect id="SVGID_55_" x="571" width="141.84" height="109.439"/>
			</defs>
			<clipPath id="SVGID_56_">
				<use xlink:href="#SVGID_55_"  overflow="visible"/>
			</clipPath>
			<g clip-path="url(#SVGID_56_)">
				<defs>
					
						<rect id="SVGID_57_" x="692.793" y="6.795" transform="matrix(-0.9997 -0.0253 0.0253 -0.9997 1401.1904 55.9816)" width="16.313" height="24.669"/>
				</defs>
				<clipPath id="SVGID_58_">
					<use xlink:href="#SVGID_57_"  overflow="visible"/>
				</clipPath>
				<path clip-path="url(#SVGID_58_)" fill="none" stroke="#000000" stroke-width="2.1424" stroke-miterlimit="10" d="
					M697.465,11.567c-1.659,2.092-2.725,4.132-3.196,6.121c-1.1,4.106,0.351,7.311,4.348,9.613c1.999,1.184,4.614,2.15,7.848,2.899
					c0.228,0.073,0.456,0.129,0.685,0.167l-7.378-21.443l-2.304,2.592L697.465,11.567z"/>
			</g>
		</g>
	</g>
</g>
<g>
	<g>
		<defs>
			<rect id="SVGID_59_" x="713" width="141.84" height="109.439"/>
		</defs>
		<clipPath id="SVGID_60_">
			<use xlink:href="#SVGID_59_"  overflow="visible"/>
		</clipPath>
		<g clip-path="url(#SVGID_60_)">
			<defs>
				<rect id="SVGID_61_" x="713" width="141.84" height="109.439"/>
			</defs>
			<clipPath id="SVGID_62_">
				<use xlink:href="#SVGID_61_"  overflow="visible"/>
			</clipPath>
			<path clip-path="url(#SVGID_62_)" fill-rule="evenodd" clip-rule="evenodd" fill="#8b191c" d="M746.7,24.75
				c5.767-2.333,12.783-4.567,21.05-6.7c9.333-2.4,18.666-4.25,28-5.55c4.2-0.567,12.433-1.017,24.7-1.35
				c9.966-0.233,17.5-1.084,22.6-2.55c0.667,0.133,2.067,3.533,4.2,10.2c2.2,6.666,2.85,10.133,1.95,10.4
				c-25.3,1.967-46.351,12.45-63.15,31.45c-8.399,9.5-14.267,18.8-17.6,27.9l-47.649,13.65c2.732-7.6,6.965-15.833,12.699-24.7
				c11.4-17.7,24.533-29.617,39.4-35.75c-7.968,0.933-14.917-1.684-20.851-7.85c-1.967-2.067-3.517-4.2-4.649-6.4
				C746.367,25.5,746.133,24.583,746.7,24.75"/>
		</g>
		<g clip-path="url(#SVGID_60_)">
			<defs>
				<rect id="SVGID_63_" x="713" width="141.84" height="109.439"/>
			</defs>
			<clipPath id="SVGID_64_">
				<use xlink:href="#SVGID_63_"  overflow="visible"/>
			</clipPath>
			<path clip-path="url(#SVGID_64_)" fill-rule="evenodd" clip-rule="evenodd" fill="#c61d23" d="M752.05,33.9
				c-1.966-2.067-3.517-4.2-4.649-6.4c-1.033-2-1.268-2.917-0.701-2.75c5.768-2.333,12.784-4.567,21.051-6.7
				c9.334-2.4,18.667-4.25,28-5.55c4.199-0.567,12.433-1.017,24.699-1.35c9.968-0.233,17.5-1.083,22.601-2.55
				c0.534,0.1,1.583,2.4,3.149,6.9c-5.133,1.1-11.532,1.95-19.199,2.55c-14.101,1.2-23.551,2.283-28.351,3.25
				c-10.633,2.067-21.25,4.783-31.85,8.15c-5.167,1.667-9.9,3.333-14.2,5C752.433,34.283,752.25,34.1,752.05,33.9"/>
		</g>
		<g clip-path="url(#SVGID_60_)">
			<defs>
				<rect id="SVGID_65_" x="713" width="141.84" height="109.439"/>
			</defs>
			<clipPath id="SVGID_66_">
				<use xlink:href="#SVGID_65_"  overflow="visible"/>
			</clipPath>
			<path clip-path="url(#SVGID_66_)" fill="none" stroke="#000000" stroke-width="2" stroke-miterlimit="3" d="M747.4,27.5
				c-1.033-2-1.268-2.917-0.701-2.75c5.768-2.333,12.783-4.567,21.051-6.7c9.334-2.4,18.667-4.25,28-5.55
				c4.199-0.567,12.433-1.017,24.699-1.35c9.968-0.233,17.5-1.084,22.601-2.55c0.667,0.133,2.066,3.533,4.2,10.2
				c2.199,6.666,2.85,10.133,1.949,10.4c-25.3,1.967-46.35,12.45-63.149,31.45c-8.4,9.5-14.268,18.8-17.601,27.9L720.8,102.2
				c2.733-7.6,6.968-15.833,12.7-24.7c11.4-17.7,24.532-29.617,39.399-35.75c-7.967,0.933-14.917-1.684-20.85-7.85
				C750.084,31.833,748.533,29.7,747.4,27.5z"/>
		</g>
		<g clip-path="url(#SVGID_60_)">
			<defs>
				<rect id="SVGID_67_" x="713" width="141.84" height="109.439"/>
			</defs>
			<clipPath id="SVGID_68_">
				<use xlink:href="#SVGID_67_"  overflow="visible"/>
			</clipPath>
			<g clip-path="url(#SVGID_68_)">
				<defs>
					
						<rect id="SVGID_69_" x="834.793" y="6.795" transform="matrix(-0.9997 -0.0253 0.0253 -0.9997 1685.145 59.5731)" width="16.313" height="24.669"/>
				</defs>
				<clipPath id="SVGID_70_">
					<use xlink:href="#SVGID_69_"  overflow="visible"/>
				</clipPath>
				<path clip-path="url(#SVGID_70_)" fill="none" stroke="#000000" stroke-width="2.1424" stroke-miterlimit="10" d="
					M839.465,11.567c-1.659,2.092-2.725,4.132-3.196,6.121c-1.1,4.106,0.351,7.311,4.348,9.613c1.999,1.184,4.614,2.15,7.848,2.899
					c0.228,0.073,0.456,0.129,0.685,0.167l-7.378-21.443l-2.304,2.592L839.465,11.567z"/>
			</g>
		</g>
	</g>
</g>
<g>
	<g>
		<defs>
			<rect id="SVGID_71_" x="855" width="141.84" height="109.439"/>
		</defs>
		<clipPath id="SVGID_72_">
			<use xlink:href="#SVGID_71_"  overflow="visible"/>
		</clipPath>
		<g clip-path="url(#SVGID_72_)">
			<defs>
				<rect id="SVGID_73_" x="855" width="141.84" height="109.439"/>
			</defs>
			<clipPath id="SVGID_74_">
				<use xlink:href="#SVGID_73_"  overflow="visible"/>
			</clipPath>
			<g clip-path="url(#SVGID_74_)">
				<defs>
					<rect id="SVGID_75_" x="867.75" y="8.949" width="122.85" height="93.101"/>
				</defs>
				<clipPath id="SVGID_76_">
					<use xlink:href="#SVGID_75_"  overflow="visible"/>
				</clipPath>
			</g>
		</g>
		<g clip-path="url(#SVGID_72_)">
			<defs>
				<rect id="SVGID_77_" x="855" width="141.84" height="109.439"/>
			</defs>
			<clipPath id="SVGID_78_">
				<use xlink:href="#SVGID_77_"  overflow="visible"/>
			</clipPath>
			<path clip-path="url(#SVGID_78_)" fill-rule="evenodd" clip-rule="evenodd" fill="#8b191c" d="M916.7,40.75
				c-3.233,0.733-6.768,0.783-10.601,0.15c-7.667-1.3-12.967-5.417-15.899-12.35c10.933-11.133,30.167-17.633,57.7-19.5
				c13.766-0.9,26.449-0.7,38.05,0.6l2.2,8.45c1.467,5.9,2.199,9.583,2.199,11.05c-19.3-1.233-37.649,8.816-55.05,30.15
				c-8.7,10.7-15.482,21.5-20.35,32.4c-6.534,0.067-13.55,0.65-21.05,1.75c-14.934,2.233-24.7,6.016-29.301,11.35
				c3.634-10.667,13.416-24.533,29.351-41.6C901.883,54.633,909.467,47.15,916.7,40.75"/>
			<path clip-path="url(#SVGID_78_)" fill-rule="evenodd" clip-rule="evenodd" fill="#c61d23" d="M984.674,8.571
				c-11.522-1.272-24.11-1.464-37.767-0.572c-27.533,1.867-46.768,8.367-57.7,19.5c1.439,3.401,3.451,6.12,6.029,8.166
				c10.992-8.944,28.219-14.785,51.723-17.504c13.584-1.538,26.153-1.943,37.715-1.222V8.571z"/>
			<path clip-path="url(#SVGID_78_)" fill="none" stroke="#000000" stroke-width="2" stroke-miterlimit="3" d="M916.7,40.75
				c-7.233,6.4-14.817,13.883-22.75,22.45c-15.935,17.067-25.717,30.933-29.351,41.6c4.601-5.334,14.367-9.117,29.301-11.35
				c7.5-1.1,14.516-1.683,21.05-1.75C919.817,80.8,926.6,70,935.3,59.3c17.4-21.334,35.75-31.383,55.05-30.15
				c0-1.467-0.732-5.15-2.199-11.05l-2.2-8.45c-11.601-1.3-24.284-1.5-38.05-0.6c-27.533,1.867-46.768,8.367-57.7,19.5
				c2.933,6.933,8.232,11.05,15.899,12.35C909.933,41.533,913.467,41.483,916.7,40.75z"/>
		</g>
		<g clip-path="url(#SVGID_72_)">
			<defs>
				<rect id="SVGID_79_" x="855" width="141.84" height="109.439"/>
			</defs>
			<clipPath id="SVGID_80_">
				<use xlink:href="#SVGID_79_"  overflow="visible"/>
			</clipPath>
			<g clip-path="url(#SVGID_80_)">
				<defs>
					
						<rect id="SVGID_81_" x="976.793" y="6.795" transform="matrix(-0.9997 -0.0253 0.0253 -0.9997 1969.0996 63.1647)" width="16.313" height="24.669"/>
				</defs>
				<clipPath id="SVGID_82_">
					<use xlink:href="#SVGID_81_"  overflow="visible"/>
				</clipPath>
				<path clip-path="url(#SVGID_82_)" fill="none" stroke="#000000" stroke-width="2.1424" stroke-miterlimit="10" d="
					M981.465,11.567c-1.659,2.092-2.725,4.132-3.196,6.121c-1.1,4.106,0.351,7.311,4.348,9.613c1.999,1.184,4.614,2.15,7.848,2.899
					c0.228,0.073,0.456,0.129,0.685,0.167l-7.378-21.443l-2.304,2.592L981.465,11.567z"/>
			</g>
		</g>
	</g>
</g>
<g>
	<g>
		<defs>
			<rect id="SVGID_83_" x="997" width="141.84" height="109.439"/>
		</defs>
		<clipPath id="SVGID_84_">
			<use xlink:href="#SVGID_83_"  overflow="visible"/>
		</clipPath>
		<g clip-path="url(#SVGID_84_)">
			<defs>
				<rect id="SVGID_85_" x="997" width="141.84" height="109.439"/>
			</defs>
			<clipPath id="SVGID_86_">
				<use xlink:href="#SVGID_85_"  overflow="visible"/>
			</clipPath>
			<path clip-path="url(#SVGID_86_)" fill-rule="evenodd" clip-rule="evenodd" fill="#8b191c" d="M1060.75,41.35
				c-5.8,2.2-11.717,1.733-17.75-1.4c-1.867-0.967-3.633-2.133-5.3-3.5l-1.95-1.8c0.633-1.467,1.833-3.233,3.6-5.3
				c3.5-4.133,8.084-7.75,13.75-10.85c18.067-9.9,43.417-12.667,76.05-8.3c0.268,0.5,1.167,4,2.7,10.5
				c0.768,3.267,1.518,6.467,2.25,9.6c-4.6-1-9.5-1.217-14.7-0.65c-10.366,1.167-17.017,5.75-19.949,13.75
				c-11.4,29.333-29.567,47.884-54.5,55.65c-7.767,2.433-15.767,3.633-24,3.6c-4.101,0-7.417-0.25-9.95-0.75
				C1039.5,65.8,1056.083,45.617,1060.75,41.35"/>
		</g>
		<g clip-path="url(#SVGID_84_)">
			<defs>
				<path id="SVGID_87_" d="M1053.102,18.5c-5.668,3.1-10.252,6.716-13.752,10.85c-1.766,2.066-2.966,3.833-3.6,5.3l1.951,1.8
					c1.667,1.366,3.433,2.533,5.3,3.5c6.033,3.133,11.95,3.6,17.75,1.4c-4.667,4.266-21.25,24.45-49.751,60.549
					c2.534,0.5,5.85,0.75,9.951,0.75c8.232,0.033,16.232-1.167,24-3.601c24.933-7.766,43.099-26.316,54.5-55.649
					c2.933-8,9.583-12.583,19.949-13.75c5.199-0.567,10.101-0.351,14.699,0.65c-0.731-3.133-1.482-6.334-2.25-9.6
					c-1.533-6.5-2.434-10-2.699-10.5c-9.988-1.337-19.294-2.005-27.918-2.005C1081.682,8.195,1065.637,11.63,1053.102,18.5"/>
			</defs>
			<clipPath id="SVGID_88_">
				<use xlink:href="#SVGID_87_"  overflow="visible"/>
			</clipPath>
			<path clip-path="url(#SVGID_88_)" fill-rule="evenodd" clip-rule="evenodd" fill="#c61d23" d="M1145.854,14.696
				c-33.627,1.373-64.729,8.496-93.307,21.369c-7.136,2.828-12.781,5.67-16.938,8.527c-5.588-2.453-8.725-5.477-9.406-9.071
				c-1.13-5.824,5.531-11.59,19.984-17.299c22.267-10.028,46.507-15.57,72.725-16.626c13.085-0.526,23.962-0.056,32.63,1.413
				l2.551,11.453C1151.437,14.514,1148.69,14.592,1145.854,14.696"/>
		</g>
		<g clip-path="url(#SVGID_84_)">
			<defs>
				<rect id="SVGID_89_" x="997" width="141.84" height="109.439"/>
			</defs>
			<clipPath id="SVGID_90_">
				<use xlink:href="#SVGID_89_"  overflow="visible"/>
			</clipPath>
			<g clip-path="url(#SVGID_90_)">
				<defs>
					
						<rect id="SVGID_91_" x="1118.793" y="6.795" transform="matrix(-0.9997 -0.0253 0.0253 -0.9997 2253.0542 66.7563)" width="16.313" height="24.669"/>
				</defs>
				<clipPath id="SVGID_92_">
					<use xlink:href="#SVGID_91_"  overflow="visible"/>
				</clipPath>
				<path clip-path="url(#SVGID_92_)" fill="none" stroke="#000000" stroke-width="2.1424" stroke-miterlimit="10" d="
					M1123.465,11.567c-1.659,2.092-2.725,4.132-3.196,6.121c-1.1,4.106,0.351,7.311,4.348,9.613c1.999,1.184,4.614,2.15,7.848,2.899
					c0.228,0.073,0.456,0.129,0.685,0.167l-7.378-21.443l-2.304,2.592L1123.465,11.567z"/>
			</g>
		</g>
		<g clip-path="url(#SVGID_84_)">
			<defs>
				<rect id="SVGID_93_" x="997" width="141.84" height="109.439"/>
			</defs>
			<clipPath id="SVGID_94_">
				<use xlink:href="#SVGID_93_"  overflow="visible"/>
			</clipPath>
			
				<path clip-path="url(#SVGID_94_)" fill="none" stroke="#000000" stroke-width="2" stroke-linecap="round" stroke-miterlimit="3" d="
				M1043,39.95c6.033,3.133,11.95,3.6,17.75,1.4c-4.667,4.267-21.25,24.45-49.75,60.55c2.533,0.5,5.85,0.75,9.95,0.75
				c8.233,0.033,16.233-1.167,24-3.6c24.933-7.767,43.1-26.317,54.5-55.65c2.933-8,9.583-12.583,19.949-13.75
				c5.2-0.567,10.101-0.35,14.7,0.65c-0.732-3.133-1.482-6.333-2.25-9.6c-1.533-6.5-2.433-10-2.7-10.5
				c-32.633-4.367-57.982-1.6-76.05,8.3c-5.666,3.1-10.25,6.717-13.75,10.85c-1.767,2.067-2.967,3.833-3.6,5.3l1.95,1.8
				C1039.367,37.817,1041.133,38.983,1043,39.95z"/>
		</g>
	</g>
</g>
<g>
	<g>
		<defs>
			<rect id="SVGID_95_" x="1140" width="141.84" height="109.439"/>
		</defs>
		<clipPath id="SVGID_96_">
			<use xlink:href="#SVGID_95_"  overflow="visible"/>
		</clipPath>
		<g clip-path="url(#SVGID_96_)">
			<defs>
				<rect id="SVGID_97_" x="1140" width="141.84" height="109.439"/>
			</defs>
			<clipPath id="SVGID_98_">
				<use xlink:href="#SVGID_97_"  overflow="visible"/>
			</clipPath>
			<path clip-path="url(#SVGID_98_)" fill-rule="evenodd" clip-rule="evenodd" fill="#8b191c" d="M1210.15,41.25
				c-8.4,1.566-16.15-0.05-23.25-4.85c-2.201-1.5-4.217-3.233-6.051-5.2l-2.05-2.5c7.968-2.833,14.7-5.55,20.2-8.15
				c0.867-0.4,3.417-1.767,7.65-4.1c3.832-2.1,6.282-3.367,7.35-3.8c8.8-3.633,17.566-5.934,26.3-6.9
				c10.6-1.2,20.534-0.317,29.8,2.65c0.767,2.933,1.984,7.05,3.65,12.35c1.334,4.333,2.399,7.683,3.199,10.05
				c-6.467-1-14.032,0.083-22.699,3.25c-3.934,1.467-7.801,6.067-11.601,13.8c-2,4.1-4.149,9.283-6.45,15.55
				c-9.267,21.767-24.949,34.8-47.049,39.1c-11.033,2.133-21.15,2.1-30.351-0.101c7.767-5.267,15.733-11.767,23.899-19.5
				C1199,67.433,1208.15,53.55,1210.15,41.25"/>
		</g>
		<g clip-path="url(#SVGID_96_)">
			<defs>
				<rect id="SVGID_99_" x="1140" width="141.84" height="109.439"/>
			</defs>
			<clipPath id="SVGID_100_">
				<use xlink:href="#SVGID_99_"  overflow="visible"/>
			</clipPath>
			<path clip-path="url(#SVGID_100_)" fill-rule="evenodd" clip-rule="evenodd" fill="#c61d23" d="M1201.35,33.15
				c-3.899,1.833-8.267,3.733-13.1,5.7c-0.4-0.233-0.783-0.483-1.15-0.75c-2.199-1.5-4.217-3.233-6.049-5.2L1179,30.4
				c7.967-2.833,14.7-5.55,20.2-8.15c0.866-0.4,3.417-1.767,7.649-4.1c3.834-2.1,6.283-3.367,7.351-3.8
				c8.8-3.634,17.566-5.933,26.3-6.9c10.6-1.2,20.533-0.317,29.8,2.65c0.333,1.2,0.733,2.616,1.2,4.25
				c-6-0.5-12.2-0.384-18.601,0.35c-10.899,1.2-21.85,4.067-32.85,8.6c-1.3,0.533-4.35,2.117-9.149,4.75
				C1205.633,30.95,1202.45,32.65,1201.35,33.15"/>
		</g>
		<g clip-path="url(#SVGID_96_)">
			<defs>
				<rect id="SVGID_101_" x="1140" width="141.84" height="109.439"/>
			</defs>
			<clipPath id="SVGID_102_">
				<use xlink:href="#SVGID_101_"  overflow="visible"/>
			</clipPath>
			
				<path clip-path="url(#SVGID_102_)" fill="none" stroke="#000000" stroke-width="2" stroke-linecap="round" stroke-miterlimit="3" d="
				M1199,20.55c-5.5,2.6-12.232,5.317-20.2,8.15l2.05,2.5c1.834,1.967,3.851,3.7,6.051,5.2c7.1,4.8,14.85,6.417,23.25,4.85
				c-2,12.3-11.15,26.183-27.45,41.65c-8.167,7.733-16.134,14.233-23.9,19.5c9.2,2.2,19.317,2.233,30.351,0.101
				c22.1-4.3,37.782-17.333,47.05-39.1c2.3-6.267,4.449-11.45,6.449-15.55c3.801-7.733,7.667-12.333,11.601-13.8
				c8.667-3.167,16.232-4.25,22.7-3.25c-0.801-2.367-1.867-5.717-3.2-10.05c-1.667-5.3-2.883-9.417-3.65-12.35
				c-9.267-2.967-19.2-3.85-29.8-2.65c-8.733,0.967-17.5,3.267-26.3,6.9c-1.067,0.433-3.518,1.7-7.35,3.8
				C1202.417,18.783,1199.867,20.15,1199,20.55z"/>
		</g>
		<g clip-path="url(#SVGID_96_)">
			<defs>
				<rect id="SVGID_103_" x="1140" width="141.84" height="109.439"/>
			</defs>
			<clipPath id="SVGID_104_">
				<use xlink:href="#SVGID_103_"  overflow="visible"/>
			</clipPath>
			<g clip-path="url(#SVGID_104_)">
				<defs>
					
						<rect id="SVGID_105_" x="1261.793" y="6.795" transform="matrix(-0.9997 -0.0253 0.0253 -0.9997 2539.0083 70.3731)" width="16.313" height="24.669"/>
				</defs>
				<clipPath id="SVGID_106_">
					<use xlink:href="#SVGID_105_"  overflow="visible"/>
				</clipPath>
				<path clip-path="url(#SVGID_106_)" fill="none" stroke="#000000" stroke-width="2.1424" stroke-miterlimit="10" d="
					M1266.465,11.567c-1.659,2.092-2.725,4.132-3.196,6.121c-1.1,4.106,0.351,7.311,4.348,9.613c1.999,1.184,4.614,2.15,7.848,2.899
					c0.228,0.073,0.456,0.129,0.685,0.167l-7.378-21.443l-2.304,2.592L1266.465,11.567z"/>
			</g>
		</g>
	</g>
</g>
<g>
	<g>
		<defs>
			<rect id="SVGID_107_" x="1283" width="141.84" height="109.439"/>
		</defs>
		<clipPath id="SVGID_108_">
			<use xlink:href="#SVGID_107_"  overflow="visible"/>
		</clipPath>
		<g clip-path="url(#SVGID_108_)">
			<defs>
				<rect id="SVGID_109_" x="1283" width="141.84" height="109.439"/>
			</defs>
			<clipPath id="SVGID_110_">
				<use xlink:href="#SVGID_109_"  overflow="visible"/>
			</clipPath>
			<path clip-path="url(#SVGID_110_)" fill-rule="evenodd" clip-rule="evenodd" fill="#8b191c" d="M1351.95,15.8
				c3.5-2.267,7.2-4.217,11.1-5.85c4.768-2.067,9.783-3.567,15.05-4.5c6.367-1.067,12.783-1.217,19.25-0.45
				c5.333,0.733,10.551,2,15.65,3.8c0.567,1.667,1.166,3.333,1.8,5c0.966,2.633,1.817,5.317,2.55,8.05
				c0.566,2.1,1.083,4.167,1.551,6.2c0.133,0.633,0.083,1.233-0.15,1.8c-2.367-0.3-4.75-0.467-7.15-0.5
				c-6.6-0.333-12.649,1.25-18.149,4.75c-1.9,1.267-3.534,2.833-4.9,4.7c-1.732,2.433-3.05,5.083-3.95,7.95
				c-1.399,4.633-2.6,9.367-3.6,14.2c-0.433,2.1-0.9,4.2-1.4,6.3c-0.532,2.133-1.066,4.233-1.6,6.3c-0.3,1.267-0.617,2.567-0.95,3.9
				c-0.232,0.933-0.534,1.833-0.899,2.7c-0.601,1.567-1.317,3.167-2.15,4.8c-0.5,1.033-1.084,1.9-1.75,2.6
				c-1.967,2-4.1,3.917-6.4,5.75c-2.267,1.833-4.667,3.383-7.199,4.65c-1.768,0.8-3.533,1.6-5.301,2.4c-2.334,1-4.75,1.867-7.25,2.6
				c-2.6,0.667-5.232,1.101-7.899,1.301c-3.467,0.467-6.935,0.667-10.399,0.6c-5.035-0.067-10.018-0.55-14.951-1.45
				c-2.334-0.333-4.633-0.899-6.899-1.7c2.601-1.632,5.2-3.25,7.8-4.85c2.9-1.833,5.7-3.767,8.4-5.8c2.699-2,5.217-4.117,7.55-6.35
				c2.267-2.233,4.417-4.6,6.45-7.1c1.365-1.633,2.683-3.283,3.949-4.95c3.334-4.467,6.134-9.233,8.4-14.3
				c2.367-5.333,4.033-10.85,5-16.55c-1.167,0.3-2.35,0.35-3.55,0.15c-3.8,0-7.55-0.367-11.25-1.1
				c-3.667-0.767-7.233-1.867-10.7-3.3c1.633-2.033,3.283-4.05,4.95-6.05c2.633-3.1,5.533-5.883,8.7-8.35
				C1344.916,20.517,1348.35,18.067,1351.95,15.8"/>
			<path clip-path="url(#SVGID_110_)" fill-rule="evenodd" clip-rule="evenodd" fill="#c61d23" d="M1352.2,15.8
				c3.5-2.267,7.2-4.217,11.1-5.85c4.768-2.067,9.783-3.567,15.05-4.5c6.367-1.067,12.783-1.217,19.25-0.45
				c5.333,0.733,10.551,2,15.65,3.8c0.567,1.667,1.166,3.333,1.8,5c0.667,1.8,1.283,3.617,1.851,5.45
				c-4.635-1.5-9.333-2.583-14.101-3.25c-6.467-0.767-12.884-0.617-19.25,0.45c-5.267,0.933-10.284,2.433-15.05,4.5
				c-3.9,1.633-7.6,3.583-11.1,5.85c-3.6,2.267-7.033,4.717-10.301,7.35c-2.633,2.067-5.084,4.35-7.35,6.85
				c-0.267-0.033-0.533-0.083-0.8-0.15c-3.667-0.767-7.233-1.867-10.7-3.3c1.633-2.033,3.283-4.05,4.95-6.05
				c2.633-3.1,5.533-5.883,8.7-8.35C1345.166,20.517,1348.6,18.067,1352.2,15.8"/>
		</g>
		<g clip-path="url(#SVGID_108_)">
			<defs>
				<rect id="SVGID_111_" x="1283" width="141.84" height="109.439"/>
			</defs>
			<clipPath id="SVGID_112_">
				<use xlink:href="#SVGID_111_"  overflow="visible"/>
			</clipPath>
			
				<path clip-path="url(#SVGID_112_)" fill="none" stroke="#000000" stroke-width="2" stroke-linecap="round" stroke-miterlimit="3" d="
				M1353.5,41.8c-0.967,5.7-2.633,11.217-5,16.55c-2.268,5.067-5.066,9.833-8.4,14.3c-1.267,1.667-2.582,3.317-3.949,4.95
				c-2.033,2.5-4.184,4.867-6.45,7.1c-2.333,2.233-4.851,4.35-7.55,6.35c-2.7,2.033-5.5,3.967-8.4,5.8c-2.6,1.6-5.2,3.217-7.8,4.85
				c2.267,0.801,4.567,1.367,6.899,1.7c4.934,0.9,9.918,1.383,14.95,1.45c3.468,0.067,6.933-0.133,10.4-0.6
				c2.667-0.2,5.3-0.634,7.899-1.301c2.5-0.732,4.918-1.6,7.25-2.6c1.768-0.8,3.533-1.6,5.3-2.4c2.533-1.267,4.934-2.817,7.2-4.65
				c2.3-1.833,4.434-3.75,6.4-5.75c0.667-0.7,1.25-1.567,1.75-2.6c0.833-1.633,1.55-3.233,2.149-4.8
				c0.367-0.867,0.667-1.767,0.9-2.7c0.333-1.333,0.65-2.633,0.95-3.9c0.533-2.067,1.066-4.167,1.6-6.3c0.5-2.1,0.967-4.2,1.4-6.3
				c1-4.833,2.2-9.567,3.6-14.2c0.9-2.867,2.217-5.517,3.95-7.95c1.367-1.867,3-3.433,4.9-4.7c5.5-3.5,11.55-5.083,18.149-4.75
				c2.4,0.033,4.783,0.2,7.15,0.5c0.033-0.08,0.065-0.164,0.1-0.25c0.148-0.49,0.165-1.007,0.05-1.55
				c-0.467-2.033-0.982-4.1-1.55-6.2c-0.732-2.733-1.583-5.417-2.55-8.05c-0.633-1.667-1.233-3.333-1.8-5
				c-0.132-0.047-0.267-0.097-0.4-0.15c-0.042-0.015-0.084-0.031-0.125-0.05c-4.933-1.692-9.975-2.892-15.125-3.6
				c-6.467-0.767-12.883-0.617-19.25,0.45c-5.267,0.933-10.283,2.433-15.05,4.5c-3.9,1.633-7.6,3.583-11.1,5.85
				c-3.601,2.267-7.033,4.717-10.3,7.35c-3.168,2.467-6.067,5.25-8.7,8.35c-1.667,2-3.317,4.017-4.95,6.05
				c3.467,1.433,7.033,2.533,10.7,3.3c3.7,0.733,7.45,1.1,11.25,1.1C1351.15,42.15,1352.333,42.1,1353.5,41.8z"/>
		</g>
		<g clip-path="url(#SVGID_108_)">
			<defs>
				<rect id="SVGID_113_" x="1283" width="141.84" height="109.439"/>
			</defs>
			<clipPath id="SVGID_114_">
				<use xlink:href="#SVGID_113_"  overflow="visible"/>
			</clipPath>
			<g clip-path="url(#SVGID_114_)">
				<defs>
					
						<rect id="SVGID_115_" x="1404.793" y="6.795" transform="matrix(-0.9997 -0.0253 0.0253 -0.9997 2824.9624 73.99)" width="16.313" height="24.669"/>
				</defs>
				<clipPath id="SVGID_116_">
					<use xlink:href="#SVGID_115_"  overflow="visible"/>
				</clipPath>
				<path clip-path="url(#SVGID_116_)" fill="none" stroke="#000000" stroke-width="2.1424" stroke-miterlimit="10" d="
					M1409.465,11.567c-1.659,2.092-2.725,4.132-3.196,6.121c-1.1,4.106,0.351,7.311,4.348,9.613c1.999,1.184,4.614,2.15,7.848,2.899
					c0.228,0.073,0.456,0.129,0.685,0.167l-7.378-21.443l-2.304,2.592L1409.465,11.567z"/>
			</g>
		</g>
	</g>
</g>
</svg>
